<svg width="20" height="20" viewBox="0 0 20 20" fill="none" xmlns="http://www.w3.org/2000/svg">
    <path fill-rule="evenodd" clip-rule="evenodd"
        d="M15.8333 20H4.16667C1.86667 20 0 18.1333 0 15.8333V4.16667C0 1.86667 1.86667 0 4.16667 0H15.8333C18.1333 0 20 1.86667 20 4.16667V15.8333C20 18.1333 18.1333 20 15.8333 20Z"
        fill="white" />
    <path
        d="M9.12502 13.5416C8.85835 13.5416 8.60002 13.4416 8.39168 13.2416L5.09168 9.99996C4.68335 9.59996 4.67502 8.93329 5.07502 8.52496C5.48335 8.11663 6.14168 8.10829 6.55002 8.50829L9.11668 11.0333L13.4417 6.75829C13.85 6.34996 14.5083 6.35829 14.9167 6.76663C15.325 7.17496 15.3167 7.83329 14.9083 8.24163L9.85002 13.2416C9.65001 13.4416 9.38335 13.5416 9.12502 13.5416Z"
        fill="#349754" />
</svg>    