<svg width="22" height="25" viewBox="0 0 22 25" fill="none" xmlns="http://www.w3.org/2000/svg">
    <path
        d="M19.5326 0H2.33686C1.0876 0 0 1.0876 0 2.33686V22.6484C0 23.8977 1.0876 24.9853 2.33686 24.9853H19.5179C20.7672 24.9853 21.8548 23.8977 21.8548 22.6484V2.33686C21.8548 1.0876 20.7672 0 19.5179 0H19.5326ZM6.24633 21.2522C6.24633 21.5608 5.93768 21.8842 5.61434 21.8842H3.7331C3.42446 21.8842 3.10112 21.5755 3.10112 21.2522V19.371C3.10112 19.0623 3.40976 18.739 3.7331 18.739H5.61434C5.92299 18.739 6.24633 19.0476 6.24633 19.371V21.2522ZM6.24633 15.0059C6.24633 15.3145 5.93768 15.6379 5.61434 15.6379H3.7331C3.42446 15.6379 3.10112 15.3292 3.10112 15.0059V13.1246C3.10112 12.816 3.40976 12.4927 3.7331 12.4927H5.61434C5.92299 12.4927 6.24633 12.8013 6.24633 13.1246V15.0059ZM12.4927 21.2522C12.4927 21.5608 12.184 21.8842 11.8607 21.8842H9.97942C9.67078 21.8842 9.34744 21.5755 9.34744 21.2522V19.371C9.34744 19.0623 9.65608 18.739 9.97942 18.739H11.8607C12.1693 18.739 12.4927 19.0476 12.4927 19.371V21.2522ZM12.4927 15.0059C12.4927 15.3145 12.184 15.6379 11.8607 15.6379H9.97942C9.67078 15.6379 9.34744 15.3292 9.34744 15.0059V13.1246C9.34744 12.816 9.65608 12.4927 9.97942 12.4927H11.8607C12.1693 12.4927 12.4927 12.8013 12.4927 13.1246V15.0059ZM18.739 21.2522C18.739 21.5608 18.4303 21.8842 18.107 21.8842H16.2257C15.9171 21.8842 15.5938 21.5755 15.5938 21.2522V13.1246C15.5938 12.816 15.9024 12.4927 16.2257 12.4927H18.107C18.4156 12.4927 18.739 12.8013 18.739 13.1246V21.2522ZM18.739 8.75955C18.739 9.0682 18.4303 9.39153 18.107 9.39153H3.7478C3.43915 9.39153 3.11581 9.08289 3.11581 8.75955V3.76249C3.11581 3.45385 3.42446 3.13051 3.7478 3.13051H18.1217C18.4303 3.13051 18.7537 3.43915 18.7537 3.76249V8.75955H18.739Z"
        fill="#137332" />
</svg>    