<svg width="22" height="20" viewBox="0 0 22 20" fill="none" xmlns="http://www.w3.org/2000/svg">
    <g clip-path="url(#clip0_1064_2525)">
        <path fill-rule="evenodd" clip-rule="evenodd"
            d="M17.7671 20H8.18368C6.7727 20 5.45203 19.3 4.66188 18.1444L0.711134 12.3111C-0.237045 10.9111 -0.237045 9.08889 0.711134 7.68889L4.66188 1.85556C5.45203 0.7 6.7727 0 8.18368 0H17.7671C20.1036 0 22 1.86667 22 4.16667V15.8333C22 18.1333 20.1036 20 17.7671 20Z"
            fill="white" />
        <path
            d="M13.9405 9.86672L16.8189 7.03338C17.1914 6.66672 17.1914 6.06672 16.8189 5.70005C16.4464 5.33338 15.8369 5.33338 15.4644 5.70005L12.586 8.53338L9.70755 5.70005C9.33506 5.33338 8.72551 5.33338 8.35301 5.70005C7.98051 6.06672 7.98051 6.66672 8.35301 7.03338L11.2314 9.86672L8.35301 12.7C7.98051 13.0667 7.98051 13.6667 8.35301 14.0334C8.54491 14.2223 8.78195 14.3112 9.03028 14.3112C9.27862 14.3112 9.51566 14.2223 9.70755 14.0334L12.586 11.2L15.4644 14.0334C15.6562 14.2223 15.8933 14.3112 16.1416 14.3112C16.39 14.3112 16.627 14.2223 16.8189 14.0334C17.1914 13.6667 17.1914 13.0667 16.8189 12.7L13.9405 9.86672Z"
            fill="#B2CDAD" />
    </g>
    <defs>
        <clipPath id="clip0_1064_2525">
            <rect width="22" height="20" fill="white" />
        </clipPath>
    </defs>
</svg>    