<svg xmlns="http://www.w3.org/2000/svg" width="48" height="48"
    fill="none" viewBox="0 0 48 48">
    <path fill="#137332"
        d="M12 0h24a12 12 0 0 1 12 12v24a12 12 0 0 1-12 12H12A12 12 0 0 1 0 36V12A12 12 0 0 1 12 0" />
    <path fill="#fff"
        d="M40.875 13.875H37.5a1.12 1.12 0 0 0-.799.326l-1.912 1.924H33V15a3.375 3.375 0 0 0-3.375-3.375H9.375A3.375 3.375 0 0 0 6 15v18a3.375 3.375 0 0 0 3.375 3.375h20.25A3.375 3.375 0 0 0 33 33v-1.125h1.789l1.923 1.924c.21.208.493.325.788.326h3.375A1.125 1.125 0 0 0 42 33V15a1.125 1.125 0 0 0-1.125-1.125m-1.125 18h-1.789l-1.923-1.924a1.13 1.13 0 0 0-.788-.326h-3.375a1.125 1.125 0 0 0-1.125 1.125V33a1.125 1.125 0 0 1-1.125 1.125H9.375A1.125 1.125 0 0 1 8.25 33V15a1.125 1.125 0 0 1 1.125-1.125h20.25A1.125 1.125 0 0 1 30.75 15v11.25H33v-7.875h2.25a1.12 1.12 0 0 0 .799-.326l1.912-1.924h1.789z" />
</svg>