<svg width="34" height="23" viewBox="0 0 34 23" fill="none" xmlns="http://www.w3.org/2000/svg">
    <g clip-path="url(#clip0_330_3712)">
        <path
            d="M22.6331 15.2846V2.04041H4.21783C4.21783 2.47581 4.21783 2.92021 4.21783 3.36462C4.21783 3.66435 4.2298 3.96546 4.21251 4.2645C4.18725 4.70267 3.90473 4.98994 3.51916 4.99825C3.11366 5.00725 2.79922 4.72482 2.79125 4.27073C2.77263 3.26771 2.76998 2.2633 2.79258 1.26028C2.80255 0.779884 3.109 0.54453 3.63084 0.543838C7.10955 0.542454 10.5883 0.542454 14.067 0.542454C17.0026 0.542454 19.9388 0.542454 22.8744 0.542454C24.4247 0.542454 25.9749 0.552837 27.5244 0.536224C27.9758 0.531378 28.2424 0.719661 28.4179 1.14399C29.1179 2.83438 29.8285 4.52062 30.5504 6.20132C30.6349 6.39721 30.7904 6.5855 30.9586 6.71079C31.624 7.2078 32.3048 7.68197 32.9848 8.15821C33.6642 8.63446 33.9953 9.30244 33.9959 10.1456C33.9999 13.0529 33.9992 15.9595 33.9959 18.8668C33.9959 19.4496 33.7147 19.7321 33.1543 19.7334C32.4789 19.7355 31.8035 19.7334 31.1088 19.7334C30.5671 21.4937 29.4423 22.5521 27.6388 22.5286C25.8964 22.5058 24.8036 21.4647 24.2777 19.7549H12.5673C12.0115 21.5166 10.8814 22.5335 9.0726 22.5348C7.58087 22.5362 6.17489 21.4958 5.7295 19.6628C5.30538 19.6628 4.87462 19.6649 4.44385 19.6628C3.88877 19.6594 3.62486 19.3901 3.62154 18.8204C3.61755 18.1538 3.62087 17.4879 3.62087 16.8088C3.52648 16.7915 3.46332 16.7784 3.40017 16.768C2.99068 16.7008 2.76466 16.451 2.76133 16.0252C2.75469 15.079 2.75469 14.1334 2.76133 13.1872C2.76399 12.7421 3.05981 12.425 3.45335 12.4181C3.85686 12.4112 4.16 12.7372 4.16465 13.2017C4.1713 13.8905 4.16664 14.5792 4.16664 15.2832H22.6324L22.6331 15.2846ZM24.0876 2.0141V15.2749H32.5494C32.5547 15.1593 32.5627 15.0686 32.5627 14.9772C32.5627 13.3858 32.5547 11.7944 32.568 10.203C32.5713 9.79945 32.4224 9.53503 32.106 9.31767C31.3668 8.81097 30.6296 8.29942 29.9163 7.75465C29.6889 7.5809 29.4782 7.32686 29.3618 7.06036C28.6732 5.47864 28.017 3.8817 27.3396 2.29514C27.2911 2.18162 27.1608 2.02726 27.0664 2.02518C26.0819 2.00511 25.0967 2.01272 24.087 2.01272L24.0876 2.0141ZM24.785 16.7894H12.0394C12.2023 17.1944 12.3944 17.5723 12.5021 17.9752C12.5726 18.2403 12.6836 18.2832 12.9123 18.2826C16.4003 18.2763 19.8876 18.2784 23.3757 18.2784C23.6083 18.2784 23.841 18.2874 24.073 18.2736C24.1468 18.2694 24.2598 18.223 24.2824 18.1656C24.4592 17.7136 24.6188 17.2539 24.7856 16.7894H24.785ZM9.16567 21.0583C10.3051 21.0549 11.2078 20.1142 11.2078 18.9291C11.2078 17.7246 10.2911 16.7721 9.14306 16.7846C8.00033 16.7971 7.09559 17.7371 7.09094 18.9173C7.08629 20.1031 8.01496 21.0625 9.165 21.059L9.16567 21.0583ZM27.7026 21.0583C28.834 21.0556 29.7527 20.101 29.7534 18.9277C29.7541 17.735 28.8221 16.7715 27.6787 16.7846C26.5339 16.7971 25.6339 17.735 25.6319 18.9173C25.6299 20.1135 26.5466 21.0611 27.7019 21.0583H27.7026ZM32.5368 18.2611V16.7957H30.5863C30.7545 17.2352 30.9127 17.6609 31.0823 18.0825C31.1108 18.1531 31.186 18.2514 31.2425 18.2535C31.6706 18.268 32.0993 18.2611 32.5368 18.2611ZM5.04812 16.7784V18.167H5.69826C5.89436 17.6983 6.08582 17.2415 6.27993 16.7784H5.04812Z"
            fill="black" />
        <path
            d="M3.56359 6.45383C4.47099 6.45383 5.37773 6.45037 6.28513 6.45522C6.75379 6.45799 7.06091 6.73141 7.08617 7.14882C7.10877 7.52262 6.89871 7.82511 6.54705 7.90956C6.44069 7.93518 6.32834 7.94625 6.21866 7.94625C4.42645 7.94833 2.63425 7.9504 0.842048 7.94625C0.337492 7.94487 0.0110933 7.65344 -0.000207666 7.21735C-0.0115086 6.77779 0.319544 6.45868 0.80881 6.45591C1.72685 6.45037 2.64555 6.45453 3.56359 6.45453V6.45383Z"
            fill="black" />
        <path
            d="M3.55205 10.8861C3.08738 10.8861 2.62271 10.893 2.15804 10.884C1.70134 10.875 1.41948 10.576 1.42946 10.1323C1.4381 9.71557 1.73192 9.42415 2.16734 9.42138C3.08538 9.41584 4.00408 9.41653 4.92212 9.42138C5.3622 9.42346 5.68261 9.74326 5.68062 10.1586C5.67862 10.5601 5.36951 10.8736 4.94605 10.882C4.48139 10.891 4.01672 10.884 3.55205 10.884C3.55205 10.8847 3.55205 10.8854 3.55205 10.8868V10.8861Z"
            fill="black" />
    </g>
    <defs>
        <clipPath id="clip0_330_3712">
            <rect width="34" height="22" fill="white" transform="translate(0 0.536865)" />
        </clipPath>
    </defs>
</svg>    