<svg width="34" height="25" viewBox="0 0 34 25" fill="none" xmlns="http://www.w3.org/2000/svg">
    <g clip-path="url(#clip0_330_3684)">
        <path
            d="M16.9149 24.9604C12.5721 24.9604 8.22648 24.9689 3.88371 24.9576C1.40495 24.9519 0.0111864 23.5695 0.0055207 21.1134C-0.00581075 15.3995 -0.00297789 9.68847 0.0055207 3.97459C0.0111864 1.51 1.37663 0.0680751 3.83838 0.0595765C12.6203 0.0312479 21.4021 0.0312479 30.184 0.0595765C32.6174 0.0680751 33.9914 1.53266 33.9942 4.00292C34.0027 9.66864 34.0027 15.3344 33.9942 21.0001C33.9914 23.629 32.6259 24.9604 29.946 24.9633C25.6033 24.9689 21.2576 24.9633 16.9149 24.9633V24.9604ZM2.27181 8.54683C2.27181 12.9094 2.26048 17.1049 2.27748 21.2975C2.28314 22.3995 2.99136 22.7026 3.98286 22.7026C12.6656 22.6913 21.3455 22.6856 30.0282 22.7026C31.3341 22.7055 31.7534 22.0737 31.7421 20.8584C31.7109 17.0369 31.7336 13.2154 31.7251 9.39385C31.7251 9.12473 31.6627 8.85844 31.6231 8.544H2.27181V8.54683ZM31.6741 6.16439C31.6996 5.7338 31.7279 5.45334 31.7307 5.17289C31.7704 2.42218 31.6599 2.31737 28.895 2.31737C21.1103 2.31737 13.3256 2.31737 5.5381 2.31737C2.18966 2.31737 2.13017 2.37969 2.28314 5.7253C2.28881 5.85278 2.36813 5.98026 2.43328 6.16156H31.6712L31.6741 6.16439Z"
            fill="black" />
        <path
            d="M13.6316 15.9745C11.5155 15.9745 9.39931 15.9689 7.28316 15.9745C6.46447 15.9745 5.59761 15.8159 5.76192 14.8329C5.83557 14.3909 6.70243 13.7791 7.21801 13.7677C11.4475 13.6799 15.6826 13.7196 19.9149 13.7167C20.7421 13.7167 21.5155 13.9037 21.49 14.8924C21.4616 15.898 20.6429 15.9802 19.8412 15.9774C17.7733 15.9689 15.7024 15.9774 13.6344 15.9745H13.6316Z"
            fill="black" />
        <path
            d="M26.0226 15.9661C25.6968 15.9661 25.3002 16.0823 25.0566 15.9406C24.5949 15.6687 24.2209 15.2466 23.813 14.8868C24.2039 14.5015 24.5325 13.9151 24.9971 13.7763C25.6402 13.5837 26.4221 13.5922 27.0708 13.7763C27.5439 13.9095 27.9008 14.4619 28.3116 14.8273C27.8753 15.2069 27.4759 15.646 26.9886 15.9435C26.7507 16.0879 26.3512 15.969 26.0226 15.969V15.9661Z"
            fill="black" />
    </g>
    <defs>
        <clipPath id="clip0_330_3684">
            <rect width="34" height="24.9263" fill="white" transform="translate(0 0.0368652)" />
        </clipPath>
    </defs>
</svg>    