<svg width="27" height="25" viewBox="0 0 27 25" fill="none" xmlns="http://www.w3.org/2000/svg">
    <g clip-path="url(#clip0_104_419)">
        <path
            d="M5.65824 5.08525V0.338043L0.352539 5.65844H5.08505C5.40839 5.65844 5.65824 5.39389 5.65824 5.08525Z"
            fill="#137332" />
        <path
            d="M17.137 18.4156L15.9612 14.9912C15.8583 14.7119 15.873 14.4033 15.9906 14.1387L18.1952 9.0241V1.76367C18.1952 0.793651 17.4015 0 16.4315 0H6.83422V5.08524C6.83422 6.05526 6.04056 6.83422 5.08524 6.83422H0V23.2216C0 24.1917 0.793651 24.9853 1.76367 24.9853H16.4315C17.4015 24.9853 18.1952 24.1917 18.1952 23.2216V19.2093C17.7102 19.1946 17.284 18.8713 17.1223 18.4156H17.137ZM10.7437 20.9289H9.0241C8.05409 20.9289 7.24574 20.194 7.14286 19.2387L4.7766 20.826C4.51205 21.0024 4.14462 20.9436 3.95356 20.6643C3.76249 20.3851 3.83598 20.0323 4.11523 19.8413L6.73133 18.0776C7.20165 17.769 7.81893 17.8865 8.14227 18.3568C8.25985 18.5185 8.31864 18.7243 8.31864 18.9153V19.0329C8.31864 19.4297 8.64198 19.7384 9.0241 19.7384H10.7437C11.067 19.7384 11.3463 19.9882 11.3463 20.3116C11.3463 20.6349 11.0964 20.9142 10.7731 20.9142C10.7731 20.9142 10.7584 20.9142 10.7437 20.9142V20.9289ZM10.7437 15.7995H3.99765C3.67431 15.7995 3.39506 15.5497 3.39506 15.2263C3.39506 14.903 3.64491 14.6238 3.96825 14.6238C3.96825 14.6238 3.98295 14.6238 3.99765 14.6238H10.7437C11.067 14.6238 11.3316 14.903 11.3169 15.2263C11.3169 15.535 11.0523 15.7995 10.7437 15.7995ZM14.1975 20.9289H13.1099C12.7866 20.9289 12.522 20.6496 12.5367 20.3263C12.5367 20.0176 12.8013 19.7531 13.1099 19.7531H14.1975C14.5209 19.7531 14.7854 20.0323 14.7707 20.3557C14.7707 20.6643 14.5062 20.9289 14.1975 20.9289ZM14.1975 12.8748H3.99765C3.67431 12.8748 3.39506 12.6249 3.39506 12.3016C3.39506 11.9782 3.64491 11.699 3.96825 11.699C3.96825 11.699 3.98295 11.699 3.99765 11.699H14.1975C14.5209 11.699 14.8001 11.9489 14.8001 12.2722C14.8001 12.5955 14.5503 12.8748 14.2269 12.8748C14.2269 12.8748 14.2122 12.8748 14.1975 12.8748ZM14.1975 9.95003H3.99765C3.67431 9.95003 3.39506 9.70018 3.39506 9.37684C3.39506 9.0535 3.64491 8.77425 3.96825 8.77425C3.96825 8.77425 3.98295 8.77425 3.99765 8.77425H14.1975C14.5209 8.77425 14.8001 9.0241 14.8001 9.34744C14.8001 9.67078 14.5503 9.95003 14.2269 9.95003C14.2269 9.95003 14.2122 9.95003 14.1975 9.95003Z"
            fill="#137332" />
        <path
            d="M24.8089 2.88065C23.5743 2.35155 22.134 2.91005 21.6049 4.15931L21.4873 4.43856L25.97 6.37859L26.0875 6.09935C26.6166 4.86478 26.0581 3.42445 24.8089 2.89535V2.88065Z"
            fill="#137332" />
        <path d="M17.666 13.2569L22.1487 15.1969L25.4996 7.45149L21.017 5.51146L17.666 13.2569Z"
            fill="#137332" />
        <path
            d="M17.1957 14.3445L17.0781 14.609L18.2539 18.0335L21.5608 16.5491L21.6784 16.2845L17.1957 14.3445Z"
            fill="#137332" />
    </g>
    <defs>
        <clipPath id="clip0_104_419">
            <rect width="26.2934" height="25" fill="white" />
        </clipPath>
    </defs>
</svg>    