<svg width="24" height="24" viewBox="0 0 100 100" fill="none" xmlns="http://www.w3.org/2000/svg">
    <path fill-rule="evenodd" clip-rule="evenodd"
        d="M79.0831 0H21.1026C9.67215 0 0.395264 9.27689 0.395264 20.7073V78.6879C0.395264 90.1183 9.67215 99.3952 21.1026 99.3952H79.0831C90.5136 99.3952 99.7905 90.1183 99.7905 78.6879V20.7073C99.7905 9.27689 90.5136 0 79.0831 0ZM78.5862 70.3221C80.6155 72.3514 80.6569 75.6232 78.6276 77.6525C76.6397 79.6818 73.3265 79.7232 71.2972 77.6939L50.3828 56.9866L28.8886 78.2323C27.8532 79.2263 26.5693 79.7232 25.2441 79.7232C23.9188 79.7232 22.5935 79.2263 21.5582 78.1909C19.5288 76.1616 19.5703 72.8898 21.5996 70.8605L42.7211 49.9875L21.5996 29.1145C19.5703 27.0852 19.5288 23.8134 21.5582 21.7841C23.5461 19.7548 26.8592 19.7134 28.8886 21.7427L49.803 42.45L71.2972 21.2043C73.3265 19.175 76.5983 19.2164 78.6276 21.2457C80.6569 23.275 80.6155 26.5468 78.5862 28.5761L57.4647 49.4491L78.5862 70.3221Z"
        fill="#D8E3E8" />
</svg>