<svg width="24" height="24" viewBox="0 0 100 101" fill="none" xmlns="http://www.w3.org/2000/svg">
    <path fill-rule="evenodd" clip-rule="evenodd"
        d="M79.0831 0.960938H21.1026C9.67215 0.960938 0.395264 10.2378 0.395264 21.6683V79.6488C0.395264 91.0793 9.67215 100.356 21.1026 100.356H79.0831C90.5136 100.356 99.7905 91.0793 99.7905 79.6488V21.6683C99.7905 10.2378 90.5136 0.960938 79.0831 0.960938ZM78.5862 71.2831C80.6155 73.3124 80.6569 76.5841 78.6276 78.6134C76.6397 80.6428 73.3265 80.6842 71.2972 78.6549L50.3828 57.9475L28.8886 79.1932C27.8532 80.1872 26.5693 80.6842 25.2441 80.6842C23.9188 80.6842 22.5935 80.1872 21.5582 79.1518C19.5288 77.1225 19.5703 73.8508 21.5996 71.8214L42.7211 50.9484L21.5996 30.0754C19.5703 28.0461 19.5288 24.7744 21.5582 22.745C23.5461 20.7157 26.8592 20.6743 28.8886 22.7036L49.803 43.411L71.2972 22.1652C73.3265 20.1359 76.5983 20.1773 78.6276 22.2067C80.6569 24.236 80.6155 27.5077 78.5862 29.5371L57.4647 50.41L78.5862 71.2831Z"
        fill="#D8E3E8" />
    <path
        d="M57.4646 50.3693L78.5861 29.4963C80.6154 27.467 80.6568 24.1952 78.6275 22.1659C76.6396 20.1366 73.3264 20.0952 71.2971 22.1245L49.8029 43.3702L28.8885 22.6629C26.8592 20.6336 23.5874 20.675 21.5581 22.7043C19.5288 24.7336 19.5702 28.0054 21.5995 30.0347L42.721 50.9077L21.5995 71.7807C19.5702 73.81 19.5288 77.0818 21.5581 79.1111C22.552 80.1464 23.9187 80.6434 25.244 80.6434C26.5693 80.6434 27.8531 80.1464 28.8885 79.1525L50.3827 57.9068L71.2971 78.6141C73.3264 80.6434 76.5982 80.602 78.6275 78.5727C80.6568 76.5434 80.6154 73.2716 78.5861 71.2423L57.4646 50.3693Z"
        fill="#9F0048" />
</svg>    