<svg width="19" height="18" viewBox="0 0 19 18" fill="none" xmlns="http://www.w3.org/2000/svg">
    <g clip-path="url(#clip0_1047_2817)">
        <path
            d="M6.4665 4.94154H11.3896C11.8142 4.94154 12.1588 4.59692 12.1588 4.17231C12.1588 3.74769 11.8142 3.40308 11.3896 3.40308H6.4665C6.04188 3.40308 5.69727 3.74769 5.69727 4.17231C5.69727 4.59692 6.04188 4.94154 6.4665 4.94154Z"
            fill="#CC3D4D" fill-opacity="0.8" />
        <path
            d="M11.3896 8.94165H6.4665C6.04188 8.94165 5.69727 9.28627 5.69727 9.71088C5.69727 10.1355 6.04188 10.4801 6.4665 10.4801H11.3896C11.8142 10.4801 12.1588 10.1355 12.1588 9.71088C12.1588 9.28627 11.8142 8.94165 11.3896 8.94165Z"
            fill="#CC3D4D" fill-opacity="0.8" />
        <path
            d="M10.774 6.17236H7.08173C6.65712 6.17236 6.3125 6.51698 6.3125 6.94159C6.3125 7.36621 6.65712 7.71082 7.08173 7.71082H10.774C11.1987 7.71082 11.5433 7.36621 11.5433 6.94159C11.5433 6.51698 11.1987 6.17236 10.774 6.17236Z"
            fill="#CC3D4D" fill-opacity="0.8" />
        <path
            d="M17.5433 9.08923V3.07692C17.5433 1.37846 16.1648 0 14.4663 0H3.38942C1.68481 0 0.3125 1.37846 0.3125 3.07692V11.6923C0.3125 13.3908 1.68481 14.7692 3.38942 14.7692H12.7371V17.2308C12.7371 17.4769 12.854 17.7108 13.0571 17.8585C13.1925 17.9508 13.3463 18 13.5063 18C13.5925 18 13.6725 17.9877 13.7525 17.9569L15.4817 17.2985L15.5679 17.3354L17.1063 17.9385C17.3463 18.0431 17.6171 18.0123 17.8325 17.8708C18.0479 17.7292 18.1771 17.4892 18.1771 17.2308V13.2677C18.4971 12.7631 18.6879 12.1723 18.6879 11.5385C18.6879 10.56 18.2325 9.68615 17.5433 9.08923ZM17.1494 11.5385C17.1494 12.3754 16.5463 13.0646 15.7463 13.2062C15.654 13.2246 15.5556 13.2308 15.4571 13.2308C15.371 13.2308 15.2787 13.2246 15.1987 13.2062C14.3863 13.0831 13.7648 12.3877 13.7648 11.5385C13.7648 10.6031 14.5217 9.84615 15.4571 9.84615C16.3925 9.84615 17.1494 10.6031 17.1494 11.5385ZM15.2294 15.7662L14.2756 16.1538V14.5354C14.6448 14.6831 15.0387 14.7692 15.4571 14.7692C15.8756 14.7692 16.2694 14.6831 16.6387 14.5354V16.0677L15.7833 15.7846C15.7094 15.7538 15.6294 15.7354 15.5494 15.7292C15.5433 15.7231 15.5433 15.7231 15.5371 15.7292C15.4325 15.7169 15.334 15.7292 15.2294 15.7662ZM12.7125 13.2308H3.38942C2.54019 13.2308 1.85096 12.5415 1.85096 11.6923V3.07692C1.85096 2.22769 2.54019 1.53846 3.38942 1.53846H14.4663C15.3094 1.53846 16.0048 2.22769 16.0048 3.07692V8.36308C15.8263 8.33231 15.6417 8.30769 15.4571 8.30769C13.6725 8.30769 12.2263 9.75385 12.2263 11.5385C12.2263 12.16 12.411 12.7323 12.7125 13.2308Z"
            fill="#CC3D4D" fill-opacity="0.8" />
        <path
            d="M16.6385 14.5354V16.0677L15.9615 15.7785C15.8323 15.7231 15.6908 15.7046 15.5492 15.7292C15.5431 15.7231 15.5431 15.7231 15.5369 15.7292C15.4323 15.7169 15.3339 15.7292 15.2292 15.7662L14.2754 16.1539V14.5354C14.6446 14.6831 15.0385 14.7692 15.4569 14.7692C15.8754 14.7692 16.2692 14.6831 16.6385 14.5354Z"
            fill="#D8E3E8" />
    </g>
    <defs>
        <clipPath id="clip0_1047_2817">
            <rect width="18.3754" height="18" fill="white" transform="translate(0.3125)" />
        </clipPath>
    </defs>
</svg>    