<svg width="24" height="24" viewBox="0 0 24 25" fill="none" xmlns="http://www.w3.org/2000/svg">
    <path fill-rule="evenodd" clip-rule="evenodd"
        d="M19 24.5H5C2.24 24.5 0 22.26 0 19.5V5.5C0 2.74 2.24 0.5 5 0.5H19C21.76 0.5 24 2.74 24 5.5V19.5C24 22.26 21.76 24.5 19 24.5Z"
        fill="#D8E3E8" />
    <path
        d="M18.0398 9.69C17.5498 9.2 16.7598 9.2 16.2698 9.69L13.4598 12.5V4.75C13.4598 4.06 12.8998 3.5 12.2098 3.5C11.5198 3.5 10.9598 4.06 10.9598 4.75V12.28L8.47978 9.8C7.98978 9.31 7.19979 9.31 6.70979 9.8C6.21979 10.29 6.21979 11.08 6.70979 11.57L11.4398 16.3C11.6798 16.54 11.9998 16.67 12.3198 16.67C12.6398 16.67 12.9598 16.55 13.1998 16.3L18.0398 11.46C18.5298 10.97 18.5298 10.18 18.0398 9.69Z"
        fill="#137332" />
    <path
        d="M18 21.5H6C5.31 21.5 4.75 20.94 4.75 20.25C4.75 19.56 5.31 19 6 19H18C18.69 19 19.25 19.56 19.25 20.25C19.25 20.94 18.69 21.5 18 21.5Z"
        fill="#137332" />
</svg>