<svg width="24" height="24" viewBox="0 0 101 100" fill="none" xmlns="http://www.w3.org/2000/svg">
    <path fill-rule="evenodd" clip-rule="evenodd"
        d="M79.4784 99.3952H21.4979C10.0674 99.3952 0.790527 90.1183 0.790527 78.6879V20.7073C0.790527 9.27689 10.0674 0 21.4979 0H79.4784C90.9089 0 100.186 9.27689 100.186 20.7073V78.6879C100.186 90.1183 90.9089 99.3952 79.4784 99.3952Z"
        fill="#D8E3E8" />
    <path
        d="M75.5027 38.0605C73.4734 36.0312 70.2016 36.0312 68.1723 38.0605L56.5348 49.698V17.6016C56.5348 14.744 54.2155 12.4248 51.3579 12.4248C48.5003 12.4248 46.1811 14.744 46.1811 17.6016V48.7869L35.9102 38.5161C33.8809 36.4867 30.6092 36.4867 28.5799 38.5161C26.5505 40.5454 26.5505 43.8171 28.5799 45.8464L48.169 65.4356C49.1629 66.4295 50.4882 66.9679 51.8135 66.9679C53.1388 66.9679 54.464 66.471 55.458 65.4356L75.5027 45.3909C77.532 43.3616 77.532 40.0898 75.5027 38.0605Z"
        fill="#7F8DA0" />
    <path
        d="M75.3368 86.9709H25.6392C22.7816 86.9709 20.4624 84.6516 20.4624 81.794C20.4624 78.9364 22.7816 76.6172 25.6392 76.6172H75.3368C78.1945 76.6172 80.5137 78.9364 80.5137 81.794C80.5137 84.6516 78.1945 86.9709 75.3368 86.9709Z"
        fill="#7F8DA0" />
</svg>    