<svg width="17" height="18" viewBox="0 0 17 18" fill="none" xmlns="http://www.w3.org/2000/svg">
    <g clip-path="url(#clip0_1047_2812)">
        <path
            d="M8.04887 17.8951C8.31069 18.0376 8.63796 18.0376 8.89978 17.8951C15.998 13.9726 16.5071 6.32259 16.4998 4.14759C16.4998 3.78759 16.2889 3.46509 15.9689 3.32259L8.83433 0.0750879C8.6016 -0.0299121 8.33978 -0.0299121 8.11433 0.0750879L1.02342 3.32259C0.710691 3.46509 0.507054 3.78009 0.499782 4.13259C0.470691 6.30009 0.892509 13.9726 8.04887 17.8951Z"
            fill="#239713" />
        <path
            d="M7.73622 12.1875C7.50349 12.1875 7.27804 12.0975 7.09622 11.9175L4.21622 8.99995C3.85985 8.63995 3.85258 8.03995 4.20167 7.67245C4.55804 7.30495 5.13258 7.29745 5.48894 7.65745L7.72894 9.92995L11.5035 6.08245C11.8599 5.71495 12.4344 5.72245 12.7908 6.08995C13.1471 6.45745 13.1399 7.04995 12.7835 7.41745L8.36894 11.9175C8.1944 12.0975 7.96167 12.1875 7.73622 12.1875Z"
            fill="white" />
    </g>
    <defs>
        <clipPath id="clip0_1047_2812">
            <rect width="16" height="18" fill="white" transform="translate(0.5)" />
        </clipPath>
    </defs>
</svg>    