<svg width="92" height="57" viewBox="0 0 92 57" fill="none" xmlns="http://www.w3.org/2000/svg">
    <path
        d="M62.6831 8.48462C81.5513 17.1446 80.7952 30.6822 74.825 37.18C63.5641 49.4332 38.6033 56.5398 12.6606 45.271C12.6606 45.271 38.0752 64.0353 70.9458 53.051C93.4964 45.5132 107.184 16.3912 62.6855 8.48684L62.6831 8.48462Z"
        fill="#137332" />
    <path
        d="M29.0108 48.5154C10.1425 39.8555 10.8987 26.3178 16.8688 19.8201C28.1298 7.56683 53.0906 0.46021 79.0332 11.729C79.0332 11.729 53.6187 -7.03529 20.7481 3.94907C-1.80016 11.4868 -14.7055 40.4066 29.0108 48.5154Z"
        fill="#7DBA28" />
    <path
        d="M27.8443 40.06L25.4366 34.92H14.3365L11.9287 40.06H4.58789L17.0419 14.9757H22.6928L35.2236 40.06H27.8443ZM22.9784 29.4534L19.8937 22.7912L16.8787 29.4534H22.976H22.9784Z"
        fill="#212325" />
    <path
        d="M22.2102 15.6756L34.0401 39.3577H28.3436L25.9359 34.2177H13.842L11.4342 39.3577H5.77375L17.5316 15.6756H22.2126M15.7456 30.1533H24.1307L19.9633 21.1512H19.8193L15.7456 30.1533ZM23.1825 14.2734H16.5618L16.1561 15.0912L4.39824 38.7733L3.41162 40.7621H12.4304L12.8265 39.9177L14.8382 35.6222H24.9445L26.9561 39.9177L27.3522 40.7621H36.4142L35.4204 38.771L23.5906 15.089L23.1849 14.2757L23.1825 14.2734ZM18.0237 28.7511L19.9081 24.5889L21.8358 28.7511H18.0261H18.0237Z"
        fill="white" />
    <path
        d="M47.829 40.3955C45.0036 40.3955 42.5238 39.8644 40.4594 38.8133C38.3781 37.7555 36.7553 36.2289 35.6367 34.2778C34.53 32.3489 33.9707 30.0667 33.9707 27.5001C33.9707 24.9334 34.5324 22.6579 35.6391 20.7379C36.7577 18.8001 38.3781 17.2801 40.4594 16.2201C42.5238 15.1713 45.0036 14.6379 47.829 14.6379C49.6918 14.6379 51.4082 14.8757 52.9302 15.3446C54.4809 15.8246 55.8108 16.5446 56.8791 17.4846L57.2487 17.809L54.9514 23.2579L54.1496 22.6757C53.1054 21.9179 52.1116 21.3779 51.1994 21.069C50.2968 20.7623 49.2357 20.6068 48.0475 20.6068C45.8582 20.6068 44.245 21.1779 43.1168 22.3534C41.9789 23.5357 41.4028 25.2667 41.4028 27.4978C41.4028 29.7289 41.9789 31.4934 43.1168 32.6756C44.2474 33.8511 45.8582 34.4222 48.0475 34.4222C49.2333 34.4222 50.2944 34.2667 51.1994 33.96C52.1116 33.6511 53.1054 33.1111 54.1496 32.3534L54.9514 31.7711L57.2511 37.2267L56.8719 37.5511C55.806 38.4667 54.4809 39.1778 52.9374 39.6644C51.413 40.1466 49.6942 40.3911 47.829 40.3911V40.3955Z"
        fill="#212325" />
    <path
        d="M47.8288 15.3401C49.6196 15.3401 51.24 15.5645 52.6923 16.0112C54.1447 16.4601 55.3641 17.1201 56.358 17.9934L54.6152 22.1245C53.5013 21.3178 52.4499 20.7467 51.4585 20.4112C50.467 20.0756 49.3292 19.9067 48.0473 19.9067C45.6515 19.9067 43.8199 20.5667 42.5501 21.8889C41.2802 23.2112 40.644 25.08 40.644 27.5C40.644 29.92 41.2802 31.8222 42.5501 33.1444C43.8199 34.4666 45.6515 35.1266 48.0473 35.1266C49.3292 35.1266 50.467 34.9577 51.4585 34.6222C52.4499 34.2866 53.5013 33.7155 54.6152 32.9089L56.358 37.0399C55.3665 37.891 54.1447 38.5466 52.6923 39.0044C51.24 39.4621 49.6196 39.6933 47.8288 39.6933C45.1186 39.6933 42.7853 39.1955 40.8241 38.1977C38.8652 37.2022 37.3577 35.7844 36.3063 33.9489C35.2548 32.1133 34.7267 29.9622 34.7267 27.5C34.7267 25.0378 35.2524 22.8934 36.3063 21.0667C37.3577 19.2423 38.8652 17.8312 40.8241 16.8334C42.7829 15.8379 45.1186 15.3379 47.8288 15.3379M47.8288 13.9357C44.8738 13.9357 42.274 14.4979 40.0967 15.6045C37.8834 16.729 36.1598 18.3445 34.9715 20.4067C33.8049 22.4289 33.2144 24.8156 33.2144 27.5C33.2144 30.1844 33.8049 32.5755 34.9691 34.6066C36.1574 36.6799 37.8834 38.3022 40.0967 39.4288C42.2716 40.5355 44.8738 41.0977 47.8288 41.0977C49.7757 41.0977 51.5761 40.8399 53.182 40.3332C54.8288 39.8133 56.2427 39.051 57.3878 38.0688L58.144 37.4199L57.7695 36.5311L56.0267 32.4L55.2849 30.6422L53.6814 31.8044C52.6995 32.5155 51.7753 33.0222 50.9375 33.3044C50.1166 33.5822 49.1443 33.7222 48.0473 33.7222C46.086 33.7222 44.6601 33.2289 43.6831 32.2111C42.6725 31.16 42.1612 29.5756 42.1612 27.5C42.1612 25.4245 42.6725 23.8734 43.6831 22.8223C44.6601 21.8045 46.0884 21.3112 48.0473 21.3112C49.1443 21.3112 50.119 21.4512 50.9375 21.7289C51.7753 22.0134 52.6995 22.5178 53.6814 23.2289L55.2849 24.3911L56.0267 22.6334L57.7695 18.5023L58.1392 17.6245L57.4022 16.9756C56.2523 15.9645 54.8312 15.1912 53.1724 14.6801C51.5713 14.1868 49.7757 13.9357 47.8312 13.9357H47.8288Z"
        fill="white" />
    <path
        d="M59.5893 40.0598V14.9756H79.9747V20.4089H66.5125V24.5822H72.7947C75.7641 24.5822 78.1503 25.2333 79.8883 26.5155C81.6791 27.8377 82.5865 29.7844 82.5865 32.3043C82.5865 34.8243 81.6815 36.7154 79.8955 38.071C78.1551 39.391 75.7666 40.0598 72.7923 40.0598H59.5869H59.5893ZM72.0673 34.6932C73.4092 34.6932 74.3742 34.4843 74.9336 34.0732C75.4497 33.6954 75.6993 33.1066 75.6993 32.271C75.6993 31.4355 75.4521 30.891 74.9408 30.5244C74.379 30.1199 73.4116 29.9155 72.0673 29.9155H66.5101V34.6932H72.0673Z"
        fill="#212325" />
    <path
        d="M79.2159 15.6756V19.7067H65.7537V25.2822H72.7945C75.6007 25.2822 77.8068 25.8755 79.4176 27.0622C81.0259 28.2488 81.8301 29.9955 81.8301 32.3021C81.8301 34.6088 81.0259 36.3043 79.4176 37.5265C77.8092 38.7465 75.6007 39.3576 72.7945 39.3576H60.3477V15.6756H79.2159ZM65.7537 35.3932H72.0671C73.5915 35.3932 74.7029 35.1355 75.4063 34.6199C76.1072 34.1044 76.4577 33.3221 76.4577 32.2688C76.4577 31.2155 76.1072 30.471 75.4063 29.9666C74.7053 29.4622 73.5915 29.2111 72.0671 29.2111H65.7537V35.391M80.7307 14.2689H58.8306V40.7576H72.7921C75.944 40.7576 78.4958 40.0354 80.3754 38.6088C82.3438 37.1154 83.3425 34.9932 83.3425 32.2999C83.3425 29.6066 82.339 27.4244 80.3586 25.9622C78.4814 24.5778 75.9344 23.8755 72.7921 23.8755H67.2685V21.1045H80.7307V14.2667V14.2689ZM67.2685 30.611H72.0671C73.6035 30.611 74.2372 30.8999 74.4773 31.0733C74.6045 31.1644 74.943 31.4066 74.943 32.2666C74.943 33.1666 74.5949 33.4221 74.4653 33.5177C74.2276 33.6932 73.5987 33.9866 72.0695 33.9866H67.2709V30.611H67.2685Z"
        fill="white" />
</svg>    