<svg xmlns="http://www.w3.org/2000/svg" width="48" height="48"
    fill="none" viewBox="0 0 48 48">
    <path fill="#137332"
        d="M12 0h24a12 12 0 0 1 12 12v24a12 12 0 0 1-12 12H12A12 12 0 0 1 0 36V12A12 12 0 0 1 12 0" />
    <path fill="#fff"
        d="M23.127 31.059c0-1.083.031-2.102-.021-3.119-.014-.247-.25-.6-.469-.682-.22-.086-.636.01-.813.183a189 189 0 0 0-4.864 4.875c-.2.208-.245.711-.156 1.017.593 2.01-.356 3.904-2.31 4.51-1.871.578-3.794-.488-4.358-2.417-.542-1.86.57-3.816 2.51-4.3.51-.126 1.155-.207 1.6-.006.872.396 1.362.105 1.946-.516 1.374-1.459 2.834-2.835 4.221-4.28.221-.23.407-.718.309-.965-.097-.24-.574-.44-.895-.46-.943-.058-1.89-.02-2.86-.02-.2.369-.362.73-.574 1.055a3.43 3.43 0 0 1-3.812 1.44c-1.561-.455-2.58-1.796-2.574-3.393.007-1.579 1.059-2.933 2.618-3.366 1.424-.395 3.097.158 3.76 1.51.465.949 1.069 1.097 1.96 1.014.577-.054 1.167.027 1.747-.028.23-.022.56-.204.627-.392.088-.24.064-.665-.098-.83a198 198 0 0 0-5.028-5.02c-.177-.17-.654-.149-.947-.061-1.995.597-3.893-.372-4.495-2.336-.57-1.86.52-3.795 2.45-4.342a3.43 3.43 0 0 1 4.276 2.546c.137.604-.075 1.282-.06 1.923.011.406.011.94.25 1.192a140 140 0 0 0 4.63 4.643c.225.219.726.391.967.286.24-.107.38-.577.446-.91.074-.387.002-.798.02-1.198.041-.984.052-1.78-1.146-2.334-1.341-.619-1.776-2.397-1.313-3.812.506-1.546 1.883-2.517 3.482-2.456 1.529.057 2.828 1.113 3.241 2.636.388 1.425-.179 3.081-1.53 3.755-.889.442-1.079.995-1 1.859.057.614-.024 1.242.03 1.854.02.224.222.55.41.61.245.082.66.047.829-.117a167 167 0 0 0 4.938-4.954c.205-.217.18-.779.083-1.133-.404-1.463.088-2.99 1.319-3.867a3.49 3.49 0 0 1 4.088.022 3.47 3.47 0 0 1 1.264 3.882c-.477 1.466-1.763 2.428-3.268 2.445-.11 0-.243.038-.324-.01-1.583-.913-2.329.35-3.217 1.233-1.161 1.157-2.338 2.3-3.462 3.493-.212.225-.339.693-.258.977.06.206.518.348.822.416.313.07.652.009.98.017 1.107.029 2.07.127 2.719-1.253.625-1.332 2.434-1.673 3.858-1.161a3.48 3.48 0 0 1 2.32 3.469c-.07 1.524-1.14 2.819-2.663 3.221-1.42.374-3.082-.212-3.745-1.564-.418-.853-.916-1.058-1.758-.977-.65.063-1.315-.022-1.964.035-.22.02-.512.236-.597.435-.088.206-.064.597.078.744a212 212 0 0 0 5.11 5.093c.17.164.655.101.957.011 1.534-.45 3.065.042 3.957 1.317a3.492 3.492 0 0 1-4.057 5.284c-1.463-.534-2.719-2.047-2.225-3.451.637-1.805-.492-2.48-1.41-3.419-1.096-1.12-2.196-2.237-3.336-3.311-.236-.223-.706-.424-.962-.335-.24.086-.46.56-.481.88-.064.942-.022 1.892-.022 2.812 2.316 1.435 3.025 2.75 2.465 4.534-.5 1.599-1.907 2.588-3.554 2.498-1.588-.088-2.97-1.321-3.25-2.907-.298-1.677.588-3.09 2.59-4.03v.006Zm-9.667-19.3c-.934.027-1.728.862-1.701 1.79.026.938.855 1.726 1.789 1.7.94-.027 1.723-.85 1.7-1.788-.025-.936-.856-1.728-1.788-1.701Zm10.56 0c-.932-.008-1.752.797-1.763 1.73-.013.93.796 1.755 1.728 1.764.931.008 1.752-.794 1.762-1.73.014-.93-.796-1.755-1.727-1.763Zm10.491 3.494c.923-.007 1.726-.808 1.735-1.733.008-.92-.781-1.736-1.704-1.758-.978-.022-1.807.807-1.785 1.782.022.928.831 1.713 1.757 1.706zM15.25 23.959c-.024-.931-.861-1.73-1.789-1.701-.934.028-1.725.862-1.703 1.789.024.932.861 1.73 1.789 1.701.934-.028 1.725-.861 1.703-1.789m8.784 1.79c.936-.018 1.732-.845 1.714-1.776-.017-.936-.841-1.733-1.775-1.713-.943.02-1.73.833-1.713 1.774.015.936.84 1.732 1.774 1.715m12.213-1.79c-.027-.929-.838-1.71-1.763-1.701-.93.009-1.724.807-1.728 1.734-.004.973.846 1.798 1.815 1.756.925-.039 1.702-.87 1.676-1.789m-22.71 12.288c.926-.02 1.718-.83 1.713-1.752-.004-.927-.798-1.726-1.725-1.737a1.765 1.765 0 0 0-1.765 1.802c.033.93.85 1.706 1.776 1.687zm12.211-1.697c.027-.926-.739-1.748-1.67-1.794-.919-.044-1.763.715-1.82 1.64-.06.965.752 1.835 1.723 1.85.921.014 1.741-.774 1.767-1.697Zm10.499-.035c.004-.93-.777-1.737-1.706-1.761-.971-.026-1.811.814-1.785 1.785.024.931.829 1.71 1.76 1.706.928-.005 1.726-.805 1.733-1.733z" />
</svg>