<svg xmlns="http://www.w3.org/2000/svg" width="36" height="26" fill="none" viewBox="0 0 36 26">
    <path fill="#212325"
        d="M13.09 18.869h10.645c2.26 0 4.094-1.569 4.094-3.503s-1.833-3.503-4.094-3.503h-.076c-.397-2.379-2.765-4.209-5.651-4.209-2.291 0-4.262 1.164-5.178 2.824h-.275c-2.46.222-4.384 2.013-4.384 4.17 0 2.339 2.2 4.221 4.918 4.221ZM32.73.649H3.27C1.466.649 0 1.903 0 3.446V23.05c0 1.543 1.466 2.798 3.269 2.798H32.73c1.803 0 3.269-1.255 3.269-2.797V3.445C36 1.903 34.534.649 32.731.649Zm0 22.442H3.27V3.433h29.46V23.09Z" />
</svg>