<svg xmlns="http://www.w3.org/2000/svg" width="29" height="31" fill="none" viewBox="0 0 29 31">
    <path fill="#137332"
        d="m27.25 18.249-1.5-.875c-1.625-1-1.625-3.375 0-4.375l1.5-.875c1.25-.75 1.625-2.25.875-3.375l-1.25-2.125c-.75-1.25-2.25-1.625-3.375-.875l-1.5.875c-1.625 1-3.75-.25-3.75-2.125v-1.75c0-1.375-1.125-2.5-2.5-2.5h-2.5a2.507 2.507 0 0 0-2.5 2.5v1.625c0 1.875-2.125 3.125-3.75 2.125l-1.5-.75a2.424 2.424 0 0 0-3.375.875L.875 8.749c-.625 1.25-.25 2.75.875 3.5l1.5.875c1.625.875 1.625 3.375 0 4.25l-1.5.875c-1.25.75-1.625 2.25-.875 3.375l1.25 2.125c.75 1.25 2.25 1.625 3.375.875l1.5-.75c1.625-1 3.75.25 3.75 2.125v1.75c0 1.375 1.125 2.5 2.5 2.5h2.5c1.375 0 2.5-1.125 2.5-2.5v-1.625c0-1.875 2.125-3.125 3.75-2.125l1.5.875c1.25.75 2.75.25 3.375-.875l1.25-2.125c.625-1.375.25-2.875-.875-3.625m-12.75 2c-2.75 0-5-2.25-5-5s2.25-5 5-5 5 2.25 5 5-2.25 5-5 5" />
</svg>