<svg xmlns="http://www.w3.org/2000/svg" width="48" height="48"
    fill="none" viewBox="0 0 48 48">
    <path fill="#137332"
        d="M12 0h24a12 12 0 0 1 12 12v24a12 12 0 0 1-12 12H12A12 12 0 0 1 0 36V12A12 12 0 0 1 12 0" />
    <path fill="#fff"
        d="M25.067 40h-2.134a3.2 3.2 0 0 1-3.2-2.816 13.5 13.5 0 0 1-2.08-.853 3.2 3.2 0 0 1-4.266-.267l-1.45-1.504a3.2 3.2 0 0 1-.268-4.267 13.5 13.5 0 0 1-.853-2.026A3.2 3.2 0 0 1 8 25.067v-2.134a3.2 3.2 0 0 1 2.816-3.2q.34-1.075.853-2.08a3.2 3.2 0 0 1 .267-4.266l1.504-1.451a3.2 3.2 0 0 1 4.267-.267 13.5 13.5 0 0 1 2.026-.853A3.2 3.2 0 0 1 22.933 8h2.134a3.2 3.2 0 0 1 3.2 2.816q1.075.34 2.08.853a3.2 3.2 0 0 1 4.266.267l1.45 1.504a3.2 3.2 0 0 1 .268 4.267c.341.668.627 1.364.853 2.08A3.2 3.2 0 0 1 40 22.933v2.134a3.2 3.2 0 0 1-2.816 3.2 13.5 13.5 0 0 1-.853 2.08 3.2 3.2 0 0 1-.267 4.266l-1.504 1.45a3.2 3.2 0 0 1-4.267.267c-.668.342-1.364.628-2.08.854A3.2 3.2 0 0 1 25.067 40m-7.563-6.048a1 1 0 0 1 .544.15c.943.554 1.96.974 3.019 1.247a1.066 1.066 0 0 1 .8 1.067v.384a1.067 1.067 0 0 0 1.066 1.067h2.134a1.067 1.067 0 0 0 1.066-1.067v-.416a1.07 1.07 0 0 1 .8-1.067 11.7 11.7 0 0 0 3.019-1.248 1.07 1.07 0 0 1 1.29.16l.3.299a1.067 1.067 0 0 0 1.514 0l1.504-1.504a1.066 1.066 0 0 0 0-1.515l-.299-.299a1.07 1.07 0 0 1-.16-1.29c.555-.943.975-1.96 1.248-3.019a1.066 1.066 0 0 1 1.067-.8h.384a1.067 1.067 0 0 0 1.067-1.066v-2.102a1.067 1.067 0 0 0-1.067-1.066h-.416a1.07 1.07 0 0 1-1.067-.8 11.7 11.7 0 0 0-1.248-3.02 1.07 1.07 0 0 1 .16-1.29l.299-.298a1.065 1.065 0 0 0 0-1.515l-1.472-1.504a1.066 1.066 0 0 0-1.515 0l-.298.299a1.07 1.07 0 0 1-1.291.16 11.7 11.7 0 0 0-3.019-1.248 1.066 1.066 0 0 1-.8-1.067V11.2a1.067 1.067 0 0 0-1.066-1.067h-2.134a1.067 1.067 0 0 0-1.066 1.067v.416a1.07 1.07 0 0 1-.8 1.067c-1.06.273-2.076.693-3.019 1.248a1.07 1.07 0 0 1-1.29-.16l-.3-.331a1.066 1.066 0 0 0-1.514 0l-1.504 1.504a1.065 1.065 0 0 0 0 1.515l.299.298a1.07 1.07 0 0 1 .16 1.29 11.7 11.7 0 0 0-1.248 3.02 1.066 1.066 0 0 1-1.067.8H11.2a1.067 1.067 0 0 0-1.067 1.066v2.134a1.067 1.067 0 0 0 1.067 1.066h.416a1.07 1.07 0 0 1 1.067.8c.273 1.06.693 2.076 1.248 3.019a1.07 1.07 0 0 1-.16 1.29l-.299.3a1.066 1.066 0 0 0 0 1.514l1.472 1.504a1.067 1.067 0 0 0 1.515 0l.298-.299c.199-.197.467-.308.747-.31Z" />
    <path fill="#fff"
        d="M24 31.466a7.466 7.466 0 1 1 0-14.932 7.466 7.466 0 0 1 0 14.933Zm0-12.8a5.333 5.333 0 1 0 0 10.667 5.333 5.333 0 0 0 0-10.666Z" />
</svg>