<svg xmlns="http://www.w3.org/2000/svg" width="30" height="30" fill="none" viewBox="0 0 30 30">
    <g clip-path="url(#a)">
        <path fill="#398CC8"
            d="M20.412 30.475c-5.475.006-10.95.04-16.425.002C2.115 30.464.517 28.69.51 26.769.496 22.952.506 19.135.506 15.318c0-3.613-.003-7.225 0-10.837C.508 2.127 2.13.503 4.485.503Q15.493.499 26.5.503c2.398 0 4.002 1.613 4 4.025-.001 2.658-.015 5.317-.023 7.974q-2.308-2.224-4.622-4.442c-.19-.181-.326-.445-.638-.46-.104-.792-.612-.575-1.062-.403q-8.88 3.408-17.755 6.83c-.751.29-.8.688-.166 1.2.625.65 1.236 1.313 1.878 1.945 1.172 1.15 2.255 2.396 3.596 3.368l.535 1.592c.112.331.24.645.677.63.019.311.28.453.465.64q3.512 3.541 7.027 7.076z" />
        <path fill="#398CC8"
            d="M20.412 30.475c-2.344-2.358-4.688-4.714-7.027-7.076-.186-.187-.446-.329-.465-.64.912-.52 1.657-1.263 2.462-1.922.53-.432.967-.451 1.511-.04 1.268.956 2.56 1.88 3.848 2.81.782.564 1.084.448 1.282-.502 1.068-5.17 2.13-10.338 3.196-15.509.311.017.449.28.639.462 1.544 1.477 3.081 2.96 4.622 4.441.006 4.83.042 9.66.002 14.49-.015 1.833-1.701 3.46-3.538 3.493-2.176.04-4.354-.001-6.53-.008z" />
        <path fill="#F8F7F7"
            d="M25.216 7.596c-1.064 5.17-2.126 10.34-3.196 15.509-.196.95-.5 1.067-1.282.502-1.288-.93-2.58-1.854-3.847-2.81-.544-.411-.982-.392-1.512.04-.805.66-1.55 1.401-2.462 1.922-.435.017-.565-.298-.677-.63l-.534-1.592c-.335-1.127-.666-2.255-1.002-3.382-.086-.289-.315-.433-.578-.527l-3.894-1.402c-.633-.513-.585-.91.167-1.2q8.874-3.423 17.755-6.83c.449-.172.957-.39 1.061.402zm-4.22 3.01c-.16-.14-.276-.018-.38.046-2.826 1.734-5.649 3.474-8.471 5.212-.472.29-.613.687-.45 1.222.244.802.438 1.622.705 2.416.104.308.026.881.48.836.332-.034.285-.566.295-.888.032-1.089.481-1.903 1.31-2.637 2.073-1.839 4.076-3.757 6.099-5.65.165-.155.435-.26.413-.556z" />
        <path fill="#398CC8"
            d="m6.234 15.226 3.893 1.402c.265.095.492.238.579.527q.502 1.69 1 3.382c-1.339-.971-2.422-2.218-3.595-3.368-.643-.63-1.254-1.295-1.879-1.944l.002.002Zm14.762-4.62c.023.296-.249.401-.414.555-2.023 1.895-4.026 3.813-6.1 5.65-.826.735-1.276 1.55-1.309 2.638-.01.322.037.854-.294.888-.455.046-.377-.528-.48-.837-.268-.794-.462-1.613-.706-2.416-.162-.534-.022-.931.45-1.222 2.824-1.736 5.647-3.476 8.47-5.211.106-.064.222-.186.381-.046z" />
    </g>
    <defs>
        <clipPath id="a">
            <path fill="#fff"
                d="M5.503.5H25.5a5 5 0 0 1 5 5v20a5 5 0 0 1-5 5H5.503a5 5 0 0 1-5-5v-20a5 5 0 0 1 5-5" />
        </clipPath>
    </defs>
</svg>