<svg width="20" height="21" viewBox="0 0 20 21" fill="none" xmlns="http://www.w3.org/2000/svg">
    <g clip-path="url(#clip0_145_450)">
        <path fill-rule="evenodd" clip-rule="evenodd"
            d="M0 0.248535V20.2485H20V0.248535H0ZM16.9149 4.67403L14.5651 15.9767C14.5098 16.2436 14.1968 16.3645 13.976 16.2041L10.7684 13.8752C10.5736 13.7338 10.3081 13.7413 10.1217 13.8933L8.34321 15.343C8.13684 15.5118 7.8258 15.4178 7.74677 15.1636L6.51187 11.1921L3.32141 10.0014C2.99732 9.87996 2.99455 9.42243 3.31771 9.29794L16.4114 4.24673C16.689 4.13939 16.9754 4.38256 16.9149 4.67403Z"
            fill="#137332" />
        <path fill-rule="evenodd" clip-rule="evenodd"
            d="M13.7828 6.71795L7.54747 10.5583C7.30848 10.7057 7.196 10.9943 7.2731 11.2645L7.94725 13.6334C7.99521 13.8012 8.23873 13.7841 8.26207 13.6107L8.43727 12.3116C8.47037 12.067 8.58699 11.8416 8.76791 11.6733L13.9138 6.88991C14.0102 6.80068 13.8948 6.64916 13.7828 6.71795Z"
            fill="#137332" />
    </g>
    <defs>
        <clipPath id="clip0_145_450">
            <rect y="0.248535" width="20" height="20" rx="4" fill="white" />
        </clipPath>
    </defs>
</svg>    