<svg xmlns="http://www.w3.org/2000/svg" width="18"
    height="18" fill="none" viewBox="0 0 18 18">
    <g fill="#fff" clip-path="url(#a)">
        <path
            d="M16.76 2.24a.82.82 0 0 0-.59-.24H2.83c-.22 0-.43.09-.59.24-.16.16-.24.37-.24.59v13.33c0 .22.09.43.24.59.16.16.37.24.59.24h13.33c.22 0 .43-.09.59-.24.16-.16.24-.37.24-.59V2.83c0-.22-.09-.43-.24-.59zm-1.42 13.09H3.67V3.67h11.67v11.67z" />
        <path
            d="m14.87 7.67-1.18-1.18-5.33 5.33-3.07-2.98-1.16 1.19 3.05 2.96V13l1.18 1.18.02-.02.02.02 1.16-1.2z" />
    </g>
    <defs>
        <clipPath id="a">
            <path fill="#fff" d="M2 2h15v15H2z" />
        </clipPath>
    </defs>
</svg>