<svg xmlns="http://www.w3.org/2000/svg" width="33" height="33" fill="none" viewBox="0 0 33 33">
    <g clip-path="url(#a)">
        <path fill="#fff"
            d="M6.433.62H25.98c2.7.827 3.573 2.72 3.56 5.433-.04 7.047.107 14.087-.073 21.134-.094 3.62-1.354 4.893-4.954 4.96-5.533.1-11.073.1-16.606 0-3.607-.067-4.867-1.34-4.954-4.96-.18-7.04-.033-14.087-.073-21.134C2.867 3.34 3.733 1.44 6.44.62h-.007Z" />
        <path fill="transparent"
            d="M6.433.62C4.767 2.24 4.447 4.227 4.48 6.487c.1 6.82.007 13.64.013 20.46 0 3.82 1.02 4.873 4.72 4.893 4.66.02 9.327.02 13.987 0 3.7-.02 4.72-1.073 4.72-4.893 0-6.82-.087-13.647.013-20.46.034-2.26-.286-4.247-1.953-5.867h6.513V32.5H.56c0-9.653.093-19.3-.067-28.953C.46 1.1 1.047.187 3.507.593 4.46.753 5.46.62 6.433.62Z" />
        <path fill="#79BA1D"
            d="M16.267 8.447h-5.86c-1.307 0-2.02-.594-2.047-1.954-.027-1.426.787-1.88 2.06-1.873 3.907.013 7.813.007 11.713.007 1.16 0 1.84.513 1.894 1.726.06 1.34-.6 2.047-1.914 2.074-1.953.04-3.906.006-5.86.013l.014.007ZM10.407 12.48c1.36-.02 1.96.687 1.893 2-.073 1.4-.993 1.8-2.2 1.747-1.173-.054-1.687-.747-1.72-1.894-.033-1.413.747-1.893 2.027-1.846v-.007ZM16.293 12.48c1.374-.013 1.947.72 1.867 2.02-.08 1.4-1.02 1.78-2.22 1.72-1.18-.06-1.673-.78-1.693-1.913-.027-1.427.78-1.874 2.046-1.827ZM24.027 14.227c.04 1.333-.654 1.973-1.947 2-1.327.033-1.967-.64-1.973-1.96-.007-1.2.6-1.754 1.766-1.787 1.227-.033 2.127.313 2.154 1.747ZM12.293 20.14c0 1.333-.733 1.927-2 1.933-1.333.007-1.913-.72-1.906-2.006.006-1.214.673-1.687 1.813-1.714 1.26-.033 2.073.394 2.093 1.787ZM18.16 20.167c0 1.34-.76 1.913-2.02 1.913-1.333 0-1.9-.747-1.887-2.027.014-1.22.707-1.666 1.834-1.693 1.266-.033 2.066.42 2.066 1.807h.007ZM24.02 20.453c-.06 1.187-.907 1.667-2.127 1.627-1.366-.047-1.82-.907-1.766-2.14.053-1.253.86-1.567 1.946-1.58 1.327-.013 1.987.593 1.947 2.1v-.007ZM12.287 26.227c-.067 1.24-.894 1.74-2.114 1.7-1.353-.04-1.826-.88-1.773-2.12.047-1.24.84-1.567 1.927-1.58 1.306-.02 1.986.566 1.96 2ZM18.153 26.067c-.033 1.34-.82 1.88-2.06 1.86-1.333-.02-1.866-.794-1.84-2.06.027-1.234.774-1.614 1.874-1.64 1.28-.027 2.026.48 2.02 1.84h.006ZM21.807 24.24c1.326-.073 2.173.34 2.206 1.733.034 1.327-.7 1.927-1.96 1.96-1.12.034-1.82-.493-1.926-1.646-.12-1.274.386-2.047 1.673-2.04l.007-.007Z" />
    </g>
    <defs>
        <clipPath id="a">
            <path fill="#fff" d="M.5.5h32v32H.5z" />
        </clipPath>
    </defs>
</svg>