<svg width="29" height="25" viewBox="0 0 29 25" fill="none" xmlns="http://www.w3.org/2000/svg">
    <g clip-path="url(#clip0_109_503)">
        <path
            d="M24.4121 7.39278C22.7954 7.99537 21.1787 8.58325 19.5767 9.18584C16.7402 10.2587 13.8889 11.3169 11.0523 12.4192C10.2734 12.7132 9.50911 12.7279 8.75955 12.4192C6.11405 11.3757 3.38036 10.5674 0.69077 9.68555C0.323339 9.56797 0 9.3916 0 8.95069C0 8.52447 0.308642 8.3628 0.646678 8.23052C5.93768 6.217 11.214 4.20348 16.505 2.18996C18.3422 1.49919 20.1793 0.808417 22.0018 0.117647C22.8248 -0.190995 23.5156 0.117647 23.8242 0.925995C24.368 2.36632 24.8971 3.80665 25.4556 5.24698C25.7202 5.90836 25.6761 6.49625 25.1617 7.02535C24.9559 7.24581 24.6914 7.34869 24.3974 7.37808L24.4121 7.39278Z"
            fill="#137332" />
        <path
            d="M28.233 18.8272C28.233 16.8871 28.233 14.9618 28.233 13.0218C28.233 12.7425 28.1742 12.6249 27.8655 12.6396C27.4393 12.669 27.0278 12.6396 26.6016 12.6396C25.9255 12.6396 25.6316 12.9483 25.6316 13.6244C25.6316 14.6385 25.6316 15.6379 25.6316 16.652C25.6316 16.9606 25.5728 17.0782 25.22 17.0782C24.0296 17.0488 22.8391 17.0782 21.6486 17.0782C21.2371 17.0782 20.6639 17.2693 20.4434 17.0047C20.2377 16.7549 20.3846 16.1964 20.3699 15.7848C20.3699 15.5644 20.4434 15.4468 20.6345 15.3145C21.678 14.6238 22.1483 13.4627 21.8544 12.2428C21.7956 11.9636 21.8544 11.8754 22.0895 11.7872C22.8538 11.5226 23.618 11.2434 24.3676 10.9348C25.0731 10.6555 25.3817 9.96474 25.1319 9.24458C25.0437 8.98003 24.9114 8.73017 24.8526 8.45093C24.7644 8.08349 24.6175 8.0541 24.2647 8.18638C19.9878 9.81777 15.6815 11.4051 11.4193 13.0659C10.317 13.4921 9.30293 13.448 8.24473 13.0218C6.40758 12.2722 4.52633 11.6696 2.64508 11.0817C2.32174 10.9789 1.45461 11.2287 1.24884 11.4786C1.11657 11.6549 1.04308 11.8313 1.13127 12.0664C1.57218 13.2863 2.0131 14.5209 2.45402 15.7408C2.51281 15.9171 2.63038 16.0641 2.80675 16.1376C3.15949 16.2846 4.52633 15.7701 4.688 15.4321C4.688 15.4027 4.71739 15.3733 4.71739 15.3586C4.6586 14.8589 5.07013 14.8295 5.37877 14.6826C5.56983 14.6091 5.65802 14.6385 5.7168 14.8295C5.86378 15.2557 6.04014 15.6673 6.18712 16.0935C6.51046 16.99 7.18653 17.2987 8.08306 16.9753C10.6845 16.0053 13.2859 15.05 15.8873 14.0653C16.24 13.933 16.4017 13.9771 16.5487 14.3151C16.6369 14.5356 16.7985 14.8001 17.0043 14.903C17.7685 15.2998 17.7979 15.9612 17.7244 16.6814C17.7097 16.843 17.7244 17.0194 17.7244 17.1811C17.7244 18.6802 18.7239 19.6796 20.2377 19.6796C21.8985 19.6796 23.5446 19.6796 25.2053 19.6796C25.5287 19.6796 25.6022 19.7678 25.6022 20.0764C25.5875 21.4139 25.6022 22.7366 25.6022 24.0741C25.6022 24.6767 25.9255 24.9853 26.5134 24.9853C26.9543 24.9853 27.3805 24.9559 27.8214 24.9853C28.1448 25.0147 28.2183 24.8971 28.2036 24.5885C28.2036 22.6632 28.2036 20.7378 28.2036 18.8272H28.233ZM19.5616 14.1975C19.0178 14.418 18.3858 14.2269 18.0037 13.7713C17.6216 13.301 17.5922 12.7278 17.9155 12.184C18.0772 12.0517 18.1801 11.8754 18.3711 11.7725C18.7973 11.3904 19.2677 11.4492 19.7233 11.6843C20.2377 11.9489 20.5022 12.4045 20.4581 12.9924C20.414 13.5656 20.1054 13.9918 19.5616 14.1975Z"
            fill="#137332" />
    </g>
    <defs>
        <clipPath id="clip0_109_503">
            <rect width="28.2334" height="25" fill="white" />
        </clipPath>
    </defs>
</svg>    