<svg width="20" height="21" viewBox="0 0 20 21" fill="none" xmlns="http://www.w3.org/2000/svg">
    <path
        d="M10 20.2485C4.47656 20.2485 0 15.772 0 10.2485C0 4.7251 4.47656 0.248535 10 0.248535C15.5234 0.248535 20 4.7251 20 10.2485C20 15.772 15.5234 20.2485 10 20.2485ZM9.0625 10.2485C9.0625 10.561 9.21875 10.854 9.48047 10.9946L13.2305 13.4946C13.6602 13.8149 14.2422 13.6978 14.4961 13.2681C14.8164 12.8384 14.6992 12.2563 14.2695 11.9673L10.9375 9.74854V4.93604C10.9375 4.4165 10.5195 3.99854 9.96484 3.99854C9.48047 3.99854 9.02734 4.4165 9.02734 4.93604L9.0625 10.2485Z"
        fill="#137332" />
</svg>    