<svg width="25" height="25" viewBox="0 0 25 25" fill="none" xmlns="http://www.w3.org/2000/svg">
    <path
        d="M9.40055 9.77821C9.71557 9.77821 9.96758 9.5262 9.96758 9.21118V5.27972L5.64551 9.77821H9.38795H9.40055Z"
        fill="#137332" />
    <path
        d="M15.7259 4.78831C15.7259 4.78831 15.7259 4.7127 15.7259 4.6875H11.0888C11.0888 4.6875 11.1014 4.7631 11.114 4.78831V9.21119C11.114 10.1562 10.3454 10.9249 9.38769 10.9375H5.09082V23.8659C5.09082 24.496 5.59485 25 6.22489 25H20.4512C21.0812 25 21.5853 24.496 21.5853 23.8659V9.80343C18.8383 10.2571 16.2299 8.40474 15.7763 5.64516C15.7259 5.35534 15.7007 5.06552 15.7133 4.78831H15.7259ZM14.9699 22.001H13.2813C12.3363 22.001 11.5298 21.2828 11.4416 20.3377L9.11048 21.9128C8.84586 22.0892 8.49304 22.0262 8.31663 21.7616C8.14022 21.497 8.20322 21.1442 8.46784 20.9677L11.0384 19.2414C11.492 18.939 12.1095 19.0524 12.4119 19.506C12.5253 19.6699 12.5757 19.8589 12.5757 20.0605V20.1739C12.5757 20.5645 12.8907 20.8795 13.2813 20.8795H14.9699C15.2849 20.8795 15.5495 21.1189 15.5621 21.434C15.5747 21.749 15.3227 22.0136 15.0077 22.0262C15.0077 22.0262 14.9951 22.0262 14.9825 22.0262L14.9699 22.001ZM14.9699 16.9481H8.34183C8.02681 16.9481 7.77479 16.6835 7.77479 16.3558C7.77479 16.0534 8.02681 15.8014 8.34183 15.7888H14.9699C15.2849 15.7888 15.5369 16.0534 15.5369 16.381C15.5369 16.6835 15.2849 16.9355 14.9699 16.9481ZM18.1705 22.001H17.301C16.986 22.001 16.734 21.7238 16.7466 21.4088C16.7466 21.1063 16.9986 20.8543 17.301 20.8543H18.1705C18.4855 20.8543 18.7375 21.1316 18.7249 21.4466C18.7249 21.749 18.4729 22.001 18.1705 22.001ZM18.1705 14.2893H8.34183C8.02681 14.2893 7.77479 14.0121 7.78739 13.6971C7.78739 13.3947 8.03941 13.1426 8.34183 13.1426H18.1705C18.4855 13.1426 18.7375 13.4199 18.7249 13.7349C18.7249 14.0373 18.4729 14.2893 18.1705 14.2893Z"
        fill="#137332" />
    <path
        d="M4.86416 4.52368V0.604828L0.554688 5.10332H4.29713C4.61215 5.10332 4.86416 4.8513 4.86416 4.53628V4.52368Z"
        fill="#137332" />
    <path
        d="M10.5469 3.52823H15.8896C16.0156 3.02419 16.2298 2.54536 16.5071 2.09173V1.13407C16.5071 0.504032 15.9904 0 15.373 0H5.99798C5.99798 0 6.01058 0.0756048 6.02319 0.100806V4.52369C6.02319 5.46875 5.25454 6.2374 4.29688 6.25H0V19.1784C0 19.8085 0.504032 20.3125 1.13407 20.3125H3.94405V10.3453C3.94405 10.0428 4.05746 9.76562 4.25907 9.55141L9.71522 3.88105C9.92943 3.65423 10.2319 3.52823 10.5469 3.52823Z"
        fill="#137332" />
    <path
        d="M20.8162 0.856842C18.6489 0.856842 16.8848 2.62095 16.8848 4.78829C16.8848 6.95563 18.6489 8.71975 20.8162 8.71975C22.9836 8.71975 24.7477 6.95563 24.7477 4.78829C24.7477 2.62095 22.9836 0.856842 20.8162 0.856842ZM23.0592 3.89364L20.8162 6.4894C20.7028 6.61541 20.5516 6.69102 20.3878 6.69102C20.224 6.69102 20.0602 6.61541 19.9594 6.4894L18.9009 5.25452C18.6993 5.01511 18.7245 4.64968 18.9639 4.44807C19.2033 4.24646 19.5687 4.27166 19.7703 4.51108L20.4004 5.24192L22.2149 3.15019C22.4165 2.91077 22.7819 2.88557 23.0214 3.08718C23.2608 3.2888 23.286 3.65422 23.0844 3.89364H23.0592Z"
        fill="#137332" />
</svg>    