<svg xmlns="http://www.w3.org/2000/svg" width="16" height="17" fill="none" viewBox="0 0 16 17">
    <g fill="#fff" clip-path="url(#a)">
        <path
            d="M12.787 5.718c-.158.528-.354 1.413-.688 2.24-.727 1.802-1.851 3.364-3.14 4.804-.633.707-1.252.78-1.825.152-1.768-1.946-3.304-4.05-3.85-6.693-.393-1.911.26-3.515 1.784-4.688C6.62.339 8.362.177 10.116 1.063c1.73.874 2.562 2.358 2.67 4.655zM7.97 3.732a1.62 1.62 0 0 0-1.598 1.606c.005.867.754 1.6 1.62 1.584.84-.016 1.555-.733 1.567-1.573.012-.867-.723-1.615-1.589-1.616z" />
        <path
            d="M7.934 16.497H1.422c-1.322 0-1.753-.697-1.16-1.896.607-1.23 1.23-2.449 1.84-3.677.22-.44.504-.77 1.038-.813.387-.032.626.081.866.43.705 1.016 1.42 2.038 2.24 2.961 1.068 1.204 2.369 1.204 3.438.005.793-.887 1.482-1.872 2.173-2.846.523-.737 1.386-.779 1.827.035a80 80 0 0 1 2.135 4.268c.388.832-.14 1.527-1.107 1.53-2.258.01-4.519.003-6.778.003" />
    </g>
    <defs>
        <clipPath id="a">
            <path fill="#fff" d="M0 .5h15.947v16H0z" />
        </clipPath>
    </defs>
</svg>