<svg width="20" height="16" viewBox="0 0 20 16" fill="none" xmlns="http://www.w3.org/2000/svg">
    <g clip-path="url(#clip0_145_443)">
        <path
            d="M16.6608 0.24707H3.32745C1.505 0.24707 0 1.75207 0 3.57452V11.9108C0 13.745 1.505 15.2383 3.32745 15.2383H16.6608C18.495 15.2383 19.9882 13.7333 19.9882 11.9108V3.57452C19.9882 1.74031 18.4832 0.24707 16.6608 0.24707ZM17.9894 5.07952L11.4051 9.50045C10.9935 9.74736 10.4879 9.91197 9.99412 9.91197C9.50029 9.91197 8.99471 9.74736 8.58319 9.50045L1.99882 5.07952C1.66961 4.83261 1.5873 4.32702 1.83421 3.9155C2.08113 3.58628 2.58671 3.50398 2.99824 3.75089L9.5826 8.17182C9.82951 8.33643 10.2528 8.33643 10.4997 8.17182L17.0841 3.75089C17.4956 3.50398 18.0012 3.58628 18.2481 3.9978C18.4127 4.32702 18.3304 4.83261 18.0012 5.07952H17.9894Z"
            fill="#137332" />
    </g>
    <defs>
        <clipPath id="clip0_145_443">
            <rect width="20" height="15.0029" fill="white" transform="translate(0 0.24707)" />
        </clipPath>
    </defs>
</svg>    