<svg xmlns="http://www.w3.org/2000/svg" width="320" height="91" viewBox="0 0 320 91">
    <g clip-path="url(#a)">
        <path fill="#137332"
            d="M100.443 13.08c30.234 13.918 29.023 35.676 19.456 46.119-18.044 19.692-58.042 31.114-99.612 13.003 0 0 40.724 30.157 93.396 12.504 36.135-12.115 58.068-58.918-13.236-71.622l-.004-.003Z" />
        <path fill="#7DBA28"
            d="M46.486 77.416C16.252 63.5 17.464 41.741 27.03 31.3 45.075 11.606 85.072.184 126.642 18.295c0 0-40.724-30.157-93.396-12.504-36.131 12.115-56.81 58.593 13.24 71.625" />
        <path fill="#202028"
            d="m44.617 63.827-3.858-8.26H22.972l-3.858 8.26H7.35l19.956-40.314h9.055l20.08 40.314zM36.82 46.781l-4.943-10.707-4.831 10.707z" />
        <path fill="#fff"
            d="m35.589 24.638 18.956 38.06h-9.128l-3.858-8.26h-19.38l-3.858 8.26h-9.07l18.84-38.06h7.502M25.23 47.906h13.436L31.99 33.438h-.231zm11.917-25.522h-10.61l-.65 1.315-18.84 38.06-1.581 3.197h14.452l.634-1.357 3.224-6.904H39.97l3.224 6.904.634 1.357H58.35l-1.592-3.2L37.8 23.695l-.65-1.307zM28.88 45.652l3.02-6.69 3.089 6.69z" />
        <path fill="#202028"
            d="M76.64 64.366c-4.528 0-8.501-.853-11.81-2.542-3.334-1.7-5.934-4.154-7.727-7.29-1.773-3.1-2.67-6.768-2.67-10.893s.9-7.782 2.674-10.867c1.792-3.115 4.389-5.558 7.724-7.261 3.308-1.686 7.281-2.543 11.809-2.543 2.985 0 5.735.382 8.174 1.136 2.485.771 4.616 1.928 6.328 3.439l.592.521-3.681 8.758-1.285-.936c-1.673-1.218-3.266-2.086-4.727-2.582-1.447-.493-3.147-.743-5.051-.743-3.508 0-6.093.918-7.9 2.807-1.824 1.9-2.747 4.682-2.747 8.268s.923 6.421 2.746 8.321c1.812 1.89 4.393 2.807 7.901 2.807 1.9 0 3.6-.25 5.05-.742 1.462-.497 3.055-1.365 4.728-2.583l1.285-.935 3.685 8.767-.608.522c-1.708 1.471-3.831 2.614-6.304 3.396-2.443.775-5.197 1.168-8.186 1.168z" />
        <path fill="#fff"
            d="M76.64 24.099q4.304 0 7.793 1.078c2.327.722 4.281 1.782 5.874 3.186l-2.793 6.64q-2.676-1.946-5.058-2.754-2.384-.81-5.466-.811-5.758-.002-8.809 3.186c-2.035 2.125-3.054 5.128-3.054 9.017 0 3.89 1.02 6.947 3.054 9.072q3.051 3.187 8.809 3.186 3.082-.001 5.466-.811 2.382-.81 5.058-2.754l2.793 6.64q-2.383 2.052-5.874 3.157c-2.327.735-4.924 1.107-7.793 1.107-4.343 0-8.082-.8-11.225-2.404-3.138-1.6-5.554-3.878-7.239-6.828q-2.529-4.427-2.53-10.365-.001-5.935 2.53-10.339 2.529-4.398 7.24-6.803 4.708-2.402 11.224-2.404m0-2.254c-4.735 0-8.901.904-12.39 2.683-3.547 1.807-6.308 4.403-8.212 7.717-1.87 3.25-2.816 7.086-2.816 11.4 0 4.315.946 8.158 2.812 11.422 1.904 3.332 4.67 5.94 8.216 7.75 3.485 1.778 7.655 2.682 12.39 2.682 3.12 0 6.004-.414 8.578-1.229 2.639-.835 4.904-2.06 6.74-3.639l1.21-1.043-.6-1.428-2.792-6.64-1.188-2.825-2.57 1.868c-1.573 1.143-3.054 1.957-4.397 2.411-1.315.446-2.873.671-4.631.671-3.143 0-5.428-.792-6.993-2.428-1.62-1.69-2.439-4.236-2.439-7.572 0-3.335.82-5.828 2.439-7.517 1.565-1.636 3.854-2.429 6.993-2.429 1.758 0 3.32.225 4.631.671 1.343.458 2.824 1.268 4.397 2.411l2.57 1.868 1.188-2.825 2.793-6.64.592-1.41-1.18-1.043c-1.843-1.625-4.12-2.868-6.778-3.69-2.566-.792-5.443-1.196-8.56-1.196z" />
        <path fill="#202028"
            d="M95.484 63.827V23.513h32.666v8.732h-21.572v6.707h10.067c4.758 0 8.582 1.047 11.367 3.107 2.869 2.125 4.323 5.254 4.323 9.304s-1.45 7.09-4.312 9.268c-2.789 2.121-6.616 3.196-11.382 3.196h-21.16zm19.995-8.625c2.15 0 3.697-.336 4.593-.996.827-.608 1.227-1.554 1.227-2.897s-.396-2.218-1.215-2.807c-.9-.65-2.451-.979-4.605-.979h-8.905v7.68z" />
        <path fill="#fff"
            d="M126.934 24.638v6.478h-21.571v8.961h11.282q6.743 0 10.613 2.86 3.865 2.862 3.865 8.422c0 3.707-1.288 6.432-3.865 8.397q-3.868 2.941-10.613 2.943H96.7V24.638zm-21.571 31.69h10.116q3.663 0 5.351-1.244 1.685-1.241 1.685-3.778c0-1.693-.562-2.89-1.685-3.7q-1.686-1.216-5.351-1.215h-10.116v9.933m23.999-33.947H94.269V64.95h22.372c5.051 0 9.139-1.161 12.151-3.454 3.155-2.4 4.755-5.81 4.755-10.14 0-4.328-1.608-7.835-4.782-10.185-3.008-2.225-7.089-3.354-12.124-3.354h-8.851v-4.453h21.572v-10.99zM107.79 48.641h7.689c2.462 0 3.478.465 3.862.743.204.147.746.536.746 1.918 0 1.447-.557 1.857-.765 2.01-.381.283-1.389.754-3.839.754h-7.689v-5.425z" />
        <path fill="#202028"
            d="m169.147 60.124-16.513-33.99h8.724l12.517 27.243h-2.547l12.517-27.243h8.413l-16.46 33.99zm28.196 0v-33.99h8.101v33.99zm15.529 0v-33.99h13.971q6.438 0 10.828 2.025c2.923 1.35 5.151 3.286 6.674 5.811q2.285 3.786 2.285 9.136c0 3.568-.762 6.575-2.285 9.11q-2.284 3.81-6.674 5.858-4.39 2.05-10.828 2.05zm8.101-6.172h5.4q6.128 0 9.113-2.7 2.984-2.699 2.985-8.146c0-3.632-.996-6.429-2.985-8.197q-2.988-2.651-9.113-2.65h-5.4v21.697zm31.934 6.172v-33.99h25.446v5.832h-17.71v7.958h16.513v5.832h-16.513v8.532h17.71v5.832h-25.446zm31.054-17.022q0-5.305 2.181-9.232c1.454-2.618 3.512-4.643 6.182-6.075q3.997-2.145 9.605-2.146c3.738 0 6.897.714 9.582 2.146q4.023 2.148 6.258 6.075 2.234 3.93 2.235 9.186c0 3.503-.735 6.621-2.208 9.257q-2.209 3.954-6.259 6.125t-9.608 2.171q-5.556-.001-9.582-2.171c-2.685-1.447-4.751-3.486-6.205-6.125q-2.181-3.953-2.181-9.207zm8.463 0q0 5.255 2.388 8.222c1.593 1.978 3.962 2.964 7.117 2.964s5.485-.99 7.116-2.964q2.44-2.964 2.439-8.222c0-3.503-.804-6.275-2.416-8.221q-2.413-2.916-7.139-2.918-4.727-.001-7.117 2.918-2.388 2.918-2.388 8.221" />
    </g>
    <defs>
        <clipPath id="a">
            <path fill="#fff" d="M0 .249h320v90H0z" />
        </clipPath>
    </defs>
</svg>