<svg width="408" height="528" viewBox="0 0 408 528" fill="none" xmlns="http://www.w3.org/2000/svg">
    <g clip-path="url(#clip0_378_2662)">
        <path
            d="M111.757 40.8791C111.757 40.8791 108.389 13.077 108.113 12.6078C107.848 12.1386 100.56 9.02277 100.56 9.02277L89.0617 9.28743L73.5345 18.4546L59.9678 68.7053L98.8278 60.8615L111.745 40.8791H111.757Z"
            fill="white" />
        <path
            d="M119.31 245.371L142.583 202.278L127.428 199.764L125.444 198.356L111.985 223.536L111.204 233.702L119.31 245.371Z"
            fill="#CC3D4D" />
        <path
            d="M95.8812 148.9L96.8795 137.928C96.8795 137.928 100.139 138.012 103.422 137.711C106.694 137.411 110.037 139.083 118.144 132.562C128.066 124.586 138.71 112.231 138.818 103.341C138.927 94.4503 137.014 90.6487 135.09 89.181C133.166 87.7133 129.738 86.9072 129.365 84.0801C128.992 81.253 130.135 57.0359 131.722 49.132C131.722 49.132 123.123 47.568 113.441 52.332C103.771 57.096 100.079 60.645 95.4121 60.1277C90.7456 59.6104 93.7764 61.6796 72.38 51.1651L50.8633 76.092C50.8633 76.092 46.4853 73.0122 41.482 74.901C36.4787 76.7897 32.3533 84.5974 33.075 89.8787C33.7966 95.1601 38.3429 102.547 50.0454 105.049L52.6794 110.282C52.6794 110.282 54.7481 123.046 54.736 133.777L79.8128 145.459L96.3984 149.02L95.8932 148.912L95.8812 148.9Z"
            fill="#FAD29C" />
        <path d="M142.583 202.278L129.533 200.426L111.204 233.702L120.813 242.592L142.583 202.278Z"
            fill="#9A2637" />
        <path
            d="M117.253 211.71L121.776 214.477C121.776 214.477 127.813 212.877 130.628 213.322C133.442 213.767 135.872 215.006 134.657 217.617C133.442 220.228 132.985 220.889 129.99 221.551C126.996 222.213 118.396 224.751 114.92 222.838C111.444 220.913 111.649 219.518 111.649 219.518L112.226 216.354L116.123 216.847L117.253 211.71Z"
            fill="#ECB374" />
        <path
            d="M5.58064 218.676C5.58064 218.676 0.420958 225.401 0.67353 230.237C0.926102 235.073 2.15288 234.291 2.35734 241.81C2.56181 249.341 8.50326 250.857 12.2678 250.412C16.0323 249.967 27.1575 246.333 27.1575 246.333L25.9788 220.444L5.58064 218.676Z"
            fill="#FAD29C" />
        <path
            d="M69.5054 57.6013C69.5054 57.6013 74.9537 66.0947 79.1632 66.4075C83.3728 66.7203 86.2473 66.0707 87.3297 66.215C88.4122 66.3594 95.0633 64.218 96.8794 72.7836C98.6955 81.3492 98.4188 83.7072 96.3983 84.4531C94.3777 85.1989 85.9105 86.0411 85.9105 86.0411C85.9105 86.0411 83.6735 95.7375 98.5872 92.8021C100.933 92.345 102.628 80.1582 101.774 74.1912C100.921 68.2241 110.013 62.5698 108.919 66.3955C107.824 70.2212 108.101 77.5356 108.257 78.6785C108.413 79.8093 107.355 83.4425 110.518 84.7298C113.681 86.017 116.231 87.593 116.652 88.7359C117.073 89.8787 117.879 95.0879 113.14 96.9887C108.413 98.8895 106.309 95.4368 105.022 96.9887C103.735 98.5406 103.735 103.449 106.658 104.736C109.58 106.023 114.944 104.038 117.47 103.329C119.996 102.631 126.262 101.933 125.408 104.796C124.554 107.66 118.589 130.722 104.432 136.785C99.5254 138.89 117.205 137.76 129.545 120.989C137.327 110.427 142.595 98.7932 139.275 89.4938C138.229 86.5584 131.855 80.9282 129.81 80.1342C127.765 79.3281 129.293 53.92 131.722 49.1199C134.152 44.3198 72.3799 51.141 72.3799 51.141L69.5655 54.4012L69.5054 57.6013Z"
            fill="#ECB374" />
        <path
            d="M97.2763 82.6365C99.345 79.8093 96.9516 70.3294 95.376 68.8858C93.7884 67.4301 90.9019 64.3142 85.0927 67.0451C79.2836 69.776 79.1272 74.0949 79.0912 76.1401C79.0551 78.1973 78.153 82.4199 78.6582 83.4064C79.1633 84.3929 82.6993 86.0771 85.8986 86.0531C89.0978 86.029 94.4499 86.4982 97.2643 82.6365H97.2763Z"
            fill="white" />
        <path
            d="M124.722 81.9267C125.552 79.1236 125.131 74.3235 124.097 72.2182C123.062 70.1129 120.886 67.6587 119.021 67.4181C117.157 67.1895 113.116 65.7819 111.456 73.0362C109.796 80.2905 111.552 82.3959 112.334 82.6244C113.116 82.853 115.606 84.5132 119.538 84.441C123.471 84.3688 124.722 81.9146 124.722 81.9146V81.9267Z"
            fill="white" />
        <path
            d="M129.798 63.0992C129.798 63.0992 145.65 68.8136 148.344 64.4345C151.038 60.0555 139.119 50.4914 131.71 49.1319L129.798 63.0992Z"
            fill="#536726" />
        <path
            d="M148.344 64.4346C148.344 64.4346 151.687 62.63 151.038 60.1758C150.389 57.7096 148.717 53.4749 143.473 50.0463C138.229 46.6176 126.37 39.1107 118.841 38.1964C111.312 37.2821 99.3209 35.2489 82.7353 44.5003C79.7766 46.1484 72.3799 51.1651 72.3799 51.1651C72.3799 51.1651 89.3623 60.4525 93.199 60.2961C97.0357 60.1397 97.8055 59.6104 120.561 49.144C124.542 47.3154 136.822 48.362 140.911 52.9335C145 57.493 147.009 58.5276 148.344 64.4466V64.4346Z"
            fill="#97C138" />
        <path
            d="M121.631 68.8858C121.631 68.8858 117.049 68.7053 115.293 72.7956C113.537 76.886 115.293 83.8275 115.293 83.8275C115.293 83.8275 121.126 86.5945 124.001 83.0936C126.875 79.5928 123.832 68.4768 121.631 68.8858Z"
            fill="#2490CF" />
        <path
            d="M119.84 75.9957C118.793 76.1521 117.338 81.0605 119.84 81.3733C122.341 81.6861 122.726 75.5626 119.84 75.9957Z"
            fill="white" />
        <path
            d="M95.9532 69.7159C94.7144 68.7173 90.8536 67.8993 87.2214 71.1715C83.6012 74.4438 83.5771 85.8004 83.5771 85.8004C83.5771 85.8004 91.1543 87.9659 96.759 83.4064C99.85 80.8921 95.9532 69.7159 95.9532 69.7159Z"
            fill="#2490CF" />
        <path
            d="M92.0566 75.8032C89.134 75.9596 89.2783 82.5041 92.0566 82.6244C94.8349 82.7447 95.0153 75.6468 92.0566 75.8032Z"
            fill="white" />
        <path
            d="M72.0911 50.3951L72.3798 51.153L50.8631 76.0799C50.8631 76.0799 47.3511 73.9626 43.8512 74.2032C40.3392 74.4438 42.0351 74.2032 42.0351 74.2032C42.0351 74.2032 39.2568 50.2147 47.0023 37.8234C54.7358 25.4322 64.2614 11.91 91.3107 9.02277C91.3107 9.02277 73.1135 16.253 70.7682 35.0204C70.2991 38.7618 70.5517 47.8688 72.1152 50.3951H72.0911Z"
            fill="#2490CF" />
        <path
            d="M69.5653 54.4133C69.5653 54.4133 69.2286 73.4693 68.9399 74.8288C68.6513 76.1882 62.9744 85.9208 58.2357 85.6441C56.6 85.5478 53.521 73.0964 53.521 73.0964L69.5774 54.4133H69.5653Z"
            fill="#4D3A20" />
        <path
            d="M124.422 65.2045C124.891 65.4331 126.503 64.0977 123.772 61.439C121.042 58.7803 114.632 55.2794 111.757 55.9772C108.871 56.675 107.476 59.8871 108.113 60.5608C108.75 61.2345 114.944 59.9472 116.64 60.8856C118.348 61.824 122.197 63.2195 124.422 65.8541V65.2165V65.2045Z"
            fill="#2D2317" />
        <path
            d="M88.2919 59.5021C88.2919 59.5021 80.4501 66.0105 78.8144 65.8301C77.1787 65.6496 82.6751 57.084 83.5531 56.9878C84.4311 56.8915 88.2919 59.5021 88.2919 59.5021Z"
            fill="#2D2317" />
        <path
            d="M69.5656 54.4133C67.7014 59.9352 68.1705 66.215 65.9454 70.0407C63.7204 73.8663 64.1895 65.6376 62.4335 66.4196C60.6775 67.2015 60.5572 78.3898 59.1621 79.2319C57.7549 80.074 53.5093 73.1205 53.5093 73.1205L69.5656 54.4373V54.4133Z"
            fill="#2D2317" />
        <path
            d="M153.684 160.617C153.684 156.611 152.481 153.146 150.401 153.375C148.32 153.603 145.289 154.073 140.021 160.617C140.021 160.617 137.712 152.821 133.033 152.509C128.355 152.196 126.599 156.563 126.599 156.563C126.599 156.563 100.824 148.767 85.8986 146.734C70.9728 144.701 78.5018 145.182 78.5018 145.182C78.5018 145.182 55.3013 133.549 52.6673 133.128C50.0334 132.707 46.8943 132.598 45.9441 136.929C44.994 141.26 44.5369 144.857 44.5369 144.857C44.5369 144.857 40.7964 146.698 37.4048 155.456C34.0131 164.214 31.2949 191.98 38.0061 217.617C38.7879 220.6 40.616 230.838 44.9218 233.774C49.2275 236.709 66.1859 245.924 87.7989 242.099C93.4156 241.1 96.7592 211.145 98.2025 192.125C98.2025 192.125 112.106 194.483 123.652 193.532C123.652 193.532 123.664 198.2 127.405 199.764C131.145 201.328 132.552 200.702 137.772 194.001C137.772 194.001 140.502 200.546 145.963 201.328C151.423 202.11 150.954 196.504 151.892 194.001C152.83 191.499 153.672 160.617 153.672 160.617H153.684Z"
            fill="#97C138" />
        <path
            d="M29.5028 162.614C29.5028 162.614 13.9515 206.705 10.8846 205.057C7.81764 203.421 7.45682 202.194 6.45856 203.385C5.4603 204.576 4.54623 207.548 4.58231 211.698C4.58231 212.54 3.36756 213.671 3.21121 214.754C3.04282 215.836 2.58579 217.99 4.08919 218.327C5.5926 218.664 25.9908 220.432 25.9908 220.432C25.9908 220.432 26.544 200.077 27.7949 183.703C29.0457 167.33 29.5148 162.614 29.5148 162.614H29.5028Z"
            fill="#97C138" />
        <path
            d="M125.444 169.784C125.444 169.784 124.47 184.413 117.254 186.519C110.037 188.624 93.4277 183.126 87.2336 178.157C81.0396 173.189 88.292 182.657 83.0241 183.475C77.7562 184.293 65.9454 177.508 57.8751 175.282C49.8049 173.057 63.6001 182.885 60.2084 186.519C56.8167 190.14 42.8892 204.997 52.6553 205.587C62.4214 206.176 72.5965 192.955 71.5501 199.391C70.4917 205.827 81.4966 221.972 79.9692 226.88C78.4537 231.789 73.5346 219.277 67.3406 220.444C61.1465 221.611 72.5243 243.35 61.0383 240.956C49.5643 238.574 85.2251 253.66 85.5859 253.9C85.9467 254.141 107.343 222.898 107.343 222.898L118.456 194.001L124.338 193.532L125.444 169.784Z"
            fill="#738F2B" />
        <path
            d="M112.912 281.005C113.2 281.077 96.4224 282.22 96.4224 282.22C96.4224 282.22 96.3502 278.707 93.7764 279.176C91.2026 279.645 92.0565 280.704 92.0565 280.704L58.8132 277.769C58.8132 277.769 55.7583 272.86 52.6673 275.892L33.7725 270.911C33.7725 270.911 29.3104 266.653 28.1437 254.49C26.9771 242.315 25.1369 218.579 26.472 195.938C27.819 173.297 28.7331 146.915 44.0678 144.075C59.4025 141.236 44.6571 144.027 44.6571 144.027C44.6571 144.027 42.2036 145.327 39.1607 150.945C36.1178 156.563 31.4392 179.721 34.9512 202.302C38.4631 224.883 41.8789 232.029 45.896 234.592C49.913 237.154 56.8167 241.545 73.5466 243.326C90.2765 245.106 90.6493 239.933 92.8623 233.69C95.0753 227.446 97.3966 205.093 98.2144 192.113C98.2144 192.113 118.18 193.604 118.456 193.989C118.733 194.374 121.487 205.286 117.927 209.232L116.652 207.379C116.652 207.379 117.747 215.512 116.231 216.33C114.716 217.148 112.226 216.33 112.226 216.33L111.204 233.69C111.204 233.69 113.669 234.64 117.759 232.21C121.848 229.78 122.064 229.286 121.752 232.835C121.439 236.384 117.747 257.51 117.747 257.51C117.747 257.51 117.494 267.784 115.209 274.701C112.936 281.63 112.888 280.981 112.888 280.981L112.912 281.005Z"
            fill="#2490CF" />
        <path
            d="M96.3981 281.835C96.4703 279.862 93.1869 278.563 92.0563 280.692C90.9378 282.821 88.7127 295.923 89.0856 298.341C89.4704 300.759 94.4377 300.434 95.917 298.81C97.3964 297.186 96.3861 281.823 96.3861 281.823L96.3981 281.835Z"
            fill="#2490CF" />
        <path
            d="M58.8133 278.467C58.0315 276.746 54.3271 272.223 52.6673 275.892C51.0196 279.561 50.5987 293.865 51.0797 295.682C51.5608 297.499 57.2257 298.545 57.6827 296.56C58.1277 294.587 58.8133 278.454 58.8133 278.454V278.467Z"
            fill="#2490CF" />
        <path
            d="M106.995 297.631L96.4466 297.126L89.0379 298.81L58.0196 296.163C58.0196 296.163 30.7058 290.629 30.1886 290.304C29.6714 289.98 28.9738 291.88 28.9738 291.88C28.9738 291.88 21.6733 311.67 24.9928 323.292L26.5083 344.982C26.5083 344.982 30.6095 381.952 30.8862 385.296C31.1628 388.64 33.027 422.518 33.0872 426.404C33.1473 430.302 32.7985 436.69 33.3758 440.371C33.9651 444.052 31.9205 466.874 31.9205 466.874L29.8037 490.285C29.8037 490.285 25.3416 491.356 24.5719 495.181C23.7901 499.007 27.7952 502.544 32.3174 503.362C36.8397 504.18 39.8224 506.045 46.0645 502.52C52.3067 499.007 75.9282 484.715 78.4419 482.188C80.9556 479.662 80.1738 467.126 79.0793 466.874C77.9848 466.633 77.0347 467.523 77.0347 467.523V416.322V409.609L91.6237 361.247L115.582 360.574C115.582 360.574 113.934 375.684 114.199 381.458C114.463 387.233 117.109 393.092 117.073 396.244C117.037 399.396 118.288 415.625 118.288 415.625C118.288 415.625 116.243 415.384 115.077 419.751C113.91 424.118 115.317 431.553 116.953 432.395C118.589 433.237 121.908 431.216 123.809 430.133C125.709 429.05 161.165 406.012 161.538 405.832C161.911 405.651 163.775 405.314 163.931 405.182C164.088 405.05 165.098 404.641 164.966 401.717C164.834 398.782 164.184 393.284 164.593 391.78C165.002 390.277 165.988 388.701 164.978 387.546C163.98 386.391 161.021 387.63 161.021 387.63L152.782 392.466L153.901 385.549C153.901 385.549 163.535 322.762 160.588 314.413C157.641 306.052 143.918 300.482 129.161 298.317C114.403 296.151 106.958 297.607 106.958 297.607L106.995 297.631Z"
            fill="#2490CF" />
        <path
            d="M114.451 281.739C113.79 280.331 96.3984 281.835 96.3984 281.835L96.4586 297.126C96.4586 297.126 112.383 297.619 113.898 296.428C115.413 295.237 115.582 289.679 115.582 289.679L114.451 281.739Z"
            fill="#313D4D" />
        <path
            d="M92.0563 280.704L58.813 277.757L58.0312 296.175L89.0495 298.822L89.9034 289.859L92.0563 280.704Z"
            fill="#313D4D" />
        <path
            d="M52.6674 275.892C52.6674 275.892 33.8208 270.502 33.0029 270.839C32.1851 271.176 30.1164 273.859 30.1164 273.859L29.5391 290.28L50.8513 294.611L52.6674 275.892Z"
            fill="#313D4D" />
        <path
            d="M57.8749 495.747C57.8749 495.747 76.9141 483.175 77.0464 483.331C77.1787 483.488 78.4535 484.27 78.4535 484.27C78.4535 484.27 89.2299 474.465 96.4824 476.57C103.735 478.676 110.025 479.373 110.951 492.414C111.035 493.581 110.566 498.453 110.566 498.453L55.4214 497.395L57.8749 495.735V495.747Z"
            fill="#D2AE53" />
        <path
            d="M108.858 504.601C109.64 503.651 110.951 498.478 110.951 498.478L55.0847 497.407L43.9595 504.072C43.9595 504.072 82.4346 505.96 86.2352 505.936C90.0358 505.912 107.199 506.598 108.846 504.601H108.858Z"
            fill="#695223" />
        <path d="M131.458 425.309L169.019 428.87L166.83 435.619L121.163 431.312L131.458 425.309Z"
            fill="#695223" />
        <path
            d="M163.955 405.206L160.624 406.457L131.458 425.309L169.019 428.882L177.534 402.68C177.534 402.68 170.113 402.367 168.105 402.066C166.096 401.766 163.955 405.206 163.955 405.206Z"
            fill="#D2AE53" />
        <path
            d="M30.3929 483.403L18.041 485.497L10.8848 484.282L32.3293 422.325L33.5802 444.305L30.3929 483.403Z"
            fill="#CC3D4D" />
        <path d="M157.99 160.617L159.914 156.719H153.251L153.684 160.617H157.99Z" fill="#CC3D4D" />
        <path
            d="M150.401 153.375L151.904 152.34H161.995L180.926 112.472L170.607 110.896L173.192 104.808L185.508 102.799L203.008 65.9504L194.264 64.4345L195.888 59.081L206.64 58.2991L223.25 23.3148L213.556 21.1373L208.625 20.2952L143.016 157.285L148.356 153.591L150.401 153.375Z"
            fill="#CC3D4D" />
        <path
            d="M145.121 520.625H164.075L315.174 53.6193L373.71 487.374L373.891 488.661L402.191 488.204L336.005 34.5752L304.193 36.476L296.976 35.2489L140.021 518.075L145.121 520.625Z"
            fill="#CC3D4D" />
        <path
            d="M303.483 460.726H274.942L259.716 225.028L275.267 177.363L295.761 384.009L277.288 383.203L278.214 390.385L296.555 391.215L303.483 460.726Z"
            fill="#CC3D4D" />
        <path
            d="M254.833 166.741L247.568 124.033L263.108 126.198L264.382 126.379L266.187 129.952L254.833 166.741Z"
            fill="#9A2637" />
        <path d="M248.483 166.007L254.833 166.741L247.569 124.033L241.88 123.239L248.483 166.007Z"
            fill="#9A2637" />
        <path
            d="M263.108 117.103L256.012 115.852L238.103 102.126L233.978 72.0016L256.878 77.1386L263.108 117.103Z"
            fill="#9A2637" />
        <path d="M256.408 67.767L232.631 63.2435L226.473 23.3148L248.398 27.0322L256.408 67.767Z"
            fill="#9A2637" />
        <path
            d="M336.005 34.5752L304.193 36.476L208.625 20.2952L218.03 0.74588H238.596L333.191 15.2425L336.005 34.5752Z"
            fill="#313D4D" />
        <path d="M325 129.423L291.589 126.776L289.772 132.935L326.215 135.414L325 129.423Z"
            fill="#313D4D" />
        <path d="M407.339 488.204H369.682V494.291H407.339V488.204Z" fill="#313D4D" />
        <path d="M310.027 460.726V466.91H271.335L271.106 460.726H310.027Z" fill="#313D4D" />
        <path
            d="M167.503 520.89L145.121 520.625L135.691 517.666V523.982L142.162 527.326L167.503 526.087V520.89Z"
            fill="#313D4D" />
        <path
            d="M30.393 483.403L19.1114 485.629L7.81787 484.282L8.28693 489.503L17.4156 491.235L29.8157 490.297L30.393 483.403Z"
            fill="#313D4D" />
        <path
            d="M162.079 450.224L77.7441 433.478L77.4795 418.776L114.644 425.309C114.644 425.309 115.919 430.831 116.448 431.637C116.977 432.443 121.15 431.324 121.15 431.324L166.818 435.631L162.067 450.236L162.079 450.224Z"
            fill="#7F8DA0" />
        <path d="M183.872 383.179L155.055 378.318L156.703 366.986L187.252 372.784L183.872 383.179Z"
            fill="#A7B6D1" />
        <path d="M114.656 368.814L89.9878 365.157L91.0943 361.295L115.594 360.61L114.656 368.814Z"
            fill="#A7B6D1" />
        <path
            d="M200.783 331.183L160.913 324.326C160.913 324.326 162.067 315.075 159.397 311.971C156.727 308.867 204.62 319.37 204.62 319.37L200.783 331.183Z"
            fill="#A7B6D1" />
        <path
            d="M219.605 273.269L118.697 255.079C118.697 255.079 119.322 245.96 119.695 246.165C120.068 246.369 222.564 264.174 222.564 264.174L219.605 273.269Z"
            fill="#A7B6D1" />
        <path
            d="M238.103 216.342L131.903 200.787L137.784 194.001C137.784 194.001 141.717 200.666 145.109 200.907C148.5 201.135 150.449 199.968 151.11 198.092C151.772 196.227 151.892 194.001 151.892 194.001L241.002 207.391L238.091 216.342H238.103Z"
            fill="#A7B6D1" />
        <path d="M252.56 171.878L206.231 164.996L210.092 160.762L254.232 166.741L252.56 171.878Z"
            fill="#A7B6D1" />
        <path d="M169.151 157.838L153.251 156.719L151.399 151.715L174.876 153.772L169.151 157.838Z"
            fill="#A7B6D1" />
        <path
            d="M267.221 126.15L236.287 122.457L244.069 117.103L251.754 118.379L256.012 115.852L270.204 117.609L267.221 126.15Z"
            fill="#A7B6D1" />
        <path
            d="M202.948 115.852L170.871 110.33L174.251 104.977L186.061 102.787L210.753 106.854C210.753 106.854 207.001 107.034 205.425 110.33C203.85 113.627 202.948 115.852 202.948 115.852Z"
            fill="#A7B6D1" />
        <path
            d="M153.684 160.617H164.388C164.388 160.617 177.955 152.533 188.443 143.666C198.931 134.8 204.644 135.414 203.309 127.209C201.974 119.004 202.238 110.102 208.516 107.371C209.779 106.829 211.126 106.288 213.808 107.972C213.808 107.972 219.136 98.8293 223.466 98.9496C227.796 99.0699 230.755 99.7316 232.631 101.885C232.631 101.885 239.21 100.911 242.842 103.617C246.474 106.336 248.411 108.658 248.411 108.658C248.411 108.658 255.567 110.39 255.964 113.819C256.361 117.248 253.125 117.873 253.125 117.873L244.081 117.091L236.299 122.445C236.299 122.445 236.648 128.761 235 133.356C233.353 137.964 230.598 144.906 228.458 145.964C226.329 147.023 222.6 147.047 221.506 147.913C220.411 148.779 183.512 191.451 177.029 195.553C174.828 196.949 151.928 194.001 151.928 194.001L153.708 160.617H153.684Z"
            fill="#FAD29C" />
        <path d="M241.014 211.842L135.691 194.001L131.915 200.065L238.103 216.342L241.014 211.842Z"
            fill="#7F8DA0" />
        <path
            d="M284.661 73.1325L281.498 81.3853L195.262 64.4345L195.888 59.081L207.301 58.4314L284.661 73.1325Z"
            fill="#A7B6D1" />
        <path
            d="M125.179 175.511C124.193 181.129 124.77 194.459 129.1 192.125C133.43 189.791 137.134 179.228 140.021 171.878C142.895 164.527 139.011 179.613 140.021 184.762C141.031 189.911 146.997 187.373 149.799 182.849C152.601 178.326 153.684 160.617 153.684 160.617L152.072 193.292L150.4 199.559L145.986 201.328L142.595 200.426L137.796 194.001C137.796 194.001 134.825 199.8 131.915 200.065C129.004 200.329 125.721 199.993 124.77 197.406C123.82 194.819 125.179 175.511 125.179 175.511Z"
            fill="#738F2B" />
        <path
            d="M139.732 159.775C139.732 159.775 146.311 153.796 148.356 153.591C150.401 153.375 140.983 164.683 140.983 164.683L139.744 159.787L139.732 159.775Z"
            fill="#738F2B" />
        <path
            d="M77.8402 144.857C77.8402 144.857 55.6259 136.556 52.8957 137.844C50.1656 139.131 45.5952 143.462 45.5952 143.462C45.5952 143.462 49.5401 140.815 53.7617 140.911C57.9953 141.008 77.8402 144.857 77.8402 144.857Z"
            fill="#738F2B" />
        <path
            d="M29.6589 164.202C29.6589 164.202 23.2604 198.212 21.0354 201.605C18.8104 204.997 13.7349 205.683 13.7349 205.683L25.9786 208.378L27.5782 181.021L30.2723 164.214H29.6589V164.202Z"
            fill="#738F2B" />
        <path
            d="M16.2487 206.717C16.2487 206.717 18.8105 209.629 20.3259 211.698C21.8414 213.767 14.9498 211.891 12.9532 211.83C10.9688 211.77 7.57707 218.844 8.74371 218.904C9.91035 218.964 25.9667 220.889 25.9667 220.889V208.354L16.2367 206.693L16.2487 206.717Z"
            fill="#738F2B" />
        <path
            d="M101.762 37.8114C109.448 38.4129 119.034 42.2747 117.23 44.7288C115.425 47.183 98.3467 53.2223 96.9396 55.881C95.5324 58.5397 118.685 49.553 119.142 49.7816C119.599 50.0102 130.171 48.5425 130.628 48.6146C131.085 48.6868 138.806 51.7064 138.806 51.7064L144.507 56.3742C144.507 56.3742 148.404 64.9519 148.344 64.4346C148.272 63.9172 151.002 61.5713 151.014 60.8736C151.038 60.1758 150.124 57.6133 150.124 57.6133L147.454 53.2704L128.379 41.3603C128.379 41.3603 115.882 37.4625 115.522 37.3542C115.161 37.246 101.75 37.8234 101.75 37.8234L101.762 37.8114Z"
            fill="#738F2B" />
        <path
            d="M53.5093 111.004C53.9783 111.172 76.4332 135.245 75.8078 137.711C75.1824 140.178 74.8696 142.836 74.8696 142.836L79.8008 145.459L94.7026 148.298L95.9534 141.417L82.1942 135.041L68.9282 126.764L53.5093 110.992V111.004Z"
            fill="#ECB374" />
        <path
            d="M39.3172 90.5885C39.3172 90.5885 42.2759 84.0079 44.537 84.8741C46.7981 85.7523 46.4854 89.3374 46.4854 89.3374L49.6005 88.8682C49.6005 88.8682 50.8513 84.3448 48.8187 82.6244C46.7861 80.9041 42.7329 81.3733 42.7329 81.3733C42.7329 81.3733 39.5818 85.8726 39.4495 86.041C39.3172 86.2095 39.3052 90.5765 39.3052 90.5765L39.3172 90.5885Z"
            fill="#ECB374" />
        <path
            d="M206.231 111.642C208.24 111.69 208.985 116.478 208.985 116.478L212.99 109.32C212.99 109.32 213.147 108.706 213.532 107.828C211.03 106.348 209.719 106.854 208.504 107.383C205.846 108.538 204.271 110.812 203.429 113.663C203.946 112.821 204.92 111.618 206.231 111.642Z"
            fill="#ECB374" />
        <path
            d="M218.03 113.831C218.812 113.049 218.343 110.872 221.494 106.95C224.356 103.377 228.049 102.33 232.607 101.885C230.731 99.7436 227.784 99.082 223.454 98.9616C221.277 98.9015 218.86 101.175 216.984 103.461C217.308 103.22 217.657 103.004 218.042 102.811C221.939 100.826 215.853 109.945 214.614 112.484C213.363 115.022 217.26 114.625 218.042 113.843L218.03 113.831Z"
            fill="#ECB374" />
        <path
            d="M177.017 195.565C183.5 191.475 220.387 148.791 221.494 147.925C222.588 147.059 226.317 147.047 228.446 145.976C230.574 144.918 233.329 137.976 234.988 133.368C236.636 128.761 236.287 122.457 236.287 122.457L244.069 117.103L253.113 117.885C253.113 117.885 256.349 117.26 255.952 113.831C255.555 110.402 248.399 108.67 248.399 108.67C248.399 108.67 246.45 106.336 242.83 103.629C240.413 101.825 236.684 101.656 234.471 101.741C239.029 101.62 236.66 104.965 233.99 105.566C231.236 106.192 226.774 108.057 223.262 111.654C219.75 115.239 223.033 120.075 224.813 118.992C226.605 117.909 228.518 113.831 228.518 113.831C228.518 113.831 236.131 107.744 236.299 107.864C236.468 107.984 240.966 107.287 245.199 109.32C249.433 111.365 235.349 115.082 232.018 118.355C228.674 121.627 229.119 126.619 227.555 133.332C225.992 140.045 222.095 139.576 218.042 142.487C213.989 145.399 197.764 164.371 185.532 175.294C173.289 186.218 166.746 183.09 161.442 182.861C156.138 182.633 155.669 166.091 153.708 160.629L151.928 194.013C151.928 194.013 174.828 196.961 177.029 195.565H177.017Z"
            fill="#ECB374" />
        <path
            d="M234.387 101.741C233.882 101.765 233.461 101.801 233.16 101.825C233.437 101.801 233.701 101.777 233.99 101.765C234.134 101.765 234.267 101.753 234.399 101.741H234.387Z"
            fill="#ECB374" />
        <path
            d="M117.759 232.222C113.669 234.652 111.204 233.702 111.204 233.702L112.226 216.342C112.226 216.342 114.716 217.16 116.231 216.342C117.746 215.524 116.652 207.391 116.652 207.391L117.927 209.244C121.487 205.298 118.733 194.398 118.456 194.001C118.179 193.616 98.2142 192.125 98.2142 192.125C97.3844 205.105 95.0631 227.458 92.8621 233.702C91.1783 238.478 90.5529 242.616 82.8915 243.506C90.625 244.998 96.0012 246.634 90.625 252.481C85.2489 258.328 68.7595 265.546 79.8126 264.162C90.8656 262.779 99.7537 262.105 90.625 268.06C81.5084 274.015 63.6479 278.166 63.6479 278.166L63.7081 278.19L92.0563 280.692C92.0563 280.692 91.2024 279.621 93.7762 279.164C96.35 278.695 96.4222 282.208 96.4222 282.208C96.4222 282.208 113.188 281.065 112.912 280.993C112.912 280.993 112.948 281.63 115.233 274.713C117.506 267.784 117.771 257.522 117.771 257.522C117.771 257.522 121.451 236.384 121.776 232.847C122.088 229.31 121.872 229.804 117.783 232.222H117.759Z"
            fill="#0774A6" />
        <path
            d="M29.5389 290.28C36.5147 295.538 39.6297 301.469 42.7448 301.469C45.8598 301.469 49.7927 302.094 54.8442 302.094C59.8956 302.094 73.5826 304.584 78.4416 304.584C83.3006 304.584 93.7764 299.592 93.7764 299.592C93.7764 299.592 89.0015 299.279 89.0376 298.81C89.0737 298.341 58.0194 296.163 58.0194 296.163L54.9524 297.619L51.0676 295.67L29.5269 290.268L29.5389 290.28Z"
            fill="#0774A6" />
        <path
            d="M131.458 409.645L139.059 403.582L152.806 392.49C152.806 392.49 140.37 386.331 140.021 381.651C139.672 376.971 134.128 392.574 126.899 390.698C119.671 388.821 122.281 377.597 124.77 365.747C127.26 353.897 124.77 374.481 139.047 365.169C153.323 355.858 149.402 351.407 140.971 353.897C132.54 356.387 131.939 344.537 137.784 336.958C143.629 329.379 122.581 342.985 106.248 349.53C89.9155 356.086 90.144 347.34 96.7469 338.919C103.35 330.498 71.7423 344.537 61.6515 347.653C51.5606 350.769 38.9922 345.163 26.7845 328.2C26.7845 328.2 28.0714 333.926 29.5267 346.715C30.982 359.503 48.0366 390.698 47.4112 377.994C46.7858 365.29 56.7684 373.23 59.0656 393.513C61.3628 413.796 43.9835 416.286 45.2343 427.234C46.4851 438.181 54.2788 438.121 52.6551 460.738C51.0314 483.355 29.8033 490.309 29.8033 490.309L24.4873 496.505C24.7158 499.801 28.312 502.664 32.317 503.386C36.8393 504.192 39.822 506.069 46.0642 502.544C47.1827 501.918 48.8665 500.932 50.8871 499.741C42.8168 491.175 52.6671 478.94 52.6671 478.94L77.0463 467.56V416.358V409.645L90.0718 366.481C90.7454 363.762 91.1302 361.909 91.1182 361.404C91.1543 361.548 91.2385 361.837 91.3587 362.234L91.6474 361.283L115.606 360.61C115.606 360.61 113.958 375.72 114.223 381.494C114.499 387.269 117.133 393.128 117.097 396.28C117.061 399.432 118.312 415.661 118.312 415.661C118.312 415.661 116.267 415.42 115.101 419.787C113.934 424.154 115.341 431.589 116.977 432.431C118.612 433.273 121.932 431.252 123.832 430.169C124.349 429.868 127.356 427.956 131.458 425.309C126.923 424.876 131.458 409.645 131.458 409.645Z"
            fill="#0774A6" />
        <path
            d="M96.4707 476.582C89.2182 474.477 78.4418 484.282 78.4418 484.282C78.4418 484.282 77.1669 483.488 77.0346 483.343C76.9023 483.187 57.8632 495.759 57.8632 495.759L55.4097 497.419L81.5809 497.924C88.2801 496.601 92.3092 494.868 93.7766 491.247C95.3521 487.361 105.07 479.109 109.087 484.282C106.525 478.916 101.763 478.134 96.4707 476.594V476.582Z"
            fill="#9A7B37" />
        <path
            d="M163.955 405.206L160.624 406.457L131.458 425.309L147.213 426.813C154.105 426.476 154.899 421.351 160.612 418.776C166.866 415.973 166.866 418.74 163.751 425.309C163.294 426.271 163.041 427.282 162.933 428.304L169.007 428.882L177.522 402.68C177.522 402.68 170.101 402.367 168.092 402.066C166.084 401.766 163.943 405.206 163.943 405.206H163.955Z"
            fill="#9A7B37" />
        <path
            d="M164.076 520.625H145.121L304.193 36.476L336.005 34.5752L402.191 488.204L373.891 488.661L315.174 53.6193L164.076 520.625Z"
            fill="#9A2637" />
        <path d="M303.483 460.726H274.942L259.716 225.028L275.267 177.363L303.483 460.726Z"
            fill="#9A2637" />
        <path d="M213.556 21.1373L223.25 23.3148L207.302 58.4314L195.888 59.0811L213.556 21.1373Z"
            fill="#9A2637" />
        <path
            d="M203.008 65.9504L195.262 64.4345L195.887 59.081L174.25 104.977L186.061 102.775L203.008 65.9504Z"
            fill="#9A2637" />
        <path d="M180.926 112.472L170.871 110.33L151.399 151.715L161.995 152.34L180.926 112.472Z"
            fill="#9A2637" />
        <path
            d="M8.83994 218.952C19.5322 223.067 23.1644 232.92 16.2487 241.618C9.32103 250.34 7.20424 248.066 3.29539 245.371C3.17512 245.287 3.05484 245.215 2.93457 245.166C4.54622 249.786 9.14062 250.785 12.2677 250.412C16.0322 249.967 27.1574 246.333 27.1574 246.333L25.9788 220.444L8.83994 218.964V218.952Z"
            fill="#ECB374" />
        <path d="M296.977 35.2489L303.796 15.3988L223.478 1.66019L213.556 21.1373L296.977 35.2489Z"
            fill="#475667" />
        <path
            d="M101.763 37.8114C101.763 37.8114 109.532 34.5993 107.957 27.0202C106.369 19.4531 104.336 6.59262 96.3984 8.50545C96.3984 8.50545 117.699 8.95057 122.546 19.3809C127.393 29.7992 127.633 32.0609 128.391 41.3603C128.391 41.3603 117.121 35.5858 101.763 37.8234V37.8114Z"
            fill="#DBDBDB" />
        <path d="M186.458 377.982L154.502 372.784L155.055 378.318L183.872 383.179L186.458 377.982Z"
            fill="#7F8DA0" />
        <path d="M202.262 326.624L160.973 318.01L160.913 324.326L200.783 331.183L202.262 326.624Z"
            fill="#7F8DA0" />
        <path d="M221.097 268.662L119.118 249.858L118.697 255.08L219.605 273.269L221.097 268.662Z"
            fill="#7F8DA0" />
        <path d="M269.146 121.001L244.069 117.103L236.287 122.457L267.221 126.15L269.146 121.001Z"
            fill="#7F8DA0" />
        <path d="M206.231 111.642L174.251 104.977L170.871 110.33L200.783 116.478L206.231 111.642Z"
            fill="#7F8DA0" />
        <path
            d="M282.893 76.0799C283.362 77.4875 195.875 59.081 195.875 59.081L195.25 64.4345L281.485 81.3853L282.893 76.0799Z"
            fill="#7F8DA0" />
        <path
            d="M26.4719 195.938C25.1248 218.579 26.965 242.315 28.1436 254.49C29.3223 266.665 33.7724 270.911 33.7724 270.911L38.9441 272.271C39.0644 272.09 39.0283 271.886 38.8238 271.669C35.2036 267.916 32.1607 244.998 34.025 250.532C35.8892 256.054 45.2584 268.409 45.6072 256.367C45.956 244.336 32.6298 231.897 32.3411 223.488C29.7793 148.118 44.0797 144.075 44.0797 144.075C28.745 146.915 27.8309 173.297 26.4839 195.938H26.4719Z"
            fill="#45B8EA" />
        <path
            d="M41.542 410.945C45.7876 417.79 40.0987 397.555 35.805 377.982C31.5113 358.408 34.482 342.336 32.6178 331.171C31.5834 324.976 29.6711 321.307 28.7811 319.911C28.9735 320.14 29.2261 320.416 29.5388 320.765C33.0147 324.458 41.0369 327.358 35.805 316.097C30.9941 305.739 29.2622 293.962 29.4546 290.882C29.19 291.339 28.9856 291.88 28.9856 291.88C28.9856 291.88 21.685 311.67 25.0045 323.292L26.52 344.982C26.52 344.982 30.6213 381.952 30.8979 385.296C31.1745 388.64 33.0387 422.518 33.0989 426.404C33.159 430.289 32.8102 436.69 33.3875 440.371C33.9769 444.052 31.9322 466.874 31.9322 466.874L29.8154 490.285C29.8154 490.285 34.482 482.706 36.1778 475.62C37.8737 468.534 35.8892 452.762 36.8273 461.183C37.7654 469.605 42.9131 472.877 43.9595 466.886C45.0179 460.883 38.2345 436.389 35.805 415.444C33.3755 394.511 37.2964 404.087 41.542 410.933V410.945Z"
            fill="#45B8EA" />
        <path
            d="M133.046 152.509C128.367 152.196 126.611 156.563 126.611 156.563C126.611 156.563 100.837 148.767 85.9108 146.734C70.985 144.701 78.514 145.182 78.514 145.182C78.514 145.182 55.3135 133.549 52.6795 133.128C50.0456 132.695 46.9065 132.599 45.9563 136.929C45.0062 141.26 44.5491 144.857 44.5491 144.857C44.5491 144.857 40.8087 146.698 37.417 155.456C34.0253 164.214 31.3071 191.98 38.0183 217.617C38.5475 219.614 39.5338 224.871 41.4341 228.998C41.9512 229.551 42.0956 229.563 41.7829 228.95C37.8379 221.322 40.1111 180.431 41.5543 168.774C42.9976 157.116 44.7897 155.155 61.736 154.53C78.6824 153.904 57.4303 162.169 66.4267 164.202C75.4351 166.223 80.8112 153.291 91.299 154.77C101.787 156.25 89.2303 160.774 99.5256 162.434C109.821 164.094 123.388 160.774 125.456 160.617C127.525 160.461 124.855 178.554 128.066 183.234C131.278 187.914 128.066 183.234 129.822 162.614C130.532 154.289 132.288 152.22 134.128 152.725C133.791 152.617 133.43 152.533 133.058 152.509H133.046Z"
            fill="#BDD35B" />
        <path
            d="M139.733 159.775C139.095 158.055 137.387 154.181 134.597 152.906C137.159 154.181 139.733 159.763 139.733 159.775Z"
            fill="#BDD35B" />
        <path
            d="M10.8844 205.069C7.81749 203.433 7.45667 202.206 6.45841 203.397C5.46015 204.588 4.54608 207.56 4.58216 211.71C4.58216 212.552 3.36741 213.683 3.21106 214.766C3.0547 215.849 2.58564 218.002 4.08904 218.339C4.48594 218.423 6.19381 218.616 8.47899 218.844C7.85357 217.485 6.90342 215.608 8.52709 211.842C11.4617 205.009 12.9772 208.979 16.2606 206.717C18.6901 205.057 24.1505 180.588 27.2896 168.798C22.8756 180.876 13.2418 206.32 10.8965 205.069H10.8844Z"
            fill="#BDD35B" />
        <path d="M361.226 394.872L278.214 390.385L277.288 383.203L360.144 386.848L361.226 394.872Z"
            fill="#313D4D" />
        <path
            d="M183.74 159.775C201.565 144.713 204.03 142.211 210.753 137.387C217.477 132.562 210.681 130.589 214.362 122.204C217.91 114.108 216.442 109.151 213.82 107.948C213.82 107.972 213.808 107.972 213.808 107.972C213.724 107.912 213.64 107.864 213.556 107.816C213.219 107.696 212.774 107.467 212.245 107.166C210.561 106.529 209.503 106.938 208.528 107.371C202.262 110.102 201.986 119.004 203.321 127.209C204.656 135.414 198.943 134.8 188.455 143.666C177.967 152.533 164.4 160.617 164.4 160.617C164.4 160.617 165.94 174.825 183.752 159.775H183.74Z"
            fill="#FDE6CE" />
        <path
            d="M50.8633 76.0799C50.8633 76.0799 46.4853 73.0002 41.482 74.8889C36.4787 76.7777 32.3533 84.5854 33.075 89.8667C33.7966 95.148 38.3429 102.535 50.0454 105.037L52.6794 110.27C52.6794 110.27 54.7481 123.034 54.736 133.765L61.1586 136.761C61.1586 136.761 57.4782 116.009 62.2049 119.87C66.9316 123.732 95.8451 138.782 92.7541 136.761C58.9215 114.565 61.5434 89.8547 61.5434 89.8547C61.5434 89.8547 59.3425 97.2894 54.8683 101.705C50.3822 106.12 50.0454 105.025 49.2516 101.705C48.4698 98.3842 37.513 92.2968 39.4614 86.0411C41.4099 79.7853 44.0558 77.9446 50.8633 76.0679V76.0799Z"
            fill="#FDE6CE" />
        <path
            d="M114.09 20.7042C114.09 20.7042 114.992 23.0381 113.549 25.6487C112.815 26.9841 110.434 28.5961 110.434 28.5961L102.881 30.9781C102.881 30.9781 107.126 31.7 109.195 31.303C111.264 30.906 117.999 29.5225 118.348 26.3224C118.697 23.1223 114.102 20.7042 114.102 20.7042H114.09Z"
            fill="#97C138" />
        <path
            d="M105.876 17.5402C105.876 17.5402 99.5132 16.9026 96.9995 17.8169C94.4978 18.7433 91.4429 19.8862 91.2986 24.0968C91.1422 28.3194 95.448 29.1255 95.448 29.1255C95.448 29.1255 93.9686 25.4201 94.4978 23.1223C95.027 20.8245 98.6111 19.4049 98.6111 19.4049L105.876 17.5282V17.5402Z"
            fill="#536726" />
        <path
            d="M106.729 31.8203C104.023 31.8203 102.376 31.1706 102.243 31.1225C102.099 31.0624 102.015 30.918 102.039 30.7616C102.063 30.6052 102.183 30.4969 102.339 30.4729C110.133 29.751 112.839 26.8156 113.741 24.4818C114.475 22.593 114.018 21.1012 113.874 20.9328C113.741 20.8245 113.717 20.632 113.813 20.4877C113.91 20.3433 114.114 20.3072 114.258 20.3914C114.451 20.4997 118.841 23.1825 118.684 26.1419C118.612 27.5615 117.506 28.7766 115.413 29.751C111.961 31.3511 108.978 31.7962 106.729 31.7962V31.8203ZM104.192 30.93C106.308 31.2789 110.265 31.4233 115.136 29.1736C116.989 28.3194 117.963 27.2969 118.023 26.1419C118.119 24.3013 115.978 22.4607 114.752 21.5584C114.872 22.2802 114.836 23.2667 114.523 24.2772C113.898 26.3344 111.709 29.7871 104.192 30.93Z"
            fill="#010101" />
        <path
            d="M95.448 29.4623C95.448 29.4623 95.3879 29.4623 95.3638 29.4623C95.2436 29.4262 92.4532 28.6322 91.4069 26.2863C90.7814 24.8667 90.9258 23.2065 91.8639 21.3539C94.9068 15.2906 106.116 17.0831 106.585 17.1673C106.754 17.1914 106.874 17.3478 106.862 17.5162C106.862 17.6846 106.718 17.8169 106.549 17.829C106.465 17.829 97.9136 18.2861 95.3999 22.5449C94.3776 24.2772 94.4979 26.4547 95.7487 28.9931C95.8088 29.1134 95.7848 29.2458 95.7126 29.354C95.6525 29.4262 95.5563 29.4744 95.46 29.4744L95.448 29.4623ZM102.496 17.5282C98.984 17.5282 94.1851 18.2019 92.4653 21.6306C91.6233 23.3028 91.479 24.7705 92.0323 25.9976C92.6457 27.369 93.9807 28.151 94.8226 28.524C93.7882 26.0818 93.8003 23.9524 94.8346 22.184C96.5184 19.3207 100.536 18.0696 103.398 17.5402C103.109 17.5402 102.809 17.5282 102.508 17.5282H102.496Z"
            fill="#010101" />
        <path
            d="M96.9514 27.5134C96.6507 27.5134 96.3861 27.4412 96.2659 27.1886C96.0013 26.6713 97.4325 23.0141 97.6971 22.6171C97.7452 22.5569 97.8054 22.5088 97.8896 22.4847C97.9978 22.4607 98.972 22.184 99.4531 22.184C100.259 22.184 102.171 26.3344 102.183 26.3826C102.255 26.5871 102.219 26.7435 102.087 26.8397C101.979 26.9239 101.834 26.96 100.692 27.1525C100.463 27.1886 100.259 27.2247 100.127 27.2487C99.9703 27.2728 99.8259 27.2487 99.7057 27.1405C99.4411 26.9119 99.4651 26.4788 99.4892 26.0096C99.4892 25.9374 99.4892 25.8292 99.4892 25.7449C99.2246 25.7449 98.7074 25.8652 98.4789 25.9615C98.4789 26.0337 98.4789 26.1299 98.4789 26.2021C98.5029 26.575 98.5511 27.2848 97.9136 27.369L97.661 27.4051C97.4205 27.4412 97.1679 27.4773 96.9394 27.4773L96.9514 27.5134ZM98.1782 23.0983C97.7933 23.796 96.9635 26.2863 96.8793 26.8878C96.9995 26.8758 97.3483 26.8156 97.5648 26.7916L97.8294 26.7555C97.8294 26.7555 97.8294 26.4186 97.8294 26.2863C97.8054 25.9735 97.7933 25.6607 98.0339 25.4923C98.2985 25.3119 99.3088 25.0592 99.7297 25.1314C99.874 25.1555 99.9943 25.2276 100.066 25.3359C100.175 25.5043 100.163 25.7329 100.151 26.0698C100.151 26.2141 100.139 26.4427 100.151 26.5871C100.271 26.563 100.427 26.5389 100.584 26.5149C100.836 26.4668 101.197 26.4066 101.462 26.3585C101.077 25.4923 99.7899 23.1945 99.393 22.8697C99.0802 22.8938 98.5029 23.0261 98.1902 23.1103L98.1782 23.0983Z"
            fill="#010101" />
        <path
            d="M104.421 26.7555C104.108 26.7555 103.807 26.7555 103.494 26.7314C103.29 26.7314 103.134 26.7194 103.037 26.7314C102.905 26.7314 102.725 26.6953 102.544 26.5029C102.015 25.9374 101.811 24.2171 101.931 22.9539C102.087 21.2336 103.518 21.0651 104.781 20.9087L105.154 20.8606C105.563 20.8125 105.948 20.9087 106.249 21.1614C106.922 21.7388 106.97 22.8817 106.97 23.0141C106.97 23.1825 106.862 23.3148 106.706 23.3509L105.419 23.6035C105.335 23.6156 105.238 23.6035 105.166 23.5434C105.094 23.4953 105.046 23.4111 105.034 23.3268C105.022 23.2306 104.986 23.1704 104.95 23.1344C104.817 23.0381 104.433 23.1103 104.228 23.1464C104.072 23.2065 103.627 23.9163 103.687 24.5178C103.711 24.8066 103.855 24.963 104.156 25.0231C104.505 25.0953 104.769 25.0712 104.926 24.9389C105.142 24.7585 105.142 24.4096 105.142 24.4096C105.142 24.3133 105.178 24.2291 105.238 24.169C105.298 24.1088 105.395 24.0727 105.479 24.0727C106.862 24.1088 106.934 24.193 107.03 24.3013C107.066 24.3494 107.091 24.3975 107.103 24.4577C107.475 25.2878 107.355 25.9013 106.778 26.3104C106.273 26.6833 105.383 26.7675 104.457 26.7675L104.421 26.7555ZM103.17 26.0577C103.254 26.0577 103.386 26.0577 103.518 26.0577C104.252 26.0818 105.792 26.1419 106.345 25.7449C106.706 25.4803 106.67 25.1795 106.477 24.7705C106.309 24.7464 106.02 24.7344 105.719 24.7224C105.671 24.9389 105.563 25.2156 105.311 25.4201C104.986 25.6968 104.541 25.769 103.975 25.6487C103.338 25.5164 102.965 25.0592 102.977 24.3855C102.977 23.6396 103.518 22.581 104.072 22.4727C104.408 22.4005 104.938 22.3043 105.299 22.5689C105.407 22.6411 105.491 22.7494 105.551 22.8697L106.261 22.7374C106.213 22.3885 106.08 21.8952 105.792 21.6546C105.635 21.5223 105.455 21.4742 105.226 21.5103L104.853 21.5584C103.482 21.7268 102.689 21.8712 102.592 23.002C102.448 24.5299 102.809 25.9134 103.061 26.0577C103.085 26.0577 103.134 26.0577 103.182 26.0577H103.17Z"
            fill="#010101" />
        <path
            d="M108.281 25.9374C108.281 25.9374 108.197 25.9374 108.185 25.9374C107.848 25.8653 107.764 25.7089 107.379 22.1479C107.307 21.5223 107.247 20.8606 107.211 20.7524C107.163 20.5839 107.259 20.4035 107.427 20.3554C107.68 20.2711 109.965 19.5373 110.891 20.608C111.228 21.005 111.252 21.3779 111.216 21.6185C111.18 21.8591 111.059 22.0757 110.915 22.2561C111.107 22.3163 111.336 22.4005 111.601 22.5328C111.961 22.7133 112.202 23.0261 112.286 23.4111C112.43 24.1329 112.022 24.9269 111.805 25.1916C111.444 25.6246 108.858 25.9374 108.281 25.9374ZM107.908 20.8967C107.944 21.1494 107.98 21.5343 108.041 22.0757C108.149 23.0381 108.329 24.7585 108.461 25.2878C109.063 25.2637 111.047 24.9269 111.312 24.7464C111.42 24.6141 111.721 24.0005 111.625 23.5554C111.589 23.3629 111.48 23.2306 111.288 23.1344C110.53 22.7494 110.217 22.8336 110.217 22.8336C110.061 22.9178 109.869 22.8456 109.784 22.6892C109.7 22.5328 109.772 22.3283 109.917 22.2321C110.073 22.1479 110.482 21.8351 110.53 21.5103C110.554 21.3539 110.494 21.2095 110.362 21.0411C109.893 20.4997 108.582 20.7163 107.884 20.9087L107.908 20.8967Z"
            fill="#010101" />
        <path
            d="M98.2985 24.9269C98.2143 24.9269 98.1301 24.8908 98.058 24.8306C97.9858 24.7585 97.9497 24.6382 97.9618 24.5299L98.1301 23.6396C98.1542 23.5073 98.2624 23.399 98.3947 23.375L99.0562 23.2426C99.2006 23.2186 99.3449 23.2787 99.4171 23.4111L99.838 24.181C99.8861 24.2772 99.8981 24.3855 99.838 24.4818C99.7899 24.578 99.7057 24.6502 99.5975 24.6622L98.3466 24.9028C98.3466 24.9028 98.2985 24.9028 98.2865 24.9028L98.2985 24.9269ZM98.7556 23.9885L98.7195 24.169L99.0442 24.1088L98.96 23.9524L98.7556 23.9885Z"
            fill="#010101" />
        <path
            d="M108.714 22.4968C108.642 22.4968 108.582 22.4727 108.522 22.4366C108.449 22.3885 108.401 22.3163 108.377 22.2201L108.221 21.4261C108.197 21.2817 108.269 21.1373 108.401 21.0651C108.558 20.993 109.087 20.7524 109.472 20.9328C109.64 21.017 109.76 21.1734 109.796 21.3779C109.845 21.6306 109.808 21.8471 109.688 22.0276C109.484 22.3283 109.099 22.4246 108.762 22.4847C108.738 22.4847 108.714 22.4847 108.702 22.4847L108.714 22.4968ZM108.943 21.5704L108.979 21.7509C109.063 21.7268 109.135 21.6907 109.159 21.6546C109.183 21.6185 109.171 21.5464 109.159 21.5103C109.135 21.5103 109.051 21.5343 108.943 21.5704Z"
            fill="#010101" />
        <path
            d="M109.327 24.975C109.183 24.975 109.051 24.8788 109.003 24.7344C108.738 23.8321 108.798 23.6276 108.81 23.5554C108.846 23.4471 108.918 23.3629 109.027 23.3268C109.171 23.2787 109.929 23.0622 110.422 23.3268C110.614 23.4351 110.747 23.5915 110.807 23.796C110.867 24.0005 110.831 24.2051 110.711 24.3855C110.398 24.8427 109.52 24.9389 109.339 24.963H109.315L109.327 24.975ZM109.484 23.9163C109.508 24.0126 109.532 24.1449 109.568 24.2772C109.881 24.2171 110.145 24.0968 110.181 24.0246C110.181 23.9765 110.157 23.9524 110.121 23.9404C109.989 23.8682 109.724 23.8802 109.496 23.9284L109.484 23.9163Z"
            fill="#010101" />
        <path
            d="M101.582 138.614C89.5067 138.614 72.0792 131.853 49.8649 105.687C47.7241 105.097 30.4529 99.9482 32.5818 87.0516C33.6402 80.6394 36.6229 76.1281 40.9647 74.3716C44.188 73.0723 47.9646 73.3972 50.7549 75.2017C53.3528 72.3024 67.9659 55.893 69.6256 53.126C70.6239 51.4658 78.189 45.1379 89.3022 40.7468C99.0202 36.9091 113.681 33.7812 128.331 40.6987C145.866 48.9635 148.741 53.7275 149.968 55.7607C150.076 55.9411 150.172 56.0975 150.256 56.2178C152.084 58.7803 152.193 61.6676 150.545 63.7488C147.538 67.5745 140.033 67.6467 130.363 63.9894V64.0135L130.279 64.9158C129.569 72.7475 129.112 77.9326 130.339 79.7733C130.928 80.6515 132.071 81.2891 133.394 82.0109C137.159 84.0801 142.306 86.9193 140.671 98.8895C138.349 115.78 121.343 132.31 114.595 135.642C111.384 137.23 107.018 138.602 101.582 138.602V138.614ZM45.0781 74.913C43.8513 74.913 42.6245 75.1416 41.4699 75.6108C38.7157 76.7296 35.1556 79.653 33.9048 87.2682C31.8481 99.7436 50.2137 104.399 50.4061 104.448L50.6106 104.496L50.7549 104.664C82.4828 142.115 104.012 139.408 114.018 134.451C120.573 131.203 137.123 115.13 139.372 98.709C140.887 87.6531 136.389 85.1749 132.769 83.1778C131.349 82.3959 130.026 81.662 129.257 80.5071C127.765 78.2695 128.222 73.1927 128.98 64.7955L129.064 63.8932C129.654 57.3246 130.856 49.0838 130.868 48.9996L132.191 49.1921C132.191 49.2643 131.145 56.3742 130.532 62.618C141.404 66.8166 147.478 65.5654 149.535 62.9308C150.797 61.3187 150.665 59.045 149.198 56.9878C149.09 56.8434 148.981 56.6629 148.849 56.4464C147.779 54.6779 144.94 49.9981 127.777 41.9017C101.378 29.4503 72.885 50.2989 70.7803 53.8118C68.904 56.9517 52.0779 75.7311 51.3683 76.5251L50.9594 76.9822L50.4663 76.6213C48.9508 75.4904 47.0265 74.913 45.0781 74.913Z"
            fill="#010101" />
        <path
            d="M149.017 64.4466L147.682 64.4105C147.742 62.2571 145.926 58.3713 142.354 55.099C139.636 52.6087 133.755 48.5906 124.843 49.5891C118.552 50.2989 112.442 53.4268 107.042 56.1697C101.907 58.7923 97.4685 61.042 93.8483 60.8254C86.5959 60.3563 72.6202 52.0673 72.0309 51.7185L71.8385 51.5982L71.7543 51.3816C67.677 41.0475 69.5894 28.4157 76.6253 19.2125C83.0118 10.8514 92.2607 6.88136 102.7 8.02424C128.018 10.8033 129.389 34.1181 129.846 41.7814L128.523 41.8536C128.09 34.4669 126.767 11.9943 102.568 9.33555C92.6215 8.24079 83.7815 12.0303 77.6957 20.0065C70.9845 28.7886 69.1323 40.7949 72.9209 50.6718C74.6649 51.6944 87.4619 59.057 93.9445 59.478C97.1919 59.6946 101.486 57.5051 106.453 54.9667C111.949 52.1636 118.179 48.9876 124.698 48.2417C134.116 47.171 140.37 51.4418 143.256 54.0884C146.72 57.2645 149.089 61.5112 149.017 64.4105V64.4466Z"
            fill="#010101" />
        <path
            d="M41.3615 74.2754C39.2808 54.7622 43.1295 39.0625 52.8235 27.6217C67.0397 10.8273 89.7471 8.24079 96.3621 7.85582L96.4343 9.17916C89.9516 9.56413 67.7132 12.0905 53.8338 28.4758C44.3924 39.628 40.6399 54.9907 42.6845 74.131L41.3615 74.2754Z"
            fill="#010101" />
        <path
            d="M119.31 85.1147C116.135 85.1147 112.503 83.9117 111.48 82.7568C110.29 81.4094 109.484 74.6964 111.42 70.4016C112.611 67.7549 114.668 66.3594 117.374 66.3594C120.248 66.3594 122.569 67.8151 124.085 70.5821C126.358 74.7205 126.19 80.7718 124.975 82.6726C124.085 84.0681 122.437 84.8982 120.212 85.0786C119.923 85.1027 119.623 85.1147 119.31 85.1147ZM117.362 67.6948C115.197 67.6948 113.597 68.7895 112.623 70.955C110.759 75.0934 111.829 81.1567 112.467 81.8786C113.164 82.6726 116.881 84.0079 120.092 83.7553C121.343 83.659 123.002 83.262 123.832 81.9628C124.746 80.5312 124.975 75.0213 122.894 71.2317C121.607 68.8858 119.743 67.7068 117.35 67.7068L117.362 67.6948Z"
            fill="#010101" />
        <path
            d="M110.927 101.055C108.69 101.055 106.802 100.129 106.694 100.08L107.283 98.8895C107.283 98.8895 110.591 100.502 113.249 99.2383C114.836 98.4804 115.919 96.8443 116.472 94.354C117.675 89.0125 115.245 87.8456 112.431 86.4982C110.879 85.7523 109.268 84.9824 108.474 83.4064C106.429 79.3642 108.33 66.8406 108.414 66.3113L109.725 66.5158C109.701 66.6361 107.812 79.1356 109.665 82.8049C110.254 83.9718 111.589 84.6215 113.008 85.2952C115.762 86.6185 119.202 88.2546 117.771 94.6427C117.121 97.5541 115.786 99.503 113.814 100.441C112.852 100.899 111.854 101.055 110.915 101.055H110.927Z"
            fill="#010101" />
        <path
            d="M114.511 83.5628C113.08 78.1251 113.417 73.9987 115.534 71.3039C117.975 68.188 121.824 68.2 121.98 68.2121V69.5474H121.956C121.848 69.5474 118.564 69.5715 116.568 72.146C114.74 74.504 114.475 78.2334 115.798 83.238L114.511 83.5748V83.5628Z"
            fill="#010101" />
        <path
            d="M125.24 66.5158C124.795 66.5158 124.301 66.1068 123.52 65.4571C121.583 63.833 117.963 60.8134 112.996 61.4991C110.169 61.8961 108.389 61.5232 107.716 60.4044C107.247 59.6465 107.391 58.6359 108.089 57.6494C109.111 56.2058 111.24 54.9426 113.044 55.3155C118.18 56.3862 124.277 58.3833 125.829 64.2661C126.093 65.2767 126.238 66.0226 125.673 66.3835C125.528 66.4797 125.384 66.5158 125.24 66.5158ZM114.427 60.0675C119.154 60.0675 122.618 62.9668 124.374 64.4346C124.422 64.4827 124.47 64.5188 124.53 64.5669C123.435 60.4886 119.911 58.1186 112.767 56.6148C111.565 56.3622 109.929 57.3487 109.171 58.4194C108.798 58.9487 108.678 59.4299 108.846 59.7187C109.123 60.1758 110.302 60.5367 112.803 60.1878C113.357 60.1157 113.898 60.0796 114.427 60.0796V60.0675Z"
            fill="#010101" />
        <path
            d="M88.6528 86.7027C84.5515 86.7027 80.4863 85.6922 79.476 84.9944C79.3437 84.8982 79.2235 84.826 79.1152 84.7538C77.8644 83.9237 77.8884 83.5748 78.0809 81.3372C78.1771 80.2545 78.3094 78.6183 78.4056 76.116C78.5379 72.6633 79.8248 69.8482 82.11 67.9835C84.5876 65.9744 88.2198 65.1323 91.8039 65.7579C97.6853 66.7684 99.0203 76.1882 98.4309 81.0003C98.1784 83.1057 96.9516 84.6696 94.8108 85.632C93.0548 86.426 90.8418 86.7148 88.6288 86.7148L88.6528 86.7027ZM89.4827 66.8767C87.0051 66.8767 84.6718 67.6226 82.9639 69.0061C80.9434 70.6422 79.8609 73.0483 79.7406 76.1521C79.6444 78.6905 79.5001 80.3507 79.4039 81.4455C79.2996 82.6485 79.448 83.3824 79.8489 83.647C79.9571 83.7192 80.0894 83.8034 80.2337 83.9117C81.4365 84.7418 89.7232 86.4621 94.2816 84.417C96.0014 83.647 96.9276 82.4801 97.132 80.8439C97.6492 76.5972 96.5307 67.9234 91.5995 67.0692C90.8899 66.9489 90.1803 66.8887 89.4827 66.8887V66.8767Z"
            fill="#010101" />
        <path
            d="M84.251 85.5839L82.916 85.5478C82.916 85.2711 83.1084 78.5943 84.0466 74.528C84.6359 71.9655 87.5224 69.3189 90.7457 68.3805C93.067 67.6948 95.0876 68.0437 96.4226 69.355L95.4845 70.3054C94.1735 69.0181 92.177 69.3429 91.1186 69.6557C88.3644 70.4618 85.8266 72.7355 85.3455 74.8288C84.4314 78.7747 84.251 85.5238 84.251 85.5959V85.5839Z"
            fill="#010101" />
        <path
            d="M79.0911 66.576C78.8746 66.576 78.6701 66.5399 78.4536 66.4677C78.0567 66.3354 77.7801 66.0466 77.6719 65.6496C77.1427 63.7609 81.28 58.6359 83.0841 56.5186L84.0944 57.3848C81.1718 60.8134 78.8626 64.3263 78.9347 65.2286C79.6564 65.3729 80.8952 64.3142 82.3144 63.0872C83.9621 61.6555 86.0067 59.8871 88.761 58.5156L89.3503 59.7066C86.7404 61.0059 84.7679 62.7142 83.1803 64.0977C81.5567 65.5053 80.3058 66.588 79.0911 66.588V66.576Z"
            fill="#010101" />
        <path
            d="M92.0686 83.2981C90.4088 83.2981 89.1099 81.5778 89.1099 79.3883C89.1099 77.1987 90.4088 75.4784 92.0686 75.4784C93.7283 75.4784 95.0273 77.1987 95.0273 79.3883C95.0273 81.5778 93.7283 83.2981 92.0686 83.2981ZM92.0686 76.8017C91.1786 76.8017 90.4329 77.9807 90.4329 79.3883C90.4329 80.7958 91.1786 81.9748 92.0686 81.9748C92.9586 81.9748 93.7043 80.7958 93.7043 79.3883C93.7043 77.9807 92.9586 76.8017 92.0686 76.8017Z"
            fill="#010101" />
        <path
            d="M120.152 82.047C118.757 82.047 117.674 80.6033 117.674 78.7627C117.674 76.9221 118.757 75.4784 120.152 75.4784C121.547 75.4784 122.63 76.9221 122.63 78.7627C122.63 80.6033 121.535 82.047 120.152 82.047ZM120.152 76.8017C119.611 76.8017 119.009 77.6078 119.009 78.7627C119.009 79.9176 119.611 80.7236 120.152 80.7236C120.693 80.7236 121.295 79.9176 121.295 78.7627C121.295 77.6078 120.693 76.8017 120.152 76.8017Z"
            fill="#010101" />
        <path
            d="M48.0848 97.6503C47.4473 97.6503 46.6656 97.53 45.9319 97.0969C44.8735 96.4714 44.188 95.3766 43.8752 93.8247C43.2739 90.781 45.523 89.0486 47.8081 88.4471C48.2892 88.3268 48.8305 88.2065 49.2755 88.2306C49.4198 87.1118 49.4679 84.5974 48.3734 83.1417C47.7721 82.3357 46.9061 81.9868 45.7274 82.047C43.0093 82.2034 41.5179 83.647 40.7602 84.838C39.6417 86.5824 39.3771 88.8682 40.0746 90.6607L38.8358 91.1419C37.9819 88.9644 38.2946 86.2095 39.6417 84.1162C40.9526 82.071 43.0935 80.856 45.6553 80.7116C48.3855 80.5552 50.1174 82.2034 50.5624 85.3313C50.5624 85.3674 51.0435 89.4216 49.9129 89.6863L49.3236 89.8306L49.2274 89.5659C48.6019 89.578 46.9783 89.8908 45.9439 90.8893C45.1982 91.5991 44.9457 92.4773 45.1622 93.5721C45.3907 94.727 45.8597 95.521 46.5693 95.942C47.6759 96.6037 49.047 96.1826 49.059 96.1826L49.4679 97.4579C49.4679 97.4579 48.8425 97.6503 48.0487 97.6503H48.0848ZM49.1311 89.2291C49.1311 89.2291 49.1311 89.2411 49.1311 89.2532V89.2291Z"
            fill="#010101" />
        <path
            d="M110.398 120.544C94.7026 120.544 90.6735 105.542 89.9999 102.39L89.9759 102.294L90.6254 102.138L89.9639 102.126L90.5652 101.464C90.7817 101.44 91.1786 101.488 91.3109 102.114C91.9724 105.229 96.1459 120.713 112.852 119.088L112.984 120.412C112.094 120.496 111.24 120.544 110.41 120.544H110.398Z"
            fill="#010101" />
        <path
            d="M58.5608 86.3178C58.2481 86.3178 57.8993 86.2336 57.5144 85.9929C54.7481 84.2365 52.9681 75.1777 52.8599 73.1445L54.1829 73.0723C54.3392 75.7671 56.2756 83.635 58.224 84.8741C58.4646 85.0305 58.6089 85.0065 58.7292 84.9583C61.3631 83.9117 67.8819 76.9221 68.2908 74.7205C68.4712 73.6979 68.4712 70.3896 68.4712 66.8767C68.4712 62.0285 68.4712 56.5306 68.9283 54.2328L70.2392 54.4975C69.8062 56.6629 69.8062 62.0886 69.8062 66.8767C69.8062 70.6061 69.8062 73.8182 69.6018 74.9611C69.0846 77.8123 62.0848 85.0546 59.2223 86.1975C59.0419 86.2696 58.8254 86.3298 58.5608 86.3298V86.3178Z"
            fill="#010101" />
        <path
            d="M79.031 244C67.4969 244 50.7189 240.15 44.4768 234.267C36.3223 226.592 30.429 186.47 34.3017 165.032C37.97 144.677 45.5111 141.597 52.2945 140.322C58.5246 139.131 126.899 155.3 127.585 155.456L127.272 156.755C115.305 153.856 57.6827 140.647 52.5471 141.633C47.6399 142.56 39.4253 144.112 35.6127 165.273C31.8843 185.941 37.6453 225.99 45.3909 233.305C53.3649 240.811 80.5104 245.046 87.9913 241.305C90.9741 239.813 95.0513 230.501 97.565 194.579C97.6612 193.195 97.7214 192.365 97.7574 192.052L99.0804 192.221C99.0444 192.498 98.9842 193.412 98.888 194.675C96.7953 224.426 93.4276 240.066 88.5807 242.496C86.512 243.53 83.0962 244.012 79.031 244.012V244Z"
            fill="#010101" />
        <path
            d="M115.016 194.663C110.554 194.663 96.1216 192.522 83.3487 190.621C74.3283 189.286 65.813 188.022 63.624 187.95L63.6601 186.615C65.9333 186.687 74.0877 187.89 83.5411 189.298C96.5185 191.222 111.24 193.424 115.245 193.328C122.076 193.171 124.301 192.726 124.325 192.714L124.602 194.013C124.506 194.038 122.281 194.495 115.281 194.651C115.197 194.651 115.113 194.651 115.016 194.651V194.663Z"
            fill="#010101" />
        <path
            d="M130.423 201.099C127.019 201.099 124.518 199.211 123.808 196.022C123.327 193.869 124.145 180.371 125.095 166.103C125.215 164.359 125.3 162.975 125.36 162.145L125.408 161.423C125.6 157.995 125.805 154.434 128.03 152.701C129.269 151.727 130.952 151.45 133.165 151.871C138.373 152.846 139.504 157.309 140.418 160.894C140.755 162.241 141.079 163.504 141.56 164.359L140.406 165.02C139.828 164.01 139.492 162.65 139.131 161.219C138.277 157.826 137.303 153.988 132.925 153.17C131.109 152.834 129.774 153.026 128.848 153.748C127.092 155.119 126.911 158.367 126.731 161.507L126.683 162.229C126.635 163.071 126.538 164.455 126.418 166.199C125.877 174.368 124.602 193.484 125.107 195.734C125.721 198.501 127.958 200.005 131.109 199.74C133.875 199.511 137.856 192.883 139.143 190.356L140.322 190.958C139.804 191.956 135.198 200.726 131.205 201.063C130.928 201.087 130.664 201.099 130.399 201.099H130.423Z"
            fill="#010101" />
        <path
            d="M146.624 202.026C146.396 202.026 146.167 202.026 145.926 202.002C141.573 201.665 137.387 194.651 137.219 194.35L138.361 193.677C139.468 195.541 142.992 200.45 146.023 200.678C149.39 200.931 150.761 199.174 151.23 193.953C151.832 187.301 153.961 159.607 152.517 155.721C152.181 154.819 151.591 154.289 150.701 154.109C148.452 153.652 144.976 155.601 143.485 157.189C141.116 159.715 139.865 160.497 139.805 160.533L139.107 159.402C139.107 159.402 140.286 158.656 142.511 156.286C144.231 154.458 148.115 152.232 150.966 152.809C152.301 153.074 153.263 153.928 153.756 155.264C155.536 160.064 152.578 193.749 152.553 194.086C152.181 198.236 151.182 202.05 146.612 202.05L146.624 202.026Z"
            fill="#010101" />
        <path
            d="M160.239 161.423C159.457 161.423 158.675 161.423 157.966 161.399C154.831 161.351 153.199 161.179 153.071 160.882L153.684 160.617L153.744 159.956C154.081 159.98 161.61 160.256 164.316 159.956C166.048 159.727 180.83 148.575 189.67 141.91C195.142 137.784 199.472 134.511 200.987 133.549C203.2 132.129 202.827 128.641 202.382 124.61C202.058 121.591 201.709 118.463 202.419 115.696C203.657 110.824 206.051 107.455 208.997 106.457C210.79 105.855 212.642 106.204 214.217 107.455L213.387 108.502C212.161 107.527 210.79 107.263 209.418 107.72C206.953 108.562 204.812 111.666 203.705 116.021C203.056 118.559 203.393 121.567 203.705 124.466C204.175 128.749 204.608 132.791 201.709 134.668C200.242 135.618 195.719 139.023 190.476 142.981C176.44 153.567 166.349 161.074 164.461 161.291C163.462 161.399 161.851 161.435 160.251 161.435L160.239 161.423Z"
            fill="#010101" />
        <path
            d="M173.012 196.708C168.766 196.708 162.344 195.962 155.921 195.156C154.225 194.94 152.77 194.759 151.844 194.663L151.976 193.34C152.926 193.436 154.394 193.616 156.089 193.833C162.452 194.639 174.287 196.119 176.728 194.964C179.795 193.496 215.324 154.385 219.208 149.152C220.964 146.782 222.768 146.698 224.356 146.614C226.689 146.494 229.107 146.361 232.39 138.529C236.588 128.484 235.65 124.719 235.301 123.299C235.18 122.818 235 122.084 235.722 121.795C235.986 121.675 237.057 120.773 237.923 120.039C239.426 118.764 241.29 117.188 242.517 116.526C243.96 115.756 246.979 116.309 249.649 116.803C250.984 117.055 252.512 117.332 252.993 117.236C253.63 117.103 255.037 116.141 255.314 114.83C255.543 113.711 254.893 112.616 253.366 111.557C248.723 108.333 237.321 106.854 234.868 109.175C234.146 109.849 233.352 110.499 232.522 111.184C230.057 113.194 227.267 115.467 225.342 119.437L224.139 118.86C226.196 114.625 229.107 112.255 231.669 110.162C232.486 109.488 233.268 108.863 233.942 108.213C237.045 105.278 249.3 107.118 254.111 110.475C256.601 112.207 256.842 113.951 256.601 115.118C256.216 116.983 254.364 118.331 253.245 118.559C252.548 118.703 251.333 118.487 249.397 118.126C247.184 117.717 244.165 117.152 243.13 117.705C242.036 118.294 240.22 119.834 238.765 121.061C237.658 122 236.985 122.565 236.54 122.854C236.54 122.902 236.564 122.95 236.576 122.986C236.961 124.526 237.971 128.604 233.605 139.059C230.009 147.66 227.038 147.817 224.416 147.949C222.877 148.033 221.65 148.094 220.267 149.958C215.997 155.697 180.757 194.519 177.293 196.179C176.476 196.564 174.972 196.732 173.012 196.732V196.708Z"
            fill="#010101" />
        <path
            d="M218.655 114.048L217.404 113.603C217.488 113.362 217.573 113.085 217.669 112.785C218.643 109.633 220.652 103.088 231.969 101.464C239.113 100.441 244.706 102.583 248.567 107.828C248.675 107.984 248.759 108.093 248.819 108.153C248.819 108.153 248.735 108.069 248.579 108.02L248.218 109.308C247.941 109.236 247.809 109.055 247.484 108.622C243.936 103.798 238.777 101.837 232.15 102.787C221.674 104.291 219.882 110.078 218.932 113.182C218.836 113.506 218.739 113.795 218.655 114.048Z"
            fill="#010101" />
        <path
            d="M210.417 116.622L209.118 116.321C209.911 112.833 214.903 103.485 219.654 99.8399C222.552 97.6142 226.269 98.0353 228.217 98.4684C230.839 99.0579 233.196 100.369 233.81 101.572L232.619 102.174C232.306 101.56 230.598 100.369 227.916 99.7677C226.184 99.3827 222.925 99.0098 220.459 100.899C216.009 104.303 211.15 113.374 210.417 116.61V116.622Z"
            fill="#010101" />
        <path
            d="M55.3855 133.898L54.0745 133.645C54.8202 129.687 52.0419 108.213 52.0059 107.996L53.3289 107.828C53.4491 108.718 56.1793 129.735 55.3855 133.898Z"
            fill="#010101" />
        <path
            d="M96.627 148.31L95.292 148.286C95.292 147.985 95.4363 140.791 96.2301 137.76L97.517 138.096C96.7713 140.972 96.615 148.238 96.615 148.31H96.627Z"
            fill="#010101" />
        <path
            d="M115.281 217.485C112.683 217.485 107.656 215.668 106.694 215.187C106.177 214.922 105.395 214.537 105.623 205.502C105.744 200.63 106.116 195.493 106.333 193.231L107.656 193.352C106.97 200.606 106.537 212.636 107.367 214.032C109.244 214.934 114.848 216.582 115.822 216.101C116.352 215.68 116.7 211.915 116.568 208.065L117.903 208.017C118.023 211.145 117.987 216.522 116.424 217.292C116.147 217.424 115.762 217.485 115.293 217.485H115.281Z"
            fill="#010101" />
        <path
            d="M118.456 210.339C117.987 210.339 116.881 210.339 108.486 193.833L109.677 193.231C113.056 199.872 116.977 207.018 118.348 208.715C119.214 206.345 119.755 196.407 117.963 194.447L118.95 193.556C121.271 196.107 120.525 207.066 119.443 209.521C119.202 210.062 118.865 210.339 118.456 210.339Z"
            fill="#010101" />
        <path d="M111.544 216.304L110.968 233.666L112.302 233.71L112.878 216.348L111.544 216.304Z"
            fill="#010101" />
        <path
            d="M99.9825 282.064L99.5134 281.594L98.876 281.414C99.1406 280.139 101.823 245.539 102.833 232.318L102.893 231.536L103.663 231.729C106.441 232.426 114.139 233.918 116.231 232.523C117.097 231.945 117.795 231.368 118.336 230.911C119.599 229.864 120.597 229.034 121.932 229.948C122.305 230.213 122.401 230.73 122.437 231.428C122.678 236.613 118.396 263.212 112.19 268.445L111.336 267.423C117.169 262.514 121.824 233.726 121.066 230.971C120.681 230.766 120.381 230.935 119.19 231.933C118.613 232.414 117.891 233.004 116.965 233.629C114.367 235.362 106.694 233.798 104.096 233.208C100.391 281.667 100.223 281.835 99.9825 282.076V282.064Z"
            fill="#010101" />
        <path
            d="M92.8263 300.35C91.3349 300.35 89.8436 299.893 89.0859 299.375C87.0172 297.992 90.6855 281.787 91.4673 280.271C92.1889 278.888 93.9809 278.755 95.3881 279.357C96.639 279.886 97.3005 280.861 97.0719 281.823C97.1561 283.134 97.8056 293.913 97.108 297.33C96.8434 298.593 96.0977 299.508 94.9311 299.989C94.2936 300.253 93.56 300.362 92.8384 300.362L92.8263 300.35ZM89.8797 298.305C90.6735 298.786 92.8985 299.363 94.4139 298.738C95.1716 298.425 95.6166 297.871 95.7971 297.041C96.4946 293.661 95.7369 281.895 95.7369 281.775V281.643L95.773 281.522C95.8812 281.197 95.3881 280.788 94.871 280.572C94.0411 280.223 92.9827 280.235 92.6579 280.873C91.5875 282.942 89.17 296.789 89.8917 298.305H89.8797Z"
            fill="#010101" />
        <path
            d="M55.3253 297.98C53.6776 297.98 51.7893 297.462 50.8873 296.668C48.999 294.996 51.657 277.095 52.0299 275.712C52.2945 274.749 53.0402 274.148 54.0865 274.063C55.8305 273.931 58.3803 275.254 59.4146 277.48C60.3768 279.537 58.9455 294.695 58.5246 296.344C58.4043 296.813 58.0315 297.45 56.949 297.775C56.48 297.92 55.9267 297.98 55.3374 297.98H55.3253ZM54.3632 275.375C54.3632 275.375 54.2429 275.375 54.1948 275.375C53.5453 275.435 53.3769 275.784 53.3048 276.048C52.4989 278.972 50.8392 294.31 51.7893 295.682C52.5831 296.38 55.0968 296.921 56.5521 296.476C56.8288 296.392 57.1655 296.235 57.2257 295.983C57.7909 293.817 58.8493 279.417 58.1999 278.021C57.4662 276.445 55.626 275.363 54.3632 275.363V275.375Z"
            fill="#010101" />
        <path d="M58.8653 277.114L58.7529 278.444L91.998 281.254L92.1104 279.923L58.8653 277.114Z"
            fill="#010101" />
        <path d="M57.9279 295.495L57.8164 296.826L89.3975 299.473L89.509 298.142L57.9279 295.495Z"
            fill="#010101" />
        <path
            d="M52.4988 276.53L33.4477 271.513L33.3274 271.405C22.8998 262.105 24.3671 193.183 28.2158 167.932C31.5474 146.085 41.4338 143.642 44.1399 143.39C44.2602 140.936 45.0419 132.334 49.9971 132.033C50.0573 132.033 50.1294 132.033 50.2016 132.033C55.8183 132.033 79.1151 144.34 80.1254 144.869L79.5 146.048C72.6805 142.439 54.1225 133.128 50.0813 133.368C46.401 133.597 45.499 141.152 45.4509 144.039V144.725L44.7533 144.689C44.6571 144.689 33.1229 144.521 29.5268 168.124C25.8344 192.377 24.2949 261.022 34.0971 270.298L52.8356 275.23L52.4988 276.518V276.53Z"
            fill="#010101" />
        <path
            d="M50.719 295.261C29.539 290.942 29.3226 290.34 29.1782 289.895C28.8775 289.017 28.0116 274.629 31.3311 271.056C32.0527 270.274 32.9548 270.009 33.941 270.262L33.6043 271.549C33.1232 271.429 32.7503 271.525 32.3895 271.874C29.6954 274.46 30.1645 287.152 30.417 289.258C32.2331 289.98 43.8034 292.482 50.9956 293.95L50.731 295.249L50.719 295.261Z"
            fill="#010101" />
        <path
            d="M100.295 297.871C98.8159 297.871 97.4809 297.859 96.4345 297.847L96.4586 296.512C104.348 296.62 113.068 296.332 114.018 295.67C114.981 294.78 115.534 284.385 113.91 282.124C113.02 280.885 104.18 281.294 96.4947 282.4L96.3022 281.077C100.235 280.512 113.225 278.876 114.993 281.354C116.724 283.772 116.652 295.08 114.896 296.668C113.778 297.691 105.996 297.883 100.295 297.883V297.871Z"
            fill="#010101" />
        <path
            d="M94.8827 361.969C90.3845 361.969 85.3812 361.897 79.7885 361.729C38.1743 360.477 32.1246 344.285 27.2656 331.268C26.6281 329.571 26.0388 327.971 25.3773 326.468C19.6283 313.258 28.805 290.401 29.2019 289.438L30.4407 289.943C30.3445 290.172 21.0836 313.246 26.6041 325.938C27.2776 327.478 27.8789 329.102 28.5164 330.811C33.2431 343.442 39.1124 359.178 79.8366 360.405C125.131 361.777 132.059 357.001 132.323 356.808L133.153 357.855C132.925 358.047 127.645 361.993 94.8827 361.993V361.969Z"
            fill="#010101" />
        <path
            d="M118.023 416.034C118.023 415.865 117.987 399.42 114.956 390.277C111.841 380.869 114.8 361.332 114.932 360.501L116.243 360.706C116.207 360.91 113.2 380.761 116.219 389.856C119.322 399.203 119.358 415.348 119.358 416.034H118.023Z"
            fill="#010101" />
        <path
            d="M118.396 433.093C117.254 433.093 116.279 432.587 115.558 431.625C112.984 428.172 114.127 419.811 114.969 417.67C115.474 416.382 118.336 414.77 124.229 411.534C131.771 407.396 142.09 401.717 149.342 394.74C156.535 387.822 162.416 384.827 165.074 386.728C166.156 387.51 166.361 388.989 165.615 390.589C164.942 392.021 165.182 394.812 165.423 397.519C165.723 400.959 166 404.208 164.557 405.579C164.016 406.084 163.306 406.289 162.44 406.193C161.37 406.518 154.875 410.873 148.585 415.095C133.635 425.128 121.944 432.816 118.769 433.093C118.649 433.093 118.529 433.105 118.42 433.105L118.396 433.093ZM163.174 387.522C161.165 387.522 156.992 389.206 150.256 395.69C142.872 402.788 132.468 408.515 124.867 412.689C120.597 415.035 116.556 417.261 116.207 418.151C115.305 420.449 114.62 428.124 116.628 430.819C117.145 431.517 117.807 431.817 118.637 431.745C121.728 431.48 136.81 421.363 147.827 413.964C159.566 406.096 161.766 404.725 162.524 404.833C163.186 404.93 163.462 404.737 163.631 404.593C164.605 403.666 164.328 400.454 164.088 397.615C163.835 394.74 163.583 391.756 164.4 390C164.87 389.001 164.833 388.171 164.292 387.786C164.052 387.618 163.691 387.51 163.174 387.51V387.522Z"
            fill="#010101" />
        <path d="M121.709 430.63L121.582 431.96L166.756 436.263L166.883 434.933L121.709 430.63Z"
            fill="#010101" />
        <path d="M131.518 424.93L131.401 426.261L168.96 429.574L169.078 428.244L131.518 424.93Z"
            fill="#010101" />
        <path
            d="M71.5499 428.762L70.3833 428.112C71.586 425.983 78.7543 402.03 90.0719 362.402C90.5891 360.61 90.6011 360.61 91.1062 360.634L91.0822 361.295L91.7196 361.488C91.7196 361.488 91.5753 361.981 91.3588 362.763C84.6957 386.102 73.2578 425.718 71.5499 428.762Z"
            fill="#010101" />
        <path
            d="M77.7081 467.812L76.373 467.74C76.5895 463.589 76.373 410.187 76.373 409.645H77.7081C77.7081 411.847 77.9246 463.626 77.7081 467.812Z"
            fill="#010101" />
        <path
            d="M38.7637 465.839C38.4871 464.937 31.9443 443.631 32.4134 435.186C32.8824 426.813 31.0062 385.2 28.6849 372.171C27.4581 365.314 26.3997 352.706 25.7262 343.334C25.2932 337.331 25.0046 332.362 24.8603 329.944C24.6798 326.768 24.5957 325.216 24.6317 324.446C24.6678 323.713 24.8121 323.677 25.1128 323.604L25.7262 323.46L25.9066 324.074L25.2812 324.254L25.9307 324.302C25.8946 325.325 27.6987 359.058 29.9959 371.93C32.3292 385.031 34.2174 426.849 33.7484 435.258C33.2913 443.463 39.9665 465.226 40.0386 465.442L38.7637 465.839Z"
            fill="#010101" />
        <path
            d="M39.6538 505.022C35.7329 505.022 30.934 503.951 28.3481 502.748C26.1231 501.714 24.4513 499.151 24.295 496.529C24.1506 494.243 25.1489 492.294 27.1093 491.055C29.4547 489.575 42.5643 483.067 54.315 477.4C78.5138 465.731 78.9227 466.044 79.3436 466.393C80.4983 467.319 80.835 476.943 79.5722 481.731C78.7543 484.823 45.932 503.578 43.8513 504.408C42.7568 504.842 41.2774 505.034 39.6538 505.034V505.022ZM78.5498 467.668C73.7389 469.316 32.5817 489.166 27.8189 492.174C25.8585 493.413 25.5458 495.169 25.618 496.432C25.7503 498.562 27.1334 500.703 28.9134 501.533C32.2811 503.109 40.0988 504.457 43.3581 503.157C47.3873 501.545 77.1908 483.644 78.2852 481.358C79.4639 476.859 79.0309 469.448 78.5498 467.656V467.668Z"
            fill="#010101" />
        <path
            d="M93.656 506.61C89.0615 506.61 83.1321 506.49 75.4587 506.189C59.5467 505.563 43.7309 504.457 43.5625 504.445L43.6587 503.121C73.7749 505.239 106.754 506.273 108.546 504.011C109.845 501.858 112.022 493.894 109.664 486.952C108.281 482.862 105.575 479.999 101.618 478.435C93.9927 475.439 85.8022 477.954 77.9364 485.713C77.7199 485.93 77.5635 486.074 77.4793 486.146L76.6254 485.124C76.6975 485.064 76.8178 484.943 76.9982 484.763C87.4619 474.465 96.4222 474.97 102.099 477.196C106.441 478.904 109.412 482.044 110.927 486.519C113.26 493.401 111.384 501.882 109.676 504.709C109.291 505.335 108.522 506.61 93.656 506.61Z"
            fill="#010101" />
        <path d="M55.0891 496.736L55.0635 498.071L110.932 499.144L110.957 497.809L55.0891 496.736Z"
            fill="#010101" />
        <path d="M77.3944 482.838L76.6909 483.973L78.0913 484.841L78.7948 483.706L77.3944 482.838Z"
            fill="#010101" />
        <path
            d="M165.158 441.045L76.373 424.551V417.97L114.788 424.912L114.547 426.223L77.7081 419.57V423.444L165.399 439.733L165.158 441.045Z"
            fill="#010101" />
        <path d="M77.1691 432.603L76.9082 433.913L161.941 450.862L162.202 449.552L77.1691 432.603Z"
            fill="#010101" />
        <path
            d="M140.659 518.279L139.384 517.87L303.002 14.5808H333.768L333.852 15.1462L402.961 488.853L373.314 489.346L373.229 488.757L314.512 53.7035L315.835 53.523L374.468 487.987L401.421 487.542L332.613 15.9161H303.964L140.659 518.279Z"
            fill="#010101" />
        <path
            d="M148.837 521.552C145.217 521.552 144.808 521.347 144.567 520.986C144.399 520.73 146.708 513.231 151.495 498.49C155.765 485.34 162.079 466.056 170.245 441.141C184.004 399.191 203.212 340.76 227.351 267.447C268.46 142.656 310.158 16.3011 310.567 15.0379L311.83 15.459C310.206 20.3794 151.711 500.691 145.938 520.144C147.839 520.325 154.153 520.144 158.098 520.036C161.441 519.94 162.921 519.904 163.63 519.928C169.307 503.879 317.94 42.9243 319.455 38.2084L320.345 35.4414L383.753 488.42L382.43 488.601L319.828 41.3724C313.79 60.0796 278.19 170.494 242.95 279.621C220.351 349.602 202.31 405.363 189.345 445.376C181.647 469.135 175.67 487.518 171.58 500.041C167.002 514.069 164.58 521.135 164.316 521.239L164.039 521.359L163.847 521.263C163.306 521.215 160.672 521.299 158.122 521.371C153.732 521.492 150.797 521.552 148.825 521.552H148.837Z"
            fill="#010101" />
        <path
            d="M408 494.941H369.008V487.458L373.963 487.999L373.819 489.322L370.343 488.937V493.617H406.677V488.865H402.191V487.53H408V494.941Z"
            fill="#010101" />
        <path
            d="M142.018 528L135.03 524.379V516.752L145.325 519.988L144.928 521.263L136.353 518.568V523.573L142.306 526.653L166.842 525.45V521.504L164.015 521.287L164.124 519.964L168.165 520.276V526.713L142.018 528Z"
            fill="#010101" />
        <path
            d="M160.828 411.582L160.407 410.319L160.624 410.945L160.095 410.56C160.143 410.488 160.215 410.319 160.335 410.066C161.249 408.142 164.04 402.307 167.973 401.405C172.423 400.382 177.534 401.958 177.751 402.03L177.354 403.305C177.354 403.305 172.363 401.766 168.273 402.704C164.966 403.462 162.392 408.863 161.55 410.644C161.225 411.342 161.153 411.474 160.852 411.582H160.828Z"
            fill="#010101" />
        <path
            d="M153.467 392.598L152.156 392.382C155.668 371.629 163.715 316.615 158.916 311.442C151.639 303.598 126.863 291.64 85.1888 302.503L84.8521 301.216C127.128 290.196 152.421 302.491 159.89 310.527C166.024 317.132 154.778 384.887 153.467 392.598Z"
            fill="#010101" />
        <path
            d="M183.764 383.84L154.297 378.86L155.308 372.015L185.676 377.332L185.448 378.643L156.426 373.554L155.801 377.765L183.981 382.529L183.764 383.84Z"
            fill="#010101" />
        <path
            d="M114.595 369.464C112.382 369.464 95.2435 366.685 89.8794 365.807L90.0959 364.496C99.3328 366.011 113.453 368.225 114.559 368.141L114.776 369.452C114.776 369.452 114.68 369.452 114.595 369.452V369.464Z"
            fill="#010101" />
        <path d="M93.0393 360.628L92.8096 361.943L114.894 365.802L115.124 364.487L93.0393 360.628Z"
            fill="#010101" />
        <path d="M160.734 323.597L160.507 324.913L200.662 331.843L200.889 330.527L160.734 323.597Z"
            fill="#010101" />
        <path d="M161.167 317.358L160.931 318.673L202.515 326.157L202.751 324.842L161.167 317.358Z"
            fill="#010101" />
        <path d="M159.496 310.304L159.253 311.617L204.477 319.993L204.72 318.68L159.496 310.304Z"
            fill="#010101" />
        <path d="M156.817 366.295L156.568 367.607L187.124 373.41L187.374 372.098L156.817 366.295Z"
            fill="#010101" />
        <path
            d="M143.617 157.008L142.415 156.431L217.645 0L303.592 14.5928L303.375 15.9041L218.415 1.47973L143.617 157.008Z"
            fill="#010101" />
        <path
            d="M333.082 15.9041L239.342 1.40756H218.03V0.0721893L239.486 0.0842197L333.287 14.5928L333.082 15.9041Z"
            fill="#010101" />
        <path
            d="M304.157 37.1377L304.085 37.1257L208.516 20.9569L208.733 19.6456L304.241 35.8023L335.969 33.9135L336.053 35.2369L304.157 37.1377Z"
            fill="#010101" />
        <path d="M159.316 156.438L157.398 160.481L158.604 161.054L160.522 157.011L159.316 156.438Z"
            fill="#010101" />
        <path d="M180.317 112.186L161.396 152.062L162.602 152.634L181.523 112.759L180.317 112.186Z"
            fill="#010101" />
        <path d="M202.41 65.6649L184.923 102.519L186.129 103.092L203.616 66.2375L202.41 65.6649Z"
            fill="#010101" />
        <path d="M222.648 23.039L206.683 58.1467L207.898 58.6996L223.864 23.5919L222.648 23.039Z"
            fill="#010101" />
        <path d="M124.846 197.802L115.517 216.405L116.71 217.003L126.039 198.4L124.846 197.802Z"
            fill="#010101" />
        <path
            d="M113.332 281.077L112.479 280.054C114.776 278.118 117.722 258.785 119.154 246.249V246.129L119.226 246.021L142.956 200.113L144.134 200.726L120.453 246.526C120.02 250.303 116.724 278.214 113.332 281.077Z"
            fill="#010101" />
        <path
            d="M219.389 273.895C217.789 273.438 152.746 261.816 118.577 255.729L118.805 254.418C118.805 254.418 143.99 258.905 169.199 263.417C181.804 265.678 194.408 267.94 203.886 269.66C214.606 271.601 220.034 272.688 220.171 272.92L219.605 273.269L219.389 273.895Z"
            fill="#010101" />
        <path d="M119.415 249.746L119.188 251.061L221.166 268.717L221.393 267.402L119.415 249.746Z"
            fill="#010101" />
        <path d="M119.93 245.679L119.702 246.995L222.453 264.84L222.681 263.524L119.93 245.679Z"
            fill="#010101" />
        <path d="M116.673 223.177L111.063 233.395L112.234 234.038L117.843 223.819L116.673 223.177Z"
            fill="#010101" />
        <path
            d="M238.007 217.003L130.279 201.135L123.123 214.176L121.956 213.527L129.557 199.68L130.014 199.752L238.211 215.68L238.007 217.003Z"
            fill="#010101" />
        <path d="M152.017 197.44L151.812 198.76L239.524 212.373L239.729 211.054L152.017 197.44Z"
            fill="#010101" />
        <path d="M167.196 195.091L166.988 196.41L240.92 208.069L241.128 206.75L167.196 195.091Z"
            fill="#010101" />
        <path d="M242.547 123.139L241.228 123.343L247.826 166.122L249.145 165.919L242.547 123.139Z"
            fill="#010101" />
        <path d="M234.65 71.9086L233.331 72.1122L237.941 102.003L239.26 101.799L234.65 71.9086Z"
            fill="#010101" />
        <path
            d="M237.598 64.4105L231.416 24.8306L227.267 24.1329L233.28 63.1353L231.969 63.3398L225.667 22.5088L232.583 23.6757L238.909 64.206L237.598 64.4105Z"
            fill="#010101" />
        <path d="M240.286 73.0375L238.967 73.2434L243.911 104.933L245.23 104.727L240.286 73.0375Z"
            fill="#010101" />
        <path
            d="M255.025 167.511L209.683 161.796L209.839 160.473L253.438 165.971L246.907 124.129L248.23 123.925L255.025 167.511Z"
            fill="#010101" />
        <path d="M206.328 164.398L206.134 165.719L252.471 172.53L252.665 171.209L206.328 164.398Z"
            fill="#010101" />
        <path
            d="M169.091 158.5L153.239 157.249L150.196 150.704L174.948 153.11L174.816 154.434L152.397 152.256L154.129 155.973L169.199 157.176L169.091 158.5Z"
            fill="#010101" />
        <path d="M242.908 116.44L242.719 117.762L269.044 121.523L269.233 120.201L242.908 116.44Z"
            fill="#010101" />
        <path d="M236.034 121.74L235.85 123.063L267.118 127.431L267.302 126.108L236.034 121.74Z"
            fill="#010101" />
        <path
            d="M202.96 116.514L169.656 111.425L172.783 104.062L205.534 109.621L205.305 110.932L173.601 105.554L171.545 110.366L203.152 115.203L202.96 116.514Z"
            fill="#010101" />
        <path
            d="M282.435 82.1432L194.528 64.9639L195.31 58.287L196.02 58.4194L284.564 75.6228L282.447 82.1432H282.435ZM195.996 63.8932L281.533 80.6154L282.82 76.6454L196.465 59.863L195.996 63.8932Z"
            fill="#010101" />
        <path d="M256.093 115.186L255.93 116.511L270.123 118.262L270.286 116.936L256.093 115.186Z"
            fill="#010101" />
        <path
            d="M209.647 107.491C200.65 105.867 186.964 103.485 185.653 103.449C184.847 103.774 182.477 104.327 175.008 105.747L174.756 104.435C179.194 103.593 184.161 102.583 185.075 102.27C185.496 101.921 187.12 102.186 197.812 104.038C203.862 105.085 209.887 106.168 209.887 106.168L209.647 107.479V107.491ZM186.013 103.244C185.953 103.305 185.857 103.365 185.665 103.449C185.773 103.425 185.905 103.365 186.013 103.244Z"
            fill="#010101" />
        <path
            d="M151.002 153.664L149.799 153.098C149.98 152.713 168.033 114.697 185.941 77.1747C196.465 55.1351 204.872 37.5828 210.946 24.9991C214.554 17.5282 217.368 11.7416 219.305 7.81973C221.59 3.19205 222.941 0.910299 223.358 0.974461L223.25 1.63613L223.743 2.08125C222.023 4.41514 175.405 102.258 151.002 153.676V153.664Z"
            fill="#010101" />
        <path d="M249.055 26.9179L247.745 27.1757L255.757 67.9116L257.067 67.6538L249.055 26.9179Z"
            fill="#010101" />
        <path d="M257.27 76.8514L255.952 77.0649L262.392 116.836L263.71 116.623L257.27 76.8514Z"
            fill="#010101" />
        <path
            d="M304.217 461.388H282.28L282.232 460.774L263.722 211.133L265.045 211.036L283.519 460.065H302.75L295.895 391.275L297.218 391.143L304.217 461.388Z"
            fill="#010101" />
        <path d="M275.944 177.272L274.615 177.404L295.117 383.223L296.446 383.091L275.944 177.272Z"
            fill="#010101" />
        <path
            d="M282.893 461.388H274.317L274.281 460.774L259.247 224.968L260.57 224.883L275.568 460.065H282.893V461.388Z"
            fill="#010101" />
        <path
            d="M310.699 467.572H270.685L270.42 460.065H274.942V461.388H271.791L271.971 466.236H309.364V461.388H303.483V460.065H310.699V467.572Z"
            fill="#010101" />
        <path
            d="M361.19 395.534L277.047 390.782L276.422 382.481L360.18 386.186L360.119 387.522L277.865 383.876L278.286 389.507L361.274 394.21L361.19 395.534Z"
            fill="#010101" />
        <path d="M289.811 131.731L289.701 133.062L326.152 136.072L326.262 134.741L289.811 131.731Z"
            fill="#010101" />
        <path d="M291.662 126.114L291.537 127.443L325.425 130.623L325.55 129.294L291.662 126.114Z"
            fill="#010101" />
        <path
            d="M117.927 224.174C117.662 224.174 117.422 224.174 117.193 224.149C113.513 223.873 111.841 220.937 111.468 219.422L112.767 219.109C112.803 219.253 113.669 222.549 117.289 222.826C121.006 223.115 131.013 220.625 132.612 220.228C133.394 219.217 134.921 216.811 134.44 215.415C134.248 214.874 133.731 214.513 132.853 214.309C128.102 213.262 121.98 214.645 121.92 214.658L121.679 214.706L116.941 212.3L117.542 211.109L121.86 213.298C123.087 213.045 128.583 211.999 133.141 212.997C134.488 213.298 135.354 213.96 135.703 214.958C136.557 217.4 133.827 220.841 133.514 221.226L133.382 221.395L133.165 221.455C132.708 221.575 122.593 224.174 117.927 224.174Z"
            fill="#010101" />
        <path
            d="M25.9185 221.575C22.4788 221.262 5.21967 219.65 3.7764 218.928C2.97058 218.519 2.44138 217.533 2.36922 216.282C2.29705 215.163 2.60976 213.599 3.70424 212.865C3.95681 212.697 3.96884 212.396 3.8606 211.301C3.7283 209.906 3.52383 207.812 4.61831 204.841C5.05129 203.662 5.6286 202.952 6.38631 202.699C7.49282 202.326 8.59933 203.024 9.57353 203.638C11.1371 204.624 11.6302 204.769 12.1714 203.926C13.8071 201.376 26.1471 169.58 32.4493 153.11L33.6881 153.591C32.9425 155.54 15.4067 201.352 13.29 204.648C11.9549 206.717 10.0907 205.538 8.86393 204.757C8.10621 204.275 7.31241 203.782 6.8193 203.95C6.48253 204.071 6.1578 204.528 5.86914 205.286C4.88291 207.969 5.05129 209.821 5.18359 211.157C5.29184 212.324 5.38805 213.322 4.4379 213.96C3.94479 214.285 3.63208 215.223 3.69221 216.185C3.74032 216.943 4.00492 217.545 4.36574 217.725C5.43616 218.206 18.2211 219.518 26.0268 220.228L25.9065 221.551L25.9185 221.575Z"
            fill="#010101" />
        <path d="M11.0237 204.413L10.7393 205.718L25.9218 209.029L26.2062 207.724L11.0237 204.413Z"
            fill="#010101" />
        <path
            d="M11.5341 251.182C9.18875 251.182 7.24033 250.64 5.7249 249.57C1.71983 246.754 1.46726 240.992 1.31091 237.19C1.25077 235.831 1.19063 234.435 0.95009 234.05C-2.52578 228.468 4.7507 218.676 5.06341 218.267L6.1218 219.073C6.04964 219.169 -0.914132 228.541 2.08065 233.353C2.5016 234.038 2.56174 235.338 2.64593 237.142C2.80228 240.691 3.0308 246.057 6.50667 248.487C9.02037 250.255 12.9894 250.315 18.3054 248.655C24.3431 246.779 26.508 245.696 26.52 245.684L27.1214 246.875C27.0372 246.923 24.8723 248.006 18.6903 249.93C16.0082 250.773 13.6148 251.182 11.5461 251.182H11.5341Z"
            fill="#010101" />
        <path
            d="M18.4859 486.243L9.99463 484.799L32.3052 420.365L33.556 420.798L11.7626 483.752L17.6079 484.739L32.9546 441.526L34.2055 441.971L18.4859 486.243Z"
            fill="#010101" />
        <path
            d="M17.9929 492.029L7.6735 490.068L7.09619 483.608H10.8848V484.943H8.55149L8.90028 488.949L16.8262 490.453L17.4396 484.919L30.2847 482.754L30.5012 484.065L18.6544 486.062L17.9929 492.029Z"
            fill="#010101" />
        <path
            d="M17.4997 491.897L17.3193 490.574L29.2022 488.913C29.8397 482.549 33.3156 444.642 33.3516 444.245L34.6746 444.365C34.6386 444.774 30.9342 485.172 30.4651 489.575L30.417 490.092L17.4997 491.897Z"
            fill="#010101" />
        <path d="M265.174 125.933L263.914 126.375L265.415 130.654L266.675 130.212L265.174 125.933Z"
            fill="#010101" />
        <path
            d="M282.435 82.1432L194.528 64.9639L195.286 58.4434L195.839 58.4073L206.592 57.6374V57.8058H206.736L206.76 57.6615L285.526 72.6272L282.423 82.1552L282.435 82.1432ZM195.996 63.8932L281.533 80.6154L283.794 73.6498L207.253 59.1051L196.477 59.7186L195.984 63.9052L195.996 63.8932Z"
            fill="#010101" />
    </g>
    <defs>
        <clipPath id="clip0_378_2662">
            <rect width="408" height="528" fill="white" />
        </clipPath>
    </defs>
</svg>    