<svg width="304" height="522" viewBox="0 0 304 522" fill="none" xmlns="http://www.w3.org/2000/svg">
    <g clip-path="url(#clip0_378_2080)">
        <path
            d="M144.468 88.902c-2.744 8.23 -2.058 32.091 -3.144 41.125s-1.258 14.941 -6.889 17.694 -15.408 4.101 -18.895 4.904 -12.063 21.48 -12.063 21.48l0.801 -23.373s-10.377 -1.835 -9.433 -7.255c0.943 -5.42 3.058 -9.665 3.058 -9.665s-12.606 0.344 -26.098 -16.977S61.657 95.9 65.66 89.82s4.974 -8.288 4.745 -14.913c-0.228 -6.624 -1.858 -22.655 -1.372 -22.168s15.065 -1.032 26.499 4.531c11.434 5.564 13.92 0.258 20.981 -6.08 7.06 -6.337 10.519 -8.517 10.519 -8.517s-2.801 20.85 -2.144 23.66c0.658 2.81 3.23 9.148 7.661 10.869 4.431 1.72 6.775 3.843 10.005 -1.75 3.23 -5.592 1.886 -15.83 2.029 -15.572s13.321 -2.438 17.18 3.011c3.859 5.45 -0.972 14.397 -3.373 17.15s-3.516 4.388 -9.319 5.821c-5.803 1.434 -4.088 1.434 -4.602 3.04"
            fill="#FAD29C" />
        <path
            d="M196.064 233.412s-2.973 13.995 -4.974 17.063c-2.001 3.069 -2.058 6.711 -6.174 6.711s-31.901 0.975 -37.39 0.889c-5.488 -0.086 -32.015 2.868 -32.015 2.868s1.744 4.187 -0.257 6.71c-2.001 2.524 -10.176 7.514 -21.696 9.149s-19.495 -0.058 -22.725 -3.442 -5.43 -6.223 -4.745 -7.571c0.686 -1.348 -0.057 -1.749 -0.057 -1.749s-3.63 -1.721 -3.287 -4.818 0.8 -4.99 0.8 -4.99 -2.287 1.405 -0.457 -1.291 2.4 -5.506 4.773 -5.047 10.92 2.065 16.608 -1.835 8.147 -3.126 8.29 -10.095c0.086 -4.244 -4.66 -2.61 -10.405 -4.359s-8.375 -2.466 -4.774 -6.768 5.66 -6.309 10.005 -4.818 11.12 5.535 14.864 7.915 4.459 5.248 10.805 3.556 20.353 -4.416 26.184 -5.191 13.263 -1.663 13.263 -1.663 3.23 2.18 19.953 4.359c16.722 2.18 23.439 4.445 23.439 4.445z"
            fill="#FAD29C" />
        <path
            d="M50.052 215.373c3.573 4.474 3.316 7.428 0.915 10.123 -2.401 2.696 -8.032 5.908 -12.606 4.044s-2.944 -7.141 -9.119 -6.797 -10.204 2.495 -12.606 3.556c-2.4 1.062 -3.83 1.635 -4.259 5.105s-3.287 11.844 0 14.511 28.128 16.662 29.872 17.207 8.175 -2.151 8.175 -2.151 -3.03 7.17 -7.004 7.944 -12.548 -1.204 -12.548 -1.204 -5.031 3.04 -9.776 -0.058 -5.746 -4.502 -5.746 -4.502 -8.661 1.09 -10.348 -5.908c-1.686 -6.997 -2.915 -16.633 -0.171 -23.487s9.69 -7.428 9.69 -7.428 0.286 -4.216 6.66 -8.403 10.491 -8.374 14.264 -8.431 9.119 0.66 11.777 2.581c2.659 1.921 2.859 3.327 2.859 3.327z"
            fill="#FAD29C" />
        <path
            d="M127.06 42.673s-8.319 5.736 -11.892 10.038c-3.573 4.301 -8.804 8.201 -14.978 6.05 -6.174 -2.15 -19.924 -6.739 -29.643 -5.678l-1.515 -0.344 1.2 18.756s-10.633 4.789 -19.037 0c-8.404 -4.79 -10.719 -3.958 -10.462 -13.364 0.258 -9.407 27.242 -21.05 27.242 -21.05s18.351 -7.944 35.359 -4.703 23.697 10.238 23.697 10.238z"
            fill="#97C138" />
        <path
            d="M69.033 52.74s3.544 31.517 2.772 28.075c-0.772 -3.441 3.802 -4.818 6.603 -5.076 2.802 -0.258 11.463 -2.552 12.034 -0.803s-1.543 -8.948 2.402 -9.177c3.944 -0.23 7.832 22.369 7.832 22.369 -1.744 4.015 0.857 6.367 1.429 10.296s-2.63 6.624 -6.403 5.534 -10.09 -5.534 -10.09 -5.534 -6.518 4.473 0.457 9.32c6.975 4.846 15.179 8.661 15.179 8.661s10.547 -18.354 15.378 -12.447c4.831 5.908 2.601 18.526 1.83 20.018 -0.772 1.491 11.091 -11.959 18.037 -20.304 6.946 -8.346 3.716 -15.86 8.004 -18.01s5.888 -3.757 6.974 -10.21c1.086 -6.452 -1.601 -8.603 -1.601 -8.603s-7.003 4.244 -7.26 8.575 -6.346 4.53 -10.005 1.749 -8.461 -0.115 -7.661 -10.87c0.801 -10.753 2.144 -23.659 2.144 -23.659l-15.264 15.057s-4.402 3.154 -11.577 1.032S87.07 56.697 78.78 54.03c-5.66 -1.836 -9.69 -1.32 -9.69 -1.32z"
            fill="#ECB374" />
        <path
            d="M71.805 151.22c-2.916 2.925 -7.49 7.542 -8.804 13.479s-4.202 21.652 -3.573 23.659c0.629 2.008 2.687 5.564 2.687 5.564l-0.143 16.432s-3.259 -1.204 -5.574 -0.659 -9.204 2.323 -9.204 2.323 -2.916 -2.782 -8.461 -2.438c-5.546 0.344 -8.776 2.438 -8.776 2.438s-1.972 -3.27 0 -6.998 1.972 -6.252 4.46 -6.969c2.486 -0.717 5.545 0.889 5.545 0.889s-2.316 -15.887 2.143 -26.154c4.46 -10.267 7.833 -18.153 13.15 -20.161 5.316 -2.007 11.434 -4.502 16.55 -1.405"
            fill="#97C138" />
        <path
            d="M97.903 133.812s-3.916 7.055 -3.058 9.665c0.857 2.61 9.604 8.861 9.604 8.861l-1.086 20.792s5.031 -14.368 9.29 -17.494 7.489 -3.842 13.835 -4.645 12.949 -5.478 13.835 -11.73a183 183 0 0 0 1.258 -11.643s10.662 0.287 12.663 5.764 2.515 11.471 1.286 16.634c-1.229 5.162 -1.286 7.485 -3.859 9.119 -2.572 1.635 -20.495 11.099 -20.495 11.099s-2.973 14.195 -3.316 17.952 0.543 9.493 0 10.927 -0.743 7.972 -8.747 8.259 -31.5 -2.38 -34.044 -3.528c-2.544 -1.147 -3.86 -1.778 -4.374 -8.288 3.945 -5.162 3.002 -9.377 3.087 -20.189 0.029 -4.904 2.802 -8.288 2.802 -8.288s-7.433 -3.585 -11.234 -10.668c-3.802 -7.084 -0.2 -9.579 2.2 -12.275 2.402 -2.695 11.32 -12.245 11.32 -12.245s2.001 0.774 4.488 1.319 4.545 0.66 4.545 0.66z"
            fill="#97C138" />
        <path
            d="M209.67 216.75s2.973 6.768 2.372 10.352c-0.6 3.585 -0.514 6.51 -4.745 7.916 -4.23 1.405 -16.779 -3.643 -19.58 -4.302 -2.802 -0.66 -24.154 -2.352 -27.728 -3.269 -3.573 -0.918 -8.06 -0.173 -8.318 -5.105s1.544 -8.69 3.316 -9.607c1.772 -0.918 3.202 -0.545 3.202 -0.545s-5.117 -1.061 -5.317 -4.388 -0.572 -5.478 1.743 -8.173 -3.087 -20.276 -3.087 -20.276 0.2 -19.185 1.115 -21.05c0.915 -1.864 6.946 -11.184 12.892 -13.306s9.976 -3.097 14.264 0 6.403 5.621 12.32 19.874 12.892 35.876 12.892 35.876 5.774 -0.43 8.146 3.528c2.373 3.957 1.858 6.997 0.057 9.148 -1.8 2.151 -3.573 3.269 -3.573 3.269z"
            fill="#97C138" />
        <path
            d="M127.06 42.673s8.947 -16.461 5.459 -24.032 -4.573 -12.16 -15.007 -14.34 -19.78 -5.534 -28.585 2.869c-8.804 8.402 -16.321 16.03 -18.694 21.107s-2.201 8.833 -2.201 8.833 17.18 -5.707 26.27 -5.191 21.924 3.011 27.355 6.883l5.431 3.871z"
            fill="white" />
        <path
            d="M122.772 85.69c0 1.09 -0.4 2.18 -2.001 2.438s-12.32 2.122 -13.806 2.122c-1.487 0 -3.202 0 -3.745 -4.302s-0.572 -12.331 -0.572 -12.331 -0.371 -1.52 1.63 -2.467c2.001 -0.946 9.118 -0.803 11.376 1.348 2.259 2.151 4.431 5.105 4.946 7.256s2.143 5.908 2.143 5.908z"
            fill="white" />
        <path
            d="m91.014 76.657 1.83 11.442s-3.688 1.061 -4.574 2.524 -1.143 2.007 -1.143 2.007 -10.062 -1.749 -10.863 -2.408c-0.8 -0.66 -1.2 -4.847 -1.2 -4.847s2.287 -8.603 3.344 -9.693c1.058 -1.09 6.575 -2.553 6.575 -2.553s4.773 0.66 5.46 1.75c0.686 1.09 0.571 1.75 0.571 1.75z"
            fill="white" />
        <path
            d="M121.629 69.803c1.229 -1.95 -3.688 -7.112 -5.689 -7.514 -2.001 -0.401 -6.031 -1.893 -9.376 -1.348s-8.432 -1.09 -9.518 0.66 -2.545 2.552 -0.258 3.9 4.831 1.893 8.176 1.491 7.918 -0.602 10.719 0.975c2.801 1.578 3.487 1.864 4.431 1.979 0.943 0.115 0.943 0.803 1.543 -0.143z"
            fill="#4D3A20" />
        <path
            d="M88.442 59.68c1.057 1.232 1.858 4.674 0 6.94s-5.346 2.122 -7.49 2.523 -5.488 0.545 -7.232 3.499 -2.144 5.506 -2.687 4.703 -0.8 -5.85 -0.8 -5.85 1.343 -4.503 4.545 -6.797 8.318 -4.158 10.576 -4.445 1.944 -1.864 3.059 -0.602z"
            fill="#4D3A20" />
        <path
            d="M127.06 42.673c-0.401 4.158 -2.287 21.509 -2.144 23.66s0.629 6.51 4.002 8.087 7.689 5.793 10.204 4.474c2.516 -1.32 4.374 -4.818 4.774 -8.317s0.429 -9.407 0.686 -10.726 -7.003 -9.492 -9.176 -11.184 -8.375 -6.023 -8.375 -6.023z"
            fill="#4D3A20" />
        <path
            d="m158.818 60.626 -13.292 -0.631s-6.032 -8.059 -8.719 -10.353 -9.776 -6.31 -9.776 -6.998 4.688 -9.55 5.374 -16.948c0.686 -7.4 -1.086 -11.96 -2.801 -14.253 -1.715 -2.295 -6.575 -5.392 -6.175 -5.507s13.836 4.56 18.838 8.805c5.002 4.244 15.464 13.364 15.579 19.702 0.114 6.337 1.6 17.608 1.2 20.017s-0.257 6.137 -0.257 6.137z"
            fill="#2490CF" />
        <path
            d="M117.57 88.644s-2.888 -9.062 -4.888 -10.123 -5.86 -1.434 -7.204 -1.033c-1.343 0.402 -2.887 1.664 -2.887 1.664s0.457 6.796 1.658 8.947 0.657 3.098 2.801 2.954 10.491 -2.409 10.491 -2.409z"
            fill="#2490CF" />
        <path
            d="M88.27 90.652s1 -3.212 -0.143 -6.453 -1.258 -5.019 -2.887 -5.105 -6.432 -0.143 -7.375 0.803 -2.687 2.553 -2.801 4.847 0.4 5.908 1.886 5.908c1.487 0 10.462 1.204 10.462 1.204l0.887 -1.204z"
            fill="#2490CF" />
        <path
            d="M183.858 147.578s-8.261 -6.481 -13.264 -4.503c-5.002 1.979 -9.49 4.302 -11.634 7.256 -2.143 2.954 -6.431 8.603 -6.431 8.603s3.945 -10.209 4.116 -15.056c0.172 -4.846 -2.373 -10.496 -2.373 -10.496s2.402 0.947 6.403 1.233c4.002 0.287 11.234 0.803 13.178 1.549s5.203 3.384 5.917 4.818c0.715 1.434 4.059 6.625 4.059 6.625z"
            fill="#2490CF" />
        <path
            d="M155.787 199.141s-3.944 -22.053 -3.83 -22.455 1.229 -19.616 1.229 -19.616 -5.517 5.449 -9.547 7.485 -12.463 5.679 -12.463 5.679 -4.145 16.002 -3.745 19.759 0 10.353 0 10.353 -0.8 7.857 -11.92 7.485c-11.119 -0.373 -29.528 -2.897 -32.443 -4.388 -2.916 -1.491 -3.26 -6.109 -2.373 -7.887s3.087 -5.018 2.944 -8.259 0.143 -14.11 0.8 -16.404c0.658 -2.294 1.344 -3.9 1.344 -3.9s-7.918 -4.302 -9.233 -8.059 -3.201 -9.148 -3.344 -9.549c-0.143 -0.402 -6.46 5.62 -7.975 9.865 -1.515 4.244 -5.146 15.802 -5.289 18.755 -0.142 2.954 -1.6 10.497 -0.4 12.246s2.602 3.671 2.602 3.671L62 210.957l21.124 9.148s1.372 -1.434 8.06 1.09c6.69 2.523 10.491 6.108 11.263 6.739s3.602 4.531 7.604 3.786c4.002 -0.746 17.151 -3.298 19.838 -3.7 2.687 -0.401 22.81 -3.413 22.81 -3.413s-1.372 -2.753 -0.428 -6.796c0.943 -4.044 4.373 -5.593 4.373 -5.593s-3.602 -2.523 -3.716 -4.387 -0.4 -4.417 0.686 -6.281 2.201 -2.409 2.201 -2.409z"
            fill="#2490CF" />
        <path
            d="m169.48 257.214 -0.715 5.736 -17.151 2.524 1.058 22.684 13.235 -4.588s5.831 23.946 6.574 30.427c0.743 6.482 5.088 35.733 4.431 39.834 -0.658 4.101 -0.486 31.89 -0.658 37.11 -0.171 5.219 0.543 10.209 0.715 14.167 0.171 3.957 1.486 17.608 2.087 20.992 0.6 3.384 1.457 4.331 2.801 8.518 1.343 4.187 2.258 17.293 3.316 17.809s3.944 -0.172 3.944 3.04 0.715 10.582 0.172 12.36 -2.144 3.757 -3.03 3.585 -35.102 -0.861 -40.734 0c-5.631 0.86 -9.29 1.95 -11.977 3.757 -2.687 1.806 -7.86 3.957 -9.461 4.301s-5.546 -3.212 -6.26 -8.058c-0.715 -4.847 -2.773 -11.701 -2.058 -12.275 0.714 -0.573 4.745 -2.408 7.946 -3.67 3.202 -1.262 1.658 -0.832 1.658 -0.832l-12.206 -85.748s-6.231 15.429 -7.489 19.903 -6.603 17.924 -7.86 23.115 -4.803 22.856 -4.803 22.856l-3.602 20.333s7.89 1.634 9.405 1.979c1.515 0.344 1.858 0.688 2.401 2.323 0.543 1.634 1.772 5.018 0.715 10.209 -1.058 5.191 -3.573 7.714 -5.174 8.431s-57.77 -12.704 -58.256 -12.733 -4.602 -2.38 -5.003 -2.868c-0.4 -0.487 -1.886 -13.249 -1.572 -16.117 0.315 -2.867 -1.029 -2.695 1.515 -3.584s11.691 1.061 11.691 1.061 -2 -31.116 -1.657 -38.687 9.432 -74.764 10.347 -78.521 8.404 -40.866 9.119 -43.906 1.772 -4.13 1.772 -4.13 10.176 4.474 10.176 3.958c0 -0.517 1.43 -5.908 1.43 -5.908l7.146 0.545 0.914 6.624 11.292 2.782 0.657 2.954 31.786 -0.344s1.63 0.258 1.801 -4.101 1.601 -18.325 0 -18.842 -14.464 -1.032 -14.464 -1.032v-4.158s34.302 -2.524 38.418 -3.212c4.117 -0.689 15.55 -0.545 15.55 -0.545z"
            fill="#2490CF" />
        <path
            d="M168.765 262.95s-0.229 10.697 -0.172 10.382c0.058 -0.316 1.315 -6.74 -0.057 0.315s-2.63 9.894 -2.63 9.894l-13.234 4.589 -1.058 -22.685 17.151 -2.524z"
            fill="#313D4D" />
        <path d="m142.438 266.879 -12.434 -0.717v22.455l12.32 -0.229z" fill="#313D4D" />
        <path d="m96.217 276.515 -0.458 10.009 -11.29 -2.782 -0.915 -6.654z" fill="#313D4D" />
        <path
            d="m76.407 276.572 -1.429 5.908 -11.09 -4.044 2.315 -11.012s4.03 6.395 5.602 6.797c1.572 0.401 4.602 2.351 4.602 2.351"
            fill="#313D4D" />
        <path
            d="M130.004 266.162s0 13.364 0.257 14.683 1.344 5.564 -0.257 7.743 -29.042 1.606 -31.33 1.234c-2.286 -0.373 -2.715 -0.115 -2.715 -4.675s0.229 -8.661 0.229 -8.661 9.033 -2.466 11.634 -3.212c2.601 -0.745 7.146 -3.04 7.432 -5.592l0.257 -2.552s4.031 0.659 8.033 0.258c4.002 -0.402 6.431 0.774 6.431 0.774z"
            fill="#E5E8EA" />
        <path
            d="M82.353 231.605s-29.785 17.006 -34.902 17.551 -31.243 -13.508 -33.158 -15.63l-1.944 -2.122s-0.115 11.299 -0.058 12.905c0.058 1.606 -0.743 2.151 5.403 5.105s19.81 13.45 24.526 13.708 6.288 -1.348 8.175 -2.151 13.692 -2.954 13.406 -4.846c-0.285 -1.893 0.086 -4.704 0.086 -4.704s2.687 -3.728 3.945 -3.498 3.201 0.688 6.403 0.143 14.235 -1.52 16.894 -7.485 3.458 -4.617 0.771 -6.51 -9.604 -2.495 -9.604 -2.495z"
            fill="#313D4D" />
        <path
            d="M83.096 220.105s-5.517 1.921 -6.66 4.99c-1.144 3.068 -0.057 4.416 1.286 5.219 1.344 0.803 4.602 1.262 4.602 1.262s-31.672 17.006 -34.902 17.551 -20.981 -8.718 -24.154 -9.865 -10.405 -5.994 -10.948 -7.858 14.407 -11.529 19.524 -7.657c5.116 3.872 6.26 8.403 12.806 5.736a16 16 0 0 0 2.115 -1.033c4.688 -2.81 5.545 -7.284 4.516 -11.299 -1.172 -4.56 -4.116 -5.133 -4.116 -5.133l11.434 -3.012s2.23 0.087 5.46 1.692c3.23 1.606 19.037 9.407 19.037 9.407"
            fill="#9E1641" />
        <path
            d="M60.771 234.645s-14.664 7.284 -15.721 7.944c-1.058 0.659 -16.18 -7.657 -19.21 -8.891s-7.06 -3.441 -5.974 -4.215c1.087 -0.775 12.035 -5.736 12.035 -5.736s1.658 1.463 4.059 3.614c2.4 2.15 6.632 3.183 8.747 2.122s3.601 -0.775 3.601 -0.775l12.52 5.937z"
            fill="#E5E8EA" />
        <path
            d="M70.519 229.97c0.057 0.316 -5.889 3.442 -5.889 3.442s-10.262 -4.79 -10.547 -5.076c-0.286 -0.287 7.86 -3.958 7.86 -3.958s8.49 5.105 8.576 5.564z"
            fill="#A9B0B3" />
        <path
            d="M79.752 221.395c-0.143 0.23 -3.488 5.335 -3.488 5.335l-0.057 2.351 -8.09 -3.986 -3.601 -2.409 7.46 -4.675 7.776 3.356z"
            fill="#A9B0B3" />
        <path
            d="m68.46 216.061 -8.975 -3.757 -7.29 2.065s8.176 5.506 8.576 5.564 7.69 -3.843 7.69 -3.843z"
            fill="#A9B0B3" />
        <path
            d="M58.542 222.084s-0.143 0.114 -0.4 0.287c-1.573 1.061 -7.175 4.875 -7.09 4.645 0.086 -0.258 -0.085 -1.52 -0.085 -1.52s1.972 -2.15 1.686 -4.301 -1.772 -4.302 -1.772 -4.302l7.69 5.191z"
            fill="#A9B0B3" />
        <path
            d="m89.87 478.237 -1.028 11.07s-0.2 6.108 -2.802 7.227c-2.6 1.118 -23.239 0.745 -27.498 1.577s-18.923 7.514 -22.24 8.776c-3.315 1.261 -17.407 5.018 -28.927 -5.65s-8.347 -30.112 1.515 -35.704 16.493 -7.084 23.983 -2.983c7.489 4.101 6.746 3.04 6.746 3.04l50.023 11.643 0.257 1.033z"
            fill="#D2AE53" />
        <path
            d="M126.259 479.442s-1.515 5.477 -0.629 7.198c0.887 1.72 0.544 2.151 1.887 2.782 1.344 0.631 11.263 3.928 13.95 5.764 2.686 1.835 6.603 8.919 7.946 11.701 1.344 2.781 3.688 8.46 9.119 10.18 5.431 1.721 18.637 7.829 33.615 2.008 14.979 -5.822 11.72 -3.986 12.806 -6.682 1.087 -2.696 1.544 -11.041 1.458 -13.737 -0.085 -2.696 0.286 -10.353 -3.601 -15.916s-11.835 -10.554 -16.036 -10.783c-4.202 -0.23 -10.806 -1.434 -13.121 -1.09s-28.842 0.631 -31.986 1.348 -9.662 3.843 -10.891 4.846 -4.459 2.409 -4.459 2.409z"
            fill="#D2AE53" />
        <path
            d="M232.281 395.042c0.085 1.176 1.114 45.799 1.257 46.602s-5.202 23.114 -6.002 26.097c-0.801 2.982 -0.715 8.345 -0.715 8.345l-33.044 -2.38 -7.061 -1.721 2.602 -4.129s-0.629 -11.128 -1.43 -13.25 -2.687 -2.151 -2.687 -2.151l-3.316 -17.809s1.458 -30.026 2.259 -37.023 0.8 -15.056 2.144 -16.662c1.343 -1.606 2.687 -2.151 4.545 -0.545s7.603 11.643 9.661 13.163 7.118 3.843 14.693 2.466 17.122 -0.917 17.122 -0.917z"
            fill="#B01C3F" />
        <path
            d="M247.202 471.727c0.057 -1.061 23.754 -20.132 23.754 -20.132l-0.543 -9.148s0.8 -18.297 2.944 -28.22 3.887 -32.521 2.744 -38.17 -12.892 -16.834 -22.325 -17.752 -18.694 -2.868 -23.697 -1.29c-5.002 1.577 -23.182 4.244 -26.669 4.531s-6.489 0.803 -9.662 3.756c-3.173 2.954 -6.946 14.081 -6.946 14.081l4.03 0.976c4.288 4.559 8.119 11.471 8.119 11.471s-3.288 -11.471 -1.144 -15.773 2.944 -9.693 15.007 -6.453c12.063 3.241 19.638 6.309 23.897 9.149 7.661 5.104 7.461 9.951 8.804 12.905 1.344 2.954 6.289 18.727 7.575 33.553 1.287 14.827 -2.201 26.929 -3.83 31.776 -1.629 4.846 -2.058 14.74 -2.058 14.74"
            fill="#B01C3F" />
        <path
            d="M215.158 395.959s-0.857 -8.058 0.4 -10.754 0.458 -2.696 4.488 -3.785c4.031 -1.09 3.659 -4.044 6.803 -0.803s4.545 5.104 4.631 9.148 0.829 5.305 0.829 5.305l-17.122 0.918z"
            fill="#450F1E" />
        <path
            d="m215.158 395.959 0.4 -10.754s-2.315 -2.982 4.488 -3.785 12.949 -0.287 16.923 0.803c3.973 1.089 6.66 4.846 6.66 4.846s-6.975 -9.406 -10.719 -11.299c-3.745 -1.893 -14.75 -5.65 -20.096 -6.195 -5.345 -0.544 -10.347 -2.581 -12.691 1.922 -2.344 4.502 -2.144 10.066 -2.316 14.196l-0.2 4.129s1.001 4.474 4.488 5.277 14.207 0.545 14.207 0.545"
            fill="#7D7276" />
        <path
            d="M226.821 380.617s6.403 -1.061 5.831 28.792 2.773 29.969 -0.371 38.515 -6.889 17.408 -6.089 24.663c0.8 7.256 11.834 25.438 21.696 28.65s20.638 7.915 40.733 -7.141c20.096 -15.056 13.95 -33.324 11.263 -35.762 -2.687 -2.437 -6.432 -4.043 -8.318 -4.043 -1.887 0 -9.919 -1.348 -13.121 -4.847 -3.201 -3.498 -5.431 -18.096 -5.117 -24.233s0.829 -15.543 0.829 -15.543 -3.201 14.511 -3.201 22.311 -0.8 14.798 1.086 18.297 4.831 8.345 9.376 10.496 8.318 4.044 7.489 8.604 -1.086 10.754 -4.831 12.647c-3.744 1.892 -9.375 7.513 -9.375 7.513s-20.096 -1.348 -25.984 -8.058c-5.889 -6.711 4.288 -36.823 5.374 -40.322 1.086 -3.498 -3.202 -33.324 -6.975 -45.168s-11.777 -15.601 -13.949 -15.601 -6.346 0.258 -6.346 0.258z"
            fill="#7D7276" />
        <path
            d="M268.126 365.446s-0.972 -9.263 -4.974 -12.504 -12.577 -3.785 -12.577 -3.785 -6.66 4.674 -6.432 6.452l0.229 1.778s8.49 1.434 13.12 2.667c4.631 1.234 10.662 5.421 10.662 5.421z"
            fill="#7D7276" />
        <path
            d="M112.453 16.519s0.686 2.351 -1.029 4.789c-0.886 1.233 -3.459 2.61 -3.459 2.61l-7.918 1.663s4.259 1.09 6.403 0.889c2.144 -0.2 9.118 -0.946 9.804 -4.044 0.687 -3.097 -3.801 -5.879 -3.801 -5.879z"
            fill="#97C138" />
        <path
            d="M104.363 12.676s-6.431 -1.205 -9.061 -0.545 -5.86 1.52 -6.403 5.65 3.745 5.305 3.745 5.305 -1.144 -3.757 -0.4 -5.965 4.544 -3.27 4.544 -3.27z"
            fill="#536726" />
        <path
            d="M105.564 26.785c-3.773 0 -6.003 -1.09 -6.146 -1.147a0.33 0.33 0 0 1 -0.172 -0.344 0.28 0.28 0 0 1 0.286 -0.23c8.662 0 11.434 -3.183 12.32 -5.075 0.772 -1.635 0.544 -3.069 0.372 -3.27a0.28 0.28 0 0 1 0 -0.401c0.114 -0.115 0.286 -0.144 0.4 -0.058 0.172 0.115 4.374 3.127 3.945 5.994 -0.2 1.377 -1.429 2.467 -3.659 3.24 -2.83 0.976 -5.317 1.291 -7.346 1.291m-4.345 -1.175c2.087 0.573 6.174 1.118 11.491 -0.689q3.001 -1.032 3.259 -2.753c0.257 -1.835 -1.83 -3.871 -3.002 -4.846a5.6 5.6 0 0 1 -0.429 2.58c-0.8 2.008 -3.344 5.306 -11.348 5.708z"
            fill="#010101" />
        <path
            d="M92.643 23.373h-0.114c-0.114 -0.029 -2.915 -1.09 -3.716 -3.499q-0.729 -2.15 0.943 -4.732c3.66 -5.65 14.865 -2.868 15.35 -2.753a0.297 0.297 0 0 1 0.229 0.344c0 0.143 -0.143 0.258 -0.314 0.258 -0.086 0 -9.033 -0.344 -11.92 3.728 -1.144 1.606 -1.2 3.7 -0.172 6.252 0.058 0.115 0 0.23 -0.057 0.316a0.32 0.32 0 0 1 -0.229 0.086m5.975 -11.156c-3.173 0 -6.69 0.66 -8.347 3.24 -1 1.55 -1.286 2.954 -0.886 4.188 0.486 1.49 1.886 2.409 2.715 2.839 -0.829 -2.438 -0.657 -4.503 0.486 -6.137 2.001 -2.81 6.46 -3.671 9.462 -3.9a25 25 0 0 0 -3.459 -0.23z"
            fill="#010101" />
        <path
            d="M97.531 21.652s-0.257 -0.057 -0.343 -0.143c-0.228 -0.23 -0.171 -0.66 -0.114 -1.09 0 -0.086 0 -0.2 0.029 -0.287 -0.258 0 -0.886 0.057 -1.115 0.143v0.259c0 0.372 0 1.032 -0.658 1.06h-0.257c-0.6 0.058 -1.2 0.087 -1.372 -0.344 -0.229 -0.516 1.572 -3.957 1.887 -4.33 0.057 -0.057 0.114 -0.086 0.171 -0.115 0.115 0 1.115 -0.2 1.6 -0.143 0.773 0.057 2.316 4.187 2.345 4.36 0.057 0.229 -0.029 0.343 -0.143 0.4 -0.114 0.058 -0.257 0.087 -1.43 0.173 -0.228 0 -0.457 0.028 -0.6 0.057h-0.057zm-0.571 -2.122c0.314 0 0.629 0.057 0.714 0.258 0.086 0.172 0.057 0.373 0 0.717 0 0.143 -0.057 0.401 -0.057 0.545 0.143 0 0.315 0 0.515 -0.029 0.285 0 0.686 -0.057 0.943 -0.086 -0.314 -0.86 -1.43 -3.327 -1.8 -3.67 -0.344 0 -0.973 0.085 -1.287 0.114 -0.457 0.63 -1.572 3.069 -1.687 3.613h1.001s0.085 -0.372 0.085 -0.487c0 -0.287 0 -0.602 0.258 -0.746 0.114 -0.057 0.772 -0.23 1.286 -0.23z"
            fill="#010101" />
        <path
            d="M102.934 21.595c-0.658 0 -1.344 -0.086 -1.829 -0.144 -0.201 0 -0.372 -0.057 -0.486 -0.057a0.59 0.59 0 0 1 -0.458 -0.258c-0.486 -0.602 -0.514 -2.294 -0.286 -3.499 0.315 -1.635 1.773 -1.692 3.059 -1.72h0.372c0.428 0 0.8 0.114 1.057 0.4 0.6 0.632 0.543 1.808 0.543 1.836 0 0.144 -0.114 0.258 -0.257 0.287l-1.343 0.115s-0.172 0 -0.229 -0.058c-0.057 -0.057 -0.086 -0.143 -0.114 -0.2 0 -0.144 -0.058 -0.201 -0.086 -0.201 -0.143 -0.115 -0.543 -0.086 -0.772 -0.057 -0.172 0.028 -0.715 0.716 -0.715 1.29 0 0.316 0.143 0.488 0.458 0.602 0.371 0.115 0.657 0.086 0.857 -0.028 0.229 -0.172 0.286 -0.516 0.286 -0.516 0 -0.087 0.057 -0.144 0.114 -0.201 0.058 -0.058 0.143 -0.086 0.229 -0.058 1.401 0.144 1.458 0.259 1.515 0.345a0.22 0.22 0 0 1 0.057 0.143v0.057c0.286 0.775 0.143 1.377 -0.486 1.72 -0.371 0.202 -0.914 0.288 -1.486 0.288zm0.457 -5.105h-0.457c-1.401 0.057 -2.258 0.115 -2.487 1.233 -0.286 1.52 -0.029 2.925 0.2 3.069 0.086 0 0.286 0 0.486 0.057 0.743 0.086 2.315 0.287 2.944 -0.057 0.401 -0.23 0.401 -0.545 0.229 -0.975a12 12 0 0 0 -0.829 -0.115c-0.057 0.2 -0.2 0.459 -0.457 0.66 -0.343 0.229 -0.801 0.286 -1.372 0.114 -0.629 -0.172 -0.944 -0.66 -0.886 -1.29 0.085 -0.775 0.743 -1.721 1.257 -1.75 0.343 -0.028 0.886 -0.086 1.229 0.201 0.115 0.086 0.172 0.2 0.229 0.316l0.8 -0.087c0 -0.344 -0.085 -0.86 -0.371 -1.118a0.8 0.8 0 0 0 -0.572 -0.23z"
            fill="#010101" />
        <path
            d="M106.593 21.107c-0.315 0 -0.543 0 -0.629 -0.029 -0.314 -0.086 -0.4 -0.258 -0.429 -3.756 0 -0.631 0 -1.262 -0.028 -1.377 0 -0.172 0.085 -0.315 0.228 -0.344 0.258 -0.057 2.63 -0.545 3.459 0.545 0.314 0.401 0.286 0.774 0.229 1.004 -0.057 0.258 -0.229 0.458 -0.372 0.63 0.2 0.086 0.429 0.172 0.715 0.345 0.343 0.2 0.543 0.516 0.6 0.917 0.086 0.717 -0.4 1.434 -0.657 1.664 -0.315 0.286 -2.087 0.43 -3.088 0.43zm-0.343 -0.602c0.6 0.029 2.744 -0.115 3.03 -0.287 0.143 -0.143 0.486 -0.688 0.457 -1.147 0 -0.2 -0.114 -0.344 -0.314 -0.459 -0.772 -0.459 -1.087 -0.401 -1.087 -0.401a0.274 0.274 0 0 1 -0.371 -0.172c-0.057 -0.144 0 -0.316 0.171 -0.402s0.629 -0.344 0.715 -0.688c0.029 -0.144 0 -0.316 -0.143 -0.488 -0.429 -0.602 -1.858 -0.487 -2.601 -0.372v1.175c0 0.975 0.028 2.725 0.143 3.212z"
            fill="#010101" />
        <path
            d="M95.988 19.186s-0.172 -0.029 -0.229 -0.115 -0.086 -0.172 -0.057 -0.287l0.257 -0.86s0.143 -0.2 0.257 -0.2l0.687 -0.058s0.257 0.057 0.314 0.172l0.343 0.803s0.029 0.2 0 0.287c-0.057 0.086 -0.143 0.143 -0.229 0.143l-1.286 0.115zm0.486 -0.86 -0.057 0.229h0.428l-0.085 -0.258h-0.258z"
            fill="#010101" />
        <path
            d="M106.822 17.752c-0.143 0 -0.286 -0.115 -0.286 -0.258l-0.086 -0.803s0.057 -0.258 0.2 -0.316c0.172 -0.057 0.715 -0.258 1.086 0a0.53 0.53 0 0 1 0.258 0.43c0 0.23 0 0.43 -0.143 0.603 -0.229 0.286 -0.629 0.344 -0.972 0.372h-0.029zm0.257 -0.89v0.23s0.257 -0.057 0.286 -0.114c0 0 0.028 -0.087 0 -0.144h-0.315z"
            fill="#010101" />
        <path
            d="M107.222 20.247s-0.258 -0.115 -0.286 -0.23c-0.114 -0.602 -0.143 -0.975 -0.086 -1.147a0.25 0.25 0 0 1 0.229 -0.172c0.086 0 0.915 -0.172 1.4 0.144a0.71 0.71 0 0 1 0.315 0.458c0.028 0.201 0 0.373 -0.143 0.545 -0.343 0.402 -1.201 0.43 -1.401 0.43zm0.171 -1.033s0.029 0.259 0.057 0.402c0.315 0 0.629 -0.115 0.715 -0.2 0 -0.058 0 -0.087 -0.057 -0.116 -0.143 -0.086 -0.458 -0.114 -0.715 -0.086"
            fill="#010101" />
        <path
            d="M120.457 276.601s0.514 1.749 -0.744 3.527c-0.657 0.918 -2.544 1.922 -2.544 1.922l-5.831 1.204s3.144 0.803 4.717 0.66 6.717 -0.688 7.203 -2.983 -2.801 -4.33 -2.801 -4.33"
            fill="#97C138" />
        <path
            d="M114.511 273.762s-4.745 -0.889 -6.689 -0.402c-1.944 0.488 -4.316 1.119 -4.716 4.159s2.772 3.9 2.772 3.9 -0.857 -2.782 -0.286 -4.388c0.572 -1.606 3.345 -2.409 3.345 -2.409z"
            fill="#536726" />
        <path
            d="M115.397 284.143c-2.773 0 -4.431 -0.803 -4.545 -0.86 -0.086 -0.057 -0.143 -0.143 -0.114 -0.258 0 -0.086 0.114 -0.172 0.228 -0.172 6.375 0 8.433 -2.323 9.09 -3.728 0.572 -1.205 0.401 -2.266 0.258 -2.409 -0.086 -0.086 -0.086 -0.201 0 -0.287s0.2 -0.115 0.286 -0.029c0.142 0.086 3.23 2.294 2.915 4.417 -0.143 1.032 -1.057 1.835 -2.687 2.38 -2.086 0.717 -3.916 0.946 -5.402 0.946zm-3.201 -0.86c1.543 0.401 4.545 0.832 8.461 -0.516 1.458 -0.488 2.287 -1.176 2.401 -2.036 0.2 -1.348 -1.344 -2.868 -2.201 -3.585 0.057 0.516 -0.029 1.204 -0.315 1.893 -0.6 1.491 -2.458 3.928 -8.375 4.215z"
            fill="#010101" />
        <path
            d="M105.878 281.648h-0.085c-0.086 -0.028 -2.144 -0.803 -2.745 -2.581 -0.343 -1.061 -0.114 -2.208 0.686 -3.47 2.687 -4.158 10.948 -2.122 11.291 -2.036 0.115 0 0.172 0.143 0.172 0.258s-0.114 0.201 -0.229 0.201c-0.057 0 -6.66 -0.258 -8.775 2.753 -0.829 1.176 -0.886 2.724 -0.143 4.617a0.23 0.23 0 0 1 -0.057 0.23c-0.029 0.057 -0.115 0.057 -0.172 0.057zm4.402 -8.23c-2.344 0 -4.916 0.487 -6.145 2.38 -0.744 1.147 -0.944 2.179 -0.658 3.097 0.372 1.09 1.401 1.778 2.001 2.094 -0.6 -1.807 -0.486 -3.327 0.372 -4.531 1.458 -2.065 4.773 -2.696 6.974 -2.868a22 22 0 0 0 -2.544 -0.172"
            fill="#010101" />
        <path
            d="M109.451 280.358s-0.171 -0.029 -0.257 -0.115c-0.171 -0.172 -0.114 -0.487 -0.086 -0.803v-0.201c-0.2 0 -0.657 0.029 -0.829 0.086v0.172c0 0.259 0 0.775 -0.485 0.775h-0.201c-0.457 0.028 -0.886 0.057 -1 -0.258 -0.172 -0.402 1.172 -2.926 1.372 -3.184a0.7 0.7 0 0 1 0.143 -0.086c0.086 0 0.829 -0.143 1.201 -0.114 0.571 0.057 1.715 3.068 1.743 3.212 0.029 0.172 -0.028 0.258 -0.086 0.286 -0.085 0.058 -0.2 0.058 -1.057 0.115 -0.172 0 -0.343 0 -0.429 0.029h-0.029zm-0.428 -1.578c0.228 0 0.457 0.058 0.543 0.173 0.057 0.114 0.057 0.286 0 0.544 0 0.115 -0.029 0.287 -0.029 0.402h0.372c0.2 0 0.486 -0.029 0.686 -0.057 -0.229 -0.631 -1.058 -2.438 -1.315 -2.696 -0.257 0 -0.715 0.057 -0.943 0.086 -0.343 0.487 -1.144 2.265 -1.258 2.667h0.743s0.057 -0.258 0.057 -0.373c0 -0.229 0 -0.459 0.2 -0.545 0.086 -0.057 0.572 -0.172 0.944 -0.172z"
            fill="#010101" />
        <path
            d="M113.425 280.329c-0.486 0 -0.972 -0.057 -1.344 -0.115 -0.143 0 -0.257 -0.028 -0.343 -0.028s-0.228 -0.058 -0.343 -0.201c-0.343 -0.459 -0.371 -1.692 -0.2 -2.581 0.229 -1.205 1.315 -1.233 2.258 -1.262h0.286c0.315 0 0.572 0.086 0.772 0.287 0.457 0.459 0.4 1.319 0.4 1.348 0 0.114 -0.086 0.2 -0.2 0.2l-0.972 0.086s-0.114 0.001 -0.171 -0.057a0.16 0.16 0 0 1 -0.086 -0.143c0 -0.115 -0.057 -0.144 -0.057 -0.144 -0.115 -0.086 -0.4 -0.057 -0.572 -0.057 -0.143 0.029 -0.514 0.516 -0.543 0.946 0 0.23 0.086 0.373 0.343 0.431 0.286 0.086 0.486 0.086 0.629 0 0.171 -0.115 0.2 -0.373 0.2 -0.373 0 -0.058 0.028 -0.115 0.086 -0.144s0.114 -0.057 0.171 -0.057c1.029 0.115 1.058 0.172 1.115 0.258 0 0.029 0.029 0.057 0.029 0.115 0.2 0.631 0.085 1.032 -0.372 1.29 -0.257 0.144 -0.657 0.201 -1.086 0.201m0.343 -3.757h-0.315c-1.029 0.029 -1.658 0.086 -1.829 0.918 -0.229 1.118 -0.029 2.151 0.143 2.237 0.086 0 0.2 0 0.371 0.029 0.544 0.057 1.716 0.229 2.173 -0.029 0.314 -0.172 0.286 -0.402 0.171 -0.717 -0.114 0 -0.371 -0.057 -0.628 -0.086 -0.058 0.143 -0.143 0.344 -0.344 0.487 -0.257 0.172 -0.6 0.201 -1 0.086 -0.457 -0.143 -0.686 -0.487 -0.657 -0.946 0.057 -0.574 0.543 -1.262 0.914 -1.29 0.258 0 0.658 -0.058 0.886 0.143 0.086 0.057 0.115 0.143 0.172 0.229l0.6 -0.057c0 -0.258 -0.057 -0.631 -0.257 -0.832a0.58 0.58 0 0 0 -0.429 -0.172z"
            fill="#010101" />
        <path
            d="M116.14 279.985h-0.457c-0.229 -0.086 -0.286 -0.201 -0.314 -2.782v-1.004c0 -0.114 0.057 -0.229 0.171 -0.258 0.2 -0.057 1.944 -0.401 2.544 0.402 0.229 0.287 0.229 0.573 0.172 0.745a1.25 1.25 0 0 1 -0.286 0.459q0.214 0.087 0.514 0.258a0.86 0.86 0 0 1 0.429 0.66c0.057 0.516 -0.314 1.061 -0.486 1.233 -0.229 0.23 -1.543 0.316 -2.258 0.316zm-0.257 -0.43c0.429 0 2.001 -0.086 2.23 -0.201 0.085 -0.086 0.371 -0.516 0.343 -0.86 0 -0.144 -0.086 -0.258 -0.229 -0.344 -0.572 -0.345 -0.8 -0.287 -0.8 -0.287 -0.115 0.028 -0.229 0 -0.286 -0.115s0 -0.229 0.114 -0.287 0.457 -0.258 0.515 -0.487c0 -0.115 0 -0.23 -0.086 -0.344 -0.315 -0.431 -1.372 -0.373 -1.915 -0.287v0.86c0 0.717 0 2.008 0.085 2.38z"
            fill="#010101" />
        <path
            d="M108.337 278.551s-0.143 -0.029 -0.172 -0.086c-0.057 -0.057 -0.057 -0.143 -0.029 -0.201l0.201 -0.631s0.114 -0.143 0.2 -0.143l0.514 -0.057s0.172 0.057 0.229 0.143l0.257 0.574v0.2a0.19 0.19 0 0 1 -0.171 0.115l-0.944 0.086zm0.371 -0.631 -0.057 0.172h0.314l-0.085 -0.201h-0.2z"
            fill="#010101" />
        <path
            d="M116.312 277.519s-0.2 -0.086 -0.229 -0.201l-0.057 -0.574s0.057 -0.2 0.143 -0.229c0.114 -0.057 0.543 -0.172 0.8 0 0.115 0.057 0.172 0.172 0.2 0.315 0 0.172 0 0.316 -0.114 0.43 -0.172 0.201 -0.457 0.23 -0.715 0.259zm0.171 -0.66v0.172s0.172 -0.029 0.2 -0.086v-0.115h-0.228z"
            fill="#010101" />
        <path
            d="M116.598 279.325s-0.201 -0.086 -0.229 -0.172c-0.086 -0.43 -0.114 -0.717 -0.057 -0.86 0 -0.057 0.085 -0.115 0.171 -0.143 0.057 0 0.686 -0.144 1.029 0.086 0.115 0.086 0.2 0.2 0.229 0.344 0 0.143 0 0.286 -0.086 0.401 -0.257 0.316 -0.886 0.316 -1.029 0.316zm0.143 -0.745s-0.001 0.2 0.028 0.315c0.229 0 0.457 -0.086 0.515 -0.143 0 -0.058 0 -0.058 -0.029 -0.086 -0.114 -0.058 -0.343 -0.086 -0.514 -0.058z"
            fill="#010101" />
        <path d="m141.524 215.258 -8.833 12.131 -15.293 -9.435" stroke="#1D1D1B" stroke-width="0.43"
            stroke-miterlimit="10" />
        <path
            d="M130.861 223.747c1.5 0 2.716 -1.014 2.716 -2.266 0 -1.251 -1.216 -2.265 -2.716 -2.265 -1.499 0 -2.715 1.014 -2.715 2.265s1.216 2.266 2.715 2.266Z"
            stroke="#1D1D1B" stroke-width="0.43" stroke-miterlimit="10" />
        <path d="m98.39 214.197 -7.233 6.998" stroke="#1D1D1B" stroke-width="0.43"
            stroke-miterlimit="10" />
        <path d="M89.7 220.65s0.657 -3.241 -2.03 -3.757 -3.202 3.04 -3.202 3.04" stroke="#1D1D1B"
            stroke-width="0.43" stroke-miterlimit="10" />
        <path
            d="m143.496 94.81 -3.116 44.48s-0.714 7.169 -9.833 9.865 -8.032 -1.09 -3.745 -8.058c4.288 -6.969 -9.118 -2.696 -13.949 0 -4.831 2.695 -1.286 -5.65 -9.662 -1.606 -8.375 4.043 -4.945 9.406 -6.488 8.202s0.2 -10.841 1.2 -13.823 11.72 -1.893 11.72 -1.893 16.608 -1.577 23.039 -13.163 10.805 -23.975 10.805 -23.975z"
            fill="#ECB374" />
        <path
            d="m160.19 226.902 -0.172 0.545c8.032 2.867 16.322 10.123 8.175 14.826 -8.175 4.703 -44.678 9.579 -52.167 5.535s-11.291 -13.536 -13.921 -12.561 0.572 14.97 -6.917 17.637c-7.49 2.667 -20.467 2.552 -20.467 2.552s-9.547 2.295 0.086 2.811 23.582 -4.847 21.438 0 -13.95 9.693 -19.295 8.058 -4.287 4.302 4.288 3.212c8.576 -1.089 21.982 -5.391 21.982 -5.391s0.4 7.141 -8.919 7.886c-9.318 0.717 -17.35 2.352 -21.638 -0.889 -1.43 -1.089 -3.059 -1.175 -4.574 -0.86a48 48 0 0 0 2.744 3.069c3.23 3.384 11.206 5.047 22.725 3.441s19.695 -6.596 21.696 -9.148c2.001 -2.553 0.257 -6.711 0.257 -6.711s26.527 -2.954 32.015 -2.868c5.489 0.086 33.302 -0.889 37.389 -0.889s4.174 -3.642 6.175 -6.711c2.001 -3.068 4.974 -17.063 4.974 -17.063s-6.746 -2.237 -23.44 -4.445c-5.46 -0.717 -9.462 -1.434 -12.406 -2.065z"
            fill="#ECB374" />
        <path
            d="m50.424 260.971 -8.176 2.151 -28.013 -14.511s-5.374 -15.601 -4.83 -6.453 -1.087 13.45 1.086 13.995 11.777 6.453 14.464 5.908 -5.374 1.606 -5.374 1.606 8.575 5.908 11.262 4.044 16.35 0.803 16.35 0.803l3.202 -7.543z"
            fill="#ECB374" />
        <path
            d="M29.242 222.715c2.144 -2.065 4.974 -0.258 10.262 0.717s8.49 -6.023 5.288 -8.174 -9.204 -2.151 -11.29 -1.089c-2.087 1.061 -12.35 3.699 -12.35 3.699s10.949 -8.575 14.265 -8.431c3.316 0.143 12.034 0.086 14.635 5.907 2.601 5.822 4.374 11.185 -1.772 13.336s-9.376 -1.09 -12.32 -1.348 -6.69 -4.646 -6.69 -4.646z"
            fill="#ECB374" />
        <path
            d="M71.805 151.22c-9.347 8.116 -8.26 4.359 -14.15 15.63 -5.888 11.27 -5.888 15.056 -5.888 22.053s-1.086 12.561 -6.431 11.299c-5.346 -1.262 0 5.478 0 5.478l-1.916 6.338s0.315 0.516 3.802 0c3.487 -0.517 4.202 -0.344 9.204 -2.323s5.575 0.659 5.575 0.659l0.143 -16.432 -3.116 -6.023 5.774 -29.108 7.032 -7.571z"
            fill="#738F2B" />
        <path
            d="M97.903 133.812c-8.633 8.862 -9.233 7.801 -9.461 15.314 -0.23 7.514 2.972 11.816 -1.315 13.967 -4.288 2.151 -6.603 3.47 -3.573 3.699 3.03 0.23 0.085 20.476 0.085 20.476s-2.944 7.514 -3.487 10.755c-0.543 3.24 2.287 5.133 4.888 5.793 2.601 0.659 4.26 -23.975 6.117 -28.048s2.801 -1.519 5.546 4.732 4.888 -0.2 3.801 3.012 0.686 17.264 0.686 17.264 4.66 -19.931 7.347 -25.868 1.086 7.514 6.974 6.998c5.889 -0.517 6.432 -2.151 8.033 3.212s-0.543 19.902 0 20.963 4.345 0.258 4.573 -22.455 11.863 -14.167 18.18 -19.759 4.488 -18.268 -0.257 -26.097 -4.459 -10.21 -4.459 -10.21 1.115 13.651 -3.03 16.892 -17.151 8.919 -23.04 8.116 -14.321 27.904 -14.321 27.904l3.059 -29.797s-5.688 1.061 -7.546 -3.097 1.2 -13.823 1.2 -13.823z"
            fill="#738F2B" />
        <path
            d="M179.827 145.054c-4.287 -3.097 -8.289 -2.093 -14.264 0s-12.005 11.443 -12.891 13.307c-0.915 1.864 -1.115 21.078 -1.115 21.078s5.402 17.58 3.087 20.247 -1.972 4.847 -1.744 8.173c0.229 3.327 5.317 4.388 5.317 4.388s-1.429 -0.344 -3.201 0.545 -3.573 4.646 -3.316 9.607c0.257 4.962 4.745 4.216 8.318 5.105 0.715 0.172 2.115 0.373 3.916 0.602l3.573 -3.671s6.432 -0.545 17.694 -3.212c11.263 -2.667 -12.063 -5.391 -19.295 -7.972 -7.231 -2.581 11.263 -2.782 24.126 -5.478s2.944 -6.94 2.144 -7.513c-0.8 -0.574 -10.176 -3.212 -19.295 -8.604 -9.118 -5.391 -1.601 -5.907 9.004 -4.904s-12.748 -13.909 -19.18 -13.909 -2.144 -11.299 -1.086 -17.751c1.057 -6.453 13.406 -11.816 18.208 -10.009z"
            fill="#738F2B" />
        <path
            d="M140.037 199.113c4.073 0 7.375 -3.788 7.375 -8.461 0 -4.672 -3.302 -8.46 -7.375 -8.46s-7.375 3.788 -7.375 8.46 3.302 8.461 7.375 8.461"
            fill="#313D4D" />
        <path
            d="M70.519 193.922c3.994 0 7.232 -3.249 7.232 -7.256s-3.238 -7.255 -7.232 -7.255 -7.232 3.248 -7.232 7.255 3.238 7.256 7.232 7.256"
            fill="#313D4D" />
        <path
            d="M94.273 31.89c3.201 -0.344 5.374 4.646 0.343 9.693 -5.031 5.048 -11.606 2.18 -24.383 4.33 -12.778 2.152 -23.497 8.576 -24.926 16.462 -1.43 7.886 7.146 12.188 13.578 10.754s11.348 -1.634 11.348 -1.634l-1.2 -18.756s15.464 0.86 26.498 4.531c11.033 3.671 12.863 5.478 16.236 0.46 3.373 -5.02 15.264 -15.057 15.264 -15.057s-19.952 -8.66 -23.697 -10.238 -9.09 -0.516 -9.09 -0.516z"
            fill="#738F2B" />
        <path
            d="M98.904 30.829s9.575 -0.488 14.063 -13.507S108.908 0 108.908 0l20.667 11.471s2.916 17.207 0.772 22.226 -3.316 8.947 -3.316 8.947 -7.346 -6.137 -15.522 -8.201S98.904 30.8 98.904 30.8z"
            fill="#DBDBDB" />
        <path
            d="M161.076 137.713c0.914 -0.918 2.772 -1.836 5.116 -2.696 -2.001 -0.172 -3.973 -0.316 -5.517 -0.43 -4.03 -0.258 -6.403 -1.234 -6.403 -1.234s2.516 5.679 2.373 10.497c0 0.659 -0.114 1.434 -0.257 2.294 1.458 -3.528 3.144 -6.825 4.716 -8.431z"
            fill="#0774A6" />
        <path
            d="M152.243 217.811c0.943 -4.044 4.373 -5.593 4.373 -5.593s-3.601 -2.523 -3.716 -4.387c-0.114 -1.864 -0.4 -4.417 0.686 -6.281 0.315 -0.573 0.658 -0.975 0.944 -1.348l0.114 -0.545 -2.258 -19.443c0.143 3.498 -0.515 8.574 -4.974 10.41 -7.06 2.925 -17.78 0.774 -16.35 -7.829s-1.144 -6.109 5.716 -12.189c6.261 -5.534 15.036 -11.786 15.865 -12.303 -0.114 0.058 -0.114 -0.229 -0.028 -0.716 -1.487 1.405 -5.689 5.276 -8.976 6.94 -4.002 2.036 -12.463 5.678 -12.463 5.678s-4.145 16.002 -3.745 19.759 0 10.353 0 10.353 -0.8 7.858 -11.92 7.485 -29.528 -2.897 -32.443 -4.388c-2.916 -1.491 -3.26 -6.108 -2.373 -7.886 -11.09 8.775 -16.065 6.624 -16.065 6.624 -0.314 5.162 1.23 9.349 3.373 11.386l3.059 1.319c0.486 0 1 -0.172 1.458 -0.43 3.859 -2.151 -0.143 -4.818 7.06 -2.811 7.204 2.008 14.207 1.635 12.892 5.592 -0.629 1.922 1.658 4.446 4.202 6.596 3.259 1.893 5.231 3.671 5.745 4.101 0 0 5.889 2.897 9.205 3.499q1.2 -0.214 2.744 -0.516c2.315 -1.463 5.26 -5.076 5.26 -5.076s-3.802 -13.766 0.6 -9.034 10.633 6.94 10.633 6.94l21.811 0.861s-1.372 -2.753 -0.429 -6.797z"
            fill="#0774A6" />
        <path d="M152.643 158.332c0.057 -0.057 0.085 -0.086 0 0" fill="#0774A6" />
        <path
            d="M78.723 174.793c0.943 3.499 3.201 6.138 4.888 8.575 0.057 -4.502 0.343 -10.783 0.829 -12.475 0.657 -2.294 1.343 -3.9 1.343 -3.9s-7.918 -4.302 -9.233 -8.059c-1.143 -3.24 -2.687 -7.657 -3.201 -9.091l-1.544 1.377c1.372 13.679 4.602 14.827 6.918 23.573"
            fill="#0774A6" />
        <path
            d="m152.1 177.776 0.286 2.466c0 -0.373 -0.029 -0.688 -0.057 -1.032 -0.086 -0.545 -0.172 -1.061 -0.229 -1.434"
            fill="#0774A6" />
        <path
            d="m168.765 262.95 -17.151 2.524s-1.343 -3.27 -5.26 -0.918l-3.916 2.352s-14.206 0.057 -18.866 -1.492c-4.659 -1.548 -8.318 2.295 -8.318 2.295s-3.116 -5.994 0.257 -6.711 50.024 -3.757 53.94 -3.757l-0.715 5.736z"
            fill="#0774A6" />
        <path
            d="M101.819 316.894c4.231 -14.339 11.377 -19.358 14.236 -5.019s6.431 36.565 16.436 40.866 22.153 16.49 20.724 28.679 -23.84 33.782 -13.721 34.442 24.44 -9.349 21.582 2.839 -5.717 26.528 -15.007 26.528 -16.608 10.037 -16.608 10.037 15.178 -1.434 25.183 2.868c8.318 3.584 7.518 10.582 7.003 12.848 11.263 0 24.069 0.315 24.612 0.43 0.886 0.172 2.515 -1.778 3.03 -3.585s-0.172 -9.148 -0.172 -12.36 -2.858 -2.524 -3.944 -3.04 -1.973 -13.622 -3.316 -17.809c-1.344 -4.187 -2.201 -5.134 -2.801 -8.518s-1.916 -17.035 -2.087 -20.992 -0.886 -8.948 -0.715 -14.167c0.172 -5.22 0 -32.98 0.658 -37.11 0.657 -4.129 -3.688 -33.324 -4.431 -39.834s-6.574 -30.427 -6.574 -30.427l-13.235 4.588 -10.348 0.258 -14.007 0.717h-0.114l-31.786 0.344 -7.49 -3.412 -4.459 -2.323 -0.571 5.105H73.72l1.258 -6.367c0 0.315 -3.687 -1.176 -6.632 -2.409l-3.716 -1.348s-0.142 0.201 -0.228 0.344c1.229 2.208 3.773 10.066 7.403 14.942 4.23 5.678 6.375 14.281 12.806 16.432 6.432 2.151 10.72 4.302 12.149 10.038 1.429 5.735 -0.6 15.801 -10.662 22.598s-6.49 18.268 2.801 13.249c9.29 -5.018 7.86 12.188 -2.144 25.811s-23.925 29.509 -15.893 28.735 13.75 -0.057 5.174 16.433 -27.442 16.461 -30.872 16.461 3.002 0 15.865 5.047c12.863 5.048 18.58 24.377 10.719 21.509 -6.689 -2.438 12.463 5.219 21.41 7.255 1.486 0.259 2.573 0.431 3.144 0.459h0.458c1.229 -0.545 2.973 -2.151 4.202 -5.19 0.314 -2.237 0.228 -4.876 0.228 -7.514 0 -5.936 -2.372 -8.231 -2.372 -8.231l-9.404 -1.979 3.601 -20.332s3.545 -17.666 4.802 -22.857c0.658 -2.753 2.459 -7.8 4.231 -12.618a614 614 0 0 1 3.316 -9.378c0.143 -0.401 0.257 -0.803 0.343 -1.118 1.258 -4.474 7.489 -19.903 7.489 -19.903s-0.057 -19.157 -5.031 -25.524c-4.974 -6.366 -10.576 -12.102 -6.346 -26.441z"
            fill="#0774A6" />
        <path d="M18.209 501.208s0.2 0.115 0.285 0.201c-0.771 -0.631 -0.943 -0.746 -0.285 -0.201"
            fill="#9A7B37" />
        <path
            d="M86.04 496.534c2.602 -1.119 2.802 -7.227 2.802 -7.227l1.029 -11.07 -0.257 -1.032 -50.024 -11.644s0.286 0.431 -1.4 -0.286c5.259 3.24 9.46 8.431 4.716 18.583 -6.203 13.335 -19.18 21.365 -24.412 17.551 1.372 1.09 4.602 3.786 8.719 7.141 4.287 -0.143 7.66 -1.119 9.061 -1.663 3.316 -1.262 17.98 -7.973 22.24 -8.776 4.258 -0.803 24.925 -0.459 27.498 -1.577z"
            fill="#9A7B37" />
        <path
            d="M202.752 482.711c-3.887 -5.592 -11.834 -10.554 -16.036 -10.783 -4.202 -0.23 -10.805 -1.434 -13.12 -1.09s-28.842 0.631 -31.987 1.348 -9.661 3.843 -10.89 4.847c-1.23 1.003 -4.46 2.38 -4.46 2.38s-0.228 0.86 -0.457 2.007c5.946 4.933 21.896 12.332 21.896 12.332l8.404 9.492s0.715 -27.961 26.441 -22.942 11.891 27.416 8.432 29.854c-1.029 0.717 1.773 3.47 6.175 6.94 9.147 -3.47 6.832 -2.409 7.775 -4.761 1.086 -2.724 1.543 -11.041 1.458 -13.736 -0.086 -2.696 0.286 -10.353 -3.602 -15.917z"
            fill="#9A7B37" />
        <path
            d="M88.842 489.307s-32.273 -1.979 -38.161 0.172c-5.889 2.151 -17.294 11.156 -23.84 12.245 -6.546 1.09 -17.008 -5.506 -20.352 -7.943 -3.345 -2.438 -5.632 -5.392 -5.632 -5.392s-0.485 4.101 1.916 6.768 5.23 7.112 7.946 8.718 5.917 6.969 18.666 3.757 23.64 -9.119 29.157 -9.55c5.517 -0.43 26.84 -0.803 28.184 -1.606s2.116 -7.169 2.116 -7.169"
            fill="#695223" />
        <path
            d="M125.402 481.162s10.347 6.223 13.635 7.141c3.287 0.918 5.831 0.66 8.661 5.478s5.488 12.761 13.663 15.715 17.952 4.445 29.614 0.66c11.663 -3.786 15.551 -5.506 15.551 -5.506s-0.258 5.391 -0.944 6.854c-0.686 1.462 -2.944 2.954 -4.831 4.215 -1.886 1.262 -16.636 6.224 -27.47 5.363s-19.294 -6.108 -20.638 -8.116c-1.343 -2.007 -6.574 -13.995 -8.718 -15.601s-8.176 -6.71 -12.863 -7.255c-4.688 -0.545 -4.746 -1.692 -5.46 -3.528 -0.715 -1.835 -0.2 -5.477 -0.2 -5.477z"
            fill="#695223" />
        <path
            d="M227.536 467.712c0.8 -2.954 6.174 -25.265 6.002 -26.097 -0.171 -0.832 -1.2 -45.426 -1.257 -46.602 0 0 -9.576 -0.459 -17.123 0.918 -7.575 1.376 -12.634 -0.918 -14.692 -2.467s-7.775 -11.557 -9.662 -13.163 -3.201 -1.09 -4.545 0.545 -1.343 9.693 -2.144 16.662c-0.8 6.969 -2.258 37.024 -2.258 37.024l3.316 17.809s1.886 0 2.687 2.151 1.429 13.249 1.429 13.249l-2.601 4.13 7.06 1.72 18.666 1.348c1.344 -0.631 2.316 -1.118 2.716 -1.348 4.059 -2.38 0.943 -2.638 -0.486 -9.922s-17.151 -11.357 -16.437 -13.508c0.715 -2.151 8.576 -7.169 6.804 -13.708s-15.007 -13.507 -15.007 -13.507 13.206 -0.746 18.923 -2.897 -11.434 -12.905 -6.432 -12.188c5.003 0.717 6.432 -5.019 20.724 -3.585s0 9.321 -2.344 20.849v3.872l3.202 13.421s2.115 30.055 2.744 33.554c0 0 -0.086 -5.392 0.715 -8.346z"
            fill="#8C193A" />
        <path
            d="M247.202 471.727c0.028 -0.573 6.689 -6.166 12.977 -11.328 2.916 -7.026 5.26 -21.594 5.26 -21.594s2.859 -29.396 -2.144 -23.66c-5.002 5.736 -3.573 -16.49 -3.573 -16.49s2.144 -5.736 -7.146 -13.622 8.575 -5.019 15.007 -10.037 -4.288 -13.622 -15.007 -7.17c-10.719 6.453 -31.644 -0.459 -31.644 -0.459s-14.606 -3.699 -17.694 0.258c-2.401 3.069 -11.348 9.435 -15.178 12.074l2.801 0.688c4.288 4.56 8.118 11.471 8.118 11.471s-3.287 -11.471 -1.143 -15.773 2.944 -9.693 15.007 -6.452 19.638 6.309 23.897 9.148c7.661 5.105 7.46 9.952 8.804 12.905 1.343 2.954 6.289 18.727 7.575 33.554 1.286 14.826 -2.201 26.929 -3.83 31.775 -1.63 4.847 -2.059 14.741 -2.059 14.741z"
            fill="#8C193A" />
        <path
            d="M226.821 380.617s13.32 -2.409 16.808 6.452 10.348 23.029 10.348 35.217 -6.432 37.999 -6.432 37.999 -14.836 23.028 -9.919 32.664 -11.434 -20.39 -11.434 -20.39 2.258 -11.242 6.089 -24.663c3.83 -13.422 1.086 -19.157 0.371 -38.515 -0.714 -19.358 -5.831 -28.793 -5.831 -28.793z"
            fill="#564C4F" />
        <path
            d="M273.386 414.227s-5.46 16.146 -3.659 24.549 -0.258 12.446 5.717 17.207c5.974 4.76 13.406 7.341 13.492 13.364 0.085 6.022 -4.517 14.368 -8.29 16.662s-5.917 3.499 -5.917 3.499 19.695 -0.717 22.696 -5.65 6.604 -9.234 6.604 -12.819 -1.43 -10.296 -4.117 -12.733 -8.032 -7.342 -11.605 -5.191 -11.949 -3.298 -12.778 -10.611 -2.143 -28.277 -2.143 -28.277"
            fill="#564C4F" />
        <path
            d="M98.16 134.443c-2.115 0 -4.23 -0.172 -6.317 -0.573 -5.402 -1.004 -30.786 -22.627 -29.985 -34.787 0.428 -6.453 2.515 -8.747 4.316 -10.754 1.572 -1.75 3.087 -3.413 3.459 -7.8 0.2 -2.381 0.228 -5.191 0.114 -8.145 -2.716 1.175 -11.491 4.158 -20.981 -0.689 -6.69 -3.412 -8.633 -6.137 -8.633 -12.102 0 -6.538 14.121 -18.44 27.47 -23.172 14.864 -5.276 36.389 -9.205 54.397 1.95 14.693 9.12 22.897 17.78 23.554 20.935 2.887 -0.66 7.947 -1.09 13.321 0.775 2.201 0.774 3.659 2.208 4.373 4.273 1.315 3.871 -0.314 9.865 -4.316 16.002 -2.944 4.503 -6.889 5.42 -9.776 6.109 -2.487 0.573 -3.802 0.946 -4.088 2.552 -1.343 7.6 -8.061 30.255 -17.98 36.163 -7.46 4.445 -18.037 9.263 -28.928 9.263M69.49 53.6c0 0.172 2.144 17.378 1.343 27.014 -0.4 4.79 -2.115 6.682 -3.744 8.518 -1.773 1.978 -3.602 4.015 -4.03 10.037 -0.801 11.615 24.325 32.636 28.984 33.496 12.635 2.38 25.698 -3.326 34.416 -8.517 9.433 -5.621 16.151 -28.19 17.409 -35.332 0.428 -2.437 2.544 -2.954 5.002 -3.527 2.83 -0.66 6.346 -1.491 9.033 -5.592 3.744 -5.765 5.374 -11.472 4.202 -14.942 -0.572 -1.692 -1.801 -2.867 -3.602 -3.498 -5.688 -1.98 -11.091 -1.176 -13.463 -0.574h-0.029c-1.229 0.487 -1.601 0.63 -1.915 0.23l-0.286 -0.345 0.257 -0.372s0.172 -0.144 0.429 -0.23c0.229 -0.086 0.515 -0.2 0.886 -0.315h0.029c-0.086 -1.406 -5.689 -9.464 -23.011 -20.19 -17.58 -10.897 -38.704 -6.997 -53.34 -1.835C54.34 42.5 41.39 54.144 41.39 59.622s1.716 7.829 7.976 11.012c9.662 4.933 18.552 1.32 20.381 0.46 -0.343 -8.46 -1.4 -17.18 -1.43 -17.322l1.201 -0.144z"
            fill="#1D1D1B" />
        <path
            d="M138.265 79.61c-2.916 0 -6.517 -1.72 -9.404 -4.53 -3.259 -3.184 -4.917 -6.998 -4.545 -10.44 0.657 -5.936 1.686 -17.264 2.029 -21.02 -4.373 2.953 -7.489 6.08 -10.262 8.861 -3.802 3.814 -6.803 6.825 -11.205 7.456 -2.43 0.345 -5.803 -0.803 -10.062 -2.265 -9.633 -3.298 -22.84 -7.8 -37.16 0.315 -6.146 3.499 -12.578 7.256 -12.578 7.256 -0.286 0.172 -0.657 0.057 -0.829 -0.23a0.59 0.59 0 0 1 0.229 -0.831s6.432 -3.757 12.606 -7.256c14.778 -8.374 28.813 -3.585 38.132 -0.401 4.116 1.405 7.346 2.523 9.519 2.208 3.973 -0.574 6.86 -3.47 10.519 -7.112 3.03 -3.04 6.46 -6.482 11.491 -9.722 0.2 -0.115 0.429 -0.144 0.629 0 0.2 0.114 0.315 0.344 0.286 0.573 0 0.144 -1.372 15.114 -2.144 22.312 -0.343 3.011 1.229 6.539 4.173 9.435s6.632 4.531 9.319 4.13c4.402 -0.603 5.174 -13.336 5.117 -18.21 0 -0.345 0.257 -0.603 0.6 -0.632 0.343 0 0.6 0.258 0.6 0.602 0 1.893 0.086 18.555 -6.145 19.416 -0.315 0.028 -0.629 0.057 -0.944 0.057z"
            fill="#1D1D1B" />
        <path
            d="M127.06 43.017s-0.2 0 -0.286 -0.086c-0.286 -0.172 -0.4 -0.545 -0.229 -0.831 0.086 -0.144 8.261 -15.2 4.374 -26.27 -1.515 -4.33 -4.717 -7.542 -9.519 -9.52 -20.295 -8.346 -29.757 -1.205 -41.877 10.696C67.86 28.45 68.433 36.851 68.461 36.938c0 0.344 -0.229 0.63 -0.543 0.66 -0.4 0.056 -0.63 -0.23 -0.658 -0.546 -0.028 -0.373 -0.686 -9.033 11.434 -20.935C91.157 3.9 100.876 -3.47 121.886 5.162c5.117 2.122 8.547 5.564 10.205 10.238 4.059 11.586 -4.117 26.642 -4.46 27.273a0.61 0.61 0 0 1 -0.543 0.316z"
            fill="#1D1D1B" />
        <path
            d="m159.275 60.798 -1.172 -0.258s2.087 -9.493 -0.543 -25.036c-2.601 -15.4 -26.841 -28.564 -35.96 -29.137l0.086 -1.205c9.633 0.602 34.33 13.909 37.074 30.14 2.659 15.803 0.629 25.123 0.515 25.524z"
            fill="#1D1D1B" />
        <path
            d="m145.468 75.166 -1.114 -0.488c0.171 -0.373 3.973 -9.263 10.719 -10.582l0.229 1.204c-6.089 1.205 -9.805 9.78 -9.834 9.865"
            fill="#1D1D1B" />
        <path
            d="M147.126 79.553s-0.2 0 -0.314 -0.028c-0.658 -0.144 -0.972 -0.717 -1.029 -1.062l1.172 -0.286s0.057 0.143 0.114 0.143c0 0 0.743 0.086 2.573 -2.18 1.286 -1.606 1.801 -3.097 1.515 -4.387 -0.4 -1.807 -2.287 -2.725 -2.287 -2.725l0.515 -1.09s2.401 1.148 2.972 3.528c0.401 1.663 -0.2 3.499 -1.743 5.42 -1.43 1.778 -2.544 2.639 -3.459 2.639z"
            fill="#1D1D1B" />
        <path
            d="M94.416 104.561c-3.202 0 -5.803 -1.061 -7.346 -3.069 -1.858 -2.409 -1.944 -5.936 -0.23 -9.636 0.973 -2.122 2.46 -3.499 4.374 -4.072 3.974 -1.176 8.376 1.548 8.576 1.663a0.606 0.606 0 0 1 0.2 0.832 0.6 0.6 0 0 1 -0.83 0.2c-0.028 0 -4.144 -2.552 -7.574 -1.52 -1.572 0.46 -2.773 1.607 -3.602 3.413 -1.515 3.27 -1.486 6.338 0.115 8.374 1.715 2.237 5.06 3.069 9.147 2.323 0.314 -0.086 0.657 0.144 0.714 0.488a0.62 0.62 0 0 1 -0.486 0.717 16 16 0 0 1 -3.001 0.287z"
            fill="#1D1D1B" />
        <path
            d="M99.447 125.811a0.59 0.59 0 0 1 -0.543 -0.344c-0.143 -0.287 0 -0.66 0.285 -0.832 7.318 -3.67 11.406 -14.482 11.72 -15.4 0 -0.057 0 -0.115 0.057 -0.201 0.115 -0.229 0.372 -0.401 0.658 -0.344 0.257 0.029 0.457 0.258 0.514 0.516 0 0.029 0 0.173 -0.085 0.373 0 0 -0.029 0.058 -0.058 0.086 -0.771 2.323 -5.088 12.447 -12.291 16.06a0.8 0.8 0 0 1 -0.257 0.057z"
            fill="#1D1D1B" />
        <path
            d="M107.794 91.254c-1.144 0 -2.087 -0.144 -2.63 -0.488 -2.001 -1.261 -3.03 -7.714 -3.287 -10.955 -0.229 -2.61 -0.344 -7.198 1.2 -8.574 1.544 -1.377 5.317 -1.807 8.833 -1.033 3.83 0.86 6.66 3.04 7.946 6.08 2.802 6.625 3.917 9.865 3.116 11.471 -0.229 0.488 -0.629 0.803 -1.172 0.947 -1.143 0.315 -9.376 2.523 -14.006 2.523zm0.6 -20.19c-2.087 0 -3.802 0.46 -4.517 1.119 -0.657 0.573 -1.143 3.154 -0.8 7.542 0.429 5.248 1.744 9.407 2.716 10.038 1.686 1.06 10.49 -0.775 15.664 -2.209 0.2 -0.057 0.315 -0.143 0.4 -0.286 0.686 -1.377 -1.543 -6.625 -3.144 -10.468 -1.515 -3.613 -5.088 -4.904 -7.089 -5.363a14.5 14.5 0 0 0 -3.23 -0.373"
            fill="#1D1D1B" />
        <path
            d="M120.457 70.577c-0.915 0 -2.144 -0.488 -3.631 -1.09 -1.6 -0.63 -3.43 -1.376 -5.402 -1.75 -1.973 -0.372 -4.202 -0.286 -6.346 -0.171 -3.916 0.172 -7.66 0.344 -8.833 -2.61 -0.457 -1.147 -0.457 -2.036 -0.028 -2.724 0.886 -1.406 3.258 -1.549 7.174 -1.807 1.373 -0.086 2.916 -0.172 4.631 -0.344 8.318 -0.775 13.95 7.743 14.178 8.116q0.086 0.172 0.086 0.344c0 0.86 -0.257 1.462 -0.772 1.778 -0.286 0.2 -0.629 0.287 -1 0.287zm-12.406 -4.33c1.229 0 2.429 0.057 3.573 0.286 2.115 0.402 4.059 1.176 5.631 1.807 1.515 0.602 3.059 1.233 3.516 0.946 0.114 -0.086 0.2 -0.286 0.2 -0.602 -0.8 -1.147 -6.003 -8.144 -12.92 -7.399 -1.715 0.172 -3.287 0.258 -4.66 0.344 -3.172 0.201 -5.66 0.345 -6.231 1.233 -0.2 0.345 -0.172 0.86 0.143 1.607 0.857 2.15 4.002 2.007 7.661 1.864 1 -0.058 2.029 -0.086 3.058 -0.086z"
            fill="#1D1D1B" />
        <path
            d="M71.29 76.858h-0.028c-0.371 0 -0.829 -0.23 -1.115 -1.205 -0.686 -2.524 0.229 -8.862 4.317 -11.471 5.002 -3.184 11.834 -5.965 14.178 -4.876 0.543 0.23 0.857 0.66 0.943 1.205 0.257 1.72 1.029 6.911 -3.173 8.546 -1.029 0.401 -2.373 0.574 -3.916 0.774 -3.63 0.488 -8.147 1.09 -9.576 5.019 -0.343 0.946 -0.829 2.008 -1.658 2.008zM87.299 60.28c-2.401 0 -7.775 2.123 -12.177 4.933 -2.973 1.893 -3.687 5.965 -3.859 7.141 -0.2 1.52 -0.057 2.581 0.086 3.069 0.114 -0.173 0.257 -0.488 0.457 -1.004 1.658 -4.589 6.603 -5.277 10.548 -5.793 1.4 -0.2 2.744 -0.373 3.63 -0.717 2.258 -0.89 3.002 -3.183 2.401 -7.227 0 0 -0.057 -0.2 -0.228 -0.287 -0.2 -0.086 -0.515 -0.143 -0.858 -0.143z"
            fill="#1D1D1B" />
        <path
            d="M87.384 92.745h-0.143c-0.057 0 -4.688 -1.204 -8.861 -1.462 -1.287 -0.086 -2.258 -0.545 -2.859 -1.377 -1.458 -2.007 -0.743 -5.678 0.572 -11.098 0.6 -2.495 2.058 -4.388 4.202 -5.45 3.058 -1.548 6.889 -1.175 9.176 -0.171 3.687 1.606 3.973 13.593 4.002 14.941 0 0.344 -0.258 0.602 -0.6 0.63a0.587 0.587 0 0 1 -0.601 -0.601c-0.086 -4.847 -1.03 -12.877 -3.259 -13.852 -2.086 -0.918 -5.545 -1.147 -8.146 0.143 -1.858 0.918 -3.059 2.496 -3.574 4.646 -1.143 4.761 -1.915 8.518 -0.771 10.066 0.4 0.545 1.029 0.832 1.944 0.89 4.287 0.258 8.89 1.433 9.09 1.49 0.314 0.087 0.514 0.43 0.428 0.746 -0.057 0.287 -0.314 0.46 -0.6 0.46"
            fill="#1D1D1B" />
        <path
            d="M117.598 89.734c-0.314 0 -0.6 -0.258 -0.6 -0.574 0 -0.086 -0.343 -7.485 -4.745 -10.18 -2.401 -1.463 -5.603 -1.29 -9.548 0.545 -0.285 0.143 -0.657 0 -0.8 -0.287a0.61 0.61 0 0 1 0.286 -0.803c4.345 -2.008 7.947 -2.18 10.719 -0.488 4.945 3.04 5.317 10.84 5.346 11.185 0 0.344 -0.258 0.63 -0.572 0.63z"
            fill="#1D1D1B" />
        <path
            d="M88.27 91.254h-0.086c-0.343 -0.057 -0.571 -0.344 -0.514 -0.688 0 -0.058 0.857 -6.797 -1.544 -9.694 -0.657 -0.803 -1.486 -1.204 -2.544 -1.261 -5.602 -0.287 -6.717 2.408 -6.774 2.523a0.6 0.6 0 0 1 -0.772 0.344 0.594 0.594 0 0 1 -0.343 -0.774c0.057 -0.143 1.457 -3.7 7.946 -3.298 1.4 0.057 2.544 0.631 3.402 1.692 2.744 3.327 1.83 10.324 1.8 10.64 -0.028 0.315 -0.314 0.516 -0.6 0.516z"
            fill="#1D1D1B" />
        <path
            d="M117.598 175.023c-0.915 0 -1.744 -0.488 -2.515 -1.405 -2.802 -3.47 -4.031 -13.164 -3.23 -17.064 0.857 -4.101 4.859 -4.674 10.404 -5.477 1.287 -0.201 2.687 -0.373 4.145 -0.66 7.375 -1.319 12.435 -6.166 13.549 -12.934 0.915 -5.621 2.201 -29.596 2.773 -39.805 0.257 -4.904 0.257 -4.904 0.286 -5.019l1.172 0.287 -0.6 -0.144 0.6 0.087c0 0.2 -0.143 2.237 -0.286 4.846 -0.371 6.797 -1.057 19.673 -1.772 29.223 1.458 -0.028 4.917 0.287 9.947 3.384 7.061 4.359 6.06 19.788 1.716 27.187 -4.374 7.399 -31.844 17.494 -36.246 17.494zm24.469 -46.832c-0.315 4.273 -0.629 7.743 -0.915 9.493 -1.201 7.313 -6.632 12.532 -14.521 13.937 -1.458 0.259 -2.859 0.459 -4.173 0.66 -5.232 0.746 -8.69 1.262 -9.376 4.531 -0.772 3.585 0.428 12.877 2.973 16.06q0.771 0.946 1.543 0.946c3.802 0 31.015 -9.836 35.188 -16.92 4.031 -6.825 5.088 -21.566 -1.286 -25.523 -4.974 -3.069 -8.261 -3.241 -9.405 -3.184z"
            fill="#1D1D1B" />
        <path
            d="M88.499 168.57h-0.115c-2.6 -0.229 -11.205 -6.739 -14.292 -13.22 -1.6 -3.356 -1.572 -6.31 0.057 -8.719 5.06 -7.456 12.606 -13.105 13.778 -13.966l0.372 -1.032 1.143 0.43 -0.514 1.376 -0.143 0.115s-8.261 5.879 -13.607 13.766c-1.372 2.036 -1.372 4.56 0 7.485 3.03 6.395 11.463 12.36 13.292 12.532h0.057c2.116 0 9.262 -7.743 14.979 -15.085 0.114 -0.143 0.086 -0.2 0.086 -0.229 -0.115 -0.516 -1.716 -1.377 -2.973 -2.065 -2.773 -1.462 -6.203 -3.327 -6.403 -6.452 -0.315 -5.277 3.03 -9.866 3.173 -10.067l0.972 0.717s-3.23 4.446 -2.945 9.263c0.143 2.438 3.259 4.101 5.746 5.449 1.886 1.004 3.373 1.807 3.602 2.868 0.057 0.287 0.057 0.746 -0.315 1.233 -2.029 2.61 -12.263 15.573 -15.979 15.573z"
            fill="#1D1D1B" />
        <path
            d="M102.448 206.942h-1.229c0 -1.234 0.6 -29.998 1.658 -34.299 1.887 -7.571 9.519 -17.666 9.862 -18.096l0.972 0.745s-7.833 10.324 -9.634 17.637c-1.029 4.187 -1.629 33.697 -1.629 34.013"
            fill="#1D1D1B" />
        <path
            d="M137.522 204.045c-4.259 0 -8.833 -6.395 -10.234 -10.066 -1.372 -3.556 2.83 -21.795 3.316 -23.889l1.172 0.287c-1.286 5.506 -4.402 20.419 -3.344 23.172 1.229 3.212 5.517 9.292 9.09 9.292h0.2c3.573 -0.23 10.09 -4.159 11.748 -9.521 0.858 -2.811 1.401 -12.361 1.887 -20.792 0.514 -8.89 0.857 -14.425 1.401 -15.572 1.343 -2.753 10.29 -13.766 18.723 -14.598 4.83 -0.487 8.575 1.778 10.976 3.901 -2.144 -3.901 -5.774 -9.349 -9.633 -9.665 -6.374 -0.545 -18.523 -2.552 -18.666 -2.581l0.2 -1.204s12.235 2.036 18.552 2.581c6.717 0.573 12.32 13.765 12.577 14.339l-1.057 0.573s-4.974 -7.456 -12.835 -6.682c-7.832 0.746 -16.522 11.385 -17.723 13.909 -0.486 1.004 -0.914 8.489 -1.286 15.114 -0.514 8.918 -1.029 18.153 -1.944 21.078 -1.658 5.392 -8.375 10.066 -12.834 10.382h-0.286z"
            fill="#1D1D1B" />
        <path
            d="M139.523 198.682c-4.117 0 -7.432 -3.699 -7.432 -8.259s3.344 -8.259 7.432 -8.259c4.087 0 7.432 3.699 7.432 8.259s-3.345 8.259 -7.432 8.259m0 -15.314c-3.431 0 -6.232 3.155 -6.232 7.055s2.801 7.055 6.232 7.055 6.231 -3.155 6.231 -7.055 -2.801 -7.055 -6.231 -7.055"
            fill="#1D1D1B" />
        <path d="m103.408 152.635 -0.554 20.153 1.229 0.034 0.554 -20.153z" fill="#1D1D1B" />
        <path
            d="M72.606 202.296c-4.46 0 -9.776 -7.141 -12.435 -10.726l-0.6 -0.803c-2.401 -3.154 2.144 -28.018 6.146 -33.668 4.059 -5.678 7.432 -7.657 7.575 -7.714l0.6 1.061s-3.287 1.921 -7.175 7.37c-3.973 5.563 -8.06 29.739 -6.174 32.206l0.6 0.831c2.287 3.069 8.347 11.242 12.206 10.124 4.287 -1.234 9.547 -6.797 9.661 -11.816l0.058 -2.696c0.114 -6.997 0.257 -14.224 2.572 -19.673l1.115 0.488c-2.23 5.219 -2.373 12.331 -2.487 19.214l-0.057 2.696c-0.143 5.535 -5.86 11.614 -10.548 12.962 -0.343 0.115 -0.714 0.144 -1.086 0.144z"
            fill="#1D1D1B" />
        <path
            d="M70.833 193.549c-4.059 0 -7.346 -3.298 -7.346 -7.37 0 -4.073 3.287 -7.371 7.346 -7.371s7.347 3.327 7.347 7.371c0 4.043 -3.288 7.37 -7.347 7.37m0 -13.536c-3.373 0 -6.145 2.753 -6.145 6.166a6.146 6.146 0 1 0 12.291 0 6.146 6.146 0 0 0 -6.146 -6.166"
            fill="#1D1D1B" />
        <path
            d="M115.997 208.433c-10.862 0 -29.5 -3.298 -32.586 -4.417 -4.174 -1.519 -2.544 -10.008 -2.459 -10.381l1.2 0.229c-0.428 2.18 -0.971 8.03 1.687 9.005 3.802 1.377 33.216 6.367 38.476 3.528 4.945 -2.667 4.945 -8.432 4.945 -12.246v-0.401h1.229v0.401c0 3.843 0 10.296 -5.574 13.307 -1.258 0.688 -3.745 0.946 -6.889 0.946z"
            fill="#1D1D1B" />
        <path
            d="m196.092 222.026 -0.343 -1.175c0.143 -0.029 14.55 -4.274 17.094 -8.088 2.573 -3.871 0.829 -8.058 -2.258 -10.18 -2.344 -1.635 -8.033 -1.434 -12.606 -1.262 -1.887 0.057 -3.659 0.143 -5.031 0.057 -5.946 -0.258 -11.205 -1.09 -15.436 -1.749 -3.43 -0.545 -6.403 -1.004 -8.661 -1.004 -1.687 0 -3.316 -0.402 -4.888 -0.803 -3.345 -0.86 -5.974 -1.52 -8.318 1.635 -1.944 2.667 -2.773 5.563 -2.259 7.943 0.315 1.377 1.029 2.409 2.058 2.983 2.83 1.549 17.637 4.761 17.78 4.789l-0.257 1.205c-0.6 -0.144 -15.121 -3.27 -18.123 -4.904 -1.343 -0.717 -2.287 -2.065 -2.658 -3.786 -0.6 -2.724 0.286 -5.993 2.458 -8.947 2.801 -3.815 6.26 -2.954 9.576 -2.094 1.486 0.373 3.03 0.774 4.574 0.774 2.344 0 5.345 0.459 8.832 1.004 4.202 0.66 9.433 1.463 15.293 1.721 1.344 0.057 3.087 0 4.917 -0.057 5.002 -0.173 10.662 -0.373 13.349 1.462 3.544 2.466 5.574 7.342 2.573 11.873 -2.773 4.158 -17.151 8.403 -17.752 8.575z"
            fill="#1D1D1B" />
        <path
            d="M204.439 200.862c-0.801 -8.431 -16.694 -45.713 -20.01 -50.588l1.001 -0.689c3.63 5.334 19.38 42.501 20.209 51.191l-1.2 0.115z"
            fill="#1D1D1B" />
        <path
            d="M204.725 236.079c-2.916 0 -6.346 -1.205 -10.091 -2.524 -2.973 -1.032 -6.346 -2.208 -9.804 -2.925 -3.402 -0.688 -7.861 -1.061 -12.606 -1.463 -10.548 -0.889 -20.524 -1.72 -21.01 -6.051 -0.457 -3.929 0.286 -7.37 2.058 -9.464 1.201 -1.405 2.773 -2.151 4.688 -2.265l0.057 1.204c-1.572 0.086 -2.858 0.689 -3.83 1.836 -1.544 1.806 -2.173 4.932 -1.773 8.517 0.372 3.327 10.748 4.216 19.896 4.99 4.773 0.402 9.261 0.774 12.72 1.491 3.544 0.717 6.946 1.893 9.976 2.954 6.203 2.151 11.091 3.872 13.978 0.717 4.145 -4.502 2.172 -10.181 0.257 -15.658l-0.4 -1.147 1.143 -0.402 0.401 1.147c1.915 5.564 4.116 11.844 -0.515 16.892 -1.401 1.52 -3.173 2.122 -5.174 2.122z"
            fill="#1D1D1B" />
        <path d="m154.587 199.227 -3.402 -23.344 1.201 -0.172 3.401 23.344z" fill="#1D1D1B" />
        <path
            d="m115.683 261.545 -0.343 -1.176c2.23 -0.631 46.45 -4.588 58.084 -3.785 12.178 0.831 15.408 -1.865 17.066 -7.113a311 311 0 0 0 2.143 -7.169c0.944 -3.212 1.801 -6.223 2.83 -9.12l1.144 0.402c-1.001 2.867 -1.887 5.879 -2.802 9.062a362 362 0 0 1 -2.143 7.198c-2.116 6.654 -6.918 8.747 -18.295 7.944 -11.548 -0.803 -55.454 3.097 -57.684 3.728z"
            fill="#1D1D1B" />
        <path
            d="M84.154 259.853c-6.403 0 -13.464 -1.377 -18.323 -2.897q-3.173 -0.989 -3.43 -3.011c-0.4 -3.011 4.573 -6.223 5.116 -6.567l0.258 -0.144 0.285 0.086s4.888 1.606 12.978 -0.716c8.747 -2.524 9.69 -5.822 10.805 -9.636 0.114 -0.402 0.229 -0.775 0.343 -1.176 0.172 -0.516 0.114 -0.918 -0.086 -1.262 -0.943 -1.405 -4.86 -1.835 -8.346 -2.18 -1.716 -0.172 -3.373 -0.344 -4.774 -0.63 -2.315 -0.459 -3.116 -1.692 -3.402 -2.639 -0.686 -2.466 1.458 -5.85 3.916 -8.087 3.46 -3.183 8.462 -2.552 17.266 2.208 2.4 1.291 4.23 2.782 5.831 4.101 3.687 2.983 6.317 5.134 12.749 2.983 9.604 -3.212 36.131 -6.137 37.275 -6.281l0.142 1.205c-0.285 0.028 -27.527 3.04 -37.017 6.223 -7.06 2.351 -10.062 -0.086 -13.892 -3.183 -1.572 -1.291 -3.373 -2.725 -5.66 -3.958 -8.175 -4.417 -12.92 -5.133 -15.865 -2.38 -2.172 2.007 -4.087 5.018 -3.573 6.882 0.258 0.889 1.087 1.492 2.459 1.75 1.343 0.258 2.944 0.43 4.63 0.602 4.117 0.43 7.975 0.832 9.233 2.724 0.429 0.66 0.515 1.434 0.257 2.295 -0.114 0.401 -0.228 0.774 -0.342 1.175 -1.144 3.987 -2.259 7.744 -11.634 10.468 -7.433 2.151 -12.206 1.118 -13.407 0.803 -1.43 0.946 -4.573 3.47 -4.345 5.248 0.115 0.832 0.972 1.491 2.602 2.008 7.86 2.437 22.724 4.703 29.156 0.344l3.002 -2.036 0.685 1.003 -3 2.036c-2.888 1.951 -7.204 2.696 -11.892 2.696z"
            fill="#1D1D1B" />
        <path
            d="M84.182 277.805c-5.06 0 -9.233 -0.602 -11.005 -1.835 -3.573 -2.466 -7.489 -6.223 -7.746 -9.349 -0.086 -1.033 0.228 -1.922 0.914 -2.61l0.858 0.861c-0.429 0.43 -0.629 0.975 -0.572 1.663 0.2 2.237 3.059 5.535 7.232 8.46 3.287 2.266 18.666 2.208 29.9 -0.975 6.003 -1.721 9.805 -3.986 10.919 -6.567 2.259 -5.134 0.715 -12.533 -4.602 -21.997 -0.343 -0.602 -0.457 -0.803 -0.514 -0.946l1.143 -0.401 0.4 0.745c5.517 9.808 7.089 17.58 4.66 23.086 -1.63 3.7 -7.261 5.965 -11.72 7.227 -6.117 1.721 -13.692 2.638 -19.924 2.638z"
            fill="#1D1D1B" />
        <path
            d="M80.238 269.116c-2.659 0 -5.088 -0.344 -6.946 -1.205 -1.401 -0.63 -2.659 -1.147 -3.802 -1.634 -6.06 -2.524 -8.833 -3.671 -6.546 -12.217l1.172 0.315c-2.001 7.514 -0.2 8.26 5.831 10.755 1.144 0.487 2.43 1.003 3.83 1.634 8.519 3.901 30.3 -3.929 30.529 -3.986l0.4 1.147c-0.714 0.258 -14.378 5.162 -24.497 5.162z"
            fill="#1D1D1B" />
        <path
            d="M41.905 230.085c-3.087 0 -5.86 -1.176 -7.489 -3.126 -2.773 -3.298 -8.461 -3.47 -10.862 -2.638 -0.543 0.2 -1.286 0.516 -2.058 0.86 -3.345 1.463 -5.831 2.409 -7.032 1.463 -0.343 -0.259 -0.715 -0.775 -0.543 -1.778 0.572 -3.7 8.06 -8.604 16.093 -13.365 7.632 -4.502 14.893 -2.667 17.637 0.086 2.601 2.639 5.688 6.596 5.46 10.382q-0.172 2.925 -2.83 5.076c-2.659 2.122 -5.631 3.04 -8.347 3.04zm-15.35 -7.399c3.03 0 6.66 0.975 8.776 3.499 2.744 3.269 9.09 3.986 14.178 -0.086 1.486 -1.205 2.287 -2.61 2.373 -4.187 0.2 -3.327 -2.659 -6.969 -5.117 -9.435 -2.373 -2.409 -9.147 -4.044 -16.15 0.086 -4.488 2.638 -14.95 8.861 -15.522 12.503 0 0.201 -0.057 0.516 0.085 0.631 0.744 0.574 4.031 -0.86 5.803 -1.635 0.83 -0.344 1.572 -0.688 2.144 -0.889 0.915 -0.315 2.115 -0.487 3.43 -0.487"
            fill="#1D1D1B" />
        <path
            d="M82.81 220.363c-7.174 -3.384 -21.352 -9.894 -23.668 -10.324 -2.344 -0.43 -9.29 1.692 -11.748 2.552l-0.4 -1.147c0.371 -0.115 9.232 -3.154 12.348 -2.581 3.03 0.545 23.125 10.009 23.983 10.41z"
            fill="#1D1D1B" />
        <path
            d="M45.907 249.701c-7.232 0 -33.1 -14.999 -34.13 -17.781 -0.915 -2.523 5.917 -6.28 8.004 -7.37l0.572 1.09c-3.802 1.979 -7.804 4.875 -7.433 5.879 0.972 2.036 27.328 17.838 33.387 16.949 4.431 -0.631 22.64 -9.952 31.387 -14.454 5.688 -2.925 5.717 -2.954 6.002 -2.897l-0.114 1.205 0.057 -0.602 0.143 0.602c-0.314 0.115 -2.744 1.348 -5.517 2.782 -9.49 4.875 -27.127 13.909 -31.786 14.568 -0.172 0 -0.372 0.029 -0.572 0.029"
            fill="#1D1D1B" />
        <path
            d="M45.078 243.191h-0.057c-2.487 -0.115 -23.811 -10.496 -25.555 -13.02 -0.2 -0.287 -0.257 -0.602 -0.171 -0.86 0.629 -1.922 9.862 -5.076 10.805 -5.076h0.457l0.315 0.889 -0.458 0.344 -0.286 -0.402v0.402c-1.086 0.057 -8.604 2.925 -9.604 4.129 1.715 2.266 22.553 12.332 24.554 12.418h0.029c1.63 0 9.633 -4.044 15.036 -6.94l-13.207 -6.223 0.515 -1.09 15.379 7.256 -1.058 0.573c-1.43 0.803 -14.035 7.686 -16.694 7.686z"
            fill="#1D1D1B" />
        <path
            d="M44.135 264.269h-0.2c-3.202 -0.258 -29.957 -14.683 -32.072 -18.038 -1.944 -3.069 -0.286 -13.45 -0.086 -14.626l1.2 0.201c-0.514 3.068 -1.514 11.5 -0.085 13.765 1.83 2.897 28.356 17.236 31.157 17.465h0.143c2.801 0 14.35 -5.363 18.638 -7.456l0.543 1.09c-1.601 0.774 -15.58 7.571 -19.21 7.571z"
            fill="#1D1D1B" />
        <path
            d="M19.209 264.212c-4.86 0 -8.833 -1.233 -10.52 -1.864 -5.602 -2.065 -7.346 -14.368 -5.745 -24.606 1.658 -10.525 11.377 -12.045 11.463 -12.074l0.171 1.205c-0.371 0.057 -8.918 1.434 -10.433 11.041 -1.687 10.783 0.629 21.652 4.974 23.258 3.144 1.147 14.12 4.416 24.04 -2.466l0.685 1.003c-4.973 3.442 -10.176 4.474 -14.635 4.474z"
            fill="#1D1D1B" />
        <path
            d="M26.527 269.431c-0.372 0 -0.743 0 -1.115 -0.057 -7.146 -0.832 -10.462 -5.449 -10.605 -5.621l1 -0.717s3.173 4.359 9.748 5.134c3.802 0.43 8.518 -1.836 13.292 -6.396 0.343 -0.315 0.572 -0.545 0.943 -0.373l-0.257 0.545 0.371 0.488s-0.114 0.115 -0.228 0.201c-4.66 4.445 -9.176 6.796 -13.15 6.796"
            fill="#1D1D1B" />
        <path
            d="M39.104 270.292c-2.572 0 -5.431 -0.689 -8.518 -2.036l0.486 -1.119c4.973 2.18 9.233 2.524 12.634 1.004 4.288 -1.95 5.717 -6.309 5.746 -6.367l1.172 0.373c-0.057 0.201 -1.601 4.904 -6.375 7.084 -1.543 0.717 -3.258 1.061 -5.116 1.061z"
            fill="#1D1D1B" />
        <path
            d="M29.871 212.448c-2.487 -2.495 -1.172 -8.259 3.116 -13.708 4.488 -5.679 24.354 8.574 26.612 10.209l-0.714 0.975c-5.86 -4.273 -21.753 -14.454 -24.926 -10.439 -4.374 5.535 -4.917 10.353 -3.202 12.074l-0.857 0.86z"
            fill="#1D1D1B" />
        <path
            d="M38.933 198.08s-0.115 -3.298 0 -8.489c0.171 -6.882 2.63 -22.598 10.633 -32.779 8.633 -10.955 22.296 -6.223 22.44 -6.166l-0.401 1.148s-12.978 -4.503 -21.096 5.764c-7.803 9.922 -10.204 25.294 -10.347 32.033 -0.115 5.162 0 8.403 0 8.432z"
            fill="#1D1D1B" />
        <path d="M62.6 193.75h-1.228v16.604H62.6z" fill="#1D1D1B" />
        <path
            d="M98.36 225.611c-0.314 -0.201 -0.857 -0.573 -0.6 -10.869 -3.087 -0.315 -18.008 -1.893 -20.238 -2.122 -0.2 0 -0.314 0 -0.343 0.057 -0.343 0.488 0.229 2.467 0.943 4.015l-1.086 0.545c-0.429 -0.889 -1.772 -3.929 -0.857 -5.248 0.228 -0.315 0.629 -0.66 1.457 -0.602 2.516 0.258 20.81 2.179 20.81 2.179l0.572 0.058v0.573c-0.143 4.675 -0.114 9.894 0.171 10.554l-0.371 0.143 -0.457 0.688z"
            fill="#1D1D1B" />
        <path
            d="M117.627 229.597c-0.2 -0.975 -1.887 -9.664 -0.743 -11.93 1.372 -2.753 23.639 -3.183 24.754 -3.011 2.115 0.316 2.058 6.682 1.858 10.468l-1.201 -0.058c0.258 -4.588 -0.142 -8.89 -0.828 -9.205 -2.459 -0.373 -22.297 0.688 -23.497 2.38 -0.715 1.434 0.143 7.571 0.857 11.127z"
            fill="#1D1D1B" />
        <path
            d="M109.223 291.141c-12.692 0 -13.32 -1.233 -13.52 -1.664 -1.116 -2.236 -0.172 -12.188 -0.058 -13.306l1.2 0.114c-0.428 4.273 -0.8 11.185 -0.057 12.648 1.487 1.433 29.128 1.233 32.158 -0.287 1.43 -0.717 1.344 -11.816 0.486 -21.71 -0.114 -1.089 -6.203 -1.548 -13.034 -0.946l-0.115 -1.204c4.202 -0.373 14.064 -0.918 14.35 2.036 0.457 5.018 1.686 21.508 -1.144 22.913 -1.715 0.861 -11.319 1.291 -17.351 1.377h-2.915z"
            fill="#1D1D1B" />
        <path
            d="M146.412 290.481c-1.801 0 -3.402 -0.201 -3.831 -0.516 -0.257 -0.201 -0.371 -0.516 -0.457 -1.405 -0.286 -2.581 -0.515 -20.075 0.2 -23.144 -0.057 -0.344 -0.114 -1.233 0.486 -1.978 0.486 -0.603 1.286 -0.918 2.344 -0.918 2.029 0 6.432 0.459 6.603 0.487l0.515 0.058v0.516c0.057 0.918 1.114 22.426 1 24.577 0 0.43 -0.257 1.033 -1.201 1.491 -1.229 0.574 -3.601 0.832 -5.659 0.832m-3.002 -1.462c1.058 0.286 6.603 0.458 8.347 -0.574 0.086 -0.057 0.314 -0.201 0.314 -0.344 0.086 -1.922 -0.8 -20.562 -0.943 -23.946 -1.258 -0.115 -4.402 -0.431 -5.974 -0.431 -0.686 0 -1.143 0.144 -1.401 0.459 -0.343 0.43 -0.228 1.061 -0.2 1.061l0.057 0.316 -0.143 0.172c-0.514 1.835 -0.543 21.107 -0.057 23.287"
            fill="#1D1D1B" />
        <path d="M142.924 266.277h-12.92v1.233h12.92z" fill="#1D1D1B" />
        <path
            d="m152.872 288.703 -0.372 -1.147c4.86 -1.606 12.406 -4.158 13.149 -4.56 1.001 -1.29 4.174 -17.924 3.002 -19.272 -0.858 -0.172 -5.003 0.631 -8.319 1.262 -5.859 1.119 -7.403 1.348 -7.975 0.889l0.372 -0.487 0.286 -0.545c0.6 0.172 4.373 -0.545 7.117 -1.09 4.66 -0.889 7.804 -1.462 8.919 -1.204 0.829 0.2 0.972 1.29 1.029 1.663 0.514 3.9 -2.43 19.1 -3.83 19.845 -1.087 0.574 -12.092 4.216 -13.321 4.617z"
            fill="#1D1D1B" />
        <path d="m130.015 287.22 -0.027 1.233 12.688 0.287 0.028 -1.233z" fill="#1D1D1B" />
        <path d="m169.451 263.294 -1.201 -0.229 1.087 -5.965 1.2 0.229z" fill="#1D1D1B" />
        <path d="m95.616 287.097 -12.12 -2.982 0.286 -1.176 12.12 2.982z" fill="#1D1D1B" />
        <path
            d="M77.18 289.219c-1.659 0 -2.688 -0.344 -2.974 -1.204 -0.572 -1.663 1.115 -10.009 1.458 -11.643l1.2 0.258c-0.828 3.986 -1.829 10.008 -1.514 11.012 0.085 0.258 1 0.803 7.317 -0.258l0.83 -0.143c0.571 -0.431 0.342 -4.79 -0.515 -9.292l1.2 -0.23c0.258 1.406 1.544 8.46 0.315 10.21 -0.257 0.373 -0.6 0.487 -0.8 0.516l-0.83 0.143c-2.372 0.402 -4.287 0.66 -5.717 0.66z"
            fill="#1D1D1B" />
        <path d="m74.492 283.14 -10.862 -4.331 2.43 -10.439 1.172 0.258 -2.173 9.436 9.862 3.928z"
            fill="#1D1D1B" />
        <path
            d="m171.052 436.711 -1.172 -0.344c4.659 -15.4 7.46 -65.157 6.431 -85.318 -1.057 -21.049 -8.804 -64.956 -10.805 -67.02l0.744 -0.947c2.572 1.979 10.262 48.294 11.262 67.91 1.029 20.247 -1.801 70.262 -6.489 85.748z"
            fill="#1D1D1B" />
        <path
            d="M125.831 456.327c-0.629 -0.631 -1.801 -8.46 -5.832 -36.995 -3.401 -24.29 -7.661 -54.546 -9.604 -60.855 -3.774 -12.188 -8.09 -19.96 -11.463 -25.351 -4.059 -6.51 -5.23 -22.484 -0.8 -31.833l1.086 0.516c-4.26 9.034 -3.173 24.405 0.743 30.657 3.402 5.449 7.775 13.278 11.577 25.638 1.972 6.395 6.06 35.418 9.662 61.056 2.429 17.293 4.945 35.188 5.545 36.393l-0.943 0.774z"
            fill="#1D1D1B" />
        <path
            d="M124.601 480.331c-1.2 0 -2.315 -0.488 -3.373 -1.75 -4.344 -5.19 -5.974 -18.841 -6.031 -19.415v-0.315l0.172 -0.201c0.257 -0.229 6.26 -5.822 22.896 -6.625l0.057 1.205c-14.407 0.688 -20.667 5.133 -21.896 6.108 0.257 2.094 1.944 13.967 5.717 18.44 2.087 2.495 4.517 1.09 8.576 -1.606 2.629 -1.749 5.574 -3.728 9.032 -4.502 8.604 -1.95 43.049 -1.606 47.337 -1.348 0.286 0 1.058 0.057 1.658 -1.52 1.601 -4.13 -0.029 -14.282 -2.087 -15.945 -2.515 -2.065 -26.441 0.315 -33.93 1.463l-0.172 -1.205c3.116 -0.487 31.53 -3.986 34.903 -1.204 2.601 2.122 4.144 12.991 2.458 17.35 -0.772 1.979 -1.944 2.351 -2.859 2.294 -5.316 -0.287 -38.961 -0.487 -46.993 1.319 -3.23 0.746 -6.117 2.639 -8.633 4.331 -2.401 1.606 -4.688 3.126 -6.803 3.126z"
            fill="#1D1D1B" />
        <path
            d="M184.601 451.939c0 -0.172 -2.144 -16.346 -4.745 -21.021 -2.716 -4.904 -4.431 -35.618 -4.516 -36.937l1.2 -0.058c0 0.316 1.772 31.747 4.345 36.393 2.716 4.875 4.802 20.792 4.888 21.451l-1.2 0.144z"
            fill="#1D1D1B" />
        <path
            d="M177.083 522c-7.146 0 -14.95 -1.663 -22.496 -6.424 -2.287 -1.462 -3.802 -4.617 -5.517 -8.259 -2.23 -4.761 -4.774 -10.124 -9.719 -12.676 -4.802 -2.466 -7.775 -3.355 -9.747 -3.958 -1.715 -0.516 -2.83 -0.831 -3.802 -1.806 -2.058 -2.065 -0.372 -8.804 -0.143 -9.579l1.172 0.316c-0.686 2.609 -1.343 7.198 -0.143 8.402 0.743 0.746 1.629 1.004 3.287 1.492 2.03 0.602 5.088 1.52 9.976 4.043 5.289 2.725 7.918 8.317 10.262 13.25 1.658 3.47 3.059 6.481 5.06 7.743 22.439 14.224 47.136 0.114 48.537 -1.492 1.315 -1.52 2.544 -4.904 2.001 -18.411 -0.257 -6.395 -2.916 -12.188 -7.461 -16.347 -4.659 -4.244 -10.748 -6.28 -17.636 -5.936 -15.15 0.803 -21.096 17.666 -21.153 17.809l-1.172 -0.287c0.057 -0.172 6.317 -17.895 22.267 -18.755 7.089 -0.402 13.692 1.835 18.523 6.252 4.774 4.359 7.575 10.467 7.861 17.207 0.572 13.88 -0.772 17.436 -2.287 19.243 -0.972 1.147 -12.863 8.173 -27.613 8.173z"
            fill="#1D1D1B" />
        <path
            d="M176.311 512.995c-6.746 0 -15.235 -0.602 -21.81 -7.714 -3.001 -3.241 -4.459 -5.994 -5.631 -8.231 -1.944 -3.671 -3.23 -6.108 -9.633 -8.03 -5.203 -1.577 -13.749 -7.083 -14.121 -7.341l0.657 -1.033s8.776 5.678 13.807 7.198c6.889 2.065 8.347 4.818 10.348 8.632 1.2 2.266 2.572 4.847 5.459 7.973 6.946 7.485 16.237 7.342 23.011 7.313h1.858c5.46 0 15.207 -3.556 21.667 -5.936 1.773 -0.631 3.259 -1.205 4.317 -1.52l0.371 1.147c-1.057 0.344 -2.515 0.889 -4.259 1.52 -6.546 2.38 -16.436 5.993 -22.096 5.993h-3.916z"
            fill="#1D1D1B" />
        <path
            d="M44.707 445.114c-0.115 -1.262 -2.487 -30.829 -1.773 -40.064 0.63 -8.058 6.06 -48.064 8.662 -67.279l1 -7.341c1.63 -12.16 7.747 -45.34 11.234 -52.252l1.086 0.545c-3.201 6.309 -9.261 38.285 -11.09 51.879l-1.001 7.342c-2.601 19.214 -8.033 59.191 -8.661 67.221 -0.715 9.148 1.772 39.576 1.772 39.891l-1.2 0.115z"
            fill="#1D1D1B" />
        <path
            d="M96.245 478.868c-0.2 0 -0.4 0 -0.572 -0.057 -6.088 -1.061 -61.743 -13.852 -62.314 -13.995l-0.4 -0.086 -0.058 -0.402c-0.886 -5.018 -3.43 -21.451 0.486 -22.225 2.001 -0.373 7.375 0.401 13.063 1.233 4.66 0.688 9.52 1.405 10.948 1.147l0.2 1.204c-1.629 0.287 -6.117 -0.372 -11.32 -1.118 -5.087 -0.746 -10.861 -1.606 -12.634 -1.233 -1.858 0.373 -1.229 10.811 0.4 20.419 5.032 1.147 56.084 12.876 61.858 13.88 1.344 0.201 2.544 -0.832 3.545 -3.126 2.544 -5.85 2.287 -15.285 1.286 -16.06 -1.486 -1.147 -21.639 -5.563 -34.788 -8.259l0.229 -1.205 23.068 4.474c0.715 -4.474 5.145 -31.632 8.432 -42.443 3.459 -11.472 12.463 -36.823 15.036 -42.387l1.115 0.516c-2.573 5.535 -11.52 30.801 -14.979 42.243 -3.516 11.615 -8.404 42.301 -8.49 42.903 5.69 1.348 10.32 2.581 11.12 3.212 1.973 1.52 1.429 12.159 -0.914 17.522 -1.344 3.126 -3.002 3.9 -4.288 3.9z"
            fill="#1D1D1B" />
        <path
            d="M25.155 509.038c-4.145 0 -8.404 -0.947 -12.635 -3.442 -16.379 -9.55 -12.692 -27.875 -10.09 -33.525 1.629 -3.584 6.488 -8.546 13.235 -10.926 4.201 -1.491 10.719 -2.524 17.865 1.032 13.75 6.826 17.294 12.045 18.809 15.831l-1.115 0.459c-1.458 -3.585 -4.83 -8.575 -18.208 -15.2 -6.775 -3.355 -12.95 -2.38 -16.923 -0.975 -6.431 2.294 -11.005 6.94 -12.548 10.296 -2.459 5.391 -6.003 22.856 9.604 31.947 11.891 6.94 24.04 1.233 32.901 -2.925 2.401 -1.119 4.66 -2.18 6.632 -2.868 6.517 -2.266 18.266 -2.438 26.012 -2.552 3.43 -0.058 6.146 -0.086 7.318 -0.287 2.144 -0.373 2.372 -7.055 2.573 -11.959 0.114 -2.839 0.2 -5.506 0.6 -7.169l1.172 0.286c-0.372 1.549 -0.458 4.159 -0.572 6.94 -0.229 6.195 -0.457 12.59 -3.573 13.135 -1.258 0.201 -4.002 0.258 -7.49 0.316 -7.689 0.114 -19.294 0.286 -25.64 2.495 -1.915 0.659 -4.145 1.72 -6.517 2.81 -6.003 2.81 -13.435 6.309 -21.382 6.309z"
            fill="#1D1D1B" />
        <path
            d="M23.926 502.642c-1.687 0 -3.43 -0.287 -5.26 -0.917C7.546 497.767 0.486 489.049 0.2 488.705l0.943 -0.775s7.147 8.805 17.952 12.647c7.489 2.667 13.635 -1.319 20.123 -5.534 2.745 -1.779 5.546 -3.614 8.519 -4.933 9.833 -4.388 39.904 -1.549 41.19 -1.405l-0.114 1.204c-0.314 -0.029 -31.014 -2.954 -40.562 1.319 -2.858 1.291 -5.66 3.098 -8.347 4.847 -5.002 3.241 -10.119 6.567 -15.95 6.567z"
            fill="#1D1D1B" />
        <path
            d="M275.158 489.565c-0.915 0 -1.83 0 -2.744 -0.086 -11.091 -0.66 -21.496 -5.219 -23.526 -7.944 -4.802 -6.481 -0.971 -20.304 2.402 -32.521 3.258 -11.758 1.629 -31.833 -4.288 -52.366 -4.631 -16.06 -14.864 -15.687 -23.125 -15.4 -1.087 0.028 -2.116 0.086 -3.088 0.086 -1.457 0 -2.544 0.458 -3.344 1.376 -2.344 2.696 -1.572 8.833 -1.2 11.758 0.171 1.405 0.228 1.893 0.114 2.208l-1.144 -0.372 0.572 0.2 -0.6 -0.143c0 -0.201 -0.086 -1.004 -0.172 -1.721 -0.428 -3.355 -1.229 -9.636 1.487 -12.733 1.029 -1.176 2.458 -1.778 4.259 -1.778 0.972 0 1.972 -0.029 3.03 -0.086 8.232 -0.315 19.466 -0.688 24.354 16.289 5.974 20.735 7.604 41.039 4.288 53.026 -3.316 11.93 -7.061 25.466 -2.601 31.46 1.686 2.266 11.548 6.826 22.639 7.456 1.486 0.086 2.973 0.115 4.402 0.058l-0.257 -0.545c0.629 -0.316 15.693 -7.571 10.405 -21.939 -0.229 -0.631 -1.63 -1.52 -3.259 -2.524 -4.116 -2.581 -10.977 -6.911 -12.863 -15.945 -3.145 -15.142 2.715 -36.708 2.772 -36.908l1.201 0.258c-0.029 0.229 -3.402 24.118 3.202 36.249 4.03 7.399 8.575 7.141 12.548 6.911 2.63 -0.143 5.088 -0.286 7.032 1.635 2.487 2.438 6.46 8.403 5.689 15.257 -0.629 5.535 -4.145 10.324 -10.462 14.224 -4.974 3.069 -10.948 4.617 -17.752 4.617zm-2.344 -69.344c-1.315 7.571 -2.487 18.297 -0.715 26.872 1.773 8.517 8.118 12.532 12.32 15.17 1.944 1.234 3.373 2.123 3.745 3.155 4.202 11.471 -3.945 19.558 -9.776 22.828 5.26 -0.402 9.89 -1.864 13.892 -4.302 5.974 -3.699 9.29 -8.173 9.891 -13.335 0.714 -6.395 -3.03 -11.959 -5.346 -14.253 -1.572 -1.549 -3.687 -1.434 -6.117 -1.291 -4.173 0.23 -9.29 0.516 -13.692 -7.542 -4.116 -7.543 -4.516 -19.071 -4.173 -27.273z"
            fill="#1D1D1B" />
        <path
            d="m198.207 389.908 -1.2 -0.114c0.143 -1.377 0.057 -3.155 -0.029 -5.019 -0.257 -4.847 -0.514 -10.324 2.744 -13.68 1.944 -2.007 4.917 -2.896 8.919 -2.839 14.607 0.373 33.673 9.435 36.36 20.591l-1.172 0.287c-2.287 -9.521 -19.724 -19.243 -35.188 -19.645 -3.773 -0.086 -6.317 0.717 -8.032 2.467 -2.888 2.982 -2.63 8.173 -2.402 12.762 0.086 1.921 0.201 3.728 0.029 5.19z"
            fill="#1D1D1B" />
        <path
            d="M258.579 505.051c-14.807 0 -30.586 -20.304 -32.358 -28.879 -1.087 -5.248 1.4 -17.838 6.231 -31.316l0.543 -1.52c-0.085 -2.094 -1.057 -31.259 -1.057 -43.075 0 -12.503 -3.974 -19.099 -5.346 -19.099v-1.234c2.687 0 6.575 7.973 6.575 20.333s1.057 42.817 1.086 43.132v0.115l-0.629 1.749c-4.659 13.077 -7.203 25.696 -6.174 30.657 1.743 8.317 18.208 29.309 32.587 27.847 14.063 -1.377 33.673 -6.051 41.591 -30.657l1.143 0.373c-6.117 18.985 -20.067 29.28 -42.649 31.488q-0.772 0.087 -1.543 0.086"
            fill="#1D1D1B" />
        <path
            d="m182.486 434.646 -1.201 -0.114c0 -0.172 1.715 -18.498 2.43 -29.481 0.171 -2.754 0.314 -5.535 0.429 -8.202 0.457 -9.808 0.8 -15.429 2.258 -16.72 0.829 -0.745 1.744 -1.061 2.687 -0.918 2.601 0.373 4.945 4.015 7.432 7.916 2.058 3.24 4.202 6.567 6.231 7.399 5.174 2.064 29.243 0 29.471 -0.029l0.115 1.204c-1.001 0.086 -24.612 2.151 -30.043 -0.028 -2.373 -0.947 -4.516 -4.302 -6.803 -7.858 -2.23 -3.47 -4.517 -7.055 -6.575 -7.37 -0.571 -0.086 -1.143 0.114 -1.715 0.631 -1.143 1.032 -1.515 8.574 -1.858 15.887a424 424 0 0 1 -0.429 8.231c-0.714 10.984 -2.401 29.338 -2.429 29.51z"
            fill="#1D1D1B" />
        <path d="m192.15 473.035 -0.082 1.201 34.706 2.386 0.082 -1.201z" fill="#1D1D1B" />
        <path
            d="M216.187 452.972c-6.774 0 -17.294 -1.32 -22.439 -3.786 -2.315 -1.118 -3.544 -2.437 -3.602 -3.9 -0.085 -1.434 -0.314 -3.355 -0.571 -5.363 -0.772 -6.28 -1.63 -13.421 0.514 -15.974 0.515 -0.631 1.201 -0.946 2.001 -0.975h0.229c4.345 0 32.101 3.384 32.272 7.199 0.2 4.617 0.601 19.902 -2.401 22.024 -0.743 0.517 -3.001 0.775 -5.974 0.775zm-23.525 -28.793h-0.515c-0.457 0 -0.829 0.201 -1.114 0.545 -1.801 2.151 -0.915 9.578 -0.229 15.027 0.257 2.036 0.486 3.986 0.572 5.449 0.057 1.233 1.629 2.237 2.915 2.868 7.575 3.642 25.555 4.301 27.213 3.126 1.858 -1.32 2.258 -11.787 1.887 -20.964 -0.886 -2.151 -23.954 -6.051 -30.7 -6.051z"
            fill="#1D1D1B" />
        <path
            d="m207.012 441.328 -0.315 -0.315 -17.065 -15.372 0.8 -0.889 16.722 15.056 16.494 -10.152 0.657 1.033z"
            fill="#1D1D1B" />
        <path
            d="m247.602 472.186 -0.772 -0.946 22.354 -18.698c1.829 -1.779 1.543 -4.876 1.229 -8.145 -0.115 -1.262 -0.257 -2.581 -0.257 -3.843h1.229c0 1.204 0.143 2.495 0.257 3.728 0.343 3.556 0.686 6.94 -1.601 9.149l-22.382 18.726z"
            fill="#1D1D1B" />
        <path
            d="m273.7 415.948 -1.2 -0.172c3.115 -20.677 3.83 -34.959 1.972 -40.264 -6.632 -18.985 -37.046 -17.953 -38.361 -17.867 -3.716 0.144 -8.032 0.975 -13.035 1.922 -6.317 1.204 -13.463 2.552 -20.924 2.782 -12.549 0.401 -14.75 18.067 -14.778 18.239l-1.201 -0.143c0 -0.201 2.373 -18.899 15.951 -19.33 7.374 -0.229 14.492 -1.577 20.752 -2.781 4.831 -0.918 9.405 -1.778 13.206 -1.95 1.315 -0.058 32.644 -1.119 39.533 18.698 2.459 7.026 0.315 26.068 -1.915 40.837z"
            fill="#1D1D1B" />
        <path
            d="M267.669 366.306c-1.744 -11.5 -5.317 -15.83 -13.721 -16.547 -7.861 -0.602 -8.919 7.342 -8.947 7.686l-1.201 -0.144s1.201 -9.492 10.262 -8.747c9.004 0.746 13.006 5.507 14.836 17.58l-1.201 0.172z"
            fill="#1D1D1B" />
        <path
            d="M108.108 87.755a2.605 2.605 0 0 0 2.601 -2.61 2.605 2.605 0 0 0 -2.601 -2.61 2.605 2.605 0 0 0 -2.601 2.61 2.605 2.605 0 0 0 2.601 2.61"
            fill="white" />
        <path
            d="M108.108 88.357c-1.772 0 -3.23 -1.433 -3.23 -3.212a3.23 3.23 0 0 1 3.23 -3.24 3.214 3.214 0 0 1 3.23 3.24c0 1.807 -1.429 3.212 -3.23 3.212m0 -5.248c-1.115 0 -2.001 0.89 -2.001 2.008s0.886 2.007 2.001 2.007a1.99 1.99 0 0 0 2.001 -2.007 1.99 1.99 0 0 0 -2.001 -2.008"
            fill="#1D1D1B" />
        <path
            d="M81.353 89.103a2.605 2.605 0 0 0 2.6 -2.61 2.605 2.605 0 0 0 -2.6 -2.61 2.605 2.605 0 0 0 -2.602 2.61 2.606 2.606 0 0 0 2.602 2.61"
            fill="white" />
        <path
            d="M81.353 89.734c-1.773 0 -3.23 -1.434 -3.23 -3.212s1.429 -3.24 3.23 -3.24 3.23 1.433 3.23 3.24 -1.43 3.212 -3.23 3.212m0 -5.248c-1.115 0 -2.001 0.889 -2.001 2.007s0.886 2.008 2 2.008a1.99 1.99 0 0 0 2.001 -2.008 1.99 1.99 0 0 0 -2 -2.007"
            fill="#1D1D1B" />
        <path
            d="M63.887 234.329c-1.372 0 -7.718 -3.986 -10.433 -5.735l-0.915 -0.574 8.918 -4.474 0.286 0.144c6.346 3.326 9.633 5.506 9.72 6.452v0.316l-0.287 0.344c-1.83 1.491 -5.945 3.384 -7.26 3.527h-0.057zm-8.861 -6.166c3.944 2.495 8.09 4.904 8.832 4.962 0.887 -0.086 4.403 -1.664 6.232 -2.983 -1 -0.946 -4.974 -3.269 -8.604 -5.19l-6.432 3.24z"
            fill="#1D1D1B" />
        <path
            d="M50.824 227.791v-3.384h1.2v1.29l5.889 -3.384 -5.517 -3.871 -2.344 -1.922 0.772 -0.946 2.315 1.921 7.06 4.904z"
            fill="#1D1D1B" />
        <path
            d="M75.55 229.483c-2.058 0 -7.432 -3.499 -11.806 -6.625l-0.8 -0.574 9.147 -5.018 8.032 3.613 -0.486 1.119 -7.489 -3.384 -6.917 3.785c4.373 3.069 9.376 6.08 10.262 5.879l0.285 -0.172s0.143 -0.086 0.2 -0.115l0.172 -0.114c0.314 -0.144 0.6 -0.172 0.829 0.2 0.229 0.345 0.143 0.545 -0.2 0.832l-0.372 0.258c-0.114 0.058 -0.2 0.144 -0.343 0.201 -0.143 0.086 -0.314 0.115 -0.543 0.115z"
            fill="#1D1D1B" />
        <path
            d="m61.143 220.678 -10.062 -6.595 8.433 -2.61 11.033 4.76 -9.432 4.445zm-7.232 -6.194 7.318 4.818 6.374 -3.011 -8.146 -3.499 -5.546 1.721z"
            fill="#1D1D1B" />
        <path
            d="M206.354 436.539a3.15 3.15 0 0 0 3.144 -3.155 3.15 3.15 0 0 0 -3.144 -3.154 3.15 3.15 0 0 0 -3.144 3.154 3.15 3.15 0 0 0 3.144 3.155"
            fill="#450F1E" />
        <path
            d="M206.354 437.141c-2.058 0 -3.745 -1.692 -3.745 -3.757 0 -2.064 1.687 -3.756 3.745 -3.756s3.745 1.692 3.745 3.756 -1.687 3.757 -3.745 3.757m0 -6.28a2.52 2.52 0 0 0 -2.515 2.523c0 1.377 1.143 2.524 2.515 2.524s2.516 -1.147 2.516 -2.524c0 -1.376 -1.144 -2.523 -2.516 -2.523"
            fill="#1D1D1B" />
    </g>
    <defs>
        <clipPath id="clip0_378_2080">
            <path width="304" height="522" fill="white" d="M0 0H304V522H0V0z" />
        </clipPath>
    </defs>
</svg>