<svg width="212" height="523" viewBox="0 0 212 523" fill="none"
    xmlns="http://www.w3.org/2000/svg">
    <g clip-path="url(#clip0_387_3434)">
        <path
            d="m126.371 54.912 -62.74 -24.387S66.74 0.577 93.978 0.877c27.226 0.3 51.399 23.281 51.399 23.882 0 0.6 -18.995 30.153 -18.995 30.153z"
            fill="white" />
        <path
            d="m89.09 484.678 -44.876 -5.97s-16.832 -3.784 -22.611 4.132c-5.78 7.917 -8.038 21.672 -7.618 24.507s0.252 10.247 16.112 12.506c15.86 2.258 22.407 2.57 31.19 -1.826 0 0 3.869 0.348 9.984 -5.418 6.116 -5.767 18.407 -8.013 18.407 -8.013s3.929 -3.724 -0.589 -19.93z"
            fill="#D2AE53" />
        <path
            d="M126.095 54.407s9.78 -29.444 1.634 -39.259c-8.158 -9.814 -15.115 -12.962 -27.874 -14.055C87.107 0 99.325 0.83 99.325 0.83s37.102 -1.298 57.071 23.618c19.968 24.915 5.491 54.911 5.491 54.911s-3.749 -2.559 -8.17 -2.342c-4.422 0.216 -9.816 2.75 -9.816 2.75L126.107 54.42z"
            fill="#2490CF" />
        <path
            d="M126.095 54.407c1.201 0.385 5.598 9.719 8.89 4.12 4.41 -7.471 7.57 -30.921 5.251 -35.246 -4.061 -7.568 -19.957 -19.305 -29.881 -20.41 0 0 12.58 -1.393 29.881 7.953 17.289 9.334 24.282 23.738 25.495 34.333 1.214 10.584 -1.874 28.027 -3.857 34.201 -1.982 6.187 -17.998 0.397 -17.998 0.397l-17.793 -25.348z"
            fill="#0774A6" />
        <path
            d="M167.81 168.471s-1.202 -3.111 -5.863 -5.971 -10.045 -4.204 -10.045 -4.204 -2.343 6.679 -12.771 11.713 -13.829 6.379 -13.829 6.379 -7.51 13.634 -7.161 17.467c0.12 1.357 2.295 3.928 2.295 3.928s-2.752 19.593 -5.179 22.188c0 0 -20.28 2.174 -26.204 1.093 -5.923 -1.093 -12.087 -0.721 -13.408 -4.865 -1.322 -4.145 1.165 -17.323 1.165 -17.323l3.172 -7.772c0.529 -2.932 4.025 -22.429 4.025 -22.429l-16.316 -5.37 -11.678 27.498 2.186 4.613s-1.646 20.494 -5.599 36.051c-1.417 5.586 -3.904 7.641 -3.904 7.641l-2.331 2.042 -0.83 5.91 5.035 16.578s-7.545 12.674 -11.534 37.625c-3.184 19.93 -3.04 52.377 -2.643 58.035 0.889 12.734 2.222 35.138 3.16 56.498 0.78 17.803 1.742 41.565 4.95 54.371 0 0 -3.269 -2.223 -4.061 -1.754 -0.793 0.468 -3.665 4.649 -3.208 9.658 0 0 7.629 -0.588 10.597 1.982 2.967 2.571 6.115 7.821 6.115 7.821s24.306 0.997 34.723 -3.196c0 0 5.815 -1.814 3.412 -8.205 -2.403 -6.39 -1.874 -11.832 -1.874 -11.832s0.216 -43.896 4.914 -61.675c0 0 9.023 20.085 14.417 44.796 5.383 24.699 6.596 30.862 6.596 30.862s-3.28 2.294 -3.844 3.496c-0.577 1.201 3.16 4.997 4.301 16.313 0.192 1.922 0.18 7.34 5.695 -1.85 5.503 -9.19 6.62 -12.565 16.16 -14.776 9.539 -2.198 24.149 -0.444 24.149 -0.444l5.383 -0.721 -1.057 -12.265 -7.185 -1.009s0.865 -36.544 -2.475 -47.8l6.872 -68.234 -5.959 -48.966s1.201 -21.575 0.577 -26.645c-0.625 -5.069 -2.067 -12.217 -2.067 -12.217s-4.71 2.042 -13.384 -4.577c-4.229 -3.219 -5.467 -20.806 -3.737 -33.06 1.73 -12.253 3.076 -27.041 3.076 -27.041s3.484 -3.4 3.364 -6.619c-0.12 -3.22 -1.117 -9.406 4.205 -15.473 5.323 -6.067 8.843 -9.19 17.602 -8.301z"
            fill="#2490CF" />
        <path
            d="M117.744 503.359c3.064 0.72 6.801 -11.725 8.459 -15.485s12.243 -6.043 12.243 -6.043l24.149 -0.444 5.383 -0.721 -2.054 -11.124 -6.188 -2.138s-0.745 -17.239 -0.853 -24.579c-0.108 -7.352 -1.622 -23.221 -1.622 -23.221l6.368 -67.562c-5.022 1.033 -10.213 -3.447 -10.213 -3.447s-7.04 -27.546 -7.281 -30.105c-0.24 -2.571 3.388 -9.887 3.388 -9.887l7.978 -4.252 1.238 -5.731 -12.303 6.908 -2.596 3.075 -1.609 -2.258 -21.507 2.258h-4.601l-1.046 -2.15h-9.864l-2.247 1.105 -22.239 -1.105 -1.634 -1.634 -8.879 1.201 -5.37 0.337v-3.364l-4.41 -0.661 -5.142 4.938 -17.121 -7.46s8.987 19.088 17.12 18.68c8.135 -0.409 17.29 17.539 17.29 17.539s-3.472 -16.134 0 -21.251 4.842 4.216 6.512 14.031S94.724 362.878 100 363.13c5.274 0.253 12.291 16.278 20.545 46.094s8.266 55.369 5.659 58.192 -7.497 11.304 -7.497 11.304 7.857 -5.25 15.535 -7.112c7.677 -1.874 15.679 -0.913 13.66 2.439 -2.018 3.351 -15.114 5.586 -20.076 9.79 -4.962 4.205 -10.081 19.534 -10.081 19.534z"
            fill="#0774A6" />
        <path
            d="M142.495 168.471s-12.964 14.632 -15.187 21.936 3.028 -8.397 3.028 -8.397l-6.428 10.487 -2.199 7.496s-0.096 14.284 -3.003 20.35c-2.92 6.067 -29.809 9.671 -41.74 -1.778 -11.918 -11.46 48.107 -42.898 48.107 -42.898z"
            fill="#45B8EA" />
        <path
            d="m87.203 169.756 -7.51 8.253s-6.667 -6.943 -7.857 -16.373c0 0 4.013 -9.443 9.444 -11.737 5.43 -2.295 5.539 -1.55 5.539 -1.55l-0.613 7.761 4.517 6.823 -3.508 6.835z"
            fill="#97C138" />
        <path
            d="M135.634 142.439s3.1 -3.232 9.54 3.736c6.44 6.967 5.539 12.517 5.539 12.517s3.46 4.421 -19.32 15.834c-6.356 3.183 -6.079 1.862 -6.079 1.862s-7.738 13.803 -6.584 17.046c1.153 3.244 1.718 4.349 1.718 4.349s-2.211 18.019 -5.179 22.188c0 0 -21.662 2.27 -32.115 0 -10.465 -2.271 -8.194 -2.811 -8.038 -10.848s3.1 -11.508 3.316 -20.686 5.6 -20.002 5.6 -20.002l3.904 -7.604s5.49 4.565 6.656 13.707c0.865 6.799 0.649 -11.221 0.781 2.979 0 0 1.983 -5.322 5.803 -11.256 1.081 -1.682 2.764 -2.439 4.037 -4.337 5.779 -8.577 2.547 -4.217 2.547 -4.217s22.384 -3.748 26.517 -8.697l1.381 -6.571z"
            fill="#97C138" />
        <path
            d="M86.759 148.866s-9.468 0.516 -7.15 5.958c2.308 5.442 3.605 6.595 -0.516 12.866 -4.109 6.271 -3.448 10.163 -3.448 10.163l8.362 -9.19s-6.5 18.837 -6.608 29.06c-0.108 10.235 -1.754 9.718 -1.754 18.464 0 3.448 6.44 4.144 6.44 4.144s-5.239 0.325 -2.62 -15.677c2.62 -16.001 5.035 -28.218 8.447 -31.354s5.467 13.167 5.178 15.99c-0.276 2.823 1.538 -1.334 1.538 -1.334s0.036 -16.806 -1.297 -19.113c-1.346 -2.306 -6.573 -19.989 -6.573 -19.989z"
            fill="#738F2B" />
        <path d="m67.45 286.86 -3.16 -0.649 -6.163 9.622 2.307 6.487 4.41 0.661z" fill="#313D4D" />
        <path
            d="m134.253 149.01 4.517 -32.916s20.786 1.033 27.634 -15.1c6.849 -16.134 -4.698 -22.489 -7.689 -23.174 -2.992 -0.684 -9.936 -2.306 -14.826 1.923l-1.719 -2.33 -16.075 -23.018s-10.129 -24.386 -38.28 -27.053c-10.2 -0.961 -24.786 3.34 -24.786 3.34s1.43 10.33 0 29.924c-1.43 19.593 -5.406 21.023 -5.406 21.023s-10.561 9.67 -8.963 23.245 8.83 24.302 27.345 38.442l10.345 1.742s0.853 4.853 -0.156 10.823c1.466 5.694 2.823 0.613 8.338 13.683 0.613 1.454 0.817 7.953 0.817 7.953s8.711 -14.055 13.168 -17.611c4.458 -3.556 3.641 1.778 25.736 -10.896"
            fill="#FAD29C" />
        <path
            d="M91.72 64.378c2.2 1.598 2.788 3.364 5.311 3.291s13.264 3.76 15.824 6.668c2.559 2.907 0.144 1.501 -3.533 1.009 -3.688 -0.48 -6.5 0 -6.5 0l-5.79 21.503s8.361 4.541 14.333 2.92c5.971 -1.634 14.874 -1.923 15.018 4 0.144 5.934 -17.842 24.638 -23.224 28.194 -5.371 3.556 -18.743 11.124 -19.933 11.124s28.427 -0.3 45.668 -22.224c0.889 -1.129 7.954 -7.772 8.603 -10.86 1.562 -7.412 2.186 -14.259 2.727 -16.241s-15.175 -38.394 -14.73 -39.343 -33.773 9.97 -33.773 9.97z"
            fill="#ECB374" />
        <path
            d="M193.149 229.257s-19.38 1.55 -35.684 10.307c0 0 -1.297 3.448 0.733 26.873 2.03 23.438 -0.036 35.967 -0.036 35.967s-0.985 2.019 -4.758 4.049c-3.76 2.018 -6.416 3.003 -6.968 6.679 -0.553 3.676 0 6.595 0 6.595s0.624 -1.453 4.157 0 5.454 1.814 7.929 11.677c1.442 5.73 0.205 4.241 0.205 4.241s-2.848 0.42 -3.364 3.171c-0.517 2.763 -0.121 4.385 -1.971 9.767 0 0 3.641 5.526 8.314 3.772 4.686 -1.754 6.248 -3.244 6.248 -3.244s6.031 1.31 13.132 -3.976c0 0 5.863 0.601 9.576 -6.055s2.379 -13.767 2.379 -13.767l-2.379 -5.177 -4.866 -7.677s5.082 -16.746 7.617 -44.4c2.547 -27.642 -0.276 -38.826 -0.276 -38.826z"
            fill="#FAD29C" />
        <path
            d="m47.89 226.458 -10.524 7.628 8.506 31.102 4.698 -1.562s14.13 1.418 19.44 9.911c1.85 2.955 -1.31 9.502 -6.164 10.812 0 0 1.887 6.415 0.3 8.289 -1.585 1.874 -3.352 3.472 -5.382 3.207 -2.03 -0.264 3.532 1.898 0.89 8.974 -2.644 7.076 -16.63 -1.129 -23.25 -5.934 -6.62 -4.806 -0.973 -10.812 -0.973 -10.812l4.146 -1.213 -4.242 -5.995S11.98 254.617 6.632 241.126c-0.625 -1.574 -6.236 -9.01 -5.911 -10.86 0.324 -1.85 0.925 -5.622 23.272 -22.632 1.935 -1.478 0.83 -1.478 0.83 -1.478l23.068 20.29z"
            fill="#FAD29C" />
        <path
            d="M190.073 230.278c-0.865 0.457 -21.65 22.02 -22.095 28.699 -0.444 6.68 -0.264 32.423 -0.168 37.913s-0.072 13.779 -4.193 13.779 -7.185 3.448 -4.722 5.562 10.008 11.473 6.668 19.846 4.938 8.721 5.875 6.691 2.175 -10.523 2.415 -13.947c0.253 -3.424 3.629 -7.544 3.797 -2.15 0.168 5.406 -2.019 14.908 0 13.935 2.018 -0.985 6.836 -1.394 6.836 -4.841s-2.595 -12.578 -1.97 -13.887 2.355 9.574 5.202 10.811 5.623 -6.018 5.623 -6.018 0.589 5.057 -1.153 9.094 -4.95 8.625 -8.567 9.394 -5.514 2.102 -5.971 2.366 -7.137 2.403 -9.119 2.007c-1.983 -0.385 -2.235 2.174 -4.89 2.498s-7.63 0.084 -10.213 -3.447c-2.595 -3.532 -6.968 -28.868 -6.968 -28.868s-1.766 -5.61 1.429 -9.07 6.044 -5.069 9.624 -6.306c3.593 -1.238 -0.829 -43.32 -0.829 -43.32l0.793 -21.467s11.162 -5.394 18.743 -7.172 16.316 -3.171 16.316 -3.171l-2.463 1.057z"
            fill="#ECB374" />
        <path
            d="m54.523 223.731 -5.118 3.892s-13.084 -12.806 -18.01 -16.145 -11.775 -7.797 -13.06 -11.016 6.92 -5.851 8.626 -5.166 1.778 -12.614 5.335 -13.37c3.568 -0.757 2.294 4.504 2.294 4.504l23.513 -17.959 8.807 -9.07 0.793 3.916s-3.268 6.668 -6.067 16.422c-2.812 9.755 -5.611 11.076 -5.611 11.076l2.186 4.613s-0.084 9.334 -1.297 16.302c-1.226 6.968 -2.38 12.001 -2.38 12.001z"
            fill="#97C138" />
        <path
            d="M126.095 54.407s-17.602 10.247 -24.222 8.83c-6.62 -1.418 -14.754 -23.318 -41.475 -19.534 -26.372 3.736 -22.491 17.071 -22.491 17.071s-6.717 -4.3 -4.338 -10.151c2.38 -5.85 21.855 -18.933 30.061 -20.11 8.206 -1.165 14.406 -9.118 39.853 1.07 15.499 6.21 22.624 22.812 22.624 22.812z"
            fill="#97C138" />
        <path
            d="M75.429 27.81c4.433 -1.297 21.758 5.694 24.425 10.884s-9.311 6.367 -11.402 6.223 -13.06 -10.091 -34.998 -4.83c-21.94 5.274 -15.68 19.93 -15.68 19.93l41.812 -14.019 22.767 17.31 11.222 -2.702 12.532 -6.199s-6.524 -11.713 -12.46 -16.602c-5.935 -4.89 -14.754 -9.85 -23.02 -10.596 -8.266 -0.732 -15.198 0.601 -15.198 0.601"
            fill="#738F2B" />
        <path
            d="M166.584 168.855s-7.064 -2.534 -14.177 5.418c-7.113 7.953 -6.596 10.319 -6.572 14.176s1.249 6.391 -3.196 10.439c0 0 -4.758 34.814 -3.773 40.688 0.985 5.863 9.732 25.636 17.818 23.99l0.793 -23.99s15.055 -8.325 35.684 -10.307l1.37 3.868s10.837 -6.343 11.005 -10.968 -8.747 -12.421 -8.747 -12.421 -0.829 -13.07 -3.965 -14.188c-3.135 -1.117 -6.247 1.514 -6.247 1.514s-16.196 -25.912 -19.993 -28.219"
            fill="#97C138" />
        <path
            d="M162.595 481.387s9.516 -2.811 17.073 1.958 12.087 9.478 11.799 21.527 -11.318 14.428 -11.474 14.488 -13.913 5.802 -33.545 0.348c-3.545 -0.985 -6.428 -5.129 -13.613 -11.508s-14.129 -6.547 -14.129 -6.547 5.382 -9.575 7.437 -12.542c2.066 -2.967 8.494 -9.262 24.834 -8.553s11.606 0.829 11.606 0.829z"
            fill="#D2AE53" />
        <path
            d="M146.448 319.727s-4.866 -3.796 -8.339 -4.625c-3.46 -0.829 -14.081 -0.54 -33.353 5.646 -2.703 0.865 -3.28 1.274 -3.7 3.052 -0.409 1.778 -0.913 7.64 0 7.592s29.003 -1.069 29.003 -1.069 4.338 1.754 1.118 6.787c0 0 -2.319 1.045 -2.355 1.093s-19.524 1.214 -19.524 1.214l-0.144 -3.304 -8.519 -0.132s-3.208 8.457 -1.225 10.355c1.982 1.898 26.072 6.007 26.072 6.007l9.984 0.324s2.932 -6.307 5.01 -7.592c0 0 3.725 2.042 3.316 3.64 -0.408 1.585 -3.136 2.33 -3.136 2.33l2.968 1.622s6.921 1.898 9.78 -4.12c2.86 -6.007 1.971 -9.767 1.971 -9.767l3.364 -3.171s-0.913 -11.713 -4.206 -14.188c-3.292 -2.475 -5.286 -2.967 -6.019 -2.811s-2.066 1.069 -2.066 1.069z"
            fill="#313D4D" />
        <path
            d="M148.514 325.325s2.619 2.403 2.091 7.364c-0.529 4.95 -1.358 5.863 -1.358 5.863s-5.611 2.15 -9.323 -0.829c0 0 -0.409 -8.253 -1.154 -9.491s3.557 -2.378 5.082 -2.378c1.526 0 4.662 -0.517 4.662 -0.517z"
            fill="#E5E8EA" />
        <path
            d="m124.581 338.828 3.592 -3.748 -3.58 -5.058h-5.887l3.676 3.857 -3.989 4.913 5.863 0.036"
            fill="#5D6D7C" />
        <path d="m116.134 339.044 -0.048 -6.198 -6.932 -0.157 0.144 6.764z" fill="#E5E8EA" />
        <path
            d="M191.335 337.795s14.273 1.429 16.484 3.279 4.217 4.061 3.52 5.466 -27.73 -1.393 -27.73 -1.393 4.902 -1.105 6.464 -4.565 1.274 -2.799 1.274 -2.799z"
            fill="#313D4D" />
        <path d="m191.335 321.866 15.523 -8.073 -0.733 -2.727 -4.878 -2.463 -14.202 5.634z"
            fill="#CC3D4D" />
        <path
            d="M155.939 323.944s-6.932 1.814 -9.491 -4.205c0 0 1.802 -2.438 4.745 -0.504s4.746 4.709 4.746 4.709"
            fill="#CC3D4D" />
        <path
            d="M91.432 64.378c-1.514 -2.847 -1.406 -4.529 -3.604 -3.76s-5.215 5.358 -6.008 7.736c-0.793 2.367 -0.865 5.25 -0.865 5.25H70.022s5.887 -4.505 5.034 -6.583 -12.82 1.345 -12.82 1.345l1.827 -24.83s15.547 -1.454 29.832 12.433 -2.439 8.433 -2.439 8.433z"
            fill="#ECB374" />
        <path
            d="M111.076 94.363s0.901 -7.76 -0.432 -11.437c-1.334 -3.664 -3.004 -8.109 -9.732 -7.532 -6.728 0.576 -7.822 6.691 -7.99 7.94s-1.382 10.055 0 11.413c1.382 1.357 4.205 2.907 9.96 2.823s7.63 -2.871 7.93 -3.195c0.3 -0.325 0.264 -0.025 0.264 -0.025z"
            fill="white" />
        <path
            d="M80.943 73.592c-0.757 -1.334 -2.222 -3.28 -5.334 -3.063 -3.112 0.228 -6.476 2.03 -8.35 8.83 -1.875 6.799 -2.043 9.405 -1.37 9.682 0.673 0.276 8.783 3.22 12.291 2.114 0 0 2.115 -5.118 2.5 -8.95 0.383 -3.832 0.996 -7.364 0.275 -8.613z"
            fill="white" />
        <path
            d="M110.944 84.067s-4.914 -3.976 -8.699 -1.693c-3.784 2.282 -4.962 11.112 -4.397 14.752 0 0 7.497 1.898 11.63 -1.022 1.334 -0.949 1.538 -2.618 1.61 -5.057s-0.144 -6.98 -0.144 -6.98"
            fill="#61C4DD" />
        <path
            d="M80.871 78.205s-1.874 -2.727 -4.71 -1.718c-2.835 0.997 -4.169 1.61 -5.73 5.61 -1.563 4 -1.274 8.037 -1.274 8.037l8.999 1.021s2.643 -8.541 2.751 -10.331 -0.048 -2.62 -0.048 -2.62z"
            fill="#61C4DD" />
        <path
            d="M77.219 81.629c-1.718 0.18 -2.343 1.249 -2.175 2.438s1.334 2.631 2.175 2.439c0.829 -0.192 1.838 -1.742 1.502 -2.8 -0.337 -1.056 -1.502 -2.077 -1.502 -2.077"
            fill="white" />
        <path
            d="M107.171 86.53c-1.213 0.132 -2.426 2.186 -1.982 4.3 0.445 2.115 1.178 2.584 1.982 2.487 0.805 -0.096 2.139 -1.393 1.803 -3.916 -0.337 -2.523 -1.166 -2.943 -1.803 -2.871"
            fill="white" />
        <path
            d="M142.17 77.424s0.048 6.86 -0.564 10.74c-0.613 3.88 -0.721 5.466 -1.67 5.586s-8.23 -1.49 -15.067 -10.608c-0.504 -0.672 -0.336 -16.121 1.502 -28.242z"
            fill="#4D3A20" />
        <path
            d="M115.137 72.835s0.721 -2.222 -0.504 -3.832 -5.455 -6.871 -5.455 -6.871 -4.253 1.225 -6.632 1.213 -8.47 -7.376 -8.47 -7.376 -2.908 6.054 -2.44 8.433c0 0 4.638 0.925 5.527 0.877 0.89 -0.06 7.966 0.577 10.104 1.934 2.139 1.346 7.858 5.634 7.858 5.634z"
            fill="#2D2317" />
        <path
            d="M82.229 53.963c1.718 0.949 2.835 1.61 2.499 5.285 -0.337 3.664 -2.5 3.616 -2.5 3.616s-5.526 -1.67 -8.77 -0.889 -10.717 5.899 -11.234 5.694c-0.516 -0.204 -0.9 -1.801 1.598 -4.913 2.5 -3.111 5.563 -6.006 5.563 -6.006s6.62 -2.944 9.06 -2.944c2.438 0 3.784 0.169 3.784 0.169z"
            fill="#2D2317" />
        <path
            d="M64.05 43.511s-13.42 0.517 -19.812 5.322c-6.38 4.805 -6.668 8.53 -6.464 11.196 0.193 2.667 8.146 5.214 17.097 3.964 8.951 -1.249 7.846 -0.684 7.846 -0.684l1.334 -19.786z"
            fill="#536726" />
        <path
            d="M158.546 279.387s-4 5.49 -12.339 7.124l0.241 19.017s11.882 -5.502 12.303 -6.908c0.408 -1.405 -0.205 -19.221 -0.205 -19.221z"
            fill="#313D4D" />
        <path
            d="M79.093 260.683c-3.364 -0.276 -13.84 -15.172 -15.078 -15.004s-0.661 15.977 -2.812 15.893 -2.102 4.121 -1.778 4.241c1.081 0.396 -8.867 -2.175 -8.867 -2.175s9.504 2.583 9.948 2.571c0.445 0 5.13 2.835 5.13 2.835s3.833 2.679 4.362 4.505 -0.493 7.112 -3.196 9.238c-2.703 2.138 -2.968 1.574 -2.968 1.574l0.613 1.477 3.076 0.685 0.625 -1.754s5.37 -0.468 5.779 -0.396 1.37 1.802 1.37 1.802l-0.18 0.709 3.375 0.732 16.953 -1.093s-8.903 -5.466 -11.618 -7.124c-2.727 -1.645 12.291 -1.561 14.273 -2.967 1.983 -1.405 -15.39 -6.439 -18.995 -8.337 -3.616 -1.898 0 -7.4 0 -7.4z"
            fill="#0774A6" />
        <path
            d="M146.964 164.723c-2.03 1.369 6.248 2.691 3.941 5.31s-8.578 -0.985 -9.732 6.859 -7.461 4.781 -9.323 5.118c-1.862 0.336 -9.696 9.13 -8.807 10.127 0.889 0.985 2.139 13.25 4.193 14.463 2.055 1.214 -3.28 -0.78 -4.902 -5.634 -1.622 -4.865 0.192 7.016 2.667 9.827s3.389 3.303 6.645 1.982 0.444 18.476 -5.491 18.476 5.731 -2.667 4.109 3.94c-1.622 6.62 -14.129 13.119 -14.129 13.119l0.504 1.225s15.872 -10.62 13.18 -17.059c-1.213 -2.907 -7.485 11.437 -12.819 10.656 -2.343 -0.348 -15.788 -11.809 -15.788 -11.809s-0.793 12.398 4.025 16.999c4.818 4.589 0.685 15.124 0.685 15.124l2.259 4.085s7.485 5.369 6.139 10.151c-1.345 4.781 -2.979 12.085 -2.979 12.085h2.463s-0.229 -2.271 2.355 -2.151c2.595 0.12 4.565 2.151 4.565 2.151l17.085 -2.151s0.745 -2.811 2.727 -3.411c1.983 -0.589 5.695 2.318 5.695 2.318s10.069 -3.075 12.34 -7.124c2.27 -4.036 -1.863 -15.845 -1.863 -15.845s-13.372 -10.715 -17.818 -23.99l3.773 -40.688 3.4 -4.277s-1.538 -7.063 1.598 -12.854c3.136 -5.778 7.281 -12.902 13.12 -12.902s7.053 -0.384 7.053 -0.384 -6.08 -6.679 -16.172 -10.163c0 0 -1.718 4.421 -4.674 6.415z"
            fill="#0774A6" />
        <path
            d="m140.668 287.064 -19.98 2.679 2.067 17.803s19.475 -0.901 19.475 -1.201 -1.562 -19.281 -1.562 -19.281"
            fill="#313D4D" />
        <path
            d="M59.305 197.074c-0.084 0.745 4.373 11.761 6.848 12.998s4.133 0.985 4.782 0c0.66 -0.985 -1.598 9.094 7.209 9.19l-2.5 -3.063 1.166 -17.323 3.965 -20.074 -5.695 -7.352 -1.346 -15.172 -5.238 5.742s2.21 12.157 3.148 15.377c0.937 3.219 1.97 9.298 3.124 9.55 1.153 0.252 -1.178 -7.736 -1.178 -7.736l-7.81 16.638s1.863 4.204 -0.12 3.712c-1.982 -0.493 -6.355 -2.487 -6.355 -2.487"
            fill="#0774A6" />
        <path
            d="m68.364 164.146 -1.61 12.734 -3.292 16.59s0.336 2.883 -2.74 1.814 -4.697 -4.481 -4.697 -4.481l11.678 -27.498 0.673 0.841z"
            fill="#45B8EA" />
        <path d="m113.78 289.743 -9.023 -0.865 0.468 17.575h9.864z" fill="#313D4D" />
        <path d="m78.949 288.073 -5.275 -1.213 -2.727 17.274 8.146 0.685 -0.517 -11.653z"
            fill="#313D4D" />
        <path
            d="m104.756 287.977 0.049 9.682 0.408 8.782 -2.247 1.105s-12.928 -0.12 -16.268 -0.36c-3.34 -0.253 -7.184 -1.118 -7.184 -1.118s-1.406 -5.574 -0.95 -12.253c0.457 -6.679 0.517 -6.967 0.517 -6.967s7.137 -0.986 12.76 -0.541 12.903 1.658 12.903 1.658z"
            fill="#E5E8EA" />
        <path
            d="M131.85 182.01c-3.388 0.408 -7.594 5.333 -7.918 11.112 -0.324 5.778 4.746 7.256 7.281 7.34s7.653 -0.985 8.146 -7.833 -7.509 -10.619 -7.509 -10.619"
            fill="#313D4D" />
        <path
            d="M69.133 176.892c-3.893 0.12 -7.425 6.247 -7.51 10.944s4.206 9.406 6.68 8.577c2.476 -0.829 6.729 -1.357 6.79 -7.111 0.06 -5.755 -3.245 -12.494 -5.96 -12.41"
            fill="#313D4D" />
        <path
            d="M65.252 242.784c0.493 0.985 4.301 1.237 5.287 1.237S69 241.51 69 241.51l2.583 -6.547s5.142 -0.108 4.565 -1.838c-0.576 -1.73 -5.418 -5.466 -5.418 -5.466l12.41 2.463s2.656 2.943 3.245 11.016c0.577 8.073 1.562 31.294 -0.985 31.342 -2.56 0.048 -5.551 0.132 -11.378 -2.427 0 0 0.745 -0.324 1.273 -4 0.529 -3.676 -0.745 -5.238 -1.67 -5.034 -0.937 0.205 -4.698 1.13 -6.86 -2.054s-1.502 -16.181 -1.502 -16.181z"
            fill="#0774A6" />
        <path
            d="M116.495 234.663c-2.559 0.24 -6.152 3.015 -5.179 5.646 0.974 2.643 3.941 3.135 5.671 2.811s4.037 -1.538 3.965 -3.58 -2.222 -5.081 -4.457 -4.877"
            fill="#313D4D" />
        <path
            d="M69.998 234.651c-2.03 0.216 -3.508 2.318 -3.136 4.276 0.373 1.959 1.778 2.956 3.256 2.535 1.49 -0.408 3.665 -1.646 3.484 -3.628 -0.18 -1.982 -3.604 -3.183 -3.604 -3.183"
            fill="#313D4D" />
        <path
            d="M116.171 188.136c-2.692 -0.432 -11.438 -19.1 -8.879 -28.206l0.781 0.36s-0.349 0.288 -0.337 0.997 5.623 11.365 9.011 11.689 23.021 -9.07 24.919 -11.136 0.805 -14.836 -1.43 -15.653 -1.79 1.682 -6.103 3.964c-4.314 2.283 1.922 -3.892 1.922 -3.892l-1.538 -4.409s4.145 -0.18 7.665 2.631 7.149 6.871 8.531 14.235c1.189 6.307 -18.527 15.569 -21.458 16.326 -2.932 0.757 -3.941 1.37 -3.941 1.37s-6.801 11.028 -7.149 16.638l2.787 5.682s-3.508 18.656 -5.31 20.927c-1.79 2.27 -24.847 1.705 -26.18 1.489 -1.334 -0.228 6.32 -25.455 7.557 -27.69 1.238 -2.234 -3.797 20.458 -0.985 20.879 2.811 0.408 11.558 -0.409 12.711 -1.562s4.17 -16.278 2.415 -17.467c-1.754 -1.177 8.062 -6.655 5.011 -7.16z"
            fill="#738F2B" />
        <path
            d="M103.759 164.266c1.49 -2.306 4.169 -6.294 0 5.25 -4.169 11.557 -9.948 31.522 -11.606 50.996l-2.691 0.624s3.015 -25.239 5.166 -30.032c2.15 -4.794 5.479 -21.191 9.131 -26.838"
            fill="#BDD35B" />
        <path
            d="M108.073 160.29c0.012 -0.949 18.226 -7.628 26.889 -13.226 8.674 -5.598 -1.226 5.334 -9.648 9.598s-12.868 6.079 -11.883 9.058c0.985 2.967 -5.454 0.913 -5.37 -5.43z"
            fill="#BDD35B" />
        <path
            d="M83.695 148.938c3.111 -0.589 -2.884 2.751 -4.782 6.751s-5.287 6.667 -2.704 11.268c2.584 4.601 0.757 7.713 0 6.427 -0.757 -1.285 -4.385 -9.49 -4.385 -11.953s4.421 -7.688 6.02 -9.082c1.597 -1.381 5.839 -3.411 5.839 -3.411z"
            fill="#BDD35B" />
        <path
            d="M67.691 163.305c-3.929 6.86 -16.232 21.768 -16.929 25.132 -0.697 3.363 -0.432 5.67 -4.277 2.859s-9.78 -4.601 -9.78 -4.601l15.15 16.95s1.418 4.433 -1.093 5.778c-2.51 1.346 -13.228 -13.178 -21.59 -12.914 0 0 10.705 8.566 12.17 10.668 1.467 2.102 5.131 7.184 4.206 9.022s-14.153 -4.721 -14.153 -4.721l18.01 16.145 4.313 -3.291 2.27 -8.95 1.851 -18.969 -1.826 -5.61z"
            fill="#738F2B" />
        <path
            d="M67.691 163.305c-5.238 5.875 -23.777 13.827 -24.738 16.795 -0.962 2.967 -6.56 5.045 -6.765 5.67 -0.204 0.624 13.3 15.509 13.3 15.509s1.73 3.712 -0.083 3.712c-1.815 0 -15.511 -14.188 -16.509 -12.866 -0.997 1.321 -2.222 5.61 -2.222 5.61l8.134 7.256s-7.233 -2.811 -11.859 -5.442c-4.626 -2.643 -4.95 3.964 -4.95 3.964l-3.676 -4.409s3.844 -3.063 8.626 -3.808c0 0 3.412 -12.217 5.335 -13.37 1.922 -1.154 3.28 3.676 3.28 3.676l22.515 -17.131 11.306 -9.154 -1.718 3.988z"
            fill="#BDD35B" />
        <path
            d="M159.652 168.855c4.289 1.154 22.936 30.538 22.936 30.538s-12.543 7.592 -17.818 9.73c-5.286 2.15 2.151 3.46 11.967 0s9.491 -3.628 10.152 -1.477c0.661 2.138 -3.039 6.258 -3.039 6.258s-9.336 2.571 -13.962 5.743c-4.625 3.171 19.801 -5.743 23.597 -2.763 3.797 2.967 3.304 7.592 3.304 7.592v4.781h-3.628l1.31 3.135s11.774 -6.883 11.005 -11.028c-0.769 -4.144 -8.687 -9.886 -8.687 -9.886s0.349 -13.863 -3.964 -15.918c-1.646 -0.792 -6.248 1.514 -6.248 1.514s-15.043 -22.116 -19.993 -28.219z"
            fill="#BDD35B" />
        <path
            d="M150.905 179.943c1.141 13.707 0.324 26.381 4.289 25.877 3.965 -0.493 15.559 -0.505 16.929 -0.829 1.37 -0.325 -10.825 5.442 -17.926 7.76 -7.101 2.307 1.153 8.673 5.443 6.896s12.711 -6.56 17.085 -6.896c4.373 -0.324 8.806 -0.036 0.24 3.448 -8.567 3.484 -16.16 6.811 -17.313 10.259 -1.154 3.448 -3.629 6.415 0 6.667s22.924 -2.246 22.924 -2.246 -23.585 5.994 -25.904 9.118v23.545s-14.189 -10.884 -17.818 -23.99l1.37 -21.191 2.403 -19.485 3.4 -4.277 0.553 -4.649s3.58 -18.812 4.313 -10.007z"
            fill="#738F2B" />
        <path
            d="M86.35 145.058c0.937 2.618 5.827 8.733 8.17 9.958 2.33 1.226 6.728 -4.12 12.423 -6.679 5.695 -2.547 11.366 -4.156 15.319 -6.799s1.718 5.802 0 9.034c-1.718 3.219 -13.36 7.748 -14.382 8.817 -1.021 1.069 -5.394 3.988 -7.377 8.541s-3.568 5.743 -3.568 5.743l0.156 0.829s3.616 -8.001 10.981 -14.212c3.076 -2.583 20.546 -6.931 26.181 -11.268l4.517 -32.916s-11.678 14.344 -25.015 21.792c-13.348 7.448 -27.405 7.16 -27.405 7.16"
            fill="#ECB374" />
        <path
            d="M28.535 209.423c2.235 1.346 5.37 10.139 5.61 11.929 0.253 1.79 -16.58 7.076 -16.58 7.076s11.306 1.742 13.12 5.658 9.408 38.862 9.985 42.082c0.576 3.219 0 -8.001 -2.15 -7.424 -2.152 0.577 -2.56 12.541 -2.56 12.541s1.562 -5.033 4.29 -6.27a28.7 28.7 0 0 1 5.442 -1.79s-1.07 -3.652 -0.409 -5.634 4.662 -4.061 4.662 -4.061l-4.253 1.226 -8.338 -30.67 10.525 -7.628 -19.356 -17.419v0.384z"
            fill="#ECB374" />
        <path
            d="M28.535 209.039S7.33 228.104 6.668 229.75c-0.66 1.645 4.698 2.402 6.849 4.589 2.15 2.186 20.232 44.256 20.232 44.256l-16.195 -17.828 -14.118 -18.812L0.71 230.903s-0.757 -2.751 3.052 -5.875c3.808 -3.123 21.062 -18.86 21.062 -18.86z"
            fill="#FDE6CE" />
        <path
            d="M61.059 199.441c0.48 1.093 0.012 23.581 -5.299 32.951 -5.31 9.371 -8.915 9.19 -8.722 7.545 0.192 -1.646 3.04 3.676 7.245 -15.389s2.667 -29.985 3.676 -29.132c2.944 2.463 2.03 1.61 3.088 4.025z"
            fill="#45B8EA" />
        <path
            d="M45.692 265.849s2.163 6.03 6.176 8.085c4.013 2.066 9.383 5.141 10.597 4.649 1.213 -0.481 4.06 -7.545 1.093 -10.884 0 0 5.599 4 5.527 4.529 -0.072 0.54 1.91 3.988 0.78 6.006s-6.03 6.091 -6.03 6.091l0.925 6.15s-1.478 3.676 -2.764 4.361 -3.869 0.985 -3.869 0.985 -8.506 -0.612 -14.97 -5.646c0 0 8.975 1.61 10.79 -0.913 1.813 -2.511 -7.846 -8.205 -8.4 -11.556 -0.552 -3.34 0.145 -4.517 0.145 -4.517v-7.376z"
            fill="#DDAC6F" />
        <path
            d="M39.42 287.592s1.358 4.806 4.338 7.004c2.967 2.198 8.29 4.685 7.545 6.103 -0.745 1.417 -14.922 -1.814 -14.922 -1.814l16.22 8.373 4.974 -0.253 2.86 -4.685 -2.308 -6.475 -7.353 -1.633 -11.354 -6.608z"
            fill="#DDAC6F" />
        <path
            d="M160.349 93.762s-7.269 -4.217 -9.937 1.417 4.602 3.256 1.779 9.046c-2.812 5.778 -7.173 7.136 -10.045 6.403s-1.97 -0.168 -0.781 -0.613 4.746 -0.888 5.635 -4.601 2.079 -5.045 -0.889 -5.49c-2.967 -0.444 -3.917 0.445 -3.965 -0.144 -0.048 -0.588 0.793 -5.862 2.079 -7.532 1.285 -1.67 2.09 -3.832 6.067 -4.084s9.456 3.147 10.057 5.598"
            fill="#DDAC6F" />
        <path
            d="M143.888 79.755c-2.174 1.357 -1.033 1.477 7.558 1.033 8.602 -0.445 10.332 0.937 11.101 5.73 0.757 4.793 3.881 7.904 -1.165 16.95s-11.09 9.238 -11.09 9.238 9.288 -1.802 12.183 -5.225c2.908 -3.424 6.332 -10.512 6.02 -14.824 -0.301 -4.313 -2.932 -12.362 -7.618 -13.9 -4.685 -1.537 -11.065 -2.726 -17.001 0.986z"
            fill="#DDAC6F" />
        <path
            d="M67.823 103.925c-1.033 -3.316 3.112 2.511 6.068 4.024 6.98 3.556 14.61 2.943 16.724 -2.174 0.745 -1.802 -1.466 -6.15 -4.277 -7.34s-6.656 0.552 -5.479 0.649c1.178 0.096 6.945 8.144 -5.827 8.096 -5.96 -0.012 -6.476 -0.889 -7.22 -3.255z"
            fill="#ECB374" />
        <path
            d="M62.224 67.658c1.298 -0.577 4.866 -4.806 2.487 4.528 -2.367 9.334 -1.477 12.338 -5.19 15.954s-6.824 14.788 -3.256 20.77c3.556 5.971 7.077 21.864 17.025 26.453 9.96 4.601 16.424 -0.745 17.421 0 0.998 0.745 -13.144 7.881 -16.976 6.163 -3.833 -1.718 -13.853 -12.194 -20.33 -23.93 -6.475 -11.737 -5.658 -21.047 -2.51 -26.633 3.147 -5.586 8.89 -10.427 9.647 -14.608 0.77 -4.18 1.682 -8.71 1.682 -8.71z"
            fill="#FDE6CE" />
        <path
            d="M80.943 73.592c-0.072 -3.015 4.073 -9.538 3.34 -4.505 -0.745 5.045 0.757 18.104 -1.621 22.32 -2.38 4.217 -5.876 5.322 -7.69 6.62 -1.814 1.297 -5.96 5.153 -4.181 7.604 0 0 -4.11 0.072 -4.277 -2.006 -0.169 -2.079 0.54 -5.526 1.153 -6.475 0.613 -0.937 1.502 -2.571 3.124 -3.016 1.634 -0.444 3.929 -0.408 6.115 -1.61 2.187 -1.2 3.965 -8.457 3.965 -8.457l0.072 -10.487z"
            fill="#FDE6CE" />
        <path
            d="M97.187 0c5.19 0.444 16.016 1.742 17.049 14.656s-0.889 16.47 -6.38 14.548 -19.08 -3.736 -24.666 -1.946c0 0 13.348 -0.265 21.903 5.141 8.542 5.406 9.431 3.628 21.002 22.008 0 0 6.379 -17.647 3.712 -32.17C127.14 7.711 114.548 4.42 113.948 4.131 113.347 3.844 97.188 0 97.188 0"
            fill="#DBDBDB" />
        <path
            d="M73.686 340.594c0.65 2.487 -2.379 76.403 0 86.554s5.347 -15.257 9.312 -16.542 -0.42 50.455 -4.422 54.167c-4 3.712 -30.865 6.571 -31.67 6.006s26.696 5.274 26.192 7.929 -20.498 9.166 -20.498 9.166 27.034 2.174 36.069 -3.196c2.21 -1.321 5.575 -4.432 2.174 -12.421 -3.4 -7.989 4.278 -69.291 4.278 -69.291l-12.868 -47.524 -8.567 -14.86z"
            fill="#0774A6" />
        <path
            d="M73.098 318.49s-1.25 18.608 12.363 34.225 14.069 31.955 24.858 57.903 12.411 59.873 11.727 62.588a47 47 0 0 1 -1.514 4.865l1.514 6.752s0.372 -3.076 6.776 -6.115 -8.314 7.64 -10.116 17.887c-1.803 10.247 -1.526 4.685 -1.526 4.685l-1.046 -8.012 -3.844 -11.136 3.844 -3.496 -9.768 -42.058 -14.02 -39.703 -11.871 -44.725 -5.611 -9.514 -2.884 -11.677 1.13 -12.469z"
            fill="#45B8EA" />
        <path
            d="M39.036 301.251s0.456 31.198 1.418 41.085c0.96 9.899 12.591 107.577 13.084 71.441 0.492 -36.135 -0.925 -90.23 -0.925 -90.23s6.32 -0.66 5.238 19.209c-1.081 19.87 -0.168 100.477 2.595 102.952s6.224 -0.745 10.681 -4.205c4.458 -3.459 3.412 14.608 -8.314 19.065S46.93 470.779 46.93 470.779l12.327 3.256s-8.663 0.468 -9.288 3.772 -1.538 4.289 -1.538 4.289 -0.264 -5.274 -11.173 -4.025l0.925 -6.03 2.283 -2.499 4.06 0.625 -4.95 -54.371 -2.607 -27.006 -0.709 -39.246 2.788 -48.281z"
            fill="#45B8EA" />
        <path
            d="M192.873 227.659c-0.325 14.524 -10.069 13.07 -9.66 42.13 0.396 28.531 3.724 40.1 -3.869 39.283 -7.593 -0.829 11.054 9.49 11.054 9.49l-4.866 -7.676 4.661 -18.236 3.232 -20.603 2.211 -9.165z"
            fill="#FDE6CE" />
        <path
            d="M126.095 54.407c0.745 1.778 2.499 18.212 3.256 22.897s2.186 4.216 3.844 0 -1.225 3.388 0.217 6.403c1.441 3.015 3.977 3.64 4.782 0.36 0.805 -3.267 1.754 9.683 1.754 9.683l2.234 -16.326 -16.075 -23.017z"
            fill="#2D2317" />
        <path
            d="M74.504 77.016c1.67 -0.54 5.346 5.862 3.82 8.565s-1.297 4.337 -3.82 3.736c-2.524 -0.589 -5.335 0.817 -5.335 0.817l8.999 1.021 2.247 -7.088 0.456 -5.862 -2.57 -1.826 -3.81 0.637z"
            fill="#2490CF" />
        <path
            d="M103.255 81.809c0.372 0 3.484 1.754 4.625 4.89 1.142 3.147 1.502 4.612 0 6.618 -1.501 2.007 -9.503 3.929 -9.503 3.929s6.331 1.333 8.939 -0.096c2.595 -1.418 3.508 -2.776 3.508 -2.776l0.132 -10.307 -4.409 -1.862 -3.268 -0.408z"
            fill="#2490CF" />
        <path
            d="M53.946 487.874c-1.346 0 10.97 7.604 11.138 11.761s-8.086 12.733 -21.29 11.917l16.172 -0.985s-1.01 5.285 -6.116 6.439 -31.55 5.622 -39.288 -5.19c0 0 -0.505 5.37 14.694 7.929 15.198 2.546 23.344 1.021 23.344 1.021s8.026 -2.691 8.687 -2.715 6.236 -2.403 6.236 -2.403l9.443 -6.811 12.003 -4.061s1.394 -3.832 1.838 -5.105 -2.114 -16.326 -2.126 -15.641c-0.012 0.684 -9.576 3.135 -9.576 3.135s-15.511 1.153 -16.004 0.829c-0.492 -0.324 -10.5 -0.084 -10.5 -0.084h1.345z"
            fill="#9A7B37" />
        <path
            d="M147.901 492.907s12.255 -6.931 18.022 -5.934c5.78 0.985 12.544 14.656 10.561 17.635 -1.982 2.991 -16.832 7.412 -19.223 8.013 -2.391 0.588 11.282 2.739 10.717 4.553s-6.368 4.12 -11.222 2.306 -7.593 -0.552 -21.038 -11.713 -13.204 -6.15 -10.392 -11.16c2.811 -5.009 17.169 -12.77 23.933 -13.43s12.051 -2.307 12.051 -2.307 -11.474 -1.201 -21.122 0 -16.4 13.275 -16.4 13.275l-5.07 7.508 5.875 1.766 8.254 4.781 9.648 9.622 12.735 3.833 15.487 0.408 13.697 -5.07 5.371 -5.189 1.682 -6.932s-2.848 -12.673 -2.92 -13.118c-0.072 -0.444 -4.061 -6.931 -11.27 -9.658s-13.624 -1.43 -13.624 -1.43 -9.384 3.051 -12.556 7.64l-3.172 4.601z"
            fill="#9A7B37" />
        <path
            d="M154.425 502.59c2.947 0 5.335 -1.716 5.335 -3.832 0 -2.117 -2.388 -3.832 -5.335 -3.832s-5.334 1.715 -5.334 3.832 2.388 3.832 5.334 3.832"
            fill="#EAC368" />
        <path
            d="M45.944 478.984c-5.935 0.721 -17.325 1.382 -19.307 11.449 -1.983 10.067 -4.626 15.016 0 15.184 4.625 0.168 17.878 5.118 17.878 5.118s-20.942 -0.036 -20.437 3.459 1.02 4.674 1.02 4.674 -13 -1.034 -11.1 -15.485c1.898 -14.452 6.571 -20.266 9.611 -22.717 3.028 -2.451 13.637 -2.595 13.637 -2.595z"
            fill="#EAC368" />
        <path
            d="M191.455 504.872s-17.77 8.494 -34.194 7.737c-4.205 -0.192 -8.915 -0.937 -18.563 -8.614 -9.66 -7.676 -16.412 -7.4 -16.412 -7.4l-3.568 5.058s8.722 2.354 13.048 5.814c4.337 3.46 7.389 9.346 11.69 10.644 4.301 1.297 9.996 5.598 25.759 3.916 15.776 -1.682 20.426 -8.878 21.627 -12.518s0.625 -4.637 0.625 -4.637z"
            fill="#695223" />
        <path
            d="M90.483 494.998s1.237 5.165 -0.276 8.817c0 0 -13.325 3.172 -18.936 8.794 -5.61 5.622 -8.698 5.009 -10.68 5.129 -1.983 0.12 -9.156 7.424 -29.701 2.847s-17.193 -12.733 -16.88 -17.202c0 0 5.742 6.307 12.182 7.292s33.786 -0.121 33.786 -0.121 4.47 -0.564 13.132 -9.069l7.413 -2.739 6.308 -1.43z"
            fill="#695223" />
        <path
            d="M99.398 295.161s0.384 1.814 -0.973 3.567c-0.697 0.889 -2.632 1.802 -2.632 1.802l-5.827 0.877s3.04 1.021 4.602 0.973 6.668 -0.276 7.305 -2.594c0.637 -2.307 -2.463 -4.625 -2.463 -4.625z"
            fill="#97C138" />
        <path
            d="M93.727 291.881s-4.602 -1.213 -6.548 -0.829c-1.947 0.385 -4.325 0.865 -4.926 3.952 -0.6 3.088 2.463 4.181 2.463 4.181s-0.66 -2.895 0 -4.517 3.448 -2.246 3.448 -2.246l5.563 -0.529z"
            fill="#536726" />
        <path
            d="M94.82 302.705c-3.328 0 -5.274 -1.141 -5.382 -1.214a0.33 0.33 0 0 1 -0.145 -0.384 0.335 0.335 0 0 1 0.337 -0.228c5.635 0.36 7.954 -1.37 8.915 -2.883 0.817 -1.286 0.684 -2.487 0.6 -2.643 -0.12 -0.132 -0.108 -0.313 0.012 -0.445 0.12 -0.12 0.325 -0.12 0.457 -0.012s3.076 2.619 2.607 4.818c-0.228 1.069 -1.201 1.849 -2.883 2.33a16.5 16.5 0 0 1 -4.506 0.649zm-3.352 -1.117c1.598 0.444 4.253 0.792 7.677 -0.169 1.43 -0.408 2.247 -1.021 2.415 -1.826 0.253 -1.165 -0.841 -2.63 -1.718 -3.543a4.8 4.8 0 0 1 -0.48 1.826c-0.685 1.405 -2.608 3.615 -7.906 3.724z"
            fill="#010101" />
        <path
            d="M84.716 299.497s-0.096 0 -0.132 -0.024c-0.085 -0.036 -2.079 -0.961 -2.584 -2.847 -0.3 -1.141 0 -2.366 0.926 -3.64 2.967 -4.144 11.053 -1.501 11.402 -1.381 0.156 0.06 0.252 0.216 0.216 0.384a0.314 0.314 0 0 1 -0.36 0.252c-0.06 0 -6.356 -0.672 -8.663 2.139 -0.937 1.129 -1.094 2.715 -0.48 4.697 0.035 0.12 0 0.264 -0.097 0.348a0.3 0.3 0 0 1 -0.216 0.084zm3.917 -8.169c-1.995 0 -4.05 0.457 -5.179 2.031 -0.793 1.105 -1.07 2.15 -0.817 3.087 0.252 0.949 0.998 1.622 1.55 2.018 -0.408 -1.85 -0.132 -3.364 0.817 -4.517 1.418 -1.718 4.05 -2.258 6.152 -2.402a17 17 0 0 0 -2.523 -0.205z"
            fill="#010101" />
        <path
            d="M88.344 298.428a0.5 0.5 0 0 1 -0.348 -0.156c-0.192 -0.228 -0.12 -0.577 -0.048 -0.925 0 -0.024 0.012 -0.06 0.024 -0.096 -0.18 0 -0.433 0 -0.601 0.036v0.12c-0.024 0.264 -0.084 0.865 -0.625 0.865h-0.204c-0.469 0 -0.95 0 -1.081 -0.396 -0.156 -0.469 1.37 -3.028 1.598 -3.268a0.4 0.4 0 0 1 0.204 -0.108c0.084 0 0.84 -0.096 1.213 -0.036 0.673 0.108 1.586 3.436 1.586 3.472 0.048 0.252 -0.084 0.372 -0.168 0.408 -0.108 0.06 -0.204 0.072 -1.105 0.084h-0.445m-0.492 -1.838c0.192 0 0.372 0.024 0.492 0.06 0.156 0.06 0.24 0.156 0.265 0.228 0.072 0.157 0.036 0.337 -0.012 0.601 -0.012 0.072 -0.036 0.192 -0.049 0.276h0.793c-0.204 -0.708 -0.78 -2.306 -1.045 -2.642 -0.204 0 -0.565 0 -0.829 0.036 -0.336 0.456 -1.105 1.922 -1.322 2.462h0.529c0.024 -0.072 0.024 -0.192 0.036 -0.264 0.024 -0.24 0.048 -0.505 0.289 -0.625 0.144 -0.072 0.516 -0.132 0.865 -0.132z"
            fill="#010101" />
        <path
            d="M92.525 298.644c-0.504 0 -1.081 -0.108 -1.634 -0.216 -0.144 -0.024 -0.264 -0.048 -0.336 -0.06 -0.108 -0.012 -0.264 -0.072 -0.397 -0.264 -0.336 -0.505 -0.3 -1.79 -0.048 -2.739 0.337 -1.31 1.49 -1.262 2.415 -1.226h0.277c0.336 0.024 0.624 0.145 0.829 0.385 0.456 0.528 0.348 1.405 0.336 1.514a0.345 0.345 0 0 1 -0.312 0.288l-0.974 0.036a0.32 0.32 0 0 1 -0.24 -0.096 0.34 0.34 0 0 1 -0.096 -0.24c0 -0.061 0 -0.085 -0.012 -0.085 -0.06 -0.06 -0.372 -0.048 -0.468 -0.048 -0.109 0.048 -0.481 0.517 -0.481 0.889 0 0.157 0.072 0.253 0.228 0.313s0.373 0.108 0.505 0.036c0.144 -0.084 0.18 -0.301 0.18 -0.301 0 -0.096 0.06 -0.168 0.132 -0.228s0.168 -0.072 0.252 -0.06c1.046 0.192 1.094 0.264 1.166 0.384 0.024 0.049 0.048 0.097 0.048 0.157 0.192 0.696 0.012 1.153 -0.493 1.417 -0.228 0.12 -0.528 0.156 -0.853 0.156zm-1.826 -0.925c0.084 0.012 0.192 0.036 0.325 0.06 0.528 0.109 1.633 0.325 2.054 0.109 0.204 -0.109 0.264 -0.253 0.18 -0.565 -0.108 -0.024 -0.264 -0.06 -0.432 -0.096a1.02 1.02 0 0 1 -0.385 0.444c-0.288 0.18 -0.66 0.18 -1.081 0.024 -0.493 -0.18 -0.733 -0.612 -0.637 -1.141 0.096 -0.577 0.637 -1.321 1.105 -1.345 0.277 0 0.685 -0.024 0.95 0.24 0.072 0.06 0.12 0.144 0.156 0.228h0.396c0 -0.252 -0.048 -0.552 -0.192 -0.733a0.42 0.42 0 0 0 -0.336 -0.144h-0.289c-1.021 -0.048 -1.55 -0.036 -1.754 0.721 -0.252 0.985 -0.192 1.97 -0.048 2.186z"
            fill="#010101" />
        <path
            d="M95.685 298.476c-0.6 0 -1.165 -0.048 -1.273 -0.084 -0.289 -0.12 -0.337 -0.228 -0.205 -2.955 0.025 -0.445 0.049 -0.937 0.037 -1.033a0.35 0.35 0 0 1 0.276 -0.361c0.204 -0.036 2.018 -0.312 2.595 0.625 0.228 0.36 0.192 0.661 0.132 0.853a1.1 1.1 0 0 1 -0.228 0.384c0.12 0.06 0.24 0.145 0.384 0.241 0.265 0.192 0.42 0.468 0.433 0.793 0.024 0.576 -0.397 1.141 -0.589 1.309s-0.901 0.228 -1.562 0.228m-0.877 -0.685c0.48 0.036 1.814 0.036 2.055 -0.072 0.072 -0.072 0.336 -0.456 0.324 -0.756 0 -0.121 -0.06 -0.205 -0.156 -0.289 -0.469 -0.348 -0.685 -0.324 -0.697 -0.324a0.32 0.32 0 0 1 -0.397 -0.204c-0.06 -0.169 0.049 -0.361 0.217 -0.421 0.108 -0.036 0.42 -0.204 0.48 -0.408 0.024 -0.048 0.036 -0.144 -0.06 -0.289 -0.228 -0.372 -1.093 -0.408 -1.658 -0.36 0 0.18 -0.024 0.445 -0.036 0.805 -0.036 0.685 -0.096 1.886 -0.072 2.33z"
            fill="#010101" />
        <path
            d="M87.347 296.506a0.32 0.32 0 0 1 -0.264 -0.132 0.34 0.34 0 0 1 -0.049 -0.3l0.229 -0.637a0.32 0.32 0 0 1 0.3 -0.216h0.505c0.168 -0.024 0.276 0.072 0.324 0.204l0.216 0.613a0.34 0.34 0 0 1 -0.036 0.3 0.3 0.3 0 0 1 -0.264 0.144l-0.95 0.036z"
            fill="#010101" />
        <path
            d="M95.277 295.929a0.323 0.323 0 0 1 -0.325 -0.324l-0.024 -0.601c0 -0.144 0.084 -0.276 0.228 -0.324 0.133 -0.036 0.59 -0.156 0.878 0.048a0.57 0.57 0 0 1 0.228 0.421c0 0.216 -0.048 0.384 -0.18 0.528 -0.205 0.216 -0.517 0.252 -0.793 0.252z"
            fill="#010101" />
        <path
            d="M95.59 297.827h-0.181a0.31 0.31 0 0 1 -0.3 -0.288c-0.096 -0.721 -0.024 -0.865 0 -0.925a0.38 0.38 0 0 1 0.252 -0.192c0.12 -0.012 0.733 -0.096 1.093 0.18 0.145 0.108 0.24 0.264 0.253 0.445a0.61 0.61 0 0 1 -0.157 0.492c-0.24 0.252 -0.684 0.288 -0.96 0.288m0.131 -0.768v0.108c0.157 -0.012 0.3 -0.048 0.337 -0.084 -0.048 0 -0.18 -0.024 -0.349 -0.024z"
            fill="#010101" />
        <path
            d="M88.032 145.694c-3.785 0 -7.22 -0.432 -10.309 -0.985 -2.86 -0.516 -10.933 -7.316 -17.469 -15.629 -6.115 -7.772 -13.18 -16.314 -12.159 -28.242 0.901 -10.536 4.386 -14.38 7.461 -17.768 2.259 -2.486 4.386 -4.829 5.215 -9.634 0.492 -2.847 0.9 -6.115 1.237 -9.443 -13.108 1.43 -20.821 0.745 -23.573 -2.078 -1.406 -1.441 -1.177 -3.087 -1.045 -3.976 0.024 -0.168 0.06 -0.397 0.048 -0.469 -0.276 -0.684 0.42 -2.582 1.658 -4.372 2.715 -3.94 9.9 -10.488 27.394 -10.175 16.412 0.3 24.762 9.298 30.289 15.244 2.463 2.643 4.409 4.733 5.875 4.553 5.359 -0.673 11.883 -2.198 23.128 -8.817a0.59 0.59 0 0 1 0.793 0.18 691 691 0 0 0 17.458 24.903c5.286 -2.931 11.306 -3.376 16.208 -1.178 4.001 1.79 6.752 5.142 7.569 9.179 1.478 7.364 0.3 13.79 -3.496 19.124 -7.618 10.716 -23.105 10.223 -25.243 10.548 -20.185 23.701 -37.703 29.035 -51.051 29.035zm-24.75 -82.193c-0.36 3.556 -0.793 7.088 -1.322 10.139 -0.889 5.142 -3.136 7.616 -5.515 10.235 -3.087 3.412 -6.295 6.932 -7.16 17.071 -1.839 21.383 23.98 41.757 28.655 42.61 13.672 2.487 34.806 2.306 60.386 -27.822a0.65 0.65 0 0 1 0.372 -0.205c0.168 -0.024 16.953 0.769 24.678 -10.102 3.593 -5.058 4.698 -11.173 3.293 -18.2 -0.733 -3.664 -3.244 -6.692 -6.885 -8.325 -4.698 -2.103 -10.525 -1.586 -15.583 1.381a0.6 0.6 0 0 1 -0.781 -0.156c-0.084 -0.108 -8.374 -11.256 -17.505 -24.915 -11.138 6.487 -17.686 8.013 -23.093 8.685 -2.078 0.265 -4.097 -1.91 -6.896 -4.925 -5.395 -5.802 -13.54 -14.572 -29.448 -14.86a49 49 0 0 0 -1.875 0c-0.096 2.234 -0.468 10.715 -1.31 19.16 0 0.085 0 0.169 -0.023 0.241zm0.144 -19.377c-13.204 0.42 -19.488 5.19 -22.131 8.133 -2.211 2.474 -2.752 4.517 -2.704 4.877 0.096 0.228 0.048 0.553 0 0.973 -0.12 0.829 -0.276 1.958 0.721 2.991 1.694 1.742 7.053 3.436 22.852 1.694 0.793 -8.193 1.166 -16.374 1.262 -18.656z"
            fill="#010101" />
        <path
            d="M38.916 62.12a0.64 0.64 0 0 1 -0.325 -0.097c-0.252 -0.168 -6.295 -4.24 -6.271 -8.95 0.024 -3.267 3.592 -7.423 10.921 -12.71 6.236 -4.492 12.627 -7.868 19.272 -10.138 0.432 -2.475 3.292 -16.086 14.009 -24.026C83.526 1.009 92.429 -0.77 102.966 0.9c12.159 1.934 20.173 6.079 24.486 12.662 7.053 10.763 2.884 26.825 -0.793 40.988a0.59 0.59 0 0 1 -0.54 0.445 0.58 0.58 0 0 1 -0.589 -0.373c-0.108 -0.264 -10.789 -26.056 -39.493 -26.753 -7.93 -0.192 -15.462 0.901 -22.695 3.316a0.6 0.6 0 0 1 -0.289 0.096c-6.596 2.234 -12.951 5.574 -19.14 10.043 -6.908 4.985 -10.416 8.938 -10.428 11.749 -0.024 4.072 5.683 7.916 5.743 7.952 0.276 0.18 0.349 0.553 0.168 0.817a0.6 0.6 0 0 1 -0.492 0.264zM84.27 26.669c0.601 0 1.202 0 1.815 0.024 25.351 0.613 37.017 20.29 39.852 25.972 3.653 -14.103 7.053 -28.495 0.529 -38.454 -4.121 -6.294 -11.87 -10.27 -23.681 -12.145C92.574 0.444 83.971 2.15 77.231 7.148c-9.684 7.172 -12.736 19.16 -13.433 22.644 6.56 -2.09 13.349 -3.135 20.473 -3.135z"
            fill="#010101" />
        <path
            d="M161.887 79.947s-0.109 0 -0.169 -0.024a0.587 0.587 0 0 1 -0.396 -0.733c6.055 -20.386 8.903 -41.841 -11.162 -60.594C130.12 -0.132 92.694 1.454 92.321 1.478a0.6 0.6 0 0 1 -0.624 -0.565 0.61 0.61 0 0 1 0.564 -0.625c0.385 -0.012 38.291 -1.633 58.704 17.443 20.533 19.185 17.65 41.037 11.486 61.795a0.59 0.59 0 0 1 -0.564 0.42"
            fill="#010101" />
        <path
            d="M139.215 94.35h-0.036c-3.653 -0.048 -13.517 -8.769 -14.718 -10.967 -1.382 -2.535 0.793 -26.321 1.045 -29.024a0.61 0.61 0 0 1 0.649 -0.54 0.61 0.61 0 0 1 0.54 0.648c-0.937 10.08 -2.09 26.681 -1.177 28.351 1.165 2.126 10.765 10.307 13.697 10.355 0.3 0 0.372 -0.096 0.396 -0.144 1.214 -2.078 1.851 -11.977 1.983 -15.617 0.012 -0.324 0.312 -0.589 0.612 -0.565a0.59 0.59 0 0 1 0.565 0.613c-0.024 0.54 -0.528 13.407 -2.15 16.17 -0.193 0.336 -0.601 0.72 -1.406 0.72"
            fill="#010101" />
        <path
            d="M142.158 110.592a0.59 0.59 0 0 1 -0.576 -0.432 0.6 0.6 0 0 1 0.42 -0.733c0.217 -0.06 5.299 -1.514 5.299 -6.319 0 -1.273 -0.361 -2.174 -1.058 -2.691 -1.189 -0.877 -3.207 -0.517 -3.892 -0.3a0.63 0.63 0 0 1 -0.505 -0.072 0.61 0.61 0 0 1 -0.264 -0.433c-0.024 -0.216 -0.493 -5.213 3.652 -9.586 1.706 -1.802 4.073 -2.655 6.656 -2.415 3.425 0.325 6.861 2.559 8.951 5.826a0.585 0.585 0 0 1 -0.18 0.817 0.585 0.585 0 0 1 -0.817 -0.18c-1.91 -2.967 -4.998 -4.997 -8.074 -5.286 -1.562 -0.144 -3.82 0.085 -5.683 2.043 -2.895 3.063 -3.316 6.523 -3.352 7.964 1.021 -0.18 2.86 -0.336 4.193 0.661 1.022 0.745 1.538 1.982 1.538 3.64 0 5.73 -6.115 7.448 -6.175 7.46a0.7 0.7 0 0 1 -0.157 0.024z"
            fill="#010101" />
        <path
            d="M75.609 108.37s-0.096 0 -0.145 -0.012c-0.168 -0.048 -0.432 -0.084 -0.769 -0.144 -2.162 -0.385 -6.656 -1.19 -8.242 -4.337 -0.889 -1.778 -0.684 -3.989 0.613 -6.583 2.03 -4.049 4.77 -4.385 6.969 -4.65 1.622 -0.192 2.895 -0.348 3.724 -1.825 2.199 -3.953 3.64 -15.245 2.535 -19.81a0.61 0.61 0 0 1 0.433 -0.72 0.595 0.595 0 0 1 0.72 0.432c1.178 4.853 -0.312 16.446 -2.654 20.662 -1.118 2.006 -2.896 2.223 -4.614 2.427 -2.115 0.252 -4.313 0.516 -6.056 4 -1.117 2.235 -1.321 4.097 -0.612 5.526 1.321 2.619 5.418 3.352 7.389 3.7 0.36 0.06 0.648 0.12 0.84 0.168a0.596 0.596 0 0 1 0.433 0.721 0.6 0.6 0 0 1 -0.576 0.445z"
            fill="#010101" />
        <path
            d="M76.197 91.888c-3.304 0 -8.014 -0.973 -9.972 -2.054 -0.504 -0.277 -0.853 -0.805 -1.033 -1.562 -0.793 -3.316 1.79 -11.316 4.373 -15.089 1.586 -2.318 4.17 -3.628 6.74 -3.423 2.403 0.192 4.41 1.67 5.527 4.048 0.144 0.3 0 0.649 -0.288 0.793 -0.3 0.132 -0.649 0 -0.793 -0.288 -0.925 -1.982 -2.583 -3.22 -4.542 -3.376 -2.138 -0.18 -4.313 0.937 -5.659 2.907 -2.343 3.436 -4.902 11.196 -4.193 14.14 0.072 0.288 0.204 0.66 0.457 0.792 2.247 1.238 8.723 2.379 11.342 1.718a0.59 0.59 0 0 1 0.72 0.433 0.59 0.59 0 0 1 -0.432 0.72c-0.6 0.145 -1.37 0.217 -2.235 0.217z"
            fill="#010101" />
        <path
            d="M103.819 98.207c-0.444 0 -0.889 -0.024 -1.321 -0.072a60 60 0 0 0 -1.887 -0.157c-3.808 -0.264 -9.023 -0.636 -8.915 -5.778v-0.817c0.109 -5.141 0.229 -11.532 3.905 -14.692 1.85 -1.585 4.422 -2.174 7.666 -1.742 9.936 1.31 8.915 13.84 8.59 17.948 -0.036 0.372 -0.06 0.673 -0.06 0.889 -0.036 0.84 -0.48 1.658 -1.285 2.342 -1.502 1.286 -4.122 2.079 -6.681 2.079zm-2.547 -22.224c-2.03 0 -3.64 0.528 -4.89 1.597 -3.268 2.811 -3.388 8.914 -3.472 13.815v0.817c-0.096 3.736 3.172 4.253 7.798 4.577a67 67 0 0 1 1.934 0.156c2.607 0.289 5.587 -0.432 7.101 -1.73 0.384 -0.336 0.853 -0.853 0.877 -1.501 0 -0.216 0.036 -0.54 0.072 -0.937 0.312 -3.832 1.261 -15.51 -7.557 -16.674a15 15 0 0 0 -1.851 -0.132z"
            fill="#010101" />
        <path
            d="M62.128 68.258c-0.228 0 -0.396 -0.06 -0.54 -0.132 -0.217 -0.108 -0.565 -0.396 -0.541 -1.07 0.084 -2.414 5.923 -10.054 8.542 -11.195 4.422 -1.934 10.693 -4.24 14.13 -1.946 1.31 0.877 1.862 3.147 1.814 4.997 -0.048 2.018 -0.721 3.556 -1.838 4.229 -0.89 0.528 -2.055 0.276 -3.533 -0.036 -3.088 -0.661 -7.75 -1.646 -14.177 3.11 -2.163 1.599 -3.232 2.043 -3.869 2.043zm17.914 -14.115c-3.568 0 -8.17 2.018 -9.972 2.799 -2.571 1.117 -7.786 8.625 -7.846 10.115 0.277 -0.048 1.082 -0.325 3.064 -1.79 6.86 -5.082 12.039 -3.988 15.127 -3.328 1.225 0.265 2.198 0.469 2.679 0.18 0.745 -0.444 1.225 -1.681 1.261 -3.243 0.036 -1.754 -0.516 -3.472 -1.285 -3.988 -0.805 -0.541 -1.862 -0.757 -3.028 -0.757z"
            fill="#010101" />
        <path
            d="M115.053 73.46h-0.156c-0.901 -0.132 -1.586 -0.805 -2.523 -1.73 -0.985 -0.985 -2.343 -2.319 -4.566 -3.532 -4.109 -2.246 -13.42 -2.727 -15.51 -2.727 -0.493 0 -0.902 -0.216 -1.154 -0.613 -1.022 -1.585 0.937 -6.415 2.198 -9.154a0.58 0.58 0 0 1 0.781 -0.288c0.3 0.132 0.433 0.493 0.289 0.781 -1.79 3.904 -2.752 7.268 -2.271 8.013 0.024 0.036 0.036 0.06 0.156 0.06 2.283 0 11.702 0.492 16.076 2.87 2.367 1.298 3.796 2.704 4.83 3.737 0.709 0.709 1.249 1.237 1.73 1.37 0.204 -1.034 -1.49 -5.755 -6.596 -9.599a0.591 0.591 0 1 1 0.709 -0.949c5.466 4.12 7.605 9.538 6.944 11.112 -0.168 0.408 -0.516 0.649 -0.937 0.649"
            fill="#010101" />
        <path
            d="M74.984 121.452c-1.01 0 -2.079 -0.024 -3.184 -0.084a0.6 0.6 0 0 1 -0.565 -0.625 0.59 0.59 0 0 1 0.625 -0.564c19.452 0.997 22.24 -7.376 23.897 -12.386 0.144 -0.444 0.289 2.379 0.42 1.994a0.594 0.594 0 0 1 1.118 0.397c-0.132 0.372 -0.276 -2.463 -0.408 -2.031 -1.67 5.034 -4.41 13.275 -21.903 13.275z"
            fill="#010101" />
        <path
            d="M98.04 97.75a0.6 0.6 0 0 1 -0.576 -0.444c-0.036 -0.144 -0.901 -3.64 1.153 -10.956 0.769 -2.727 2.211 -4.433 4.277 -5.058 3.124 -0.937 6.837 0.95 8.567 2.451a0.593 0.593 0 0 1 0.06 0.84 0.59 0.59 0 0 1 -0.841 0.06c-1.478 -1.272 -4.806 -3.002 -7.449 -2.21 -1.658 0.505 -2.824 1.923 -3.485 4.241 -1.97 7.016 -1.153 10.307 -1.141 10.331a0.593 0.593 0 0 1 -0.42 0.721c-0.049 0.012 -0.097 0.024 -0.157 0.024z"
            fill="#010101" />
        <path
            d="M69.193 90.903a0.58 0.58 0 0 1 -0.577 -0.48c-0.468 -2.391 0.24 -7.833 2.728 -11.401 1.37 -1.97 3.291 -3.148 5.262 -3.232 1.79 -0.072 3.448 0.721 4.734 2.259a0.604 0.604 0 0 1 -0.072 0.84 0.605 0.605 0 0 1 -0.841 -0.071c-1.034 -1.238 -2.38 -1.886 -3.761 -1.838 -1.598 0.072 -3.184 1.057 -4.337 2.727 -2.38 3.423 -2.908 8.577 -2.535 10.499a0.59 0.59 0 0 1 -0.469 0.697h-0.132"
            fill="#010101" />
        <path
            d="M106.967 93.918c-1.454 0 -2.595 -1.754 -2.595 -4s1.141 -4 2.595 -4 2.595 1.753 2.595 4 -1.141 4 -2.595 4m0 -6.811c-0.661 0 -1.405 1.153 -1.405 2.81s0.744 2.812 1.405 2.812 1.406 -1.154 1.406 -2.811 -0.745 -2.811 -1.406 -2.811"
            fill="#010101" />
        <path
            d="M76.846 87.107c-1.357 0 -2.463 -1.358 -2.463 -3.028s1.106 -3.027 2.463 -3.027c1.358 0 2.463 1.357 2.463 3.027s-1.105 3.028 -2.463 3.028m0 -4.878c-0.697 0 -1.285 0.841 -1.285 1.85s0.588 1.85 1.285 1.85 1.286 -0.84 1.286 -1.85c0 -1.009 -0.589 -1.85 -1.286 -1.85"
            fill="#010101" />
        <path
            d="M115.978 179.331c-0.348 0 -0.625 -0.036 -0.805 -0.12 -2.391 -1.118 -8.59 -15.053 -7.809 -18.945 0.252 -1.237 1.057 -1.441 1.514 -1.466 4.012 -0.156 24.329 -7.808 24.798 -9.91 0.168 -0.781 0.469 -3.496 0.829 -7.004v-0.048c0.024 -0.18 0.036 -0.372 0.06 -0.553 0.865 -8.192 2.163 -20.566 3.641 -25.359a0.595 0.595 0 0 1 0.744 -0.397 0.6 0.6 0 0 1 0.397 0.745c-1.442 4.649 -2.715 16.819 -3.58 24.963 3.436 -0.24 7.244 2.067 10.813 6.596 3.316 4.216 5.899 9.85 5.214 11.352 -4.049 8.926 -20.257 15.497 -25.123 17.299 -3.977 1.465 -8.638 2.847 -10.693 2.847m19.656 -36.88c-0.36 3.435 -0.624 5.898 -0.805 6.703 -0.396 1.79 -6.644 4.553 -11.822 6.559 -5.19 2.018 -11.895 4.193 -14.093 4.289 -0.109 0 -0.301 0 -0.397 0.516 -0.721 3.592 5.503 16.867 7.149 17.636 0.841 0.3 7.906 -1.31 16.388 -5.13 5.707 -2.571 15.715 -7.845 18.647 -14.296 0.324 -0.804 -1.706 -6.078 -5.515 -10.691 -1.898 -2.307 -5.599 -6.007 -9.552 -5.562z"
            fill="#010101" />
        <path
            d="M80.33 178.61a1.7 1.7 0 0 1 -0.684 -0.156c-3.148 -1.406 -8.555 -14.632 -8.423 -17.071 0.096 -1.79 3.208 -6.955 7.281 -10.439 2.631 -2.247 5.25 -3.424 7.618 -3.424 -0.145 -1.369 -0.349 -2.318 -0.36 -2.33a0.59 0.59 0 0 1 0.456 -0.709 0.59 0.59 0 0 1 0.709 0.456c0.048 0.217 1.189 5.49 -0.012 9.443 -0.733 2.414 1.201 4.481 2.763 6.138 0.709 0.745 1.261 1.334 1.514 1.898 1.01 2.211 -8.146 14.02 -9.912 15.786a1.32 1.32 0 0 1 -0.962 0.408zm5.804 -29.901c-2.596 0 -5.13 1.67 -6.849 3.148 -3.905 3.328 -6.788 8.217 -6.86 9.598 -0.132 2.307 5.274 14.824 7.713 15.918 0.204 0.096 0.265 0.048 0.313 -0.012 2.751 -2.751 9.972 -13.011 9.66 -14.476 -0.169 -0.361 -0.71 -0.937 -1.286 -1.55 -1.586 -1.682 -3.977 -4.228 -3.04 -7.292 0.505 -1.67 0.553 -3.652 0.445 -5.321h-0.096z"
            fill="#010101" />
        <path
            d="M89.558 221.653a0.68 0.68 0 0 1 -0.625 -0.409c-0.373 -0.865 0.132 -5.093 1.766 -17.959 0.613 -4.805 1.31 -10.259 1.959 -15.857 2.078 -17.612 10.488 -22.657 14.633 -28.039 0.217 -0.288 0.493 -0.613 0.781 -0.396 0.289 0.228 0.313 0.624 0.109 0.925 -4.482 6.595 -12.34 11.64 -14.226 27.654 -0.66 5.598 -1.358 11.052 -1.958 15.869 -1.07 8.421 -2.079 16.386 -1.85 17.299a0.644 0.644 0 0 1 -0.601 0.901z"
            fill="#010101" />
        <path
            d="M129.711 208.294c-4.385 0 -11.282 -11.388 -11.642 -14.788 -0.361 -3.424 4.83 -13.695 6.644 -17.407a0.66 0.66 0 0 1 0.889 -0.3 0.67 0.67 0 0 1 0.301 0.889c-1.923 3.928 -6.837 13.731 -6.524 16.686 0.336 3.159 6.896 13.599 10.308 13.599h0.072c3.521 -0.144 12.003 -7.544 14.682 -11.124 0.829 -1.105 0.817 -4.097 0.805 -7.544 -0.024 -5.719 -0.048 -5.142 3.797 -10.812 6.512 -9.611 13.18 -9.911 17.638 -9.298 0.42 0.06 0.54 -0.024 0.54 -0.024 0.024 -0.048 0.036 -0.373 -0.288 -1.045 -1.478 -3.1 -11.318 -7.473 -15.631 -8.446a0.653 0.653 0 0 1 -0.493 -0.793 0.653 0.653 0 0 1 0.793 -0.492c5.479 1.249 17.445 8.121 16.917 11.004 -0.06 0.312 -0.373 1.333 -2.019 1.105 -4.445 -0.613 -10.332 -0.18 -16.364 8.722 -3.616 5.333 -3.592 4.216 -3.568 10.067 0.012 3.844 0.024 6.883 -1.069 8.349 -2.451 3.279 -11.366 11.472 -15.68 11.652z"
            fill="#010101" />
        <path
            d="M131.393 201.122c-4.481 0 -8.122 -3.64 -8.122 -8.12 0 -4.481 3.641 -11.725 8.122 -11.725 4.482 0 8.122 7.244 8.122 11.725s-3.64 8.12 -8.122 8.12m0 -14.932c-3.748 0 -6.812 3.052 -6.812 6.812a6.814 6.814 0 0 0 6.812 6.811 6.814 6.814 0 0 0 6.813 -6.811 6.815 6.815 0 0 0 -6.813 -6.812"
            fill="#010101" />
        <path
            d="M68.388 206.829c-0.709 0 -1.934 -0.457 -4.385 -2.956 -3.7 -3.784 -9.083 -11.304 -8.639 -13.526 0.469 -2.367 11.93 -28.303 14.586 -31.715 3.94 -5.069 5.37 -4.144 5.659 -3.916s-1.862 1.55 -4.626 4.733c-2.607 3.003 -13.817 28.591 -14.321 31.15 -0.253 1.273 4.145 8.109 8.278 12.337 2.619 2.679 3.46 2.559 3.496 2.559 2.607 -0.456 8.314 -5.814 8.314 -9.082 0 -3.796 2.451 -12.866 4.47 -19.485a0.65 0.65 0 0 1 0.829 -0.432c0.348 0.108 0.54 0.48 0.432 0.829 -2.15 7.051 -4.41 15.737 -4.41 19.1 0 3.929 -6.295 9.839 -9.395 10.392 -0.084 0.012 -0.18 0.024 -0.288 0.024z"
            fill="#010101" />
        <path
            d="M68.64 197.074c-4.229 0 -7.677 -3.88 -7.677 -8.637s3.448 -12.242 7.677 -12.242c4.23 0 7.678 7.485 7.678 12.242s-3.448 8.637 -7.678 8.637m0 -19.557c-3.508 0 -6.355 6.883 -6.355 10.92 0 4.036 2.847 7.316 6.355 7.316s6.356 -3.28 6.356 -7.316c0 -4.037 -2.847 -10.92 -6.356 -10.92"
            fill="#010101" />
        <path
            d="M93.955 221.737c-12.387 0 -16.16 -1.694 -17.854 -3.196 -1.441 -1.273 -1.49 -2.691 -1.525 -3.724 0 -0.3 -0.025 -0.564 -0.06 -0.781 -0.47 -2.234 1.573 -14.451 1.814 -15.845 0.06 -0.36 0.396 -0.6 0.757 -0.54 0.36 0.06 0.6 0.396 0.54 0.756 -0.9 5.346 -2.138 13.84 -1.814 15.353 0.072 0.312 0.084 0.649 0.096 0.997 0.036 0.925 0.06 1.886 1.081 2.775 3.46 3.064 16.268 3.664 38.099 1.778 1.045 -1.201 3.208 -11.845 4.722 -21.635a0.67 0.67 0 0 1 0.757 -0.553c0.36 0.06 0.601 0.397 0.553 0.757 -3.485 22.548 -5.215 22.693 -5.78 22.741 -9.071 0.78 -16.015 1.105 -21.362 1.105z"
            fill="#010101" />
        <path
            d="M155.206 264.395c-2.871 0 -7.341 -1.369 -10.885 -3.964 -2.787 -2.042 -6.115 -17.659 -6.115 -23.257 0 -3.496 2.138 -34.622 3.82 -38.562a0.657 0.657 0 0 1 0.865 -0.349 0.657 0.657 0 0 1 0.349 0.865c-1.574 3.7 -3.725 34.61 -3.725 38.046 0 5.033 3.04 20.326 5.575 22.188 4.169 3.051 9.528 4.144 11.39 3.556a0.661 0.661 0 1 1 0.396 1.261c-0.456 0.144 -1.021 0.216 -1.682 0.216z"
            fill="#010101" />
        <path
            d="M186.889 198.395a0.66 0.66 0 0 1 -0.601 -0.384c-3.448 -7.532 -17.914 -27.402 -20.004 -28.579a0.68 0.68 0 0 1 -0.264 -0.901 0.65 0.65 0 0 1 0.889 -0.264c2.931 1.561 18.863 25.431 20.593 29.191a0.664 0.664 0 0 1 -0.601 0.937z"
            fill="#010101" />
        <path
            d="M194.975 233.053a0.66 0.66 0 0 1 -0.625 -0.444 0.657 0.657 0 0 1 0.409 -0.841c2.715 -0.961 9.528 -5.959 10.128 -9.707 0.349 -2.198 -3.039 -5.742 -5.514 -8.325 -2.175 -2.282 -3.413 -3.616 -3.569 -4.673a78 78 0 0 1 -0.18 -1.61c-0.312 -3.087 -1.057 -10.307 -3.088 -11.292 -1.502 -0.733 -7.966 3.111 -11.834 5.406 -2.692 1.598 -5.022 2.979 -6.32 3.412a0.646 0.646 0 0 1 -0.829 -0.421 0.646 0.646 0 0 1 0.42 -0.829c1.154 -0.384 3.545 -1.802 6.056 -3.291 6.416 -3.796 11.102 -6.415 13.084 -5.454 2.487 1.201 3.28 7.003 3.821 12.337 0.072 0.661 0.12 1.201 0.168 1.562 0.096 0.697 1.754 2.426 3.208 3.952 2.955 3.1 6.32 6.607 5.863 9.454 -0.709 4.457 -8.074 9.719 -10.994 10.752a0.7 0.7 0 0 1 -0.216 0.036z"
            fill="#010101" />
        <path
            d="M182.336 345.892q-0.559 0 -1.154 -0.072h-0.156a0.7 0.7 0 0 1 -0.589 -0.745 0.67 0.67 0 0 1 0.733 -0.589l0.168 0.024c4.662 0.565 8.279 -2.955 10.742 -10.463 2.559 -7.797 -1.586 -13.695 -4.326 -17.599 -1.598 -2.271 -2.643 -3.772 -1.934 -4.974 1.346 -2.234 6.368 -5.922 8.566 -37.3 1.971 -28.231 -1.537 -44.28 -1.682 -44.436 -0.24 -0.253 -0.252 -0.673 0 -0.925a0.644 0.644 0 0 1 0.902 -0.049c0.432 0.373 4.133 16.518 2.114 45.506 -2.09 29.96 -7.101 35.15 -8.747 37.889 -0.276 0.469 0.865 2.09 1.875 3.532 2.715 3.868 7.269 10.355 4.505 18.776 -2.487 7.593 -6.187 11.425 -11.005 11.425z"
            fill="#010101" />
        <path
            d="M169.576 350.192c-1.466 0 -1.983 -0.432 -2.163 -0.744a0.66 0.66 0 0 1 0.228 -0.901 0.66 0.66 0 0 1 0.841 0.144c0.145 0.084 1.658 0.829 8.279 -1.526 10.512 -3.76 6.235 -20.158 6.187 -20.326a0.65 0.65 0 0 1 0.469 -0.805 0.65 0.65 0 0 1 0.805 0.469c0.048 0.18 4.625 17.755 -7.017 21.911 -3.845 1.37 -6.187 1.79 -7.629 1.79z"
            fill="#010101" />
        <path
            d="M161.19 353.039c-0.853 0 -1.754 -0.108 -2.679 -0.324 -2.98 -0.697 -5.491 -3.568 -5.599 -3.688a0.65 0.65 0 0 1 0.072 -0.925c0.276 -0.228 0.697 -0.204 0.925 0.06 0.024 0.024 2.343 2.667 4.902 3.268 2.775 0.66 5.214 0.192 7.233 -1.382 6.764 -5.262 7.137 -21.095 7.137 -21.263 0 -0.36 0.3 -0.649 0.66 -0.649h0.012c0.361 0 0.649 0.313 0.649 0.673 -0.012 0.673 -0.384 16.626 -7.653 22.272 -1.67 1.298 -3.569 1.946 -5.671 1.946z"
            fill="#010101" />
        <path
            d="M154.87 241.799a0.65 0.65 0 0 1 -0.541 -0.289 0.656 0.656 0 0 1 0.168 -0.913c10.177 -7.075 37.787 -12.493 42.364 -12.001a0.67 0.67 0 0 1 0.589 0.733 0.67 0.67 0 0 1 -0.733 0.589c-4.361 -0.481 -31.743 4.997 -41.463 11.76a0.62 0.62 0 0 1 -0.372 0.121z"
            fill="#010101" />
        <path
            d="M145.943 353.592c-2.09 0 -3.724 -0.541 -3.845 -0.577a0.65 0.65 0 0 1 -0.444 -0.672 0.664 0.664 0 0 1 0.528 -0.601c1.058 -0.204 3.917 -1.093 4.458 -2.727 0.3 -0.913 -0.132 -2.03 -1.31 -3.316 -0.841 -0.925 -1.67 -1.297 -2.547 -1.129 -2.739 0.505 -5.406 5.995 -6.211 8.073 -0.097 0.264 -0.337 0.444 -0.625 0.42 -0.072 0 -7.413 -0.144 -9.348 0 -2.306 0.145 -24.089 -3.916 -26.96 -5.682 -3.1 -1.922 -0.205 -10.067 0.408 -11.688a0.66 0.66 0 0 1 0.613 -0.421h0.024l8.614 0.252c0.361 0 0.637 0.301 0.637 0.661v2.511c3.16 -0.192 16.1 -0.973 19.632 -1.129 1.598 -0.072 2.295 -1.418 2.415 -2.643 0.156 -1.67 -0.661 -3.592 -2.535 -4.049 -2.319 -0.552 -10.922 0.145 -17.83 0.709 -2.631 0.216 -5.106 0.421 -6.945 0.529 -2.354 0.144 -2.979 0.084 -3.292 0 -2.054 -0.517 -1.357 -4.433 -0.793 -7.569 0.157 -0.84 0.289 -1.645 0.289 -1.982 0 -0.504 0 -1.669 11.077 -4.781 6.861 -1.922 13.805 -3.351 18.575 -3.796 7.509 -0.709 12.447 2.078 14.79 3.892 -0.216 -1.465 -0.276 -3.435 0.517 -5.021 3.016 -6.031 6.32 -7.208 8.747 -8.073 1.67 -0.589 2.583 -0.925 2.919 -2.499 0.949 -4.445 0.469 -16.818 -0.709 -27.101 -1.165 -10.199 -0.18 -34.886 0 -35.751a0.663 0.663 0 0 1 1.298 0.276c-0.108 0.589 -1.165 25.012 0 35.319 1.213 10.643 1.682 22.885 0.685 27.522 -0.493 2.294 -2.079 2.859 -3.773 3.459 -2.331 0.829 -5.226 1.862 -8.002 7.412 -0.805 1.61 -0.504 3.845 -0.228 5.106a3.9 3.9 0 0 1 1.262 -0.469c1.622 -0.288 3.556 0.361 5.731 1.959 5.274 3.856 5.587 15.136 5.599 15.617a0.66 0.66 0 0 1 -0.541 0.66c-0.132 0.024 -3.412 0.709 -3.34 4.277 0.108 5.478 -1.262 9.298 -4.061 11.352 -1.766 1.298 -3.809 1.658 -5.527 1.658zm-1.009 -1.369c1.67 0.144 3.917 0 5.755 -1.358 2.427 -1.79 3.616 -5.238 3.52 -10.259 -0.06 -3.34 2.247 -4.937 3.857 -5.454 -0.132 -2.234 -0.889 -11.028 -5.034 -14.067 -1.826 -1.334 -3.436 -1.934 -4.674 -1.73 -0.937 0.156 -1.334 0.721 -1.358 0.745 0 0 0 0.012 -0.012 0.024a0.6 0.6 0 0 1 -0.204 0.18 0.68 0.68 0 0 1 -0.829 -0.132c-0.048 -0.06 -5.274 -5.839 -15.283 -4.89 -10.452 0.986 -26.961 5.959 -28.463 7.425 -0.024 0.468 -0.156 1.177 -0.312 2.054 -0.697 3.88 -0.757 5.922 -0.18 6.066 0.156 0.036 0.745 0.084 2.895 -0.036 1.815 -0.108 4.29 -0.312 6.909 -0.516 7.377 -0.601 15.727 -1.286 18.25 -0.673 2.607 0.625 3.761 3.219 3.545 5.454 -0.217 2.246 -1.658 3.748 -3.665 3.844 -3.989 0.18 -20.149 1.153 -20.305 1.165a0.68 0.68 0 0 1 -0.492 -0.18 0.65 0.65 0 0 1 -0.205 -0.48v-2.571l-7.509 -0.216c-1.297 3.579 -2.33 8.697 -0.793 9.658 2.511 1.55 24.114 5.658 26.168 5.49 1.718 -0.132 7.353 -0.036 9.011 0 0.709 -1.706 3.497 -7.808 7.029 -8.457 1.346 -0.252 2.607 0.264 3.773 1.55 1.513 1.669 2.042 3.231 1.573 4.625 -0.444 1.333 -1.742 2.222 -2.967 2.787z"
            fill="#010101" />
        <path
            d="M155.038 244.982c-1.754 0 -3.917 -0.697 -4.782 -4.529 -1.141 -5.081 -0.576 -10.391 0 -12.181 -0.108 -0.553 -1.706 -2.283 -2.883 -3.544 -3.172 -3.424 -5.371 -5.994 -4.698 -7.76 0.721 -1.886 6.536 -3.833 14.682 -6.367 2.655 -0.829 5.395 -1.682 5.875 -2.018a0.67 0.67 0 0 1 0.925 0.168c0.205 0.3 0.132 0.708 -0.168 0.925 -0.625 0.432 -2.571 1.057 -6.236 2.198 -4.649 1.454 -13.288 4.145 -13.841 5.586 -0.432 1.141 2.608 4.421 4.434 6.391 2.379 2.571 3.508 3.844 3.184 4.805 -0.397 1.19 -1.154 6.319 0.024 11.521 0.901 3.976 3.124 3.64 4.902 3.364 0.216 -0.037 0.42 -0.061 0.601 -0.085a0.66 0.66 0 0 1 0.132 1.31c-0.156 0.012 -0.337 0.048 -0.541 0.072a10 10 0 0 1 -1.622 0.156z"
            fill="#010101" />
        <path
            d="M149.439 214.565a0.67 0.67 0 0 1 -0.625 -0.456c-0.949 -2.872 -4.024 -12.35 -3.58 -13.839a0.665 0.665 0 0 1 0.817 -0.445 0.656 0.656 0 0 1 0.445 0.817c-0.181 0.889 1.67 7.34 3.568 13.046a0.646 0.646 0 0 1 -0.421 0.829 0.7 0.7 0 0 1 -0.204 0.036z"
            fill="#010101" />
        <path
            d="M171.366 219.022a0.67 0.67 0 0 1 -0.613 -0.409 0.673 0.673 0 0 1 0.361 -0.865c24.234 -9.826 28.234 -5.958 28.391 -5.79a0.654 0.654 0 0 1 -0.036 0.937 0.65 0.65 0 0 1 -0.89 0.012c-0.168 -0.108 -4.709 -2.955 -26.973 6.067a0.6 0.6 0 0 1 -0.252 0.048z"
            fill="#010101" />
        <path
            d="M150.905 229.089s-0.108 0 -0.168 -0.024a0.66 0.66 0 0 1 -0.469 -0.805c0.061 -0.216 0.097 -0.433 0.145 -0.649 0.528 -2.523 1.177 -5.658 15.931 -11.352a0.66 0.66 0 0 1 0.853 0.372 0.66 0.66 0 0 1 -0.372 0.853c-14.081 5.43 -14.682 8.289 -15.115 10.391a8 8 0 0 1 -0.168 0.721 0.66 0.66 0 0 1 -0.637 0.493"
            fill="#010101" />
        <path
            d="M50.57 264.287c0 -0.661 -0.54 -0.18 -0.625 -0.456 -0.96 -3.004 -9.227 -22.177 -2.246 -24.892 5.418 -2.102 9.19 -31.618 9.864 -43.559 0.024 -0.36 0.312 -0.661 0.697 -0.624 0.36 0.024 0.636 0.336 0.624 0.696 -0.024 0.421 -2.931 41.698 -10.693 44.725 -4.385 1.706 -0.468 12.385 3.028 23.257a0.665 0.665 0 0 1 -0.625 0.865z"
            fill="#010101" />
        <path
            d="M63.125 285.01c-0.949 0 -1.826 -0.289 -2.547 -0.841 -0.733 -0.565 -2.162 -1.454 -3.808 -2.487 -6.236 -3.868 -11.426 -7.304 -11.871 -10.031 -0.444 -2.715 -1.261 -7.76 3.905 -8.673 4.361 -0.781 14.922 2.787 19.74 7.496 1.959 1.91 2.8 3.808 2.523 5.67 -0.733 4.793 -3.508 7.508 -5.863 8.445 -0.709 0.276 -1.406 0.421 -2.067 0.421zm-14.201 -21.384 0.12 0.649c-3.256 0.577 -3.496 3.063 -2.835 7.16 0.384 2.354 7.197 6.595 11.27 9.118 1.681 1.045 3.135 1.946 3.928 2.558 0.841 0.649 2.055 0.745 3.316 0.241 1.923 -0.769 4.398 -3.172 5.047 -7.424 0.216 -1.406 -0.505 -2.931 -2.14 -4.529 -4.493 -4.385 -14.597 -7.845 -18.586 -7.136l-0.12 -0.649z"
            fill="#010101" />
        <path
            d="M58.32 296.314h-0.505c-9.408 -0.349 -18.082 -6.559 -21.038 -12.35 -1.237 -2.438 -0.865 -5.177 1.021 -7.52 2.26 -2.799 6.176 -4.421 8.903 -3.7a0.66 0.66 0 0 1 0.469 0.805 0.66 0.66 0 0 1 -0.805 0.469c-2.223 -0.589 -5.611 0.865 -7.545 3.255 -0.913 1.129 -2.235 3.424 -0.877 6.091 2.787 5.466 10.993 11.304 19.92 11.628 2.571 0.084 4.385 -0.612 5.383 -2.114 1.694 -2.535 0.72 -6.655 -0.013 -8.241a0.664 0.664 0 0 1 0.325 -0.877c0.336 -0.156 0.72 0 0.877 0.325 0.985 2.15 1.838 6.631 -0.084 9.526 -1.202 1.802 -3.22 2.703 -6.032 2.703"
            fill="#010101" />
        <path
            d="M55.46 308.219c-4.626 0 -15.102 -5.358 -19.968 -9.19 -2.343 -1.838 -2.692 -2.763 -2.752 -3.304 -0.216 -1.934 -0.276 -5.49 1.742 -7.664 1.19 -1.286 2.92 -1.898 5.107 -1.85 0.36 0 0.648 0.312 0.636 0.685 0 0.36 -0.312 0.636 -0.684 0.636 -1.803 -0.06 -3.184 0.421 -4.097 1.418 -1.659 1.79 -1.586 4.925 -1.394 6.631 0 0.072 0.144 0.757 2.247 2.415 5.214 4.096 16.063 9.346 19.596 8.877 1.862 -0.24 3.268 -1.766 3.772 -4.084 0.48 -2.223 0 -5.226 -2.186 -6.571a0.663 0.663 0 1 1 0.696 -1.129c2.728 1.681 3.364 5.321 2.788 7.976 -0.613 2.847 -2.487 4.805 -4.89 5.118a5 5 0 0 1 -0.613 0.036"
            fill="#010101" />
        <path
            d="M37.366 284.313a0.67 0.67 0 0 1 -0.48 -0.204c-0.253 -0.265 -25.46 -19.81 -32.573 -38.61a94 94 0 0 0 -0.612 -1.586c-1.923 -4.937 -4.83 -12.41 -3.232 -15.749 1.754 -3.688 21.782 -20.939 23.97 -22.513a0.66 0.66 0 0 1 0.924 0.157c0.216 0.3 0.144 0.708 -0.156 0.925 -2.319 1.669 -21.999 18.752 -23.549 22.007 -1.346 2.824 1.55 10.272 3.268 14.704 0.228 0.577 0.433 1.118 0.613 1.598 7.017 18.56 32.043 37.901 32.296 38.178a0.664 0.664 0 0 1 -0.025 0.937 0.67 0.67 0 0 1 -0.456 0.18z"
            fill="#010101" />
        <path
            d="M45.283 267.591c-0.252 0 0.71 -0.397 0.601 -0.637 -0.408 -0.925 -0.937 -2.283 -1.598 -4.012 -2.763 -7.148 -7.906 -32.472 -12.711 -33.865 -6.032 -1.742 -13.781 0 -13.865 0a0.66 0.66 0 0 1 -0.793 -0.493 0.66 0.66 0 0 1 0.492 -0.793c0.325 -0.072 8.158 -1.826 14.526 0 5.43 1.574 14.958 37.962 14.274 37.277 -1.226 -1.213 -0.18 0.637 -0.517 0.781 -0.084 0.036 -0.325 1.742 -0.409 1.742"
            fill="#010101" />
        <path
            d="M56.902 209.447a0.6 0.6 0 0 1 -0.457 -0.192c-0.589 -0.564 -2.27 -2.294 -4.601 -4.685 -5.924 -6.078 -16.737 -19.557 -18.707 -20.903 -1.839 -1.249 -2.74 4.049 -2.8 4.205 -1.802 4.012 -1.165 4.457 -1.79 6.847 0.505 1.166 6.272 6.019 9.396 8.65 2.09 1.766 3.748 3.159 4.36 3.796a0.664 0.664 0 0 1 -0.96 0.913c-0.565 -0.589 -2.271 -2.03 -4.254 -3.7 -8.266 -6.968 -10.116 -8.818 -9.852 -9.863 0.025 -0.084 2.26 -12.205 5.01 -13.31a1.72 1.72 0 0 1 1.599 0.144c1.742 1.105 10.32 13.443 18.947 22.296 2.235 2.295 4 4.097 4.577 4.661a0.668 0.668 0 0 1 -0.457 1.141z"
            fill="#010101" />
        <path
            d="M49.597 228.308c-0.144 0 -0.288 -0.024 -0.409 -0.072 -0.697 -0.252 -3.556 -2.847 -9.912 -8.71 -4.517 -4.168 -9.636 -8.889 -10.741 -9.526 -1.19 -0.685 -10.14 -6.715 -10.801 -10.139 -0.132 -0.709 0.084 -1.177 0.3 -1.453 1.442 -1.863 5.803 -3.58 8.435 -3.761 1.129 -0.084 1.946 0.121 2.414 0.577a0.663 0.663 0 0 1 -0.925 0.949c-0.048 -0.048 -0.348 -0.276 -1.405 -0.204 -2.548 0.18 -6.392 1.85 -7.486 3.255 -0.024 0.036 -0.096 0.133 -0.048 0.397 0.469 2.426 7.822 7.88 10.177 9.25 1.237 0.721 5.96 5.081 10.97 9.706 3.916 3.616 8.794 8.109 9.49 8.446h0.037c0.565 0 2.62 -1.742 4.337 -3.724a0.65 0.65 0 0 1 0.925 -0.061c0.277 0.241 0.3 0.661 0.073 0.925 -1.394 1.61 -3.857 4.157 -5.42 4.157z"
            fill="#010101" />
        <path
            d="M55.268 220.319c-0.24 0 -0.493 -0.264 -1.634 -1.441 -1.67 -1.73 -4.782 -4.938 -5.623 -5.61a0.655 0.655 0 0 1 -0.108 -0.925 0.65 0.65 0 0 1 0.925 -0.108c0.841 0.672 3.4 3.303 5.743 5.73 0.553 0.564 1.07 1.105 1.154 1.177l-0.445 0.481 0.204 0.648c-0.084 0.024 -0.156 0.048 -0.228 0.048z"
            fill="#010101" />
        <path
            d="M37.366 234.747a0.66 0.66 0 0 1 -0.553 -0.288 0.66 0.66 0 0 1 0.18 -0.913c3.557 -2.403 8.963 -6.379 10.49 -7.593a0.66 0.66 0 0 1 0.924 0.097 0.663 0.663 0 0 1 -0.096 0.925c-1.694 1.369 -7.233 5.405 -10.573 7.664a0.68 0.68 0 0 1 -0.372 0.108"
            fill="#010101" />
        <path
            d="M35.648 186.058a0.661 0.661 0 0 1 -0.541 -1.045c3.52 -4.998 19.067 -12.77 27.045 -21.035 2.259 -2.342 6.368 -5.238 6.764 -5.682 0.24 -0.276 3.196 -1.826 3.497 -2.03 4.445 -3.004 -1.634 2.378 -1.887 2.643 -0.42 0.468 -5.082 3.543 -7.437 5.982 -7.953 8.241 -23.452 15.965 -26.925 20.879a0.67 0.67 0 0 1 -0.54 0.276z"
            fill="#010101" />
        <path
            d="M70.947 247.613c-0.901 0 -2.139 -0.697 -3.76 -2.126 -3.016 -2.667 -7.63 -8.337 -7.702 -10.812l-0.024 -0.685c-0.084 -2.739 -0.144 -4.721 1.033 -5.91 1.418 -1.418 5.31 -2.823 22.816 1.237 0.204 0.048 0.565 0.204 0.721 0.733 0.505 1.682 -1.754 8.229 -3.448 10.007l-0.469 0.492c-3.34 3.532 -6.74 6.824 -9.023 7.052h-0.156zm-4.914 -19.641c-2.715 0 -4.013 0.468 -4.59 1.045 -0.78 0.781 -0.72 2.619 -0.648 4.937l0.024 0.685c0.048 1.694 3.844 6.847 7.257 9.863 2.018 1.789 2.787 1.802 2.92 1.802 2.102 -0.205 6.367 -4.71 8.181 -6.644l0.48 -0.504c1.515 -1.586 3.34 -7.34 3.173 -8.59 -8.338 -1.922 -13.553 -2.582 -16.773 -2.582z"
            fill="#010101" />
        <path
            d="M70.178 242.171a4.09 4.09 0 0 1 -4.085 -4.084 4.08 4.08 0 0 1 4.085 -4.085 4.08 4.08 0 0 1 4.085 4.085 4.08 4.08 0 0 1 -4.085 4.084m0 -6.847a2.763 2.763 0 1 0 0 5.527 2.763 2.763 0 0 0 0 -5.527"
            fill="#010101" />
        <path
            d="M71.007 259.518c-4.782 0 -10.705 -0.421 -12.039 -2.379 -2.258 -3.339 0.553 -19.485 0.877 -21.323a0.643 0.643 0 0 1 0.77 -0.528c0.36 0.06 0.6 0.408 0.528 0.768 -1.25 6.98 -2.571 18.152 -1.081 20.35 0.156 0.229 0.757 0.793 3.1 1.238 6.32 1.189 17.637 0.276 18.995 -0.457 0.589 -1.706 0.276 -19.821 -0.12 -22.764a0.663 0.663 0 0 1 0.564 -0.745 0.663 0.663 0 0 1 0.745 0.564c0.24 1.778 0.974 22.116 -0.108 23.726 -1.009 1.502 -12.026 1.55 -12.135 1.55h-0.096"
            fill="#010101" />
        <path
            d="M116.17 249.619c-0.42 0 -0.961 -0.192 -1.706 -0.601 -4.073 -2.234 -14.501 -11.292 -15.102 -16.013 -0.06 -0.504 0.024 -1.225 0.829 -1.862 4.529 -3.592 29.076 -0.276 30.085 0.096 0.348 0.132 0.937 0.529 0.997 1.754 0.132 2.943 -3.376 11.196 -14.646 16.53 -0.132 0.06 -0.288 0.096 -0.457 0.096m-5.983 -18.836c-4.265 0 -7.894 0.36 -9.179 1.393 -0.337 0.276 -0.361 0.493 -0.337 0.661 0.589 4.625 13.481 15.353 15.463 15.473 9.36 -4.457 13.373 -11.184 13.793 -14.632 0.096 -0.817 -0.06 -1.153 -0.108 -1.201 -1.153 -0.409 -11.534 -1.682 -19.62 -1.682z"
            fill="#010101" />
        <path
            d="M116.134 243.889c-3.015 0 -5.478 -2.15 -5.478 -4.793s2.463 -4.794 5.478 -4.794c3.016 0 5.479 2.151 5.479 4.794s-2.463 4.793 -5.479 4.793m0 -8.277c-2.294 0 -4.157 1.562 -4.157 3.472s1.863 3.471 4.157 3.471 4.158 -1.561 4.158 -3.471 -1.863 -3.472 -4.158 -3.472"
            fill="#010101" />
        <path
            d="M112.518 263.734c-5.334 0 -10.345 -0.384 -12.063 -1.273 -4.541 -2.318 -0.396 -27.402 -0.336 -27.654a0.653 0.653 0 0 1 0.793 -0.493c0.36 0.085 0.577 0.433 0.492 0.793 -0.684 2.932 -3.388 24.627 -0.348 26.177 3.821 1.946 25.375 1.081 26.769 -0.481 0.492 -1.045 0.877 -8.457 1.093 -21.984 0.012 -0.985 0.024 -1.705 0.036 -2.054 0 -0.36 0.313 -0.625 0.673 -0.637a0.65 0.65 0 0 1 0.637 0.673c0 0.349 -0.024 1.057 -0.036 2.03 -0.168 10.224 -0.445 20.903 -1.25 22.573 -0.192 0.396 -0.624 0.685 -1.393 0.949 -2.548 0.853 -9.023 1.357 -15.079 1.357z"
            fill="#010101" />
        <path
            d="M127.801 289.947h-0.036a0.66 0.66 0 0 1 -0.625 -0.697c0.024 -0.48 -0.024 -2.787 -0.072 -5.454 -0.204 -10.367 -0.216 -14.896 0 -16.518 -1.358 -0.132 -5.491 0.168 -8.891 0.409 -3.761 0.264 -7.641 0.552 -9.864 0.48 -2.703 -0.084 -7.714 -1.549 -13.012 -3.087 -5.19 -1.514 -10.561 -3.075 -14.274 -3.52 -9.744 -1.165 -13.3 -0.649 -13.865 -0.156 -0.48 0.468 -0.733 4.024 -0.54 7.772a0.667 0.667 0 0 1 -0.625 0.697 0.667 0.667 0 0 1 -0.697 -0.625c-0.12 -2.294 -0.252 -7.748 0.997 -8.829 1.622 -1.406 8.987 -0.865 14.887 -0.156 3.82 0.456 9.239 2.03 14.477 3.556 5.227 1.525 10.153 2.955 12.688 3.039 2.151 0.072 5.995 -0.204 9.72 -0.481 8.494 -0.612 9.84 -0.6 10.284 0.096a0.73 0.73 0 0 1 0.024 0.781c-0.312 0.961 -0.108 11.088 0 16.53 0.061 2.919 0.097 5.022 0.073 5.55a0.67 0.67 0 0 1 -0.661 0.625z"
            fill="#010101" />
        <path
            d="M98.425 308.195c-6.632 0 -16.052 -0.577 -18.515 -1.262 -0.625 -0.168 -0.95 -0.36 -1.117 -0.66 -0.781 -1.394 -1.562 -18.152 0.096 -19.87 1.574 -1.634 22.347 -0.697 25.687 0.661 0.577 0.228 0.865 0.564 0.865 0.985 0 0.997 0.132 2.883 0.289 5.069 0.684 9.443 0.756 13.779 -0.625 14.56 -0.637 0.361 -3.292 0.517 -6.68 0.517m-18.515 -2.643c2.018 1.045 22.708 1.898 24.546 0.985 0.853 -0.877 0.24 -9.286 -0.048 -13.323 -0.144 -2.042 -0.276 -3.832 -0.288 -4.913 -2.355 -1.213 -22.336 -2.018 -24.294 -0.961 -0.937 1.454 -0.601 16.326 0.072 18.212z"
            fill="#010101" />
        <path
            d="M121 309.252c-0.817 0 -1.718 -0.168 -2.511 -0.312 -0.793 -0.145 -1.55 -0.277 -2.054 -0.265 -1.634 0.072 -2.379 -3.616 -3.136 -15.797 -0.072 -1.261 -0.132 -2.246 -0.18 -2.595 -0.169 -1.297 1.189 -2.51 2.619 -3.027 1.682 -0.613 3.965 -0.493 5.346 1.682 0.769 1.213 2.704 16.806 2.319 18.752 -0.24 1.226 -1.237 1.562 -2.415 1.574zm-4.445 -1.898c0.625 0 1.382 0.144 2.187 0.288 1.826 0.336 3.244 0.541 3.388 -0.216 0.36 -1.826 -1.586 -16.566 -2.151 -17.803 -1.213 -1.874 -3.184 -1.346 -3.773 -1.13 -1.165 0.421 -1.814 1.226 -1.766 1.61 0.048 0.397 0.108 1.358 0.193 2.691 0.204 3.328 0.817 13.371 1.874 14.56z"
            fill="#010101" />
        <path
            d="M143.492 308.075c-0.397 0 -0.745 -0.084 -1.033 -0.229 -0.325 -0.18 -0.733 -0.54 -0.865 -1.285 -0.073 -0.433 -0.145 -1.814 -0.265 -4.421 -0.18 -3.856 -0.589 -12.529 -1.201 -14.548 -2.571 0.373 -2.896 -0.12 -2.98 -0.612 -0.048 -0.289 0 -0.697 0.841 -1.49 0.24 -0.228 2.451 -2.246 4.337 -1.79 1.707 0.421 4.302 1.045 4.626 3.051 0.036 0.193 1.73 19.546 -0.817 20.627 -1.081 0.468 -1.946 0.697 -2.631 0.697zm-2.98 -21.876c0.204 0 0.409 0.096 0.541 0.276 0.781 1.093 1.165 6.319 1.598 15.605 0.096 2.09 0.18 3.892 0.24 4.253 0.048 0.264 0.156 0.324 0.192 0.348 0.169 0.096 0.757 0.228 2.463 -0.492 1.106 -1.442 0.481 -16.807 0.084 -19.233 -0.18 -1.142 -2.258 -1.646 -3.628 -1.982 -0.889 -0.217 -2.271 0.696 -3.04 1.393 0.421 -0.024 0.937 -0.084 1.43 -0.168h0.12"
            fill="#010101" />
        <path
            d="M120.544 289.947a0.67 0.67 0 0 1 -0.661 -0.577 0.66 0.66 0 0 1 0.577 -0.733l19.968 -2.426a0.66 0.66 0 0 1 0.156 1.309l-19.968 2.427h-0.084z"
            fill="#010101" />
        <path
            d="M113.779 290.86h-0.072l-8.975 -0.913a0.659 0.659 0 0 1 0.133 -1.309l8.975 0.912a0.66 0.66 0 0 1 0.588 0.721 0.663 0.663 0 0 1 -0.661 0.589z"
            fill="#010101" />
        <path
            d="M115.426 307.005h-10.201c-0.36 0 -0.661 -0.3 -0.661 -0.66s0.301 -0.661 0.661 -0.661h10.201c0.36 0 0.66 0.3 0.66 0.661 0 0.36 -0.3 0.66 -0.66 0.66"
            fill="#010101" />
        <path
            d="M122.767 308.219a0.67 0.67 0 0 1 -0.661 -0.625 0.66 0.66 0 0 1 0.624 -0.697l19.476 -1.105a0.667 0.667 0 0 1 0.697 0.625 0.65 0.65 0 0 1 -0.625 0.697l-19.475 1.105z"
            fill="#010101" />
        <path
            d="M146.448 306.189a0.67 0.67 0 0 1 -0.589 -0.361 0.656 0.656 0 0 1 0.276 -0.889c0.156 -0.084 0.493 -0.24 0.961 -0.456 6.536 -3.076 10.189 -5.322 10.85 -6.668a0.65 0.65 0 0 1 0.877 -0.3 0.65 0.65 0 0 1 0.3 0.877c-1.057 2.174 -6.692 5.046 -11.474 7.292 -0.445 0.204 -0.757 0.36 -0.913 0.432a0.7 0.7 0 0 1 -0.301 0.073z"
            fill="#010101" />
        <path
            d="M146.027 286.872a0.655 0.655 0 0 1 -0.637 -0.505 0.655 0.655 0 0 1 0.481 -0.793c9.527 -2.306 12.135 -6.475 12.159 -6.523a0.663 0.663 0 0 1 0.901 -0.228 0.65 0.65 0 0 1 0.228 0.901c-0.108 0.192 -2.847 4.673 -12.988 7.136a0.7 0.7 0 0 1 -0.156 0.024z"
            fill="#010101" />
        <path
            d="M79.093 305.48h-0.048l-7.99 -0.505a0.62 0.62 0 0 1 -0.469 -0.24 0.65 0.65 0 0 1 -0.144 -0.505l2.391 -17.443a0.61 0.61 0 0 1 0.277 -0.444c0.144 -0.108 0.336 -0.144 0.516 -0.108 1.91 0.384 5.179 1.069 5.587 1.261a0.68 0.68 0 0 1 0.324 0.877c-0.156 0.325 -0.54 0.469 -0.865 0.325 -0.3 -0.109 -2.463 -0.589 -4.613 -1.034l-2.199 16.038 7.281 0.468c0.36 0.024 0.637 0.337 0.613 0.697a0.66 0.66 0 0 1 -0.661 0.613"
            fill="#010101" />
        <path
            d="M68.328 307.017c-0.18 0 -0.36 0 -0.553 -0.012 -1.862 -0.108 -2.895 -0.432 -3.472 -1.069 -0.6 -0.672 -0.54 -1.525 -0.48 -2.426 0 -0.169 0.023 -0.349 0.035 -0.541 0.049 -1.261 1.166 -7.064 2.415 -13.419 0.433 -2.234 0.841 -4.336 0.877 -4.613 0.048 -0.492 0.205 -1.802 6.5 -1.285 1.106 0.096 1.658 0.613 1.923 1.021 0.709 1.105 0.216 2.583 0.156 2.751a0.655 0.655 0 0 1 -0.841 0.397 0.656 0.656 0 0 1 -0.397 -0.841c0.097 -0.265 0.289 -1.118 -0.024 -1.586 -0.06 -0.096 -0.24 -0.372 -0.925 -0.421 -3.124 -0.252 -4.734 -0.012 -5.094 0.217 -0.072 0.468 -0.36 1.97 -0.877 4.613 -0.925 4.757 -2.33 11.953 -2.391 13.226 0 0.192 -0.024 0.385 -0.036 0.565 -0.048 0.769 -0.072 1.213 0.156 1.465 0.3 0.337 1.154 0.553 2.56 0.637 1.213 0.072 2.078 -0.12 2.438 -0.541 0.265 -0.3 0.18 -0.672 0.18 -0.684a0.68 0.68 0 0 1 0.493 -0.793 0.66 0.66 0 0 1 0.793 0.468c0.024 0.096 0.24 1.021 -0.432 1.838q-0.865 1.045 -2.992 1.045z"
            fill="#010101" />
        <path
            d="M67.45 287.52s-0.096 0 -0.156 -0.024l-3.003 -0.709a0.66 0.66 0 0 1 -0.493 -0.792 0.66 0.66 0 0 1 0.793 -0.493l3.004 0.709c0.36 0.084 0.576 0.444 0.492 0.793a0.664 0.664 0 0 1 -0.636 0.504z"
            fill="#010101" />
        <path
            d="M64.507 303.642H64.4l-4.073 -0.661a0.655 0.655 0 0 1 -0.54 -0.757c0.06 -0.36 0.396 -0.6 0.756 -0.54l4.073 0.66c0.36 0.06 0.601 0.397 0.54 0.757a0.66 0.66 0 0 1 -0.648 0.553z"
            fill="#010101" />
        <path
            d="M191.815 322.526a0.67 0.67 0 0 1 -0.564 -0.312 0.67 0.67 0 0 1 0.204 -0.913c0.42 -0.264 10.357 -6.475 13.877 -7.7 0.961 -0.325 0.865 -0.829 0.829 -1.046 -0.252 -1.417 -2.812 -3.363 -4.914 -3.303 -3.22 0.084 -11.57 4.012 -13.841 5.526a0.659 0.659 0 0 1 -0.733 -1.093c2.091 -1.394 10.861 -5.646 14.538 -5.743 2.583 -0.036 5.863 2.235 6.248 4.397 0.204 1.153 -0.409 2.078 -1.695 2.523 -3.388 1.165 -13.504 7.508 -13.612 7.568a0.6 0.6 0 0 1 -0.349 0.096z"
            fill="#010101" />
        <path
            d="M209.152 347.814c-5.154 0 -24.714 -1.91 -25.603 -2.006a0.66 0.66 0 0 1 -0.589 -0.721 0.653 0.653 0 0 1 0.721 -0.589c8.074 0.793 23.946 2.223 26.24 1.97 0.685 -0.072 0.733 -0.408 0.757 -0.564 0.169 -1.142 -1.477 -3.616 -4.073 -4.697 -3.652 -1.514 -15.355 -2.439 -15.475 -2.451a0.67 0.67 0 0 1 -0.612 -0.709 0.66 0.66 0 0 1 0.708 -0.612c0.493 0.036 12.027 0.949 15.872 2.546 2.835 1.178 5.154 4.085 4.866 6.103 -0.132 0.949 -0.829 1.574 -1.922 1.694a9 9 0 0 1 -0.914 0.036z"
            fill="#010101" />
        <path
            d="M145.462 339.897c-2.15 0 -4.373 -0.552 -5.346 -1.273 -1.057 -0.781 -1.142 -2.727 -1.238 -4.962 -0.072 -1.681 -0.144 -3.423 -0.636 -4.601q-0.451 -1.116 0.036 -1.946c0.793 -1.357 3.292 -1.658 6.439 -2.03a68 68 0 0 0 2.944 -0.384c0.577 -0.084 1.682 0 2.499 1.585 1.586 3.064 1.43 10.524 -0.252 12.29 -0.937 0.961 -2.667 1.345 -4.446 1.345zm2.535 -13.923h-0.12c-1.021 0.156 -2.018 0.276 -2.991 0.396 -2.451 0.289 -4.998 0.601 -5.467 1.394 -0.036 0.072 -0.156 0.276 0.048 0.781 0.577 1.393 0.649 3.255 0.733 5.057 0.072 1.586 0.156 3.556 0.709 3.965 1.297 0.973 6.584 1.597 8.062 0.072 1.093 -1.13 1.514 -7.917 0.036 -10.764 -0.409 -0.793 -0.793 -0.901 -0.997 -0.901z"
            fill="#010101" />
        <path
            d="M132.162 332.942a0.65 0.65 0 0 1 -0.409 -0.145c-0.108 -0.096 -2.787 -2.318 -2.787 -7.46 0 -3.556 4.157 -4.853 6.909 -5.706 0.865 -0.276 2.042 -0.637 2.33 -0.901 -0.18 -1.165 -1.549 -2.871 -2.078 -3.448a0.665 0.665 0 0 1 0.036 -0.937 0.676 0.676 0 0 1 0.937 0.036c0.228 0.253 2.247 2.487 2.427 4.301 0.12 1.153 -1.298 1.586 -3.256 2.198 -2.523 0.781 -5.971 1.863 -5.971 4.445 0 4.469 2.21 6.367 2.307 6.439a0.65 0.65 0 0 1 0.084 0.925 0.68 0.68 0 0 1 -0.505 0.241z"
            fill="#010101" />
        <path
            d="M118.297 339.489a0.666 0.666 0 0 1 -0.529 -1.069c0.048 -0.073 1.322 -1.682 4.542 -4.662 2.703 -2.498 3.761 -1.898 4.962 -0.78 0.264 0.252 0.541 0.504 0.865 0.696 0.421 0.253 0.673 0.649 0.685 1.106 0.048 1.537 -2.775 3.604 -3.64 4.204a0.657 0.657 0 0 1 -0.745 -1.081c1.634 -1.129 3.123 -2.631 3.063 -3.075 -0.492 -0.277 -0.829 -0.601 -1.129 -0.877 -0.793 -0.733 -1.153 -1.069 -3.172 0.781 -3.124 2.883 -4.385 4.48 -4.397 4.492a0.65 0.65 0 0 1 -0.517 0.253z"
            fill="#010101" />
        <path
            d="M116.134 339.489a0.667 0.667 0 0 1 -0.66 -0.661v-5.49h-5.515v2.811c0 0.36 -0.301 0.661 -0.661 0.661a0.67 0.67 0 0 1 -0.661 -0.661v-3.472c0 -0.36 0.301 -0.66 0.661 -0.66h6.836c0.361 0 0.661 0.3 0.661 0.66v6.151c0 0.36 -0.3 0.661 -0.661 0.661"
            fill="#010101" />
        <path
            d="M122.766 334.912a0.67 0.67 0 0 1 -0.456 -0.18l-4.061 -3.905a0.664 0.664 0 0 1 -0.024 -0.937 0.675 0.675 0 0 1 0.937 -0.024l4.061 3.905a0.664 0.664 0 0 1 0.024 0.937 0.67 0.67 0 0 1 -0.481 0.204"
            fill="#010101" />
        <path
            d="M127.813 334.912a0.64 0.64 0 0 1 -0.529 -0.265l-3.232 -4.228a0.665 0.665 0 0 1 0.12 -0.925 0.665 0.665 0 0 1 0.925 0.12l3.232 4.229a0.663 0.663 0 0 1 -0.12 0.925 0.63 0.63 0 0 1 -0.396 0.132z"
            fill="#010101" />
        <path
            d="M142.315 353.051a0.7 0.7 0 0 1 -0.397 -0.132l-1.826 -1.357a0.64 0.64 0 0 1 -0.252 -0.649 0.67 0.67 0 0 1 0.456 -0.516c1.081 -0.325 2.679 -1.118 2.884 -1.85 0.024 -0.085 0.096 -0.337 -0.325 -0.781 -1.622 -1.718 -2.343 -1.97 -2.427 -2.007a0.67 0.67 0 0 1 -0.6 -0.636c0 -0.361 0.276 -0.673 0.636 -0.673 0.385 0 1.334 0.288 3.34 2.415 0.757 0.805 0.769 1.549 0.637 2.03 -0.288 1.105 -1.598 1.886 -2.607 2.33l0.853 0.637a0.665 0.665 0 0 1 0.132 0.925 0.64 0.64 0 0 1 -0.528 0.264z"
            fill="#010101" />
        <path
            d="M109.743 350.156s-0.109 0 -0.169 -0.024c-6.139 -1.645 -6.8 -2.39 -7.112 -4.132 -0.024 -0.132 -0.048 -0.264 -0.084 -0.421 -0.265 -1.093 0.396 -4.192 1.477 -8.481l0.277 -1.117c0 -0.168 0.084 -0.324 0.216 -0.445a0.665 0.665 0 0 1 0.937 0.036q0.252 0.277 -0.132 1.851c-0.421 1.693 -1.718 6.847 -1.466 7.856 0.036 0.168 0.072 0.336 0.096 0.493 0.168 0.949 0.277 1.525 6.164 3.099a0.66 0.66 0 0 1 -0.168 1.297z"
            fill="#010101" />
        <path
            d="M104.877 332.077h-0.024a0.667 0.667 0 0 1 -0.637 -0.685c0.012 -0.372 0 -1.129 -0.036 -2.018 -0.144 -4.229 -0.108 -6.091 0.516 -6.692 0.949 -0.913 21.23 -9.406 33.545 -6.511l0.517 0.121c1.802 0.396 6.032 1.345 8.086 2.919a0.65 0.65 0 0 1 0.228 0.336c0.036 0.096 0.805 2.463 3.352 3.388 2.668 0.973 5.431 0.252 5.455 0.252a0.656 0.656 0 0 1 0.805 0.469 0.65 0.65 0 0 1 -0.468 0.804c-0.133 0.036 -3.184 0.841 -6.248 -0.288 -2.715 -0.997 -3.797 -3.303 -4.085 -4.024 -1.898 -1.334 -5.755 -2.199 -7.425 -2.571l-0.529 -0.12c-11.534 -2.715 -30.601 5.045 -32.32 6.163 -0.312 0.672 -0.192 4.06 -0.132 5.694 0.036 0.949 0.06 1.694 0.036 2.114a0.66 0.66 0 0 1 -0.66 0.637z"
            fill="#010101" />
        <path
            d="M44.515 470.827a0.67 0.67 0 0 1 -0.601 -0.372c-2.019 -4.169 -3.112 -22.693 -4.265 -42.298 -0.841 -14.247 -1.718 -28.987 -2.932 -36.291 -2.163 -13.011 -0.216 -61.507 0.95 -79.01 0.36 -5.394 0.648 -9.647 0.732 -12.181 0 -0.361 0.325 -0.649 0.685 -0.637a0.66 0.66 0 0 1 0.637 0.685c-0.084 2.546 -0.373 6.811 -0.733 12.217 -1.166 17.443 -3.112 65.855 -0.973 78.697 1.225 7.364 2.102 22.14 2.943 36.424 1.106 18.62 2.247 37.865 4.145 41.805a0.652 0.652 0 0 1 -0.6 0.937z"
            fill="#010101" />
        <path
            d="M37.33 478.996a0.65 0.65 0 0 1 -0.601 -0.396c-0.925 -2.09 0.42 -8.481 2.56 -10.283 0.828 -0.697 1.753 -0.769 2.618 -0.193 2.8 1.862 19.248 6.055 25.604 5.827a0.674 0.674 0 0 1 0.685 0.636 0.66 0.66 0 0 1 -0.637 0.685c-6.68 0.276 -23.405 -4.06 -26.385 -6.054 -0.264 -0.181 -0.576 -0.289 -1.033 0.108 -1.754 1.489 -2.847 7.28 -2.21 8.733a0.67 0.67 0 0 1 -0.601 0.937"
            fill="#010101" />
        <path
            d="M44.587 522.327c-4.242 0 -9.696 -0.6 -17.05 -2.258 -7.208 -1.622 -11.125 -3.748 -13.095 -7.088 -2.643 -4.469 -1.526 -11.124 0.973 -19.725 4.794 -16.542 13.108 -16.182 24.618 -15.665 0.745 0.036 1.502 0.072 2.283 0.096 13.288 0.516 15.643 20.77 15.727 21.623a0.68 0.68 0 0 1 -0.588 0.733 0.67 0.67 0 0 1 -0.733 -0.589c-0.025 -0.204 -2.32 -19.977 -14.466 -20.446 -0.781 -0.024 -1.55 -0.06 -2.295 -0.096 -11.714 -0.516 -18.779 -0.829 -23.284 14.716 -2.872 9.923 -3.184 15.161 -1.106 18.692 1.766 3.004 5.43 4.938 12.255 6.475 17.986 4.061 24.306 1.694 29.388 -0.216 1.742 -0.648 3.388 -1.273 5.287 -1.525 2.63 -0.361 4.24 -1.754 6.464 -3.676 3.436 -2.968 8.146 -7.028 19.728 -9.407 0.3 -0.06 0.54 -0.252 0.745 -0.588 1.922 -3.052 -0.433 -14.704 -1.49 -18.945a0.67 0.67 0 0 1 0.48 -0.805 0.67 0.67 0 0 1 0.805 0.481c0.409 1.61 3.905 15.881 1.334 19.965 -0.408 0.649 -0.95 1.046 -1.598 1.178 -11.246 2.306 -15.8 6.235 -19.127 9.106 -2.307 1.994 -4.121 3.568 -7.15 3.976 -1.753 0.24 -3.255 0.805 -4.997 1.454 -3.148 1.177 -6.752 2.522 -13.084 2.522z"
            fill="#010101" />
        <path
            d="M66.97 488.535c-5.419 0 -10.164 -0.361 -12.76 -0.565l-0.396 -0.036a0.662 0.662 0 1 1 0.096 -1.322l0.396 0.036c6.392 0.493 25.844 1.983 35.973 -3.459 1.922 -1.033 1.874 -5.118 -0.132 -12.157 -0.085 -0.277 -0.145 -0.505 -0.193 -0.685l-0.288 0.18c-1.153 0.757 -3.568 2.318 -8.879 3.472a0.65 0.65 0 0 1 -0.781 -0.505 0.65 0.65 0 0 1 0.505 -0.781c5.07 -1.105 7.34 -2.582 8.434 -3.291 0.637 -0.409 1.045 -0.685 1.55 -0.493 0.492 0.192 0.637 0.733 0.72 1.057 0.049 0.169 0.109 0.397 0.193 0.685 0.901 3.184 3.316 11.629 -0.517 13.683 -6.26 3.364 -15.847 4.169 -23.933 4.169z"
            fill="#010101" />
        <path
            d="M90.58 470.827a0.666 0.666 0 0 1 -0.662 -0.612c-0.024 -0.313 -2.246 -31.559 4.554 -67.357a0.665 0.665 0 0 1 0.769 -0.529c0.36 0.072 0.589 0.408 0.528 0.769 -6.764 35.642 -4.553 66.708 -4.53 67.021a0.66 0.66 0 0 1 -0.612 0.708z"
            fill="#010101" />
        <path
            d="M118.165 502.374q-0.739 0 -1.226 -0.397c-0.889 -0.697 -0.949 -2.126 -1.033 -4.084 -0.12 -2.631 -0.276 -6.247 -2.307 -10.295 -1.742 -3.496 -2.222 -4.998 -1.874 -5.983 0.252 -0.721 0.877 -0.997 1.478 -1.273 0.709 -0.325 1.514 -0.685 2.235 -1.838 -0.565 -2.992 -6.176 -32.135 -11.306 -48.185 -5.443 -16.998 -18.227 -71.381 -27.67 -82.746 -6.14 -7.388 -7.161 -26.861 -1.947 -37.216a0.66 0.66 0 0 1 1.178 0.601c-4.926 9.79 -3.977 28.855 1.778 35.787 9.576 11.52 22.444 66.095 27.91 83.19 5.419 16.926 11.33 48.28 11.39 48.593a0.75 0.75 0 0 1 -0.072 0.456c-0.973 1.67 -2.163 2.211 -2.956 2.583 -0.456 0.204 -0.708 0.336 -0.78 0.517 -0.253 0.696 0.913 3.159 1.802 4.949 2.15 4.313 2.331 8.229 2.451 10.824 0.072 1.501 0.12 2.787 0.54 3.111 0.145 0.12 0.433 0.144 0.829 0.06 1.13 -0.216 2.043 -2.294 3.1 -4.709 2.031 -4.625 4.818 -10.956 12.315 -13.827 11.655 -4.469 28.992 -1.91 29.725 -1.79a0.663 0.663 0 0 1 -0.204 1.31c-0.181 -0.025 -17.722 -2.619 -29.052 1.717 -6.981 2.679 -9.636 8.71 -11.582 13.131 -1.262 2.859 -2.259 5.129 -4.061 5.466a3.4 3.4 0 0 1 -0.661 0.072z"
            fill="#010101" />
        <path
            d="M163.797 523c-5.142 0 -10.994 -0.757 -17.53 -2.643 -4.012 -1.165 -6.283 -3.712 -8.902 -6.655 -3.725 -4.193 -7.954 -8.95 -18.803 -11.388a0.654 0.654 0 0 1 -0.493 -0.793 0.653 0.653 0 0 1 0.793 -0.493c11.258 2.547 15.823 7.676 19.488 11.809 2.487 2.799 4.637 5.214 8.278 6.271 24.546 7.1 40.381 -2.391 42.844 -7.544 1.394 -2.908 2.548 -11.305 -0.925 -18.488 -2.751 -5.707 -7.749 -9.431 -14.85 -11.065 -19.764 -4.552 -29.148 16.747 -29.232 16.963a0.657 0.657 0 0 1 -0.865 0.348 0.657 0.657 0 0 1 -0.348 -0.865c0.096 -0.228 9.912 -22.524 30.745 -17.731 7.51 1.73 12.808 5.694 15.74 11.773 3.881 8.037 2.259 16.854 0.925 19.641 -1.718 3.592 -10.909 10.896 -26.865 10.896z"
            fill="#010101" />
        <path
            d="M167.978 481.327a0.665 0.665 0 0 1 -0.661 -0.589c0 -0.096 -1.021 -9.754 -1.285 -12.025 -2.031 -1.261 -24.787 -1.406 -37.871 6.427a0.65 0.65 0 0 1 -0.901 -0.228 0.65 0.65 0 0 1 0.228 -0.901c12.399 -7.424 35.504 -8.241 39.096 -6.487 0.445 0.216 0.697 0.516 0.745 0.877 0.24 1.958 1.298 12.097 1.31 12.193a0.66 0.66 0 0 1 -0.589 0.721h-0.072z"
            fill="#010101" />
        <path
            d="M159.736 468.064c-0.36 0 -0.661 -0.3 -0.661 -0.66v-0.697c0.096 -11.953 0.048 -40.592 -2.439 -48.269a0.654 0.654 0 0 1 0.421 -0.828 0.655 0.655 0 0 1 0.829 0.42c2.547 7.857 2.607 36.664 2.511 48.677v0.685c0 0.36 -0.301 0.66 -0.661 0.66z"
            fill="#010101" />
        <path
            d="M155.098 447.486h-0.06a0.65 0.65 0 0 1 -0.601 -0.709c0.229 -2.751 5.539 -86.554 8.567 -94.627a0.662 0.662 0 0 1 1.237 0.469c-2.967 7.893 -8.434 93.594 -8.494 94.266a0.65 0.65 0 0 1 -0.661 0.601z"
            fill="#010101" />
        <path
            d="M137.785 459.739a0.65 0.65 0 0 1 -0.649 -0.552c-3.424 -21.263 -12.447 -96.105 -13.156 -98.015a0.635 0.635 0 0 1 0.3 -0.865 0.676 0.676 0 0 1 0.889 0.313c0.745 1.501 11.174 85.412 13.265 98.363a0.663 0.663 0 0 1 -0.553 0.756h-0.108z"
            fill="#010101" />
        <path
            d="M55.292 453.144a0.65 0.65 0 0 1 -0.649 -0.576c-1.358 -10.896 -3.532 -116.371 -2.379 -128.804a0.68 0.68 0 0 1 0.721 -0.601c0.36 0.036 0.625 0.36 0.6 0.721 -1.153 12.409 1.022 117.656 2.368 128.527a0.653 0.653 0 0 1 -0.577 0.733z"
            fill="#010101" />
        <path
            d="M161.105 513.281c-2.775 0 -5.61 -0.24 -8.434 -0.816 -4.974 -1.01 -6.728 -2.199 -12.555 -6.163a545 545 0 0 0 -5.996 -4.036c-9.443 -6.235 -11.39 -4.902 -11.498 -4.806a0.653 0.653 0 0 1 -0.841 0.265c-0.336 -0.145 -0.48 -0.541 -0.336 -0.877 0.06 -0.133 0.3 -0.565 1.057 -0.793 2.103 -0.613 6.368 1.153 12.339 5.105a422 422 0 0 1 6.02 4.049c5.803 3.952 7.353 5.009 12.062 5.97 15.487 3.136 31.395 -3.94 36.633 -6.271 1.718 -0.768 1.863 -0.829 2.223 -0.612 0.18 0.108 0.312 0.312 0.324 0.528a0.66 0.66 0 0 1 -0.612 0.709h-0.06c-0.229 0.084 -0.769 0.324 -1.346 0.577 -4.385 1.946 -16.124 7.171 -29.004 7.171z"
            fill="#010101" />
        <path
            d="M40.009 512.477c-11.246 0 -23.128 -1.766 -26.625 -10.224a0.66 0.66 0 0 1 0.36 -0.864 0.66 0.66 0 0 1 0.866 0.36c4.59 11.1 26.552 9.646 38.339 8.866 1.586 -0.109 3.028 -0.205 4.253 -0.253 5.359 -0.252 7.954 -2.583 10.945 -5.273 2.68 -2.415 5.731 -5.154 11.222 -6.283 7.473 -1.538 10.742 -4.337 10.778 -4.361a0.65 0.65 0 0 1 0.925 0.06 0.65 0.65 0 0 1 -0.06 0.925c-0.145 0.12 -3.52 3.051 -11.378 4.661 -5.143 1.057 -7.918 3.556 -10.61 5.971 -3.051 2.751 -5.935 5.345 -11.774 5.61 -1.213 0.06 -2.643 0.156 -4.217 0.252 -3.809 0.252 -8.362 0.553 -13.024 0.553"
            fill="#010101" />
        <path
            d="M108.373 14.728s0.156 2.403 -1.935 4.385c-1.069 1.009 -3.724 1.79 -3.724 1.79h-7.63s3.689 1.898 5.707 2.126c2.019 0.228 8.603 0.913 9.853 -1.922s-2.271 -6.391 -2.271 -6.391z"
            fill="#97C138" />
        <path
            d="M101.741 9.442s-5.66 -2.438 -8.23 -2.318c-2.572 0.12 -5.695 0.288 -7.065 4.108s2.355 5.826 2.355 5.826 -0.289 -3.832 0.865 -5.79c1.153 -1.946 4.854 -2.222 4.854 -2.222l7.221 0.384z"
            fill="#536726" />
        <path
            d="M104.035 23.606c-6.127 0 -9.395 -2.643 -9.551 -2.763 -0.108 -0.084 -0.132 -0.24 -0.084 -0.36a0.28 0.28 0 0 1 0.324 -0.157c7.437 1.61 10.777 -0.336 12.279 -2.246 1.202 -1.526 1.202 -3.004 1.105 -3.196a0.3 0.3 0 0 1 0.072 -0.396c0.121 -0.096 0.301 -0.072 0.409 0.048 0.144 0.156 3.388 3.88 2.391 6.535 -0.481 1.273 -1.838 2.066 -4.037 2.342a23 23 0 0 1 -2.908 0.193m-7.87 -2.415c1.803 0.949 5.443 2.307 10.706 1.634 1.958 -0.252 3.16 -0.913 3.556 -1.97 0.637 -1.694 -0.841 -4.049 -1.706 -5.226 -0.096 0.697 -0.408 1.622 -1.009 2.475 -1.178 1.706 -4.217 4.264 -11.546 3.075z"
            fill="#010101" />
        <path
            d="M88.8 17.359s-0.107 -0.012 -0.155 -0.048c-0.096 -0.06 -2.427 -1.598 -2.692 -4.037 -0.168 -1.477 0.457 -2.955 1.839 -4.384 4.541 -4.673 14.297 0.228 14.706 0.432a0.31 0.31 0 0 1 0.144 0.373 0.28 0.28 0 0 1 -0.349 0.18c-0.084 -0.024 -8.074 -2.09 -11.63 1.105 -1.454 1.297 -1.97 3.34 -1.562 6.043a0.3 0.3 0 0 1 -0.132 0.288 0.26 0.26 0 0 1 -0.156 0.048zm4.446 -9.875c-1.91 0 -3.736 0.469 -5.046 1.814 -1.261 1.297 -1.826 2.607 -1.682 3.892 0.168 1.478 1.225 2.607 1.886 3.184 -0.252 -2.559 0.373 -4.53 1.839 -5.85 2.439 -2.187 6.632 -2.115 9.407 -1.754 -1.742 -0.625 -4.133 -1.298 -6.416 -1.298z"
            fill="#010101" />
        <path
            d="M95.385 16.89c-0.156 0 -0.469 -0.036 -1.202 -0.144a9 9 0 0 0 -0.54 -0.072 0.45 0.45 0 0 1 -0.337 -0.204c-0.168 -0.276 -0.024 -0.66 0.12 -1.081 0.025 -0.084 0.073 -0.18 0.097 -0.265a3.8 3.8 0 0 0 -1.034 -0.096c-0.024 0.06 -0.048 0.168 -0.06 0.24 -0.084 0.349 -0.24 0.998 -0.84 0.89l-0.241 -0.037c-0.577 -0.084 -1.117 -0.168 -1.202 -0.612 -0.096 -0.517 2.247 -3.46 2.632 -3.76 0.06 -0.048 0.12 -0.06 0.192 -0.06 0.108 0 1.081 0.048 1.526 0.18 0.733 0.228 1.273 4.577 1.273 4.625 0 0.192 -0.06 0.312 -0.204 0.372a0.5 0.5 0 0 1 -0.156 0.024zm-1.562 -0.793c0.12 0.012 0.276 0.037 0.445 0.06 0.252 0.037 0.624 0.085 0.877 0.12 -0.109 -0.876 -0.613 -3.447 -0.89 -3.856 -0.3 -0.072 -0.889 -0.12 -1.201 -0.132 -0.565 0.529 -2.079 2.631 -2.307 3.136 0.108 0.036 0.457 0.084 0.673 0.12l0.252 0.036c0.06 -0.036 0.133 -0.312 0.157 -0.445 0.072 -0.288 0.144 -0.576 0.396 -0.648 0.288 -0.084 1.274 -0.036 1.646 0.168a0.41 0.41 0 0 1 0.228 0.264c0.048 0.168 -0.012 0.349 -0.132 0.685a4 4 0 0 0 -0.156 0.505z"
            fill="#010101" />
        <path
            d="M99.434 17.791c-0.733 0 -1.67 -0.312 -2.535 -0.624 -0.18 -0.06 -0.325 -0.12 -0.42 -0.145a0.63 0.63 0 0 1 -0.373 -0.336c-0.325 -0.673 0 -2.294 0.456 -3.412 0.637 -1.513 1.995 -1.26 3.184 -1.033l0.349 0.06c0.396 0.072 0.697 0.265 0.901 0.589 0.456 0.733 0.132 1.838 0.12 1.886 -0.036 0.144 -0.168 0.228 -0.324 0.216l-1.262 -0.144a0.25 0.25 0 0 1 -0.204 -0.12 0.3 0.3 0 0 1 -0.06 -0.228c0.024 -0.144 -0.012 -0.204 -0.024 -0.216 -0.108 -0.133 -0.48 -0.18 -0.685 -0.205 -0.18 0 -0.793 0.553 -0.925 1.093 -0.072 0.289 0.024 0.493 0.288 0.637q0.47 0.252 0.757 0.144c0.264 -0.108 0.36 -0.432 0.36 -0.432a0.3 0.3 0 0 1 0.145 -0.18c0.072 -0.036 0.156 -0.048 0.228 -0.012 1.249 0.432 1.285 0.528 1.334 0.648a0.33 0.33 0 0 1 0.024 0.157v0.06c0.108 0.805 -0.169 1.321 -0.817 1.537a1.6 1.6 0 0 1 -0.553 0.084zm-1.045 -5.13c-0.59 0 -0.998 0.205 -1.262 0.842 -0.577 1.37 -0.637 2.775 -0.456 2.967 0.084 0.012 0.24 0.072 0.432 0.144 0.673 0.24 2.079 0.745 2.703 0.54 0.421 -0.143 0.481 -0.444 0.421 -0.9a7 7 0 0 0 -0.721 -0.277c-0.108 0.18 -0.288 0.409 -0.577 0.529 -0.372 0.156 -0.793 0.096 -1.273 -0.168 -0.54 -0.3 -0.733 -0.817 -0.54 -1.43 0.215 -0.672 0.996 -1.465 1.525 -1.417 0.336 0.036 0.829 0.096 1.081 0.432a0.68 0.68 0 0 1 0.145 0.36l0.72 0.085c0.06 -0.337 0.084 -0.853 -0.108 -1.166a0.68 0.68 0 0 0 -0.492 -0.312l-0.36 -0.06c-0.493 -0.096 -0.914 -0.168 -1.262 -0.168z"
            fill="#010101" />
        <path
            d="M104.372 18.26c-0.997 0 -2.763 -0.373 -2.932 -0.469 -0.264 -0.156 -0.3 -0.336 0.373 -3.676 0.12 -0.6 0.252 -1.225 0.252 -1.333 0 -0.156 0.132 -0.276 0.288 -0.276 0.253 0 2.548 0 3.088 1.225 0.192 0.456 0.108 0.793 0 1.009a1.3 1.3 0 0 1 -0.48 0.505q0.252 0.162 0.576 0.468c0.277 0.276 0.409 0.613 0.361 0.985 -0.072 0.66 -0.649 1.285 -0.937 1.478 -0.108 0.072 -0.325 0.096 -0.589 0.096zm-2.511 -0.937c0.553 0.156 2.511 0.432 2.811 0.336 0.144 -0.096 0.601 -0.576 0.649 -1.02a0.56 0.56 0 0 0 -0.192 -0.505c-0.601 -0.59 -0.901 -0.59 -0.913 -0.59a0.286 0.286 0 0 1 -0.325 -0.24c-0.036 -0.155 0.084 -0.312 0.241 -0.348 0.168 -0.036 0.636 -0.204 0.793 -0.504 0.072 -0.145 0.06 -0.3 -0.024 -0.493 -0.277 -0.649 -1.574 -0.829 -2.283 -0.865 -0.036 0.24 -0.12 0.613 -0.229 1.142 -0.192 0.925 -0.528 2.582 -0.54 3.087z"
            fill="#010101" />
        <path
            d="M93.955 14.163h-0.036l-1.225 -0.144c-0.097 0 -0.18 -0.072 -0.229 -0.156a0.28 0.28 0 0 1 0 -0.276l0.42 -0.77a0.31 0.31 0 0 1 0.301 -0.155l0.637 0.072a0.28 0.28 0 0 1 0.252 0.24l0.168 0.829a0.27 0.27 0 0 1 -0.072 0.264 0.3 0.3 0 0 1 -0.216 0.096m-0.745 -0.684 0.385 0.048 -0.048 -0.216 -0.229 -0.025 -0.108 0.205z"
            fill="#010101" />
        <path
            d="M103.327 14.836c-0.121 0 -0.241 -0.012 -0.361 -0.024a0.303 0.303 0 0 1 -0.264 -0.324l0.096 -0.781a0.305 0.305 0 0 1 0.252 -0.264c0.156 -0.024 0.709 -0.085 0.997 0.192 0.133 0.12 0.193 0.288 0.169 0.48a0.8 0.8 0 0 1 -0.277 0.553c-0.168 0.132 -0.384 0.18 -0.6 0.18zm0 -0.588c0.096 0 0.192 0 0.228 -0.049 0.036 -0.024 0.048 -0.096 0.06 -0.144 -0.024 -0.024 -0.132 -0.036 -0.264 -0.036z"
            fill="#010101" />
        <path
            d="M103.435 17.323c-0.289 0 -0.565 -0.048 -0.649 -0.072a0.31 0.31 0 0 1 -0.228 -0.289c0 -0.6 0.06 -0.973 0.156 -1.117a0.3 0.3 0 0 1 0.252 -0.132c0.084 0 0.889 0.012 1.262 0.409a0.67 0.67 0 0 1 0.204 0.528 0.61 0.61 0 0 1 -0.252 0.493c-0.205 0.156 -0.493 0.204 -0.757 0.204zm-0.277 -0.613c0.277 0.036 0.565 0.024 0.661 -0.06 0.024 -0.072 0.012 -0.108 -0.024 -0.144 -0.108 -0.108 -0.372 -0.18 -0.613 -0.204 -0.012 0.108 -0.024 0.252 -0.036 0.408z"
            fill="#010101" />
        <path
            d="M90.075 161.011c3.171 3.508 3.448 4.709 4.553 9.382 1.106 4.673 1.081 8.938 1.081 8.938l-1.778 1.297s0.77 -7.148 -1.31 -12.794c-1.333 -3.616 -3.748 -6.307 -3.748 -6.307l1.213 -0.516z"
            fill="#010101" />
    </g>
    <defs>
        <clipPath id="clip0_387_3434">
            <path width="212" height="523" fill="white" d="M0 0H212V523H0V0z" />
        </clipPath>
    </defs>
</svg>